<?xml version="1.0" standalone="no"?>
<!DOCTYPE svg PUBLIC "-//W3C//DTD SVG 1.1//EN" "http://www.w3.org/Graphics/SVG/1.1/DTD/svg11.dtd" >
<svg>
<metadata>
Created by FontForge 20090622 at Thu Mar 31 17:00:38 2016
 By deploy user
Copyright (c) 2001-2006 Peter Bilak (www.typotheque.com). All rights reserved.
</metadata>
<defs>
<font id="FedraSansPro-Light" horiz-adv-x="600" >
  <font-face 
    font-family="Fedra Sans Pro Light"
    font-weight="300"
    font-stretch="normal"
    units-per-em="1000"
    panose-1="2 11 3 4 4 0 0 2 0 4"
    ascent="780"
    descent="-220"
    x-height="546"
    cap-height="707"
    bbox="-316 -284 1300 951"
    underline-thickness="30"
    underline-position="-120"
    unicode-range="U+0020-U+FE69"
  />
<missing-glyph horiz-adv-x="712" 
d="M305 375v27h27v-27h-27zM380 525v27h27v-27h-27zM305 525v27h27v-27h-27zM230 525v27h27v-27h-27zM80 0v27h27v-27h-27zM155 0v27h27v-27h-27zM230 0v27h27v-27h-27zM305 0v27h27v-27h-27zM380 0v27h27v-27h-27zM80 75v27h27v-27h-27zM80 150v27h27v-27h-27zM80 225v27
h27v-27h-27zM80 300v27h27v-27h-27zM80 375v27h27v-27h-27zM80 450v27h27v-27h-27zM80 525v27h27v-27h-27zM80 600v27h27v-27h-27zM80 675v27h27v-27h-27zM155 675v27h27v-27h-27zM230 675v27h27v-27h-27zM305 675v27h27v-27h-27zM380 675v27h27v-27h-27zM455 675v27h27v-27
h-27zM530 675v27h27v-27h-27zM530 0v27h27v-27h-27zM455 0v27h27v-27h-27zM605 0v27h27v-27h-27zM605 675v27h27v-27h-27zM305 300v27h27v-27h-27zM305 150v27h27v-27h-27zM380 375v27h27v-27h-27zM455 375v27h27v-27h-27zM455 450v27h27v-27h-27zM455 525v27h27v-27h-27z
M605 600v27h27v-27h-27zM605 525v27h27v-27h-27zM605 375v27h27v-27h-27zM605 300v27h27v-27h-27zM605 150v27h27v-27h-27zM605 75v27h27v-27h-27zM605 225v27h27v-27h-27zM605 450v27h27v-27h-27z" />
    <glyph glyph-name="f_f" unicode="ff" horiz-adv-x="652" 
d="M100 -220v715h-80v51h80v55q0 175 222 175q77 0 170 -39q40 39 135 39q22 0 69.5 -8t55.5 -12l-10 -45q-66 14 -109 14q-71 0 -105 -30t-34 -95v-54h118v-51h-118v-715h-54v715h-284v-715h-56zM156 546h284v53q0 63 20 97q-26 11 -73.5 20t-85.5 9q-72 0 -108.5 -29
t-36.5 -96v-54z" />
    <glyph glyph-name="fi" unicode="fi" horiz-adv-x="601" 
d="M100 -220v715h-80v51h80v38q0 110 45 150.5t128 40.5q16 0 72 -3t86 -3q16 0 44 2l8 -43q-28 -10 -86 -10q-26 1 -69.5 4t-55.5 3q-66 0 -91.5 -35.5t-25.5 -107.5v-36h342v-546h-57v495h-285v-715h-55z" />
    <glyph glyph-name="fl" unicode="fl" horiz-adv-x="601" 
d="M100 -220v715h-80v51h80v35q0 192 173 192q16 0 72 -4t86 -4q8 0 34.5 2t31.5 2v-769h-57v718q-32 -2 -90 2.5t-78 4.5q-117 0 -117 -138v-41h119v-51h-119v-715h-55z" />
    <glyph glyph-name="f_f_i" unicode="ffi" horiz-adv-x="940" 
d="M100 -220v715h-80v51h80v55q0 51 17.5 86.5t48 54t64 26.5t74.5 8q91 0 187 -39q46 38 120 38q16 0 72 -3t86 -3q18 0 44 2l8 -43q-27 -10 -85 -10q-25 1 -69.5 4t-56.5 3q-66 0 -90.5 -39.5t-24.5 -113.5v-26h339v-546h-56v495h-283v-715h-55v715h-283v-715h-57z
M157 546h282v28q0 78 22 123q-26 9 -78.5 18.5t-81.5 9.5q-72 0 -108 -29t-36 -96v-54z" />
    <glyph glyph-name="f_f_l" unicode="ffl" horiz-adv-x="928" 
d="M100 -220v715h-80v51h80v55q0 175 222 175q64 0 168 -39q41 38 119 38q16 0 72 -5t86 -5q9 0 29 2t24 2v-769h-56v719q-29 -1 -82 2.5t-73 3.5q-66 0 -91 -38.5t-25 -111.5v-29h117v-51h-117v-715h-55v715h-281v-715h-57zM157 546h281v28q0 76 21 122q-28 10 -76.5 19.5
t-81.5 9.5q-72 0 -108 -29t-36 -96v-54z" />
    <glyph glyph-name="f_h" unicode="fh" horiz-adv-x="963" 
d="M100 -220v715h-80v51h80v28q0 111 45 156t126 45q16 0 72 -5t87 -5q8 0 34.5 2t30.5 2v-283l31 22q32 21 45 27t46.5 15.5t69.5 9.5q46 0 78.5 -13.5t49.5 -33t27 -50t12 -53.5t2 -55v-355h-56v339q0 30 -2 52t-9.5 46t-20.5 38.5t-36 24.5t-55 10q-14 0 -29.5 -3.5
t-32 -10.5l-30.5 -13.5t-30 -16t-25 -15.5l-21.5 -14t-13.5 -9v-428h-56v719q-32 -2 -90 2t-78 4q-65 0 -90.5 -39.5t-25.5 -113.5v-26h117v-51h-117v-715h-55z" />
    <glyph glyph-name="f_b" unicode="fb" horiz-adv-x="929" 
d="M618 -9q-34 0 -63 2t-48.5 5.5t-31.5 6.5t-23 7t-12 4v702q-32 -2 -90 2.5t-78 4.5q-117 0 -117 -138v-41h119v-51h-119v-715h-55v715h-80v51h80v35q0 192 173 192q16 0 72 -4t86 -4q8 0 33.5 2t30.5 2v-715q54 -14 126 -14q92 0 141.5 66.5t49.5 168.5q0 48 -6 85
t-22.5 72.5t-51 55t-85.5 19.5q-31 0 -59 -7l-9 44q22 11 78 11q101 0 156.5 -69.5t55.5 -190.5q0 -158 -71 -231t-180 -73z" />
    <glyph glyph-name="f_j" unicode="fj" horiz-adv-x="601" 
d="M321 -220q-39 0 -60 9l10 46q7 -4 52 -4q65 0 89.5 38.5t24.5 110.5v134v381h-282v-705h-55v705h-80v51h80v28q0 111 45 156t126 45q16 0 72 -3t87 -3q16 0 44 2l7 -43q-27 -10 -86 -10q-25 1 -68.5 4t-55.5 3q-65 0 -90.5 -39.5t-25.5 -113.5v-26h339v-567
q0 -199 -173 -199z" />
    <glyph glyph-name="f_k" unicode="fk" horiz-adv-x="876" 
d="M100 -220v715h-80v51h80v28q0 111 45 156t126 45q16 0 72 -5t87 -5q8 0 34.5 2t30.5 2v-769h-56v719q-32 -2 -90 2t-78 4q-65 0 -90.5 -39.5t-25.5 -113.5v-26h117v-51h-117v-715h-55zM837 -10q-70 6 -146 100l-161 199l243 257h70l-242 -256l121 -151q35 -43 71 -70.5
t55 -34.5z" />
    <glyph glyph-name="f_f_j" unicode="ffj" horiz-adv-x="922" 
d="M660 -220q-28 0 -55 8l9 47q22 -6 48 -6q64 0 89.5 39.5t25.5 111.5v515h-282v-711h-55v711h-283v-711h-57v711h-80v51h80v55q0 51 17.5 86.5t48 54t64 26.5t74.5 8q91 0 187 -39q46 38 120 38q16 0 72 -3t86 -3q18 0 44 2l8 -43q-27 -10 -85 -10q-25 1 -69.5 4t-56.5 3
q-66 0 -90.5 -39.5t-24.5 -113.5v-26h339v-567q0 -199 -174 -199zM157 546h282v28q0 78 22 123q-26 9 -78.5 18.5t-81.5 9.5q-72 0 -108 -29t-36 -96v-54z" />
    <glyph glyph-name="aogonek_j" unicode="&#x105;j" horiz-adv-x="812" 
d="M491 -230q-70 0 -113 27.5t-43 85.5q0 71 93 124q-36 19 -39 59q-3 -2 -17 -13t-28.5 -19.5t-37 -19t-52.5 -16.5t-64 -6q-69 0 -107.5 39.5t-38.5 112.5q0 47 19 80.5t51.5 50.5t64.5 24.5t68 8.5l139 3v83q0 69 -33.5 92t-117.5 23q-48 0 -128 -25l-12 46
q17 8 63.5 18.5t98.5 10.5q183 0 183 -140v-320q0 -55 52 -60l-4 -39q-97 -57 -97 -114q0 -67 100 -67q83 0 123 41.5t40 142.5v543h57v-544q0 -112 -59 -172t-161 -60zM207 39q35 0 79 17t68 32t32 22v157l-144 -6q-69 -3 -106.5 -33.5t-37.5 -76.5q0 -60 27.5 -86
t81.5 -26zM683 661l-53 55l53 54l55 -54z" />
    <glyph glyph-name=".notdef" horiz-adv-x="712" 
d="M305 375v27h27v-27h-27zM380 525v27h27v-27h-27zM305 525v27h27v-27h-27zM230 525v27h27v-27h-27zM80 0v27h27v-27h-27zM155 0v27h27v-27h-27zM230 0v27h27v-27h-27zM305 0v27h27v-27h-27zM380 0v27h27v-27h-27zM80 75v27h27v-27h-27zM80 150v27h27v-27h-27zM80 225v27
h27v-27h-27zM80 300v27h27v-27h-27zM80 375v27h27v-27h-27zM80 450v27h27v-27h-27zM80 525v27h27v-27h-27zM80 600v27h27v-27h-27zM80 675v27h27v-27h-27zM155 675v27h27v-27h-27zM230 675v27h27v-27h-27zM305 675v27h27v-27h-27zM380 675v27h27v-27h-27zM455 675v27h27v-27
h-27zM530 675v27h27v-27h-27zM530 0v27h27v-27h-27zM455 0v27h27v-27h-27zM605 0v27h27v-27h-27zM605 675v27h27v-27h-27zM305 300v27h27v-27h-27zM305 150v27h27v-27h-27zM380 375v27h27v-27h-27zM455 375v27h27v-27h-27zM455 450v27h27v-27h-27zM455 525v27h27v-27h-27z
M605 600v27h27v-27h-27zM605 525v27h27v-27h-27zM605 375v27h27v-27h-27zM605 300v27h27v-27h-27zM605 150v27h27v-27h-27zM605 75v27h27v-27h-27zM605 225v27h27v-27h-27zM605 450v27h27v-27h-27z" />
    <glyph glyph-name=".null" horiz-adv-x="0" 
 />
    <glyph glyph-name="nonmarkingreturn" horiz-adv-x="333" 
 />
    <glyph glyph-name="space" unicode=" " horiz-adv-x="200" 
 />
    <glyph glyph-name="exclam" unicode="!" horiz-adv-x="271" 
d="M102 159l-3 126v422h55v-422l-2 -126h-50zM92 0v71h69v-71h-69z" />
    <glyph glyph-name="quotedbl" unicode="&#x22;" horiz-adv-x="309" 
d="M53 515l-3 238h51l-5 -238h-43zM211 515l-3 238h51l-5 -238h-43z" />
    <glyph glyph-name="numbersign" unicode="#" horiz-adv-x="577" 
d="M131 0l9 164h-90v50h92l8 141h-100v50h103l8 162h53l-8 -162h183l8 162h53l-8 -162h85v-50h-88l-8 -141h96v-50h-98l-9 -164h-53l9 164h-183l-9 -164h-53zM195 214h183l8 141h-183z" />
    <glyph glyph-name="dollar" unicode="$" horiz-adv-x="523" 
d="M222 -99l1 95q-96 4 -167 39l21 50q92 -37 167 -37q146 0 146 97q0 24 -19 44.5t-36.5 29.5t-46.5 21q-9 4 -32.5 13t-35.5 14t-33.5 15.5t-33 19t-27 22t-23.5 27t-14 31.5t-6 38q0 56 37.5 88t102.5 41l-1 91h59l-2 -89q82 -1 149 -29l-18 -46q-82 25 -140 25
q-130 0 -130 -80q0 -19 9 -35t27 -29t31.5 -20t34.5 -17q10 -5 40.5 -17.5l47.5 -20t42.5 -22.5t39 -29t24.5 -35.5t11 -45.5q0 -140 -168 -153l3 -96h-60z" />
    <glyph glyph-name="percent" unicode="%" horiz-adv-x="752" 
d="M187 396q-64 0 -103 37.5t-39 115.5t42 121.5t103 43.5q144 0 144 -157q0 -74 -42 -117.5t-105 -43.5zM187 440q45 0 71.5 31.5t26.5 85.5q0 53 -23.5 84.5t-71.5 31.5q-42 0 -68 -32t-26 -92q0 -109 91 -109zM560 -8q-64 0 -103 37.5t-39 115.5t42 121.5t103 43.5
q144 0 144 -157q0 -74 -42 -117.5t-105 -43.5zM560 36q45 0 71.5 31.5t26.5 85.5q0 53 -23.5 84.5t-71.5 31.5q-42 0 -68 -32t-26 -92q0 -109 91 -109zM120 64l-31 34l521 532l31 -33z" />
    <glyph glyph-name="ampersand" unicode="&#x26;" horiz-adv-x="673" 
d="M250 -7q-74 0 -127 38t-53 127q0 52 18 93t41.5 65.5t69.5 62.5q-33 89 -33 175q0 67 37.5 110t111.5 43q65 0 96.5 -36t31.5 -92q0 -30 -11.5 -56.5t-34.5 -49t-42.5 -37.5t-52.5 -36t-47 -32q58 -141 180.5 -230t257.5 -94l-4 -47q-126 0 -243 72q-35 -28 -54 -40.5
t-56.5 -24t-85.5 -11.5zM262 41q67 0 143 55q-125 93 -190 235q-47 -40 -70 -78t-23 -90q0 -122 140 -122zM239 413q8 6 43.5 30.5t54 39.5t37.5 41.5t19 51.5q0 39 -23 62.5t-59 23.5q-47 0 -71 -27.5t-24 -71.5q0 -73 23 -150z" />
    <glyph glyph-name="quotesingle" unicode="'" horiz-adv-x="151" 
d="M53 515l-3 238h51l-5 -238h-43z" />
    <glyph glyph-name="parenleft" unicode="(" horiz-adv-x="331" 
d="M268 -221l-22.5 19.5t-50 59t-63 100t-50 142t-22.5 185.5q0 71 11.5 136t30 112t40.5 88t44 67.5t40.5 45t29.5 26.5l12 9l33 -39q-7 -5 -19.5 -16t-44.5 -50.5t-56 -86.5t-44 -125.5t-20 -165.5q0 -88 19 -168.5t46 -132.5t54 -91.5t46 -57.5l19 -18z" />
    <glyph glyph-name="parenright" unicode=")" horiz-adv-x="331" 
d="M63 -221l-33 39q8 6 20 18.5t44 56t56.5 93.5t44.5 131t20 169q0 87 -19 165t-46 127t-54 85t-46 51l-19 16l33 39l22 -17t50 -53.5t63 -93t49.5 -137t22.5 -183.5t-21.5 -184.5t-52 -143.5t-61 -98.5t-52.5 -60.5z" />
    <glyph glyph-name="asterisk" unicode="*" horiz-adv-x="421" 
d="M72 471l-29 51l101 46l18 -32zM144 601l-101 46l30 51l90 -64zM180 409l12 111h37l10 -111h-59zM193 650l-12 112h59l-10 -112h-37zM347 472l-90 63l20 33l100 -44zM276 603l-19 31l91 65l30 -50z" />
    <glyph glyph-name="plus" unicode="+" 
d="M266 56v221h-219v50h219v228h53v-228h233v-50h-233v-221h-53z" />
    <glyph glyph-name="comma" unicode="," horiz-adv-x="300" 
d="M101 -122q2 5 9 25t11 38t4 37v84h58v-26q0 -84 -35 -158h-47z" />
    <glyph glyph-name="hyphen" unicode="-" horiz-adv-x="358" 
d="M30 261v51h298v-51h-298z" />
    <glyph glyph-name="hyphen" unicode="&#xad;" horiz-adv-x="358" 
d="M30 261v51h298v-51h-298z" />
    <glyph glyph-name="period" unicode="." horiz-adv-x="300" 
d="M118 0v71h69v-71h-69z" />
    <glyph glyph-name="slash" unicode="/" horiz-adv-x="366" 
d="M40 -62l233 831h53l-232 -831h-54z" />
    <glyph glyph-name="zero" unicode="0" horiz-adv-x="698" 
d="M349 -12q-126 0 -206 72.5t-80 212.5t80 213.5t206 73.5q125 0 205.5 -75t80.5 -212q0 -140 -80 -212.5t-206 -72.5zM349 39q99 0 163.5 62t64.5 172q0 107 -65 172t-163 65q-101 0 -164 -59.5t-63 -177.5q0 -108 64.5 -171t162.5 -63z" />
    <glyph glyph-name="one" unicode="1" horiz-adv-x="339" 
d="M161 0v511h-141v43l199 6v-560h-58z" />
    <glyph glyph-name="two" unicode="2" horiz-adv-x="476" 
d="M38 0v46l62.5 52.5t83 73l73 71.5t63 78.5t21.5 64.5q0 67 -30 94.5t-89 27.5q-38 0 -76 -13t-57 -26l-25 42q21 17 65.5 33t96.5 16q91 0 132 -46.5t41 -122.5q0 -111 -215 -287l-67 -54h308v-50h-387z" />
    <glyph glyph-name="three" unicode="3" horiz-adv-x="486" 
d="M210 -166q-109 0 -179 29l17 47q70 -27 152 -27q28 0 49 2t45.5 10.5t40.5 22t26.5 39t10.5 60.5q0 61 -46.5 105t-115.5 58q-12 2 -36 4v47q22 2 33 5q54 16 94 60.5t40 94.5q0 63 -38.5 91t-95.5 28q-30 0 -59.5 -6t-43.5 -12l-14 -5l-19 42q65 30 140 30
q84 0 133 -43.5t49 -121.5q0 -66 -45 -116.5t-96 -62.5q26 -6 54 -20.5t56 -37t46 -57.5t18 -75q0 -96 -58.5 -143.5t-157.5 -47.5z" />
    <glyph glyph-name="four" unicode="4" horiz-adv-x="543" 
d="M338 -161v189h-315v55l277 463h95v-465h129v-53h-129v-189h-57zM82 81h256v430z" />
    <glyph glyph-name="five" unicode="5" horiz-adv-x="513" 
d="M233 -169q-97 0 -163 21l14 54q69 -20 149 -20q73 0 120 40t47 110q0 88 -45.5 127t-120.5 39q-53 0 -139 -10v354h339v-51h-286v-246q53 6 101 6q95 0 151.5 -56t56.5 -151q0 -104 -61 -160.5t-163 -56.5z" />
    <glyph glyph-name="six" unicode="6" horiz-adv-x="552" 
d="M287 -12q-55 0 -94.5 14.5t-69.5 49.5t-44.5 97t-14.5 153q0 200 80.5 306.5t213.5 106.5q56 0 87 -11l-11 -49q-28 8 -76 8q-58 0 -102.5 -24t-69.5 -60t-41 -87t-21 -97.5t-5 -98.5q0 -130 37 -194t138 -64q69 0 108.5 50t39.5 124q0 81 -42 122.5t-111 41.5
q-23 0 -68 -7l-7 50q41 9 83 9q100 0 150 -58t50 -148q0 -113 -56.5 -173.5t-153.5 -60.5z" />
    <glyph glyph-name="seven" unicode="7" horiz-adv-x="419" 
d="M108 -168l-51 22l302 640h-359v52h415v-57z" />
    <glyph glyph-name="eight" unicode="8" horiz-adv-x="553" 
d="M274 -12q-100 0 -159 47.5t-59 123.5q0 50 27 92t59 65.5t85 53.5q-67 41 -104.5 84t-37.5 102q0 73 53 117t147 44q89 0 137 -47t48 -109q0 -61 -38.5 -104.5t-108.5 -85.5q41 -23 66 -40t53 -42t41.5 -55t13.5 -65q0 -83 -59 -132t-164 -49zM280 37q73 0 115.5 33
t42.5 103q0 27 -12.5 51t-40 46.5t-50 37t-62.5 37.5q-77 -44 -118 -84.5t-41 -96.5q0 -61 45.5 -94t120.5 -33zM277 395q66 36 102 72.5t36 85.5q0 50 -31.5 83.5t-98.5 33.5q-69 0 -107 -31t-38 -85q0 -48 36 -85t101 -74z" />
    <glyph glyph-name="nine" unicode="9" horiz-adv-x="559" 
d="M186 -165q-42 0 -79 11l12 50q35 -9 67 -9q50 0 89.5 11.5t65.5 29t44.5 47.5t28.5 58t15.5 71t6.5 74.5t1 79.5q0 97 -43 173t-128 76q-70 0 -109 -47t-39 -119q0 -99 40 -140t112 -41q32 0 72 8l10 -49q-47 -11 -97 -11q-94 0 -144.5 59t-50.5 166q0 108 58.5 167.5
t154.5 59.5q100 0 161.5 -83t61.5 -232q0 -153 -35.5 -244.5t-101.5 -128.5t-173 -37z" />
    <glyph glyph-name="colon" unicode=":" horiz-adv-x="300" 
d="M115 0v71h70v-71h-70zM115 475v71h70v-71h-70z" />
    <glyph glyph-name="semicolon" unicode=";" horiz-adv-x="300" 
d="M101 -122q24 86 24 128v56h58v-26q0 -84 -35 -158h-47zM115 475v71h70v-71h-70z" />
    <glyph glyph-name="less" unicode="&#x3c;" 
d="M481 69l-398 189v91l398 189v-57l-370 -178l370 -177v-57z" />
    <glyph glyph-name="equal" unicode="=" 
d="M47 180v50h505v-50h-505zM47 379v50h505v-50h-505z" />
    <glyph glyph-name="greater" unicode="&#x3e;" 
d="M83 69v57l370 177l-370 178v57l398 -189v-91z" />
    <glyph glyph-name="question" unicode="?" horiz-adv-x="383" 
d="M128 158q-10 40 -10 67q0 46 25 87.5t54.5 67.5t54.5 59.5t25 65.5q0 68 -57.5 107.5t-129.5 46.5l12 50q93 -8 162 -58t69 -140q0 -34 -16.5 -66.5t-40.5 -58l-47.5 -50t-40 -53t-16.5 -57.5q0 -8 1 -20t3 -24t2 -15zM122 0v71h69v-71h-69z" />
    <glyph glyph-name="at" unicode="@" horiz-adv-x="776" 
d="M357 -70q-146 0 -221.5 89.5t-75.5 243.5q0 118 31.5 207t87.5 142t126 79t153 26q120 0 189 -68.5t69 -213.5q0 -75 -20 -132t-52 -88.5t-68 -47t-73 -15.5q-74 0 -68 69q-20 -23 -58 -42.5t-63 -19.5q-43 0 -66 27.5t-23 94.5q0 103 52 163t139 60q54 0 96 -21
l-28 -238q-5 -48 18 -48q29 0 54 9.5t50 33.5t40 73.5t15 119.5q0 234 -206 234q-69 0 -126.5 -20t-106.5 -64t-76.5 -122.5t-27.5 -186.5q0 -155 63.5 -222.5t185.5 -67.5q74 0 146 18l12 -47q-61 -25 -168 -25zM321 208q29 0 63 22t52 44l21 178q-26 6 -43 6
q-70 0 -104 -47.5t-34 -125.5q0 -47 10.5 -62t34.5 -15z" />
    <glyph glyph-name="A" unicode="A" horiz-adv-x="650" 
d="M14 0l284 707h82l260 -707h-64l-101 279h-290l-112 -279h-59zM205 330h252l-120 331z" />
    <glyph glyph-name="B" unicode="B" horiz-adv-x="640" 
d="M120 0v707h180q111 0 165 -46.5t54 -122.5q0 -105 -76 -151q-22 -13 -27 -11v-3l22 -3q82 -21 115 -91q17 -36 17 -82q0 -91 -58 -144t-182 -53h-210zM180 51h133q42 0 74 5.5t61.5 20t45 44t15.5 73.5q0 46 -15.5 75.5t-48.5 44t-71 19.5t-97 5h-97v-287zM180 390h118
q87 0 123.5 32.5t36.5 102.5q0 75 -44 105t-135 30h-99v-270z" />
    <glyph glyph-name="C" unicode="C" horiz-adv-x="639" 
d="M419 -12q-166 0 -262.5 101.5t-96.5 259.5q0 166 94.5 267t260.5 101q27 0 52.5 -1.5t45 -4.5t35.5 -6.5t28 -7.5l20 -6.5l14 -4.5l5 -3l-17 -51q-93 31 -181 31q-60 0 -111 -17t-93.5 -51.5t-66.5 -95t-24 -140.5q0 -161 89 -240t226 -79q83 0 166 27l16 -49
q-69 -30 -200 -30z" />
    <glyph glyph-name="D" unicode="D" horiz-adv-x="740" 
d="M120 0v707h173q173 0 280 -93t107 -258q0 -181 -100.5 -268.5t-280.5 -87.5h-179zM178 51h132q145 0 228.5 75t83.5 219q0 154 -90 232.5t-242 78.5h-112v-605z" />
    <glyph glyph-name="E" unicode="E" horiz-adv-x="571" 
d="M120 0v707h378v-49h-319v-277h297v-52h-297v-278h342v-51h-401z" />
    <glyph glyph-name="F" unicode="F" horiz-adv-x="545" 
d="M120 0v707h395v-49h-336v-297h314v-53h-314v-308h-59z" />
    <glyph glyph-name="G" unicode="G" horiz-adv-x="698" 
d="M419 -12q-168 0 -263.5 102.5t-95.5 258.5q0 164 94 266t259 102q123 0 202 -34l-18 -52q-2 1 -13 5t-17 6t-19 6t-25 6t-28.5 4.5t-36.5 3.5t-42 1q-60 0 -111 -17t-93 -52t-66 -95.5t-24 -139.5q0 -108 44 -181.5t113 -105.5t158 -32q62 0 132 17v290h59v-330
q-108 -29 -209 -29z" />
    <glyph glyph-name="H" unicode="H" horiz-adv-x="769" 
d="M120 0v707h59v-326h411v326h59v-707h-59v329h-411v-329h-59z" />
    <glyph glyph-name="I" unicode="I" horiz-adv-x="299" 
d="M120 0v707h59v-707h-59z" />
    <glyph glyph-name="J" unicode="J" horiz-adv-x="299" 
d="M3 -184l-28 44q85 47 115 114.5t30 176.5v556h59v-554q0 -128 -36 -207t-140 -130z" />
    <glyph glyph-name="K" unicode="K" horiz-adv-x="598" 
d="M518 0l-301 367v19l285 321h74l-295 -326l316 -381h-79zM120 0v707h59v-707h-59z" />
    <glyph glyph-name="L" unicode="L" horiz-adv-x="486" 
d="M120 0v707h59v-653h307v-54h-366z" />
    <glyph glyph-name="M" unicode="M" horiz-adv-x="944" 
d="M120 0v707h97l243 -685l269 685h95v-707h-59v571l3 94l-260 -665h-100l-234 662l5 -94v-568h-59z" />
    <glyph glyph-name="N" unicode="N" horiz-adv-x="778" 
d="M120 0v707h97l383 -678l-3 91v587h61v-707h-109l-374 669l4 -67v-602h-59z" />
    <glyph glyph-name="O" unicode="O" horiz-adv-x="815" 
d="M399 -12q-156 0 -247.5 102t-91.5 265q0 164 99 263t259 99t248.5 -102t88.5 -262q0 -163 -96.5 -264t-259.5 -101zM402 39q142 0 218 88t76 227q0 137 -77 224.5t-210 87.5q-138 0 -214.5 -87t-76.5 -223q0 -134 75 -225.5t209 -91.5z" />
    <glyph glyph-name="P" unicode="P" horiz-adv-x="576" 
d="M120 0v707h219q103 0 160 -55t57 -158q0 -99 -67 -161.5t-202 -62.5h-23v52h29q91 0 145.5 39.5t54.5 127.5q0 87 -43.5 128t-132.5 41h-137v-658h-60z" />
    <glyph glyph-name="Q" unicode="Q" horiz-adv-x="844" 
d="M784 -151q-8 0 -26 -0.5t-28 -0.5q-103 0 -183 31q-98 38 -154 38v50q67 0 145 -30q58 -22 98 -28t94 -6h54v-54zM399 -12q-156 0 -247.5 102t-91.5 265q0 164 99 263t259 99t248.5 -102t88.5 -262q0 -163 -96.5 -264t-259.5 -101zM402 39q142 0 218 88t76 227
q0 137 -77 224.5t-210 87.5q-138 0 -214.5 -87t-76.5 -223q0 -134 75 -225.5t209 -91.5z" />
    <glyph glyph-name="R" unicode="R" horiz-adv-x="689" 
d="M659 -10q-96 7 -154 93l-144 214q-29 -6 -74 -6h-107v-291h-60v707h219q101 0 159 -50t58 -151q0 -67 -33.5 -118.5t-104.5 -75.5l121 -178q49 -72 133 -97zM180 346h113q94 0 147 34t53 120q0 85 -44 121.5t-132 36.5h-137v-312z" />
    <glyph glyph-name="S" unicode="S" horiz-adv-x="543" 
d="M246 -12q-108 0 -186 41l22 51q81 -38 162 -38q32 0 61.5 6t58 20t45.5 41t17 64q0 53 -36 90.5t-87 61l-102 49t-87 70t-36 107.5q0 79 55.5 122t141.5 43q88 0 159 -31l-16 -46q-72 27 -142 27q-64 0 -104 -27t-40 -84q0 -41 26 -73.5t65 -52l84.5 -43.5t84.5 -48
t65 -65t26 -94q0 -94 -65.5 -142.5t-171.5 -48.5z" />
    <glyph glyph-name="T" unicode="T" horiz-adv-x="553" 
d="M247 0v654h-247v53h553v-53h-247v-654h-59z" />
    <glyph glyph-name="U" unicode="U" horiz-adv-x="762" 
d="M383 -12q-42 0 -79 6.5t-73.5 23.5t-62.5 44t-42 71t-16 102v472h61v-465q0 -201 212 -201q213 0 213 225v441h56v-445q0 -64 -17 -113.5t-43.5 -79t-63 -48.5t-72 -26t-73.5 -7z" />
    <glyph glyph-name="V" unicode="V" horiz-adv-x="626" 
d="M259 0l-259 707h66l238 -659l263 659h59l-281 -707h-86z" />
    <glyph glyph-name="W" unicode="W" horiz-adv-x="998" 
d="M218 0l-208 707h63l195 -672l200 498l-59 174h61l230 -673l230 673h58l-242 -707h-94l-157 457l-184 -457h-93z" />
    <glyph glyph-name="X" unicode="X" horiz-adv-x="583" 
d="M6 0l248 377l-202 330h67l170 -280l181 280h63l-213 -328l233 -379h-69l-199 329l-211 -329h-68z" />
    <glyph glyph-name="Y" unicode="Y" horiz-adv-x="531" 
d="M229 0v279l-223 428h65l190 -374l203 374h61l-237 -430v-277h-59z" />
    <glyph glyph-name="Z" unicode="Z" horiz-adv-x="529" 
d="M30 0v60l386 595h-360v52h422v-53l-389 -602h410v-52h-469z" />
    <glyph glyph-name="bracketleft" unicode="[" horiz-adv-x="346" 
d="M120 -220v974h156v-48h-100v-878h100v-48h-156z" />
    <glyph glyph-name="backslash" unicode="\" horiz-adv-x="366" 
d="M272 -62l-232 831h53l233 -831h-54z" />
    <glyph glyph-name="bracketright" unicode="]" horiz-adv-x="346" 
d="M70 -220v48h100v878h-100v48h156v-974h-156z" />
    <glyph glyph-name="asciicircum" unicode="^" horiz-adv-x="511" 
d="M60 294l159 413h86l146 -413h-66l-124 376l-140 -376h-61z" />
    <glyph glyph-name="underscore" unicode="_" horiz-adv-x="500" 
d="M0 -156v52h500v-52h-500z" />
    <glyph glyph-name="grave" unicode="`" horiz-adv-x="564" 
d="M359 623l-180 125l31 45l176 -132z" />
    <glyph glyph-name="a" unicode="a" horiz-adv-x="555" 
d="M190 -8q-69 0 -107.5 39.5t-38.5 112.5q0 47 19 80.5t51.5 50.5t64.5 24.5t68 8.5l139 3v83q0 69 -33.5 92t-117.5 23q-48 0 -128 -25l-12 46q17 8 63.5 18.5t98.5 10.5q183 0 183 -140v-320q0 -53 52 -60l-5 -45h-8q-33 0 -60 18.5t-30 53.5q-3 -2 -17 -13t-28.5 -19.5
t-37 -19t-52.5 -16.5t-64 -6zM207 39q35 0 79 17t68 32t32 22v157l-144 -6q-69 -3 -106.5 -33.5t-37.5 -76.5q0 -60 27.5 -86t81.5 -26z" />
    <glyph glyph-name="b" unicode="b" horiz-adv-x="589" 
d="M278 -9q-34 0 -63 2t-48.5 5.5t-31.5 6.5t-23 7t-12 4v738h55v-700q54 -14 126 -14q92 0 141.5 66.5t49.5 168.5q0 48 -6 85t-22.5 72.5t-51 55t-85.5 19.5q-31 0 -59 -7l-9 44q22 11 78 11q101 0 156.5 -69.5t55.5 -190.5q0 -158 -71 -231t-180 -73z" />
    <glyph glyph-name="c" unicode="c" horiz-adv-x="487" 
d="M327 -9q-139 0 -203 66.5t-64 214.5q0 133 66 210.5t178 77.5q88 0 142 -29l-19 -47q-64 28 -127 28q-85 0 -134 -63.5t-49 -172.5q0 -123 48.5 -178.5t169.5 -55.5q19 0 40.5 3t40 7t21.5 4l10 -47q-45 -18 -120 -18z" />
    <glyph glyph-name="d" unicode="d" horiz-adv-x="582" 
d="M284 -10q-224 0 -224 278q0 138 71 215t178 77q64 0 118 -16v210h55v-754h-55v56q-68 -66 -143 -66zM283 38q61 0 144 72v383q-56 20 -119 20q-97 0 -144 -73t-47 -175q0 -113 44 -170t122 -57z" />
    <glyph glyph-name="e" unicode="e" horiz-adv-x="529" 
d="M308 -12q-122 0 -185 63t-63 212q0 155 64 226t170 71q94 0 139.5 -66.5t45.5 -205.5v-20h-362q1 -72 17 -119t47.5 -70t66 -31.5t84.5 -8.5q27 0 70 8.5t59 14.5l11 -48q-6 -3 -24 -8.5t-57.5 -11.5t-82.5 -6zM117 314h303q0 95 -34.5 149t-103.5 54t-113 -52t-52 -151z
" />
    <glyph glyph-name="f" unicode="f" horiz-adv-x="326" 
d="M100 -220v715h-80v51h80v53q0 88 46 132t120 44q50 0 80 -10l-10 -48q-37 8 -70 8q-58 0 -84.5 -28.5t-26.5 -96.5v-54h117v-51h-117v-715h-55z" />
    <glyph glyph-name="g" unicode="g" horiz-adv-x="585" 
d="M271 -230q-96 0 -164 17l11 52q72 -18 137 -18q40 0 68 5.5t53.5 20.5t38 47t12.5 81v69q-57 -52 -134 -52q-37 0 -66.5 5.5t-61.5 23t-53.5 47.5t-35.5 81.5t-14 121.5q0 142 70 215.5t178 73.5q70 0 171 -19v-583q0 -93 -54.5 -140.5t-155.5 -47.5zM297 41q67 0 129 59
v400q-70 12 -117 12q-100 0 -146 -67.5t-46 -176.5q0 -119 44.5 -173t135.5 -54z" />
    <glyph glyph-name="h" unicode="h" horiz-adv-x="606" 
d="M100 0v754h55v-272q107 77 194 77q45 0 77.5 -14t49 -32.5t25.5 -49.5t10.5 -53t1.5 -55v-355h-51v339q0 87 -23.5 128.5t-100.5 41.5q-65 0 -183 -77v-432h-55z" />
    <glyph glyph-name="i" unicode="i" horiz-adv-x="257" 
d="M99 0v546h57v-546h-57zM126 661l-53 55l53 54l55 -54z" />
    <glyph glyph-name="j" unicode="j" horiz-adv-x="257" 
d="M-18 -224q-28 0 -55 8l9 47q22 -6 48 -6q64 0 89.5 39.5t25.5 111.5v570h57v-571q0 -199 -174 -199zM127 661l-53 55l53 54l55 -54z" />
    <glyph glyph-name="k" unicode="k" horiz-adv-x="539" 
d="M498 -7q-70 6 -146 100l-157 196l239 257h68l-241 -256l121 -151q36 -44 72.5 -71t59.5 -34zM100 0v754h55v-754h-55z" />
    <glyph glyph-name="l" unicode="l" horiz-adv-x="257" 
d="M100 0v754h55v-754h-55z" />
    <glyph glyph-name="m" unicode="m" horiz-adv-x="939" 
d="M100 0v546h55v-67q97 79 176 79q114 0 150 -80q30 23 52 37t63.5 28.5t82.5 14.5q45 0 77.5 -12.5t49.5 -31t27 -48t12.5 -54t2.5 -57.5v-355h-55v339q0 39 -4 65t-15.5 52t-37.5 39t-66 13q-75 0 -176 -75q7 -44 7 -78v-355h-54v339q0 31 -1.5 52t-8.5 45.5t-19.5 39
t-35.5 24.5t-56 10q-62 0 -171 -82v-428h-55z" />
    <glyph glyph-name="n" unicode="n" horiz-adv-x="607" 
d="M100 0v546h55v-64q38 26 58.5 38.5t59 26t76.5 13.5q45 0 77.5 -14t49.5 -33t26 -49.5t11 -53.5t2 -55v-355h-53v339q0 87 -23.5 129t-100.5 42q-14 0 -28 -2.5t-30 -8.5l-26.5 -10t-28 -14t-24 -14l-25.5 -16t-21 -13v-432h-55z" />
    <glyph glyph-name="o" unicode="o" horiz-adv-x="593" 
d="M295 -12q-110 0 -172.5 72.5t-62.5 206.5q0 139 67 216t174 77q115 0 173.5 -74t58.5 -213t-65.5 -212t-172.5 -73zM300 35q51 0 87 20.5t55 56.5t27 75.5t8 85.5q0 43 -8 82t-26.5 76.5t-55.5 59.5t-89 22q-51 0 -88 -22t-56.5 -59t-28 -76.5t-8.5 -83.5
q0 -47 9.5 -87.5t29.5 -75t57 -54.5t87 -20z" />
    <glyph glyph-name="p" unicode="p" horiz-adv-x="589" 
d="M100 -220v766h55v-46q86 58 157 58q103 0 160 -73t57 -198q0 -82 -20.5 -142t-56.5 -93t-79 -48t-95 -15q-65 0 -123 10v-219h-55zM281 38q92 0 141.5 62.5t49.5 162.5q0 50 -6.5 89.5t-23.5 77t-52 58.5t-86 21q-39 0 -83 -22t-66 -40v-396q2 0 25 -4.5t45.5 -6.5
t55.5 -2z" />
    <glyph glyph-name="q" unicode="q" horiz-adv-x="585" 
d="M427 -220v242q-63 -33 -142 -33q-225 0 -225 286q0 132 71.5 208.5t177.5 76.5q87 0 173 -28v-752h-55zM288 37q81 0 139 38v420q-74 17 -120 17q-99 0 -145.5 -69.5t-46.5 -170.5q0 -119 45.5 -177t127.5 -58z" />
    <glyph glyph-name="r" unicode="r" horiz-adv-x="376" 
d="M100 0v546h55v-73q20 36 62 60.5t98 24.5q34 0 61 -9l-11 -48q-30 7 -62 7q-89 0 -148 -98v-410h-55z" />
    <glyph glyph-name="s" unicode="s" horiz-adv-x="453" 
d="M206 -11q-77 0 -149 23l12 49q81 -25 133 -25q65 0 106.5 26t41.5 71q0 39 -28.5 66t-69 43.5l-80.5 34.5t-68.5 53t-28.5 86q0 68 48 106t127 38q49 0 119 -21l-11 -47q-68 20 -119 20q-52 0 -81.5 -26t-29.5 -66q0 -39 28 -66t68 -44l80.5 -35t68.5 -51.5t28 -82.5
q0 -43 -17.5 -74t-47 -47.5t-62 -23.5t-68.5 -7z" />
    <glyph glyph-name="t" unicode="t" horiz-adv-x="403" 
d="M293 -11q-46 0 -71 3.5t-52 18t-38.5 48t-11.5 88.5v347h-80v52h80v112h53v-112h172v-52h-171v-346q0 -67 23 -87.5t93 -20.5q29 0 77 16l14 -49q-47 -18 -88 -18z" />
    <glyph glyph-name="u" unicode="u" horiz-adv-x="603" 
d="M254 -12q-43 0 -73.5 14t-47 33.5t-25.5 50.5t-11 54.5t-2 54.5v351h55v-334q0 -28 1 -44.5t4 -39t10.5 -36t19.5 -26.5t32 -19t47 -6q13 0 28.5 3t28.5 7t29 11t27 12.5t25.5 13.5t21 12.5t17.5 11t12 7.5v427h52v-546h-52v66q-5 -3 -23.5 -15l-28.5 -18t-30 -16
t-35.5 -15.5t-37.5 -9.5t-44 -4z" />
    <glyph glyph-name="v" unicode="v" horiz-adv-x="495" 
d="M193 0l-173 546h62l120 -396l37 -118l41 121l137 393h56l-191 -546h-89z" />
    <glyph glyph-name="w" unicode="w" horiz-adv-x="870" 
d="M197 0l-177 546h58l160 -510l161 510h76l142 -510l178 510h55l-195 -546h-80l-122 426l-17 71l-19 -70l-140 -427h-80z" />
    <glyph glyph-name="x" unicode="x" horiz-adv-x="479" 
d="M21 0l187 279l-177 267h65l144 -223l143 223h62l-174 -264l187 -282h-68l-151 236l-153 -236h-65z" />
    <glyph glyph-name="y" unicode="y" horiz-adv-x="491" 
d="M149 -220l75 220h-31l-173 546h61l125 -408l32 -100l34 98l141 410h58l-267 -766h-55z" />
    <glyph glyph-name="z" unicode="z" horiz-adv-x="487" 
d="M40 0v57l340 437h-311v52h374v-53l-346 -441h350v-52h-407z" />
    <glyph glyph-name="braceleft" unicode="{" horiz-adv-x="338" 
d="M296 -219q-38 0 -66 4.5t-56 17t-43 40t-15 68.5q0 9 2 29l22 201q4 36 -22 70t-62 34v57q36 0 62 32.5t22 71.5l-22 210q-9 87 41.5 122.5t136.5 35.5h12v-48h-18q-67 0 -96 -25.5t-22 -87.5l20 -184q7 -65 -17.5 -104t-72.5 -49v-2q103 -33 90 -152l-20 -186
q-6 -57 24.5 -82.5t93.5 -25.5h18v-47h-12z" />
    <glyph glyph-name="bar" unicode="|" horiz-adv-x="256" 
d="M100 -220v974h55v-974h-55z" />
    <glyph glyph-name="braceright" unicode="}" horiz-adv-x="338" 
d="M35 -219v47h18q63 0 94 25.5t24 82.5l-20 186q-12 117 90 152v2q-48 10 -72.5 49t-17.5 104l20 184q7 62 -22 87t-96 25h-18v49h12q86 0 137 -35.5t41 -122.5l-22 -210q-4 -39 22 -71.5t62 -32.5v-57q-36 0 -62 -34t-22 -70l22 -201q2 -20 2 -29q0 -41 -15 -68.5t-43 -40
t-56 -17t-66 -4.5h-12z" />
    <glyph glyph-name="asciitilde" unicode="~" horiz-adv-x="505" 
d="M366 295q-55 0 -121.5 30t-104.5 30q-41 0 -93 -29l-27 43q59 43 126 43q53 0 114.5 -31t105.5 -31q41 0 87 33l32 -38q-55 -50 -119 -50z" />
    <glyph glyph-name="uni00A0" unicode="&#xa0;" horiz-adv-x="200" 
 />
    <glyph glyph-name="exclamdown" unicode="&#xa1;" horiz-adv-x="271" 
d="M99 -162v422l2 126h50l2 -126v-422h-54zM92 474v71h69v-71h-69z" />
    <glyph glyph-name="cent" unicode="&#xa2;" horiz-adv-x="486" 
d="M265 -41l3 75q-114 11 -159.5 73t-45.5 171q0 95 53.5 159.5t151.5 71.5l-3 81h64l-2 -80q26 -1 59 -11.5t45 -20.5l-18 -38q-52 24 -122 24q-80 0 -125.5 -46.5t-45.5 -142.5q0 -104 44.5 -149t158.5 -45q33 0 105 13l8 -45q-50 -14 -109 -17l3 -73h-65z" />
    <glyph glyph-name="sterling" unicode="&#xa3;" horiz-adv-x="453" 
d="M63 0v54q41 17 63 61.5t22 87.5h-100v51h101q1 21 0 55.5t-1 41.5q0 48 12.5 82.5t32 55t51.5 33t64 17t77 6.5l5 -49q-38 -3 -60.5 -6.5t-50.5 -13t-43 -24.5t-24.5 -41.5t-7.5 -63.5q1 -18 1 -44v-49h185v-51h-187q0 -47 -21 -88t-53 -65h296v-50h-362z" />
    <glyph glyph-name="currency" unicode="&#xa4;" horiz-adv-x="496" 
d="M73 144l-33 34l72 70q-33 42 -33 104q0 66 32 104l-71 71l33 32l70 -70q53 34 105 34q63 0 105 -32l69 70l34 -35l-70 -70q32 -35 32 -104t-34 -106l70 -70l-31 -34l-70 70q-51 -30 -105 -30q-60 0 -103 32zM248 229q60 0 91.5 34t31.5 89q1 54 -31.5 89t-91.5 35
t-91.5 -35t-32.5 -89q0 -53 33 -88t91 -35z" />
    <glyph glyph-name="yen" unicode="&#xa5;" horiz-adv-x="565" 
d="M523 546l-129 -235h131v-50h-159l-60 -110h219v-50h-219v-101h-58v101h-208v50h208v1l-56 109h-152v50h125l-123 235h64l173 -339l183 339h61z" />
    <glyph glyph-name="brokenbar" unicode="&#xa6;" horiz-adv-x="256" 
d="M100 -220v362h56v-362h-56zM100 392v361h56v-361h-56z" />
    <glyph glyph-name="section" unicode="&#xa7;" horiz-adv-x="468" 
d="M100 -57q-59 0 -111 39l25 52q52 -38 89 -38q30 0 43.5 27t13.5 60q0 30 -15 124l-8 48q-10 64 -10 100q0 121 56.5 183t163.5 62q78 0 137 -38l-23 -55q-68 39 -124 39q-50 0 -50 -75q0 -47 6 -72l17 -69q16 -67 16 -145q0 -104 -61 -173t-165 -69zM190 11q81 59 81 161
q0 51 -11 104l-17 81q-10 47 -10 101q0 49 14 77q-66 -40 -66 -154q0 -47 9 -92l15 -79q11 -55 11 -110q0 -22 -4.5 -39.5t-8 -24.5t-13.5 -25z" />
    <glyph glyph-name="dieresis" unicode="&#xa8;" horiz-adv-x="402" 
d="M98 669l-46 47l46 46l46 -46zM302 669l-46 47l46 46l47 -46z" />
    <glyph glyph-name="copyright" unicode="&#xa9;" horiz-adv-x="827" 
d="M441 73q-102 0 -157.5 57t-55.5 150q0 99 54 155.5t157 56.5q71 0 117 -27l-18 -39q-48 22 -98 22q-70 0 -116 -41t-46 -122q0 -82 49.5 -124.5t125.5 -42.5q37 0 93 17l15 -38q-58 -24 -120 -24zM405 -94q-161 0 -253 102t-92 267q0 167 100.5 266t263.5 99
q164 0 253.5 -102.5t89.5 -264.5q0 -166 -97 -266.5t-265 -100.5zM408 -44q148 0 225.5 88.5t77.5 229.5q0 139 -78.5 227.5t-217.5 88.5q-143 0 -220.5 -87.5t-77.5 -226.5q0 -87 31 -158t98.5 -116.5t161.5 -45.5z" />
    <glyph glyph-name="ordfeminine" unicode="&#xaa;" horiz-adv-x="414" 
d="M163 385q-42 0 -65 23.5t-23 67.5q0 93 118 95l76 2v42q0 36 -17.5 47.5t-62.5 11.5q-12 0 -25 -2.5t-28.5 -6.5t-24.5 -6l-10 37q44 19 101 19q110 0 110 -86v-175q0 -29 31 -29l-3 -38q-25 -2 -46.5 7.5t-24.5 32.5q-49 -42 -106 -42zM173 425q37 0 96 42v69l-74 -4
q-77 -3 -77 -52q0 -55 55 -55zM60 304v45h295v-45h-295z" />
    <glyph glyph-name="guillemotleft" unicode="&#xab;" horiz-adv-x="418" 
d="M151 54l-101 218l101 218l47 -17l-86 -201l85 -199zM317 54l-101 218l102 218l46 -17l-86 -201l85 -199z" />
    <glyph glyph-name="logicalnot" unicode="&#xac;" 
d="M459 119v158h-412v51h466v-209h-54z" />
    <glyph glyph-name="registered" unicode="&#xae;" horiz-adv-x="614" 
d="M534 532q0 -102 -63.5 -160t-161.5 -58q-41 0 -79.5 11.5t-73 35.5t-55.5 68t-21 103q0 103 64.5 162.5t163.5 59.5q93 0 159.5 -55t66.5 -167zM491 532q0 89 -53.5 135.5t-128.5 46.5q-80 0 -132 -44.5t-52 -133.5q0 -45 14 -79t34.5 -53t48 -31t49.5 -15.5t43 -3.5
q77 0 127 47t50 131zM427 450l-5 -29q-46 0 -70 27q-25 25 -53 70q-6 -1 -21 -1h-14v-91h-41v238h86q79 0 79 -72q0 -49 -46 -68q2 -3 9.5 -13.5l14.5 -19.5t14 -16t14 -11.5t18.5 -8.5zM349 590q0 23 -11 32.5t-38 9.5h-36v-83h31q54 0 54 41z" />
    <glyph glyph-name="macron" unicode="&#xaf;" horiz-adv-x="536" 
d="M120 675v48h291v-48h-291z" />
    <glyph glyph-name="macron" unicode="&#x2c9;" horiz-adv-x="536" 
d="M120 675v48h291v-48h-291z" />
    <glyph glyph-name="degree" unicode="&#xb0;" horiz-adv-x="320" 
d="M156 404q-74 0 -113 40t-39 118q0 68 43.5 111.5t112.5 43.5q73 0 114.5 -40.5t41.5 -114.5q0 -73 -43.5 -115.5t-116.5 -42.5zM159 446q50 0 77 30.5t27 85.5q0 52 -27.5 83t-76.5 31q-48 0 -75.5 -30.5t-27.5 -83.5q0 -56 28.5 -86t74.5 -30z" />
    <glyph glyph-name="plusminus" unicode="&#xb1;" 
d="M271 123v189h-189v52h189v190h57v-190h189v-52h-189v-189h-57zM82 0v52h435v-52h-435z" />
    <glyph glyph-name="twosuperior" unicode="&#xb2;" horiz-adv-x="307" 
d="M18 415v45l51.5 37.5t50 37l39 32.5t34.5 35.5t18.5 34t8.5 38.5q0 32 -19.5 49t-49.5 17q-58 0 -93 -37l-26 31q21 23 54.5 37t66.5 14q49 0 83.5 -27.5t34.5 -79.5q0 -17 -3 -33t-12 -31.5t-15 -27t-22.5 -26.5t-23.5 -22.5t-28 -22.5l-26.5 -19t-29 -19.5l-26.5 -17.5
h192v-45h-259z" />
    <glyph glyph-name="threesuperior" unicode="&#xb3;" horiz-adv-x="300" 
d="M135 410q-59 0 -104 16l12 41q51 -14 87 -14q93 0 93 60q0 40 -28 55t-88 20v36q99 9 99 70q0 24 -19.5 37t-49.5 13q-33 0 -69 -17l-15 33q45 26 94 26q45 0 77 -24t32 -61q0 -29 -17 -53.5t-49 -36.5q41 -7 63.5 -34t22.5 -60q0 -55 -41.5 -81t-99.5 -26z" />
    <glyph glyph-name="acute" unicode="&#xb4;" horiz-adv-x="564" 
d="M211 623l-26 39l175 130l32 -44z" />
    <glyph glyph-name="mu" unicode="&#xb5;" horiz-adv-x="624" 
d="M100 -220v766h55v-334q0 -34 1 -52.5t7 -44.5t17.5 -39.5t34 -23.5t54.5 -10q21 0 43.5 6t44 17.5l35.5 19.5t32 21t19 13v427h55v-444q0 -40 19.5 -53.5t62.5 -8.5v-46q-24 -4 -48 -4q-83 0 -88 76q-2 -1 -13.5 -10t-14.5 -11t-14 -10t-16 -10.5t-16.5 -9t-19 -9
t-19.5 -7t-22.5 -6t-23.5 -3t-26 -1.5q-64 0 -104 33v-242h-55z" />
    <glyph glyph-name="paragraph" unicode="&#xb6;" horiz-adv-x="582" 
d="M310 -220q-40 0 -58 9l11 51q30 -5 48 -5q65 0 90 37t25 107v728h56v-729q0 -110 -45.5 -154t-126.5 -44zM259 280q-229 0 -229 217q0 101 53 155.5t156 54.5h81v-427h-61z" />
    <glyph glyph-name="periodcentered" unicode="&#xb7;" horiz-adv-x="188" 
d="M93 293l-53 55l53 54l55 -54z" />
    <glyph glyph-name="cedilla" unicode="&#xb8;" horiz-adv-x="449" 
d="M198 -229l-18 31q54 33 54 79q0 25 -26 68h62q20 -32 20 -63q2 -75 -92 -115z" />
    <glyph glyph-name="onesuperior" unicode="&#xb9;" horiz-adv-x="256" 
d="M123 415v323h-93v42l146 4v-369h-53z" />
    <glyph glyph-name="ordmasculine" unicode="&#xba;" horiz-adv-x="414" 
d="M204 384q-67 0 -103 42.5t-36 120.5q0 80 39 125t104 45q142 0 142 -167q0 -80 -40.5 -123t-105.5 -43zM208 426q92 0 92 124q0 125 -93 125t-93 -126q0 -123 94 -123zM60 304v45h295v-45h-295z" />
    <glyph glyph-name="guillemotright" unicode="&#xbb;" horiz-adv-x="418" 
d="M96 54l-46 19l85 199l-86 201l47 17l101 -218zM262 54l-46 19l85 199l-86 201l47 17l101 -218z" />
    <glyph glyph-name="onequarter" unicode="&#xbc;" horiz-adv-x="714" 
d="M123 415v323h-93v42l146 4v-369h-53zM76 80l-34 34l522 533l32 -33zM566 0v91h-171v49l140 225h84v-231h65v-43h-65v-91h-53zM440 134h126v201z" />
    <glyph glyph-name="onehalf" unicode="&#xbd;" horiz-adv-x="698" 
d="M123 415v323h-93v42l146 4v-369h-53zM66 80l-34 34l522 533l32 -33zM409 0v45l51.5 37.5t50 37l39 32.5t34.5 35.5t18.5 34t8.5 38.5q0 32 -19.5 49t-49.5 17q-58 0 -93 -37l-26 31q21 23 54.5 37t66.5 14q49 0 83.5 -27.5t34.5 -79.5q0 -17 -3 -33t-12 -31.5t-15 -27
t-22.5 -26.5t-23.5 -22.5t-28 -22.5l-26.5 -19t-29 -19.5l-26.5 -17.5h192v-45h-259z" />
    <glyph glyph-name="threequarters" unicode="&#xbe;" horiz-adv-x="714" 
d="M135 410q-59 0 -104 16l12 41q51 -14 87 -14q93 0 93 60q0 40 -28 55t-88 20v36q99 9 99 70q0 24 -19.5 37t-49.5 13q-33 0 -69 -17l-15 33q45 26 94 26q45 0 77 -24t32 -61q0 -29 -17 -53.5t-49 -36.5q41 -7 63.5 -34t22.5 -60q0 -55 -41.5 -81t-99.5 -26zM86 80l-34 34
l522 533l32 -33zM566 0v91h-171v49l140 225h84v-231h65v-43h-65v-91h-53zM440 134h126v201z" />
    <glyph glyph-name="questiondown" unicode="&#xbf;" horiz-adv-x="383" 
d="M301 -164q-93 8 -162 58t-69 140q0 34 16.5 66.5t40 58l47.5 50t40.5 53t16.5 57.5q0 8 -1 20t-3 24t-2 15l50 9q10 -40 10 -67q0 -46 -25 -87.5t-54.5 -67.5t-54.5 -59.5t-25 -65.5q0 -68 57.5 -107.5t129.5 -46.5zM212 474v71h69v-71h-69z" />
    <glyph glyph-name="Agrave" unicode="&#xc0;" horiz-adv-x="650" 
d="M14 0l284 707h82l260 -707h-64l-101 279h-290l-112 -279h-59zM205 330h252l-120 331zM382 748l-211 69l21 55l208 -83z" />
    <glyph glyph-name="Aacute" unicode="&#xc1;" horiz-adv-x="650" 
d="M14 0l284 707h82l260 -707h-64l-101 279h-290l-112 -279h-59zM205 330h252l-120 331zM282 748l-17 41l207 83l22 -55z" />
    <glyph glyph-name="Acircumflex" unicode="&#xc2;" horiz-adv-x="650" 
d="M14 0l284 707h82l260 -707h-64l-101 279h-290l-112 -279h-59zM205 330h252l-120 331zM185 743l-20 42l178 73l166 -73l-19 -42l-148 61z" />
    <glyph glyph-name="Atilde" unicode="&#xc3;" horiz-adv-x="650" 
d="M14 0l284 707h82l260 -707h-64l-101 279h-290l-112 -279h-59zM205 330h252l-120 331zM397 754q-23 0 -62 18.5t-61 18.5q-35 0 -69 -24l-22 38l5 4l9.5 7.5t13 8t17.5 7.5t22.5 5.5t27.5 2.5q26 0 65 -18t58 -18q38 0 66 28l24 -36q-5 -6 -15 -14.5t-32.5 -18t-46.5 -9.5
z" />
    <glyph glyph-name="Adieresis" unicode="&#xc4;" horiz-adv-x="650" 
d="M14 0l284 707h82l260 -707h-64l-101 279h-290l-112 -279h-59zM205 330h252l-120 331zM234 750l-46 47l46 46l46 -46zM438 750l-46 47l46 46l47 -46z" />
    <glyph glyph-name="Aring" unicode="&#xc5;" horiz-adv-x="650" 
d="M14 0l274 682q-60 24 -60 91q0 48 32.5 76t77.5 28q43 0 77 -25.5t34 -76.5q0 -69 -60 -94l251 -681h-64l-101 279h-290l-112 -279h-59zM339 709q30 0 48.5 17.5t18.5 47.5q0 29 -20.5 47.5t-47.5 18.5q-30 0 -48.5 -17t-18.5 -47t19 -48.5t49 -18.5zM205 330h252
l-68 186l-52 145l-59 -148z" />
    <glyph glyph-name="AE" unicode="&#xc6;" horiz-adv-x="897" 
d="M0 0l387 707h436v-49h-319v-277h297v-52h-297v-278h343v-51h-402v329h-202l-177 -329h-66zM271 381h174v277h-25z" />
    <glyph glyph-name="Ccedilla" unicode="&#xc7;" horiz-adv-x="639" 
d="M419 -12q-166 0 -262.5 101.5t-96.5 259.5q0 166 94.5 267t260.5 101q27 0 52.5 -1.5t45 -4.5t35.5 -6.5t28 -7.5l20 -6.5l14 -4.5l5 -3l-17 -51q-93 31 -181 31q-60 0 -111 -17t-93.5 -51.5t-66.5 -95t-24 -140.5q0 -161 89 -240t226 -79q83 0 166 27l16 -49
q-69 -30 -200 -30zM369 -229l-18 31q54 33 54 79q0 25 -26 68h62q20 -32 20 -63q2 -75 -92 -115z" />
    <glyph glyph-name="Egrave" unicode="&#xc8;" horiz-adv-x="571" 
d="M120 0v707h378v-49h-319v-277h297v-52h-297v-278h342v-51h-401zM387 748l-211 69l21 55l208 -83z" />
    <glyph glyph-name="Eacute" unicode="&#xc9;" horiz-adv-x="571" 
d="M120 0v707h378v-49h-319v-277h297v-52h-297v-278h342v-51h-401zM252 748l-17 41l207 83l22 -55z" />
    <glyph glyph-name="Ecircumflex" unicode="&#xca;" horiz-adv-x="571" 
d="M120 0v707h378v-49h-319v-277h297v-52h-297v-278h342v-51h-401zM155 743l-20 42l178 73l166 -73l-19 -42l-148 61z" />
    <glyph glyph-name="Edieresis" unicode="&#xcb;" horiz-adv-x="571" 
d="M120 0v707h378v-49h-319v-277h297v-52h-297v-278h342v-51h-401zM211 750l-46 47l46 46l46 -46zM415 750l-46 47l46 46l47 -46z" />
    <glyph glyph-name="Igrave" unicode="&#xcc;" horiz-adv-x="299" 
d="M120 0v707h59v-707h-59zM184 748l-211 69l21 55l208 -83z" />
    <glyph glyph-name="Iacute" unicode="&#xcd;" horiz-adv-x="299" 
d="M120 0v707h59v-707h-59zM114 748l-17 41l207 83l22 -55z" />
    <glyph glyph-name="Icircumflex" unicode="&#xce;" horiz-adv-x="299" 
d="M120 0v707h59v-707h-59zM-3 743l-20 42l178 73l166 -73l-19 -42l-148 61z" />
    <glyph glyph-name="Idieresis" unicode="&#xcf;" horiz-adv-x="299" 
d="M120 0v707h59v-707h-59zM47 750l-46 47l46 46l46 -46zM251 750l-46 47l46 46l47 -46z" />
    <glyph glyph-name="Eth" unicode="&#xd0;" horiz-adv-x="749" 
d="M680 356q0 -181 -100.5 -268.5t-280.5 -87.5h-179v326h-82v53h82v328h173q173 0 280 -93t107 -258zM622 345q0 154 -90 232.5t-242 78.5h-112v-277h177v-53h-177v-275h132q145 0 228.5 75t83.5 219z" />
    <glyph glyph-name="Ntilde" unicode="&#xd1;" horiz-adv-x="778" 
d="M120 0v707h97l383 -678l-3 91v587h61v-707h-109l-374 669l4 -67v-602h-59zM449 754q-23 0 -62 18.5t-61 18.5q-35 0 -69 -24l-22 38l5 4l9.5 7.5t13 8t17.5 7.5t22.5 5.5t27.5 2.5q26 0 65 -18t58 -18q38 0 66 28l24 -36q-5 -6 -15 -14.5t-32.5 -18t-46.5 -9.5z" />
    <glyph glyph-name="Ograve" unicode="&#xd2;" horiz-adv-x="815" 
d="M399 -12q-156 0 -247.5 102t-91.5 265q0 164 99 263t259 99t248.5 -102t88.5 -262q0 -163 -96.5 -264t-259.5 -101zM402 39q142 0 218 88t76 227q0 137 -77 224.5t-210 87.5q-138 0 -214.5 -87t-76.5 -223q0 -134 75 -225.5t209 -91.5zM482 748l-211 69l21 55l208 -83z
" />
    <glyph glyph-name="Oacute" unicode="&#xd3;" horiz-adv-x="815" 
d="M399 -12q-156 0 -247.5 102t-91.5 265q0 164 99 263t259 99t248.5 -102t88.5 -262q0 -163 -96.5 -264t-259.5 -101zM402 39q142 0 218 88t76 227q0 137 -77 224.5t-210 87.5q-138 0 -214.5 -87t-76.5 -223q0 -134 75 -225.5t209 -91.5zM320 748l-17 41l207 83l22 -55z
" />
    <glyph glyph-name="Ocircumflex" unicode="&#xd4;" horiz-adv-x="815" 
d="M399 -12q-156 0 -247.5 102t-91.5 265q0 164 99 263t259 99t248.5 -102t88.5 -262q0 -163 -96.5 -264t-259.5 -101zM402 39q142 0 218 88t76 227q0 137 -77 224.5t-210 87.5q-138 0 -214.5 -87t-76.5 -223q0 -134 75 -225.5t209 -91.5zM255 743l-20 42l178 73l166 -73
l-19 -42l-148 61z" />
    <glyph glyph-name="Otilde" unicode="&#xd5;" horiz-adv-x="815" 
d="M399 -12q-156 0 -247.5 102t-91.5 265q0 164 99 263t259 99t248.5 -102t88.5 -262q0 -163 -96.5 -264t-259.5 -101zM402 39q142 0 218 88t76 227q0 137 -77 224.5t-210 87.5q-138 0 -214.5 -87t-76.5 -223q0 -134 75 -225.5t209 -91.5zM467 754q-23 0 -62 18.5t-61 18.5
q-35 0 -69 -24l-22 38l5 4l9.5 7.5t13 8t17.5 7.5t22.5 5.5t27.5 2.5q26 0 65 -18t58 -18q38 0 66 28l24 -36q-5 -6 -15 -14.5t-32.5 -18t-46.5 -9.5z" />
    <glyph glyph-name="Odieresis" unicode="&#xd6;" horiz-adv-x="815" 
d="M399 -12q-156 0 -247.5 102t-91.5 265q0 164 99 263t259 99t248.5 -102t88.5 -262q0 -163 -96.5 -264t-259.5 -101zM402 39q142 0 218 88t76 227q0 137 -77 224.5t-210 87.5q-138 0 -214.5 -87t-76.5 -223q0 -134 75 -225.5t209 -91.5zM301 750l-46 47l46 46l46 -46z
M505 750l-46 47l46 46l47 -46z" />
    <glyph glyph-name="multiply" unicode="&#xd7;" 
d="M483 86l-186 186l-178 -177l-37 37l177 178l-176 176l36 35l176 -176l182 182l38 -37l-183 -183l186 -186z" />
    <glyph glyph-name="Oslash" unicode="&#xd8;" horiz-adv-x="815" 
d="M66 -26l-30 31l100 103q-76 97 -76 247q0 164 99 263t259 99q138 0 228 -82l97 100l32 -29q1 -1 -98 -104q78 -98 78 -249q0 -163 -96.5 -264t-259.5 -101q-142 0 -234 87zM402 39q142 0 218 88t76 227q0 122 -61 204l-430 -441q76 -78 197 -78zM177 151l428 442
q-76 73 -196 73q-138 0 -214.5 -87t-76.5 -223q0 -120 59 -205z" />
    <glyph glyph-name="Ugrave" unicode="&#xd9;" horiz-adv-x="762" 
d="M383 -12q-42 0 -79 6.5t-73.5 23.5t-62.5 44t-42 71t-16 102v472h61v-465q0 -201 212 -201q213 0 213 225v441h56v-445q0 -64 -17 -113.5t-43.5 -79t-63 -48.5t-72 -26t-73.5 -7zM438 748l-211 69l21 55l208 -83z" />
    <glyph glyph-name="Uacute" unicode="&#xda;" horiz-adv-x="762" 
d="M383 -12q-42 0 -79 6.5t-73.5 23.5t-62.5 44t-42 71t-16 102v472h61v-465q0 -201 212 -201q213 0 213 225v441h56v-445q0 -64 -17 -113.5t-43.5 -79t-63 -48.5t-72 -26t-73.5 -7zM324 748l-17 41l207 83l22 -55z" />
    <glyph glyph-name="Ucircumflex" unicode="&#xdb;" horiz-adv-x="762" 
d="M383 -12q-42 0 -79 6.5t-73.5 23.5t-62.5 44t-42 71t-16 102v472h61v-465q0 -201 212 -201q213 0 213 225v441h56v-445q0 -64 -17 -113.5t-43.5 -79t-63 -48.5t-72 -26t-73.5 -7zM234 743l-20 42l178 73l166 -73l-19 -42l-148 61z" />
    <glyph glyph-name="Udieresis" unicode="&#xdc;" horiz-adv-x="762" 
d="M383 -12q-42 0 -79 6.5t-73.5 23.5t-62.5 44t-42 71t-16 102v472h61v-465q0 -201 212 -201q213 0 213 225v441h56v-445q0 -64 -17 -113.5t-43.5 -79t-63 -48.5t-72 -26t-73.5 -7zM282 750l-46 47l46 46l46 -46zM486 750l-46 47l46 46l47 -46z" />
    <glyph glyph-name="Yacute" unicode="&#xdd;" horiz-adv-x="531" 
d="M229 0v279l-223 428h65l190 -374l203 374h61l-237 -430v-277h-59zM202 748l-17 41l207 83l22 -55z" />
    <glyph glyph-name="Thorn" unicode="&#xde;" horiz-adv-x="548" 
d="M105 0v707h59v-138h161q217 0 217 -207q0 -98 -66.5 -156t-202.5 -58h-9v52h15q199 0 199 157q0 86 -42.5 124t-132.5 38h-138v-519h-60z" />
    <glyph glyph-name="germandbls" unicode="&#xdf;" horiz-adv-x="601" 
d="M100 -220v798q0 103 46 148.5t135 45.5q27 0 51 -6t48.5 -20.5t38.5 -44t14 -71.5q0 -44 -29.5 -86t-58.5 -76.5t-29 -60.5q0 -35 23.5 -63t57.5 -48l68 -41t57.5 -53t23.5 -73q0 -72 -46.5 -104.5t-112.5 -32.5q-51 0 -90.5 8t-52.5 14l13 48q84 -20 120 -20
q117 0 117 79q0 35 -23.5 61.5t-57.5 45.5l-68 39.5t-57.5 55t-23.5 81.5q0 31 17.5 61t38 51t38 52.5t17.5 64.5q0 90 -94 90q-74 0 -100 -37t-26 -109v-797h-55z" />
    <glyph glyph-name="agrave" unicode="&#xe0;" horiz-adv-x="555" 
d="M190 -8q-69 0 -107.5 39.5t-38.5 112.5q0 47 19 80.5t51.5 50.5t64.5 24.5t68 8.5l139 3v83q0 69 -33.5 92t-117.5 23q-48 0 -128 -25l-12 46q17 8 63.5 18.5t98.5 10.5q183 0 183 -140v-320q0 -53 52 -60l-5 -45h-8q-33 0 -60 18.5t-30 53.5q-3 -2 -17 -13t-28.5 -19.5
t-37 -19t-52.5 -16.5t-64 -6zM207 39q35 0 79 17t68 32t32 22v157l-144 -6q-69 -3 -106.5 -33.5t-37.5 -76.5q0 -60 27.5 -86t81.5 -26zM324 623l-180 125l31 45l176 -132z" />
    <glyph glyph-name="aacute" unicode="&#xe1;" horiz-adv-x="555" 
d="M190 -8q-69 0 -107.5 39.5t-38.5 112.5q0 47 19 80.5t51.5 50.5t64.5 24.5t68 8.5l139 3v83q0 69 -33.5 92t-117.5 23q-48 0 -128 -25l-12 46q17 8 63.5 18.5t98.5 10.5q183 0 183 -140v-320q0 -53 52 -60l-5 -45h-8q-33 0 -60 18.5t-30 53.5q-3 -2 -17 -13t-28.5 -19.5
t-37 -19t-52.5 -16.5t-64 -6zM207 39q35 0 79 17t68 32t32 22v157l-144 -6q-69 -3 -106.5 -33.5t-37.5 -76.5q0 -60 27.5 -86t81.5 -26zM210 623l-26 39l175 130l32 -44z" />
    <glyph glyph-name="acircumflex" unicode="&#xe2;" horiz-adv-x="555" 
d="M190 -8q-69 0 -107.5 39.5t-38.5 112.5q0 47 19 80.5t51.5 50.5t64.5 24.5t68 8.5l139 3v83q0 69 -33.5 92t-117.5 23q-48 0 -128 -25l-12 46q17 8 63.5 18.5t98.5 10.5q183 0 183 -140v-320q0 -53 52 -60l-5 -45h-8q-33 0 -60 18.5t-30 53.5q-3 -2 -17 -13t-28.5 -19.5
t-37 -19t-52.5 -16.5t-64 -6zM207 39q35 0 79 17t68 32t32 22v157l-144 -6q-69 -3 -106.5 -33.5t-37.5 -76.5q0 -60 27.5 -86t81.5 -26zM413 632l-153 84l-153 -82l-23 37l176 105l174 -107z" />
    <glyph glyph-name="atilde" unicode="&#xe3;" horiz-adv-x="555" 
d="M190 -8q-69 0 -107.5 39.5t-38.5 112.5q0 47 19 80.5t51.5 50.5t64.5 24.5t68 8.5l139 3v83q0 69 -33.5 92t-117.5 23q-48 0 -128 -25l-12 46q17 8 63.5 18.5t98.5 10.5q183 0 183 -140v-320q0 -53 52 -60l-5 -45h-8q-33 0 -60 18.5t-30 53.5q-3 -2 -17 -13t-28.5 -19.5
t-37 -19t-52.5 -16.5t-64 -6zM207 39q35 0 79 17t68 32t32 22v157l-144 -6q-69 -3 -106.5 -33.5t-37.5 -76.5q0 -60 27.5 -86t81.5 -26zM327 648q-23 0 -62 18.5t-61 18.5q-36 0 -68 -24l-23 38l5 4l9.5 7.5t13 8t17.5 7.5t22.5 5.5t27.5 2.5q26 0 65 -18t58 -18q38 0 66 28
l24 -36q-36 -42 -94 -42z" />
    <glyph glyph-name="adieresis" unicode="&#xe4;" horiz-adv-x="555" 
d="M190 -8q-69 0 -107.5 39.5t-38.5 112.5q0 47 19 80.5t51.5 50.5t64.5 24.5t68 8.5l139 3v83q0 69 -33.5 92t-117.5 23q-48 0 -128 -25l-12 46q17 8 63.5 18.5t98.5 10.5q183 0 183 -140v-320q0 -53 52 -60l-5 -45h-8q-33 0 -60 18.5t-30 53.5q-3 -2 -17 -13t-28.5 -19.5
t-37 -19t-52.5 -16.5t-64 -6zM207 39q35 0 79 17t68 32t32 22v157l-144 -6q-69 -3 -106.5 -33.5t-37.5 -76.5q0 -60 27.5 -86t81.5 -26zM159 669l-46 47l46 46l46 -46zM363 669l-46 47l46 46l47 -46z" />
    <glyph glyph-name="aring" unicode="&#xe5;" horiz-adv-x="555" 
d="M190 -8q-69 0 -107.5 39.5t-38.5 112.5q0 47 19 80.5t51.5 50.5t64.5 24.5t68 8.5l139 3v83q0 69 -33.5 92t-117.5 23q-48 0 -128 -25l-12 46q17 8 63.5 18.5t98.5 10.5q183 0 183 -140v-320q0 -53 52 -60l-5 -45h-8q-33 0 -60 18.5t-30 53.5q-3 -2 -17 -13t-28.5 -19.5
t-37 -19t-52.5 -16.5t-64 -6zM207 39q35 0 79 17t68 32t32 22v157l-144 -6q-69 -3 -106.5 -33.5t-37.5 -76.5q0 -60 27.5 -86t81.5 -26zM279 611q-48 0 -80 26t-32 75q0 48 32.5 76t77.5 28q43 0 77 -25.5t34 -76.5q0 -47 -30.5 -75t-78.5 -28zM278 648q30 0 48.5 17.5
t18.5 47.5q0 29 -20.5 47.5t-47.5 18.5q-30 0 -48.5 -17t-18.5 -47t19 -48.5t49 -18.5z" />
    <glyph glyph-name="ae" unicode="&#xe6;" horiz-adv-x="849" 
d="M631 -9q-153 0 -214 98q-2 -2 -18.5 -13.5l-29.5 -20t-36 -21.5t-43.5 -21.5t-47 -14.5t-51.5 -6q-69 0 -107.5 39.5t-38.5 112.5q0 38 13.5 67t33.5 46.5t48.5 29t54 16t53.5 5.5l138 3v83q0 73 -33 95t-117 22q-22 0 -49 -5t-52.5 -12t-26.5 -7l-12 43q17 8 63.5 18.5
t98.5 10.5q141 0 174 -88q61 88 185 88q182 0 182 -257v-23l-361 -15q1 -70 17 -115.5t47.5 -68t66 -30.5t86.5 -8q58 0 128 20l11 -48q-48 -23 -163 -23zM208 40q35 0 96.5 30.5t96.5 56.5q-16 50 -18 137l-137 -4q-73 -2 -111 -32.5t-38 -76.5q0 -63 29 -87t82 -24z
M440 312l301 15q0 86 -35 137.5t-101 51.5t-112.5 -50.5t-52.5 -153.5z" />
    <glyph glyph-name="ccedilla" unicode="&#xe7;" horiz-adv-x="487" 
d="M327 -9q-139 0 -203 66.5t-64 214.5q0 133 66 210.5t178 77.5q88 0 142 -29l-19 -47q-64 28 -127 28q-85 0 -134 -63.5t-49 -172.5q0 -123 48.5 -178.5t169.5 -55.5q19 0 40.5 3t40 7t21.5 4l10 -47q-45 -18 -120 -18zM257 -229l-18 31q54 33 54 79q0 25 -26 68h62
q20 -32 20 -63q2 -75 -92 -115z" />
    <glyph glyph-name="egrave" unicode="&#xe8;" horiz-adv-x="529" 
d="M308 -12q-122 0 -185 63t-63 212q0 155 64 226t170 71q94 0 139.5 -66.5t45.5 -205.5v-20h-362q1 -72 17 -119t47.5 -70t66 -31.5t84.5 -8.5q27 0 70 8.5t59 14.5l11 -48q-6 -3 -24 -8.5t-57.5 -11.5t-82.5 -6zM117 314h303q0 95 -34.5 149t-103.5 54t-113 -52t-52 -151z
M341 623l-180 125l31 45l176 -132z" />
    <glyph glyph-name="eacute" unicode="&#xe9;" horiz-adv-x="529" 
d="M308 -12q-122 0 -185 63t-63 212q0 155 64 226t170 71q94 0 139.5 -66.5t45.5 -205.5v-20h-362q1 -72 17 -119t47.5 -70t66 -31.5t84.5 -8.5q27 0 70 8.5t59 14.5l11 -48q-6 -3 -24 -8.5t-57.5 -11.5t-82.5 -6zM117 314h303q0 95 -34.5 149t-103.5 54t-113 -52t-52 -151z
M227 623l-26 39l175 130l32 -44z" />
    <glyph glyph-name="ecircumflex" unicode="&#xea;" horiz-adv-x="529" 
d="M308 -12q-122 0 -185 63t-63 212q0 155 64 226t170 71q94 0 139.5 -66.5t45.5 -205.5v-20h-362q1 -72 17 -119t47.5 -70t66 -31.5t84.5 -8.5q27 0 70 8.5t59 14.5l11 -48q-6 -3 -24 -8.5t-57.5 -11.5t-82.5 -6zM117 314h303q0 95 -34.5 149t-103.5 54t-113 -52t-52 -151z
M431 632l-153 84l-153 -82l-23 37l176 105l174 -107z" />
    <glyph glyph-name="edieresis" unicode="&#xeb;" horiz-adv-x="529" 
d="M308 -12q-122 0 -185 63t-63 212q0 155 64 226t170 71q94 0 139.5 -66.5t45.5 -205.5v-20h-362q1 -72 17 -119t47.5 -70t66 -31.5t84.5 -8.5q27 0 70 8.5t59 14.5l11 -48q-6 -3 -24 -8.5t-57.5 -11.5t-82.5 -6zM117 314h303q0 95 -34.5 149t-103.5 54t-113 -52t-52 -151z
M173 669l-46 47l46 46l46 -46zM377 669l-46 47l46 46l47 -46z" />
    <glyph glyph-name="igrave" unicode="&#xec;" horiz-adv-x="257" 
d="M99 0v546h57v-546h-57zM162 623l-180 125l31 45l176 -132z" />
    <glyph glyph-name="iacute" unicode="&#xed;" horiz-adv-x="257" 
d="M99 0v546h57v-546h-57zM78 623l-26 39l175 130l32 -44z" />
    <glyph glyph-name="icircumflex" unicode="&#xee;" horiz-adv-x="257" 
d="M99 0v546h57v-546h-57zM285 632l-153 84l-153 -82l-23 37l176 105l174 -107z" />
    <glyph glyph-name="idieresis" unicode="&#xef;" horiz-adv-x="257" 
d="M99 0v546h57v-546h-57zM25 669l-46 47l46 46l46 -46zM229 669l-46 47l46 46l47 -46z" />
    <glyph glyph-name="eth" unicode="&#xf0;" horiz-adv-x="593" 
d="M295 -8q-110 0 -172.5 71t-62.5 204q0 138 66.5 209.5t174.5 71.5q74 0 130 -41q-37 81 -104 141l-103 -68l-27 36l93 62q-36 27 -87 52l33 39q70 -36 102 -60l105 70l26 -36l-94 -63q158 -140 158 -395q0 -135 -59.5 -214t-178.5 -79zM300 39q41 0 72.5 13.5t51 35.5
t32 52.5t17 62t4.5 67.5q0 46 -8.5 84.5t-27.5 73t-55.5 54t-87.5 19.5t-88 -20t-56.5 -55t-28 -72.5t-8.5 -81.5q0 -101 43 -167t140 -66z" />
    <glyph glyph-name="ntilde" unicode="&#xf1;" horiz-adv-x="607" 
d="M100 0v546h55v-64q38 26 58.5 38.5t59 26t76.5 13.5q45 0 77.5 -14t49.5 -33t26 -49.5t11 -53.5t2 -55v-355h-53v339q0 87 -23.5 129t-100.5 42q-14 0 -28 -2.5t-30 -8.5l-26.5 -10t-28 -14t-24 -14l-25.5 -16t-21 -13v-432h-55zM373 648q-23 0 -62 18.5t-61 18.5
q-36 0 -68 -24l-23 38l5 4l9.5 7.5t13 8t17.5 7.5t22.5 5.5t27.5 2.5q26 0 65 -18t58 -18q38 0 66 28l24 -36q-36 -42 -94 -42z" />
    <glyph glyph-name="ograve" unicode="&#xf2;" horiz-adv-x="593" 
d="M295 -12q-110 0 -172.5 72.5t-62.5 206.5q0 139 67 216t174 77q115 0 173.5 -74t58.5 -213t-65.5 -212t-172.5 -73zM300 35q51 0 87 20.5t55 56.5t27 75.5t8 85.5q0 43 -8 82t-26.5 76.5t-55.5 59.5t-89 22q-51 0 -88 -22t-56.5 -59t-28 -76.5t-8.5 -83.5
q0 -47 9.5 -87.5t29.5 -75t57 -54.5t87 -20zM363 623l-180 125l31 45l176 -132z" />
    <glyph glyph-name="oacute" unicode="&#xf3;" horiz-adv-x="593" 
d="M295 -12q-110 0 -172.5 72.5t-62.5 206.5q0 139 67 216t174 77q115 0 173.5 -74t58.5 -213t-65.5 -212t-172.5 -73zM300 35q51 0 87 20.5t55 56.5t27 75.5t8 85.5q0 43 -8 82t-26.5 76.5t-55.5 59.5t-89 22q-51 0 -88 -22t-56.5 -59t-28 -76.5t-8.5 -83.5
q0 -47 9.5 -87.5t29.5 -75t57 -54.5t87 -20zM235 623l-26 39l175 130l32 -44z" />
    <glyph glyph-name="ocircumflex" unicode="&#xf4;" horiz-adv-x="593" 
d="M295 -12q-110 0 -172.5 72.5t-62.5 206.5q0 139 67 216t174 77q115 0 173.5 -74t58.5 -213t-65.5 -212t-172.5 -73zM300 35q51 0 87 20.5t55 56.5t27 75.5t8 85.5q0 43 -8 82t-26.5 76.5t-55.5 59.5t-89 22q-51 0 -88 -22t-56.5 -59t-28 -76.5t-8.5 -83.5
q0 -47 9.5 -87.5t29.5 -75t57 -54.5t87 -20zM452 632l-153 84l-153 -82l-23 37l176 105l174 -107z" />
    <glyph glyph-name="otilde" unicode="&#xf5;" horiz-adv-x="593" 
d="M295 -12q-110 0 -172.5 72.5t-62.5 206.5q0 139 67 216t174 77q115 0 173.5 -74t58.5 -213t-65.5 -212t-172.5 -73zM300 35q51 0 87 20.5t55 56.5t27 75.5t8 85.5q0 43 -8 82t-26.5 76.5t-55.5 59.5t-89 22q-51 0 -88 -22t-56.5 -59t-28 -76.5t-8.5 -83.5
q0 -47 9.5 -87.5t29.5 -75t57 -54.5t87 -20zM356 648q-23 0 -62 18.5t-61 18.5q-36 0 -68 -24l-23 38l5 4l9.5 7.5t13 8t17.5 7.5t22.5 5.5t27.5 2.5q26 0 65 -18t58 -18q38 0 66 28l24 -36q-36 -42 -94 -42z" />
    <glyph glyph-name="odieresis" unicode="&#xf6;" horiz-adv-x="593" 
d="M295 -12q-110 0 -172.5 72.5t-62.5 206.5q0 139 67 216t174 77q115 0 173.5 -74t58.5 -213t-65.5 -212t-172.5 -73zM300 35q51 0 87 20.5t55 56.5t27 75.5t8 85.5q0 43 -8 82t-26.5 76.5t-55.5 59.5t-89 22q-51 0 -88 -22t-56.5 -59t-28 -76.5t-8.5 -83.5
q0 -47 9.5 -87.5t29.5 -75t57 -54.5t87 -20zM193 669l-46 47l46 46l46 -46zM397 669l-46 47l46 46l47 -46z" />
    <glyph glyph-name="divide" unicode="&#xf7;" 
d="M261 74v65h64v-65h-64zM47 277v50h505v-50h-505zM261 469v66h64v-66h-64z" />
    <glyph glyph-name="oslash" unicode="&#xf8;" horiz-adv-x="593" 
d="M68 -33l-31 30l71 85q-48 70 -48 185q0 139 67 215t174 76q99 0 158 -57l60 72l32 -29l-64 -77q46 -72 46 -194q0 -139 -65.5 -210t-172.5 -71q-98 0 -159 56zM300 39q51 0 87 20t55 55t27 74t8 85q0 87 -30 147l-276 -330q48 -51 129 -51zM146 128l277 330
q-46 53 -125 53q-51 0 -88 -21.5t-56.5 -58.5t-28 -76t-8.5 -83q0 -87 29 -144z" />
    <glyph glyph-name="ugrave" unicode="&#xf9;" horiz-adv-x="603" 
d="M254 -12q-43 0 -73.5 14t-47 33.5t-25.5 50.5t-11 54.5t-2 54.5v351h55v-334q0 -28 1 -44.5t4 -39t10.5 -36t19.5 -26.5t32 -19t47 -6q13 0 28.5 3t28.5 7t29 11t27 12.5t25.5 13.5t21 12.5t17.5 11t12 7.5v427h52v-546h-52v66q-5 -3 -23.5 -15l-28.5 -18t-30 -16
t-35.5 -15.5t-37.5 -9.5t-44 -4zM348 623l-180 125l31 45l176 -132z" />
    <glyph glyph-name="uacute" unicode="&#xfa;" horiz-adv-x="603" 
d="M254 -12q-43 0 -73.5 14t-47 33.5t-25.5 50.5t-11 54.5t-2 54.5v351h55v-334q0 -28 1 -44.5t4 -39t10.5 -36t19.5 -26.5t32 -19t47 -6q13 0 28.5 3t28.5 7t29 11t27 12.5t25.5 13.5t21 12.5t17.5 11t12 7.5v427h52v-546h-52v66q-5 -3 -23.5 -15l-28.5 -18t-30 -16
t-35.5 -15.5t-37.5 -9.5t-44 -4zM260 623l-26 39l175 130l32 -44z" />
    <glyph glyph-name="ucircumflex" unicode="&#xfb;" horiz-adv-x="603" 
d="M254 -12q-43 0 -73.5 14t-47 33.5t-25.5 50.5t-11 54.5t-2 54.5v351h55v-334q0 -28 1 -44.5t4 -39t10.5 -36t19.5 -26.5t32 -19t47 -6q13 0 28.5 3t28.5 7t29 11t27 12.5t25.5 13.5t21 12.5t17.5 11t12 7.5v427h52v-546h-52v66q-5 -3 -23.5 -15l-28.5 -18t-30 -16
t-35.5 -15.5t-37.5 -9.5t-44 -4zM460 632l-153 84l-153 -82l-23 37l176 105l174 -107z" />
    <glyph glyph-name="udieresis" unicode="&#xfc;" horiz-adv-x="603" 
d="M254 -12q-43 0 -73.5 14t-47 33.5t-25.5 50.5t-11 54.5t-2 54.5v351h55v-334q0 -28 1 -44.5t4 -39t10.5 -36t19.5 -26.5t32 -19t47 -6q13 0 28.5 3t28.5 7t29 11t27 12.5t25.5 13.5t21 12.5t17.5 11t12 7.5v427h52v-546h-52v66q-5 -3 -23.5 -15l-28.5 -18t-30 -16
t-35.5 -15.5t-37.5 -9.5t-44 -4zM198 669l-46 47l46 46l46 -46zM402 669l-46 47l46 46l47 -46z" />
    <glyph glyph-name="yacute" unicode="&#xfd;" horiz-adv-x="491" 
d="M149 -220l75 220h-31l-173 546h61l125 -408l32 -100l34 98l141 410h58l-267 -766h-55zM198 623l-26 39l175 130l32 -44z" />
    <glyph glyph-name="thorn" unicode="&#xfe;" horiz-adv-x="589" 
d="M100 -220v974h53v-254q80 54 159 54q103 0 160 -71.5t57 -195.5q0 -82 -20.5 -142t-56.5 -92.5t-79 -47.5t-95 -15q-73 0 -125 9v-219h-53zM281 39q92 0 140.5 62t48.5 162q0 40 -3.5 71.5t-14 64.5t-28 55.5t-48.5 36.5t-72 14q-39 0 -85 -21t-66 -37v-396
q81 -12 128 -12z" />
    <glyph glyph-name="ydieresis" unicode="&#xff;" horiz-adv-x="491" 
d="M149 -220l75 220h-31l-173 546h61l125 -408l32 -100l34 98l141 410h58l-267 -766h-55zM136 669l-46 47l46 46l46 -46zM340 669l-46 47l46 46l47 -46z" />
    <glyph glyph-name="Amacron" unicode="&#x100;" horiz-adv-x="650" 
d="M14 0l284 707h82l260 -707h-64l-101 279h-290l-112 -279h-59zM205 330h252l-120 331zM192 791v48h291v-48h-291z" />
    <glyph glyph-name="amacron" unicode="&#x101;" horiz-adv-x="555" 
d="M190 -8q-69 0 -107.5 39.5t-38.5 112.5q0 47 19 80.5t51.5 50.5t64.5 24.5t68 8.5l139 3v83q0 69 -33.5 92t-117.5 23q-48 0 -128 -25l-12 46q17 8 63.5 18.5t98.5 10.5q183 0 183 -140v-320q0 -53 52 -60l-5 -45h-8q-33 0 -60 18.5t-30 53.5q-3 -2 -17 -13t-28.5 -19.5
t-37 -19t-52.5 -16.5t-64 -6zM207 39q35 0 79 17t68 32t32 22v157l-144 -6q-69 -3 -106.5 -33.5t-37.5 -76.5q0 -60 27.5 -86t81.5 -26zM129 675v48h291v-48h-291z" />
    <glyph glyph-name="Abreve" unicode="&#x102;" horiz-adv-x="650" 
d="M14 0l284 707h82l260 -707h-64l-101 279h-290l-112 -279h-59zM205 330h252l-120 331zM334 753q-98 0 -156 78l32 29q6 -8 18 -19.5t43 -25.5t66 -14q83 0 126 58l31 -26q-50 -80 -160 -80z" />
    <glyph glyph-name="abreve" unicode="&#x103;" horiz-adv-x="555" 
d="M190 -8q-69 0 -107.5 39.5t-38.5 112.5q0 47 19 80.5t51.5 50.5t64.5 24.5t68 8.5l139 3v83q0 69 -33.5 92t-117.5 23q-48 0 -128 -25l-12 46q17 8 63.5 18.5t98.5 10.5q183 0 183 -140v-320q0 -53 52 -60l-5 -45h-8q-33 0 -60 18.5t-30 53.5q-3 -2 -17 -13t-28.5 -19.5
t-37 -19t-52.5 -16.5t-64 -6zM207 39q35 0 79 17t68 32t32 22v157l-144 -6q-69 -3 -106.5 -33.5t-37.5 -76.5q0 -60 27.5 -86t81.5 -26zM271 652q-100 0 -154 75q-1 2 -2 3l32 29q6 -8 18 -19.5t43 -25.5t66 -14q83 0 126 58l31 -26q-50 -80 -160 -80z" />
    <glyph glyph-name="Aogonek" unicode="&#x104;" horiz-adv-x="650" 
d="M659 -204q-19 -13 -71 -13q-108 0 -108 100q0 63 93 124l-98 272h-290l-112 -279h-59l284 707h82l260 -707q-38 -23 -71 -54.5t-33 -59.5q0 -31 17.5 -42.5t52.5 -11.5q30 0 38 8zM457 330l-70 193l-50 138l-56 -141l-76 -190h252z" />
    <glyph glyph-name="aogonek" unicode="&#x105;" horiz-adv-x="555" 
d="M514 -204q-19 -13 -71 -13q-108 0 -108 100q0 63 93 124q-36 19 -39 59q-3 -2 -17 -13t-28.5 -19.5t-37 -19t-52.5 -16.5t-64 -6q-69 0 -107.5 39.5t-38.5 112.5q0 47 19 80.5t51.5 50.5t64.5 24.5t68 8.5l139 3v83q0 69 -33.5 92t-117.5 23q-48 0 -128 -25l-12 46
q17 8 63.5 18.5t98.5 10.5q183 0 183 -140v-320q0 -55 52 -60l-4 -39q-97 -72 -97 -114q0 -31 17.5 -42.5t52.5 -11.5q30 0 38 8zM386 110v157l-144 -6q-69 -3 -106.5 -33.5t-37.5 -76.5q0 -60 27.5 -86t81.5 -26q35 0 79 17t68 32t32 22z" />
    <glyph glyph-name="Cacute" unicode="&#x106;" horiz-adv-x="639" 
d="M419 -12q-166 0 -262.5 101.5t-96.5 259.5q0 166 94.5 267t260.5 101q27 0 52.5 -1.5t45 -4.5t35.5 -6.5t28 -7.5l20 -6.5l14 -4.5l5 -3l-17 -51q-93 31 -181 31q-60 0 -111 -17t-93.5 -51.5t-66.5 -95t-24 -140.5q0 -161 89 -240t226 -79q83 0 166 27l16 -49
q-69 -30 -200 -30zM334 748l-17 41l207 83l22 -55z" />
    <glyph glyph-name="cacute" unicode="&#x107;" horiz-adv-x="487" 
d="M327 -9q-139 0 -203 66.5t-64 214.5q0 133 66 210.5t178 77.5q88 0 142 -29l-19 -47q-64 28 -127 28q-85 0 -134 -63.5t-49 -172.5q0 -123 48.5 -178.5t169.5 -55.5q19 0 40.5 3t40 7t21.5 4l10 -47q-45 -18 -120 -18zM237 623l-26 39l175 130l32 -44z" />
    <glyph glyph-name="Ccircumflex" unicode="&#x108;" horiz-adv-x="639" 
d="M419 -12q-166 0 -262.5 101.5t-96.5 259.5q0 166 94.5 267t260.5 101q27 0 52.5 -1.5t45 -4.5t35.5 -6.5t28 -7.5l20 -6.5l14 -4.5l5 -3l-17 -51q-93 31 -181 31q-60 0 -111 -17t-93.5 -51.5t-66.5 -95t-24 -140.5q0 -161 89 -240t226 -79q83 0 166 27l16 -49
q-69 -30 -200 -30zM265 743l-20 42l178 73l166 -73l-19 -42l-148 61z" />
    <glyph glyph-name="ccircumflex" unicode="&#x109;" horiz-adv-x="487" 
d="M327 -9q-139 0 -203 66.5t-64 214.5q0 133 66 210.5t178 77.5q88 0 142 -29l-19 -47q-64 28 -127 28q-85 0 -134 -63.5t-49 -172.5q0 -123 48.5 -178.5t169.5 -55.5q19 0 40.5 3t40 7t21.5 4l10 -47q-45 -18 -120 -18zM453 632l-153 84l-153 -82l-23 37l176 105l174 -107
z" />
    <glyph glyph-name="Cdotaccent" unicode="&#x10a;" horiz-adv-x="639" 
d="M419 -12q-166 0 -262.5 101.5t-96.5 259.5q0 166 94.5 267t260.5 101q27 0 52.5 -1.5t45 -4.5t35.5 -6.5t28 -7.5l20 -6.5l14 -4.5l5 -3l-17 -51q-93 31 -181 31q-60 0 -111 -17t-93.5 -51.5t-66.5 -95t-24 -140.5q0 -161 89 -240t226 -79q83 0 166 27l16 -49
q-69 -30 -200 -30zM471 817l-55 -55l-53 55l53 54z" />
    <glyph glyph-name="cdotaccent" unicode="&#x10b;" horiz-adv-x="487" 
d="M327 -9q-139 0 -203 66.5t-64 214.5q0 133 66 210.5t178 77.5q88 0 142 -29l-19 -47q-64 28 -127 28q-85 0 -134 -63.5t-49 -172.5q0 -123 48.5 -178.5t169.5 -55.5q19 0 40.5 3t40 7t21.5 4l10 -47q-45 -18 -120 -18zM304 661l-53 55l53 54l55 -54z" />
    <glyph glyph-name="Ccaron" unicode="&#x10c;" horiz-adv-x="639" 
d="M419 -12q-166 0 -262.5 101.5t-96.5 259.5q0 166 94.5 267t260.5 101q27 0 52.5 -1.5t45 -4.5t35.5 -6.5t28 -7.5l20 -6.5l14 -4.5l5 -3l-17 -51q-93 31 -181 31q-60 0 -111 -17t-93.5 -51.5t-66.5 -95t-24 -140.5q0 -161 89 -240t226 -79q83 0 166 27l16 -49
q-69 -30 -200 -30zM594 820l-175 -72l-168 74l19 42l150 -62l154 60z" />
    <glyph glyph-name="ccaron" unicode="&#x10d;" horiz-adv-x="487" 
d="M327 -9q-139 0 -203 66.5t-64 214.5q0 133 66 210.5t178 77.5q88 0 142 -29l-19 -47q-64 28 -127 28q-85 0 -134 -63.5t-49 -172.5q0 -123 48.5 -178.5t169.5 -55.5q19 0 40.5 3t40 7t21.5 4l10 -47q-45 -18 -120 -18zM294 630l-172 106l22 35l149 -81l154 82l22 -35z
" />
    <glyph glyph-name="Dcaron" unicode="&#x10e;" horiz-adv-x="740" 
d="M120 0v707h173q173 0 280 -93t107 -258q0 -181 -100.5 -268.5t-280.5 -87.5h-179zM178 51h132q145 0 228.5 75t83.5 219q0 154 -90 232.5t-242 78.5h-112v-605zM494 820l-175 -72l-168 74l19 42l150 -62l154 60z" />
    <glyph glyph-name="dcaron" unicode="&#x10f;" horiz-adv-x="620" 
d="M284 -10q-224 0 -224 278q0 138 71 215t178 77q64 0 118 -16v210h55v-754h-55v56q-68 -66 -143 -66zM283 38q61 0 144 72v383q-56 20 -119 20q-97 0 -144 -73t-47 -175q0 -113 44 -170t122 -57zM624 754l-38 -198h-43l21 198h60z" />
    <glyph glyph-name="Dcroat" unicode="&#x110;" horiz-adv-x="749" 
d="M680 356q0 -181 -100.5 -268.5t-280.5 -87.5h-179v326h-82v53h82v328h173q173 0 280 -93t107 -258zM622 345q0 154 -90 232.5t-242 78.5h-112v-277h177v-53h-177v-275h132q145 0 228.5 75t83.5 219z" />
    <glyph glyph-name="dcroat" unicode="&#x111;" horiz-adv-x="582" 
d="M482 0h-55v56q-66 -64 -143 -64q-33 0 -60.5 5t-59 22.5t-53.5 46t-36.5 80.5t-14.5 122q0 138 71 214t178 76q64 0 118 -16v83h-157v43h157v86h55v-86h79v-43h-79v-625zM427 110v381q-56 20 -119 20q-97 0 -144 -72t-47 -174q0 -113 44 -169t122 -56q63 0 144 70z" />
    <glyph glyph-name="Emacron" unicode="&#x112;" horiz-adv-x="571" 
d="M120 0v707h378v-49h-319v-277h297v-52h-297v-278h342v-51h-401zM161 791v48h291v-48h-291z" />
    <glyph glyph-name="emacron" unicode="&#x113;" horiz-adv-x="529" 
d="M308 -12q-122 0 -185 63t-63 212q0 155 64 226t170 71q94 0 139.5 -66.5t45.5 -205.5v-20h-362q1 -72 17 -119t47.5 -70t66 -31.5t84.5 -8.5q27 0 70 8.5t59 14.5l11 -48q-6 -3 -24 -8.5t-57.5 -11.5t-82.5 -6zM117 314h303q0 95 -34.5 149t-103.5 54t-113 -52t-52 -151z
M134 675v48h291v-48h-291z" />
    <glyph glyph-name="Ebreve" unicode="&#x114;" horiz-adv-x="571" 
d="M120 0v707h378v-49h-319v-277h297v-52h-297v-278h342v-51h-401zM307 753q-100 0 -154 75q-1 2 -2 3l32 29q6 -8 18 -19.5t43 -25.5t66 -14q83 0 126 58l31 -26q-50 -80 -160 -80z" />
    <glyph glyph-name="ebreve" unicode="&#x115;" horiz-adv-x="529" 
d="M308 -12q-122 0 -185 63t-63 212q0 155 64 226t170 71q94 0 139.5 -66.5t45.5 -205.5v-20h-362q1 -72 17 -119t47.5 -70t66 -31.5t84.5 -8.5q27 0 70 8.5t59 14.5l11 -48q-6 -3 -24 -8.5t-57.5 -11.5t-82.5 -6zM117 314h303q0 95 -34.5 149t-103.5 54t-113 -52t-52 -151z
M282 652q-98 0 -156 78l32 29q6 -8 18 -19.5t43 -25.5t66 -14q83 0 126 58l31 -26q-50 -80 -160 -80z" />
    <glyph glyph-name="Edotaccent" unicode="&#x116;" horiz-adv-x="571" 
d="M120 0v707h378v-49h-319v-277h297v-52h-297v-278h342v-51h-401zM374 817l-55 -55l-53 55l53 54z" />
    <glyph glyph-name="edotaccent" unicode="&#x117;" horiz-adv-x="529" 
d="M308 -12q-122 0 -185 63t-63 212q0 155 64 226t170 71q94 0 139.5 -66.5t45.5 -205.5v-20h-362q1 -72 17 -119t47.5 -70t66 -31.5t84.5 -8.5q27 0 70 8.5t59 14.5l11 -48q-6 -3 -24 -8.5t-57.5 -11.5t-82.5 -6zM117 314h303q0 95 -34.5 149t-103.5 54t-113 -52t-52 -151z
M288 661l-53 55l53 54l55 -54z" />
    <glyph glyph-name="Eogonek" unicode="&#x118;" horiz-adv-x="571" 
d="M541 -204q-19 -13 -71 -13q-108 0 -108 100q0 58 82 117h-324v707h378v-49h-319v-277h297v-52h-297v-278h342v-51q-103 -65 -103 -114q0 -31 17.5 -42.5t52.5 -11.5q30 0 38 8z" />
    <glyph glyph-name="eogonek" unicode="&#x119;" horiz-adv-x="529" 
d="M399 -217q-108 0 -108 100q0 55 73 111q-26 -3 -56 -3q-122 0 -185 62t-63 210q0 155 64 225.5t170 70.5q94 0 139.5 -66.5t45.5 -204.5v-20h-362q1 -72 17 -118.5t47.5 -69t65.5 -30.5t85 -8q27 0 71 7.5t58 12.5l11 -48q-1 -1 -10 -6.5l-16.5 -10.5l-20 -13.5
t-22.5 -16.5t-21 -18.5t-18 -20.5t-12 -21t-5 -21q0 -31 17.5 -42.5t52.5 -11.5q30 0 38 8l15 -44q-19 -13 -71 -13zM117 314h303q0 95 -34.5 148.5t-103.5 53.5t-113 -51.5t-52 -150.5z" />
    <glyph glyph-name="Ecaron" unicode="&#x11a;" horiz-adv-x="571" 
d="M120 0v707h378v-49h-319v-277h297v-52h-297v-278h342v-51h-401zM475 820l-175 -72l-168 74l19 42l150 -62l154 60z" />
    <glyph glyph-name="ecaron" unicode="&#x11b;" horiz-adv-x="529" 
d="M308 -12q-122 0 -185 63t-63 212q0 155 64 226t170 71q94 0 139.5 -66.5t45.5 -205.5v-20h-362q1 -72 17 -119t47.5 -70t66 -31.5t84.5 -8.5q27 0 70 8.5t59 14.5l11 -48q-6 -3 -24 -8.5t-57.5 -11.5t-82.5 -6zM117 314h303q0 95 -34.5 149t-103.5 54t-113 -52t-52 -151z
M284 630l-172 106l22 35l149 -81l154 82l22 -35z" />
    <glyph glyph-name="Gcircumflex" unicode="&#x11c;" horiz-adv-x="698" 
d="M419 -12q-168 0 -263.5 102.5t-95.5 258.5q0 164 94 266t259 102q123 0 202 -34l-18 -52q-2 1 -13 5t-17 6t-19 6t-25 6t-28.5 4.5t-36.5 3.5t-42 1q-60 0 -111 -17t-93 -52t-66 -95.5t-24 -139.5q0 -108 44 -181.5t113 -105.5t158 -32q62 0 132 17v290h59v-330
q-108 -29 -209 -29zM274 743l-20 42l178 73l166 -73l-19 -42l-148 61z" />
    <glyph glyph-name="gcircumflex" unicode="&#x11d;" horiz-adv-x="585" 
d="M271 -230q-96 0 -164 17l11 52q72 -18 137 -18q40 0 68 5.5t53.5 20.5t38 47t12.5 81v69q-57 -52 -134 -52q-37 0 -66.5 5.5t-61.5 23t-53.5 47.5t-35.5 81.5t-14 121.5q0 142 70 215.5t178 73.5q70 0 171 -19v-583q0 -93 -54.5 -140.5t-155.5 -47.5zM297 41q67 0 129 59
v400q-70 12 -117 12q-100 0 -146 -67.5t-46 -176.5q0 -119 44.5 -173t135.5 -54zM469 632l-153 84l-153 -82l-23 37l176 105l174 -107z" />
    <glyph glyph-name="Gbreve" unicode="&#x11e;" horiz-adv-x="698" 
d="M419 -12q-168 0 -263.5 102.5t-95.5 258.5q0 164 94 266t259 102q123 0 202 -34l-18 -52q-2 1 -13 5t-17 6t-19 6t-25 6t-28.5 4.5t-36.5 3.5t-42 1q-60 0 -111 -17t-93 -52t-66 -95.5t-24 -139.5q0 -108 44 -181.5t113 -105.5t158 -32q62 0 132 17v290h59v-330
q-108 -29 -209 -29zM408 753q-98 0 -156 78l32 29q6 -8 18 -19.5t43 -25.5t66 -14q83 0 126 58l31 -26q-50 -80 -160 -80z" />
    <glyph glyph-name="gbreve" unicode="&#x11f;" horiz-adv-x="585" 
d="M271 -230q-96 0 -164 17l11 52q72 -18 137 -18q40 0 68 5.5t53.5 20.5t38 47t12.5 81v69q-57 -52 -134 -52q-37 0 -66.5 5.5t-61.5 23t-53.5 47.5t-35.5 81.5t-14 121.5q0 142 70 215.5t178 73.5q70 0 171 -19v-583q0 -93 -54.5 -140.5t-155.5 -47.5zM297 41q67 0 129 59
v400q-70 12 -117 12q-100 0 -146 -67.5t-46 -176.5q0 -119 44.5 -173t135.5 -54zM310 652q-98 0 -156 78l32 29q6 -8 18 -19.5t43 -25.5t66 -14q83 0 126 58l31 -26q-50 -80 -160 -80z" />
    <glyph glyph-name="Gdotaccent" unicode="&#x120;" horiz-adv-x="698" 
d="M419 -12q-168 0 -263.5 102.5t-95.5 258.5q0 164 94 266t259 102q123 0 202 -34l-18 -52q-2 1 -13 5t-17 6t-19 6t-25 6t-28.5 4.5t-36.5 3.5t-42 1q-60 0 -111 -17t-93 -52t-66 -95.5t-24 -139.5q0 -108 44 -181.5t113 -105.5t158 -32q62 0 132 17v290h59v-330
q-108 -29 -209 -29zM472 817l-55 -55l-53 55l53 54z" />
    <glyph glyph-name="gdotaccent" unicode="&#x121;" horiz-adv-x="585" 
d="M271 -230q-96 0 -164 17l11 52q72 -18 137 -18q40 0 68 5.5t53.5 20.5t38 47t12.5 81v69q-57 -52 -134 -52q-37 0 -66.5 5.5t-61.5 23t-53.5 47.5t-35.5 81.5t-14 121.5q0 142 70 215.5t178 73.5q70 0 171 -19v-583q0 -93 -54.5 -140.5t-155.5 -47.5zM297 41q67 0 129 59
v400q-70 12 -117 12q-100 0 -146 -67.5t-46 -176.5q0 -119 44.5 -173t135.5 -54zM320 661l-53 55l53 54l55 -54z" />
    <glyph glyph-name="Gcommaaccent" unicode="&#x122;" horiz-adv-x="698" 
d="M419 -12q-168 0 -263.5 102.5t-95.5 258.5q0 164 94 266t259 102q123 0 202 -34l-18 -52q-2 1 -13 5t-17 6t-19 6t-25 6t-28.5 4.5t-36.5 3.5t-42 1q-60 0 -111 -17t-93 -52t-66 -95.5t-24 -139.5q0 -108 44 -181.5t113 -105.5t158 -32q62 0 132 17v290h59v-330
q-108 -29 -209 -29zM447 -58l-38 -198h-43l21 198h60z" />
    <glyph glyph-name="gcommaaccent" unicode="&#x123;" horiz-adv-x="585" 
d="M276 608l38 198h43l-21 -198h-60zM271 -230q-96 0 -164 17l11 52q72 -18 137 -18q40 0 68 5.5t53.5 20.5t38 47t12.5 81v69q-57 -52 -134 -52q-37 0 -66.5 5.5t-61.5 23t-53.5 47.5t-35.5 81.5t-14 121.5q0 142 70 215.5t178 73.5q70 0 171 -19v-583q0 -93 -54.5 -140.5
t-155.5 -47.5zM297 41q67 0 129 59v400q-70 12 -117 12q-100 0 -146 -67.5t-46 -176.5q0 -119 44.5 -173t135.5 -54z" />
    <glyph glyph-name="Hcircumflex" unicode="&#x124;" horiz-adv-x="769" 
d="M120 0v707h59v-326h411v326h59v-707h-59v329h-411v-329h-59zM224 743l-20 42l178 73l166 -73l-19 -42l-148 61z" />
    <glyph glyph-name="hcircumflex" unicode="&#x125;" horiz-adv-x="606" 
d="M100 0v754h55v-272q107 77 194 77q45 0 77.5 -14t49 -32.5t25.5 -49.5t10.5 -53t1.5 -55v-355h-51v339q0 87 -23.5 128.5t-100.5 41.5q-65 0 -183 -77v-432h-55zM-25 743l-20 42l178 73l166 -73l-19 -42l-148 61z" />
    <glyph glyph-name="Hbar" unicode="&#x126;" horiz-adv-x="769" 
d="M120 0v511h-84v48h84v148h59v-148h411v148h59v-148h82v-48h-82v-511h-59v329h-411v-329h-59zM179 381h411v130h-411v-130z" />
    <glyph glyph-name="hbar" unicode="&#x127;" horiz-adv-x="606" 
d="M100 0v625h-71v43h71v86h55v-86h165v-43h-165v-143l49 34.5t58.5 26t86.5 15.5q38 0 67 -8.5t46 -25.5t28 -34.5t15.5 -44t6 -45t1.5 -45.5v-355h-51v339q0 87 -23.5 128t-100.5 41q-66 0 -183 -76v-432h-55z" />
    <glyph glyph-name="Itilde" unicode="&#x128;" horiz-adv-x="299" 
d="M120 0v707h59v-707h-59zM209 754q-23 0 -62 18.5t-61 18.5q-35 0 -69 -24l-22 38l5 4l9.5 7.5t13 8t17.5 7.5t22.5 5.5t27.5 2.5q26 0 65 -18t58 -18q38 0 66 28l24 -36q-5 -6 -15 -14.5t-32.5 -18t-46.5 -9.5z" />
    <glyph glyph-name="itilde" unicode="&#x129;" horiz-adv-x="257" 
d="M99 0v546h57v-546h-57zM188 648q-23 0 -62 18.5t-61 18.5q-37 0 -68 -24l-23 38l5 4l9.5 7.5t13 8t17.5 7.5t22.5 5.5t27.5 2.5q26 0 65 -18t58 -18q38 0 66 28l24 -36q-36 -42 -94 -42z" />
    <glyph glyph-name="Imacron" unicode="&#x12a;" horiz-adv-x="299" 
d="M120 0v707h59v-707h-59zM1 791v48h291v-48h-291z" />
    <glyph glyph-name="imacron" unicode="&#x12b;" horiz-adv-x="257" 
d="M99 0v546h57v-546h-57zM-18 675v48h291v-48h-291z" />
    <glyph glyph-name="Ibreve" unicode="&#x12c;" horiz-adv-x="299" 
d="M120 0v707h59v-707h-59zM146 753q-98 0 -156 78l32 29q6 -8 18 -19.5t43 -25.5t66 -14q83 0 126 58l31 -26q-50 -80 -160 -80z" />
    <glyph glyph-name="ibreve" unicode="&#x12d;" horiz-adv-x="257" 
d="M99 0v546h57v-546h-57zM126 652q-98 0 -156 78l32 29q6 -8 18 -19.5t43 -25.5t66 -14q83 0 126 58l31 -26q-50 -80 -160 -80z" />
    <glyph glyph-name="Iogonek" unicode="&#x12e;" horiz-adv-x="299" 
d="M198 -204q-20 -13 -71 -13q-108 0 -108 100q0 65 101 129v695h59v-707q-37 -22 -70.5 -54t-33.5 -60q0 -31 17.5 -42.5t52.5 -11.5q30 0 38 8z" />
    <glyph glyph-name="iogonek" unicode="&#x12f;" horiz-adv-x="257" 
d="M104 -217q-108 0 -108 100q0 67 103 130v533h57v-546q-37 -22 -70.5 -54t-33.5 -60q0 -31 17.5 -42.5t52.5 -11.5q30 0 38 8l15 -44q-19 -13 -71 -13zM125 661l-53 55l53 54l55 -54z" />
    <glyph glyph-name="Idotaccent" unicode="&#x130;" horiz-adv-x="299" 
d="M120 0v707h59v-707h-59zM204 817l-55 -55l-53 55l53 54z" />
    <glyph glyph-name="dotlessi" unicode="&#x131;" horiz-adv-x="257" 
d="M99 0v546h57v-546h-57z" />
    <glyph glyph-name="IJ" unicode="&#x132;" horiz-adv-x="583" 
d="M120 0v707h59v-707h-59zM287 -184l-28 44q85 47 115 114.5t30 176.5v556h59v-554q0 -128 -36 -207t-140 -130z" />
    <glyph glyph-name="ij" unicode="&#x133;" horiz-adv-x="525" 
d="M250 -221q-28 0 -55 8l9 47q22 -6 48 -6q64 0 89.5 39.5t25.5 111.5v566h57v-567q0 -199 -174 -199zM99 0v546h57v-546h-57zM126 661l-53 55l53 54l55 -54zM393 661l-53 55l53 54l55 -54z" />
    <glyph glyph-name="Jcircumflex" unicode="&#x134;" horiz-adv-x="299" 
d="M3 -184l-28 44q85 47 115 114.5t30 176.5v556h59v-554q0 -128 -36 -207t-140 -130zM-3 743l-20 42l178 73l166 -73l-19 -42l-148 61z" />
    <glyph glyph-name="jcircumflex" unicode="&#x135;" horiz-adv-x="257" 
d="M-18 -220q-28 0 -55 8l9 47q22 -6 48 -6q64 0 89.5 39.5t25.5 111.5v566h57v-567q0 -199 -174 -199zM280 632l-153 84l-153 -82l-23 37l176 105l174 -107z" />
    <glyph glyph-name="Kcommaaccent" unicode="&#x136;" horiz-adv-x="598" 
d="M518 0l-301 367v19l285 321h74l-295 -326l316 -381h-79zM120 0v707h59v-707h-59zM359 -58l-38 -198h-43l21 198h60z" />
    <glyph glyph-name="kcommaaccent" unicode="&#x137;" horiz-adv-x="539" 
d="M498 -7q-70 6 -146 100l-157 196l239 257h68l-241 -256l121 -151q36 -44 72.5 -71t59.5 -34zM100 0v754h55v-754h-55zM318 -58l-38 -198h-43l21 198h60z" />
    <glyph glyph-name="Lacute" unicode="&#x139;" horiz-adv-x="486" 
d="M120 0v707h59v-653h307v-54h-366zM119 748l-17 41l207 83l22 -55z" />
    <glyph glyph-name="lacute" unicode="&#x13a;" horiz-adv-x="257" 
d="M100 0v754h55v-754h-55zM100 782l-17 41l207 83l22 -55z" />
    <glyph glyph-name="Lcommaaccent" unicode="&#x13b;" horiz-adv-x="486" 
d="M120 0v707h59v-653h307v-54h-366zM344 -58l-38 -198h-43l21 198h60z" />
    <glyph glyph-name="lcommaaccent" unicode="&#x13c;" horiz-adv-x="257" 
d="M100 0v754h55v-754h-55zM161 -58l-38 -198h-43l21 198h60z" />
    <glyph glyph-name="Lcaron" unicode="&#x13d;" horiz-adv-x="486" 
d="M120 0v707h59v-653h307v-54h-366zM367 755l-38 -198h-43l21 198h60z" />
    <glyph glyph-name="lcaron" unicode="&#x13e;" horiz-adv-x="257" 
d="M100 0v754h55v-754h-55zM298 753l-38 -198h-43l21 198h60z" />
    <glyph glyph-name="Ldot" unicode="&#x13f;" horiz-adv-x="486" 
d="M120 0v707h59v-653h307v-54h-366zM383 313l-53 55l53 54l55 -54z" />
    <glyph glyph-name="ldot" unicode="&#x140;" horiz-adv-x="274" 
d="M100 0v754h55v-754h-55zM259 293l-53 55l53 54l55 -54z" />
    <glyph glyph-name="Lslash" unicode="&#x141;" horiz-adv-x="486" 
d="M486 0h-366v324l-76 -44l-2 51l78 45v331h59v-297l135 77v-52l-135 -77v-304h307v-54z" />
    <glyph glyph-name="lslash" unicode="&#x142;" horiz-adv-x="253" 
d="M242 421l-89 -51v-370h-53v340l-79 -45v51l79 45v363h53v-332l89 51v-52z" />
    <glyph glyph-name="Nacute" unicode="&#x143;" horiz-adv-x="778" 
d="M120 0v707h97l383 -678l-3 91v587h61v-707h-109l-374 669l4 -67v-602h-59zM333 748l-17 41l207 83l22 -55z" />
    <glyph glyph-name="nacute" unicode="&#x144;" horiz-adv-x="607" 
d="M100 0v546h55v-64q38 26 58.5 38.5t59 26t76.5 13.5q45 0 77.5 -14t49.5 -33t26 -49.5t11 -53.5t2 -55v-355h-53v339q0 87 -23.5 129t-100.5 42q-14 0 -28 -2.5t-30 -8.5l-26.5 -10t-28 -14t-24 -14l-25.5 -16t-21 -13v-432h-55zM262 623l-26 39l175 130l32 -44z" />
    <glyph glyph-name="Ncommaaccent" unicode="&#x145;" horiz-adv-x="778" 
d="M120 0v707h97l383 -678l-3 91v587h61v-707h-109l-374 669l4 -67v-602h-59zM426 -58l-38 -198h-43l21 198h60z" />
    <glyph glyph-name="ncommaaccent" unicode="&#x146;" horiz-adv-x="607" 
d="M100 0v546h55v-64q38 26 58.5 38.5t59 26t76.5 13.5q45 0 77.5 -14t49.5 -33t26 -49.5t11 -53.5t2 -55v-355h-53v339q0 87 -23.5 129t-100.5 42q-14 0 -28 -2.5t-30 -8.5l-26.5 -10t-28 -14t-24 -14l-25.5 -16t-21 -13v-432h-55zM352 -58l-38 -198h-43l21 198h60z" />
    <glyph glyph-name="Ncaron" unicode="&#x147;" horiz-adv-x="778" 
d="M120 0v707h97l383 -678l-3 91v587h61v-707h-109l-374 669l4 -67v-602h-59zM559 820l-175 -72l-168 74l19 42l150 -62l154 60z" />
    <glyph glyph-name="ncaron" unicode="&#x148;" horiz-adv-x="607" 
d="M100 0v546h55v-64q38 26 58.5 38.5t59 26t76.5 13.5q45 0 77.5 -14t49.5 -33t26 -49.5t11 -53.5t2 -55v-355h-53v339q0 87 -23.5 129t-100.5 42q-14 0 -28 -2.5t-30 -8.5l-26.5 -10t-28 -14t-24 -14l-25.5 -16t-21 -13v-432h-55zM302 630l-172 106l22 35l149 -81l154 82
l22 -35z" />
    <glyph glyph-name="napostrophe" unicode="&#x149;" horiz-adv-x="647" 
d="M140 0v546h55v-64q38 26 58.5 38.5t59 26t76.5 13.5q45 0 77.5 -14t49.5 -33t26 -49.5t11 -53.5t2 -55v-355h-53v339q0 87 -23.5 129t-100.5 42q-14 0 -28 -2.5t-30 -8.5l-26.5 -10t-28 -14t-24 -14l-25.5 -16t-21 -13v-432h-55zM28 572q26 69 26 120v63h56v-24
q0 -91 -34 -159h-48z" />
    <glyph glyph-name="Eng" unicode="&#x14a;" horiz-adv-x="778" 
d="M485 -220q-28 0 -55 8l9 47q22 -6 48 -6q64 0 90 40t26 111v20h-54l-374 669l4 -67v-602h-59v707h97l383 -678l-3 91v587h61v-728q0 -199 -173 -199z" />
    <glyph glyph-name="eng" unicode="&#x14b;" horiz-adv-x="607" 
d="M515 -21q0 -199 -173 -199q-28 0 -55 8l9 47q22 -6 48 -6q118 0 118 151v358q0 88 -23.5 129t-100.5 41q-66 0 -183 -76v-432h-55v546h55v-64q106 76 194 76q45 0 77.5 -13.5t49.5 -32.5t26 -49.5t11 -53t2 -54.5v-376z" />
    <glyph glyph-name="Omacron" unicode="&#x14c;" horiz-adv-x="815" 
d="M399 -12q-156 0 -247.5 102t-91.5 265q0 164 99 263t259 99t248.5 -102t88.5 -262q0 -163 -96.5 -264t-259.5 -101zM402 39q142 0 218 88t76 227q0 137 -77 224.5t-210 87.5q-138 0 -214.5 -87t-76.5 -223q0 -134 75 -225.5t209 -91.5zM259 791v48h291v-48h-291z" />
    <glyph glyph-name="omacron" unicode="&#x14d;" horiz-adv-x="593" 
d="M295 -12q-110 0 -172.5 72.5t-62.5 206.5q0 139 67 216t174 77q115 0 173.5 -74t58.5 -213t-65.5 -212t-172.5 -73zM300 35q51 0 87 20.5t55 56.5t27 75.5t8 85.5q0 43 -8 82t-26.5 76.5t-55.5 59.5t-89 22q-51 0 -88 -22t-56.5 -59t-28 -76.5t-8.5 -83.5
q0 -47 9.5 -87.5t29.5 -75t57 -54.5t87 -20zM150 675v48h291v-48h-291z" />
    <glyph glyph-name="Obreve" unicode="&#x14e;" horiz-adv-x="815" 
d="M399 -12q-156 0 -247.5 102t-91.5 265q0 164 99 263t259 99t248.5 -102t88.5 -262q0 -163 -96.5 -264t-259.5 -101zM402 39q142 0 218 88t76 227q0 137 -77 224.5t-210 87.5q-138 0 -214.5 -87t-76.5 -223q0 -134 75 -225.5t209 -91.5zM407 753q-100 0 -154 75q-1 2 -2 3
l32 29q6 -8 18 -19.5t43 -25.5t66 -14q82 0 126 58l31 -26q-50 -80 -160 -80z" />
    <glyph glyph-name="obreve" unicode="&#x14f;" horiz-adv-x="593" 
d="M295 -12q-110 0 -172.5 72.5t-62.5 206.5q0 139 67 216t174 77q115 0 173.5 -74t58.5 -213t-65.5 -212t-172.5 -73zM300 35q51 0 87 20.5t55 56.5t27 75.5t8 85.5q0 43 -8 82t-26.5 76.5t-55.5 59.5t-89 22q-51 0 -88 -22t-56.5 -59t-28 -76.5t-8.5 -83.5
q0 -47 9.5 -87.5t29.5 -75t57 -54.5t87 -20zM294 652q-98 0 -156 78l32 29q6 -8 18 -19.5t43 -25.5t66 -14q83 0 126 58l31 -26q-50 -80 -160 -80z" />
    <glyph glyph-name="Ohungarumlaut" unicode="&#x150;" horiz-adv-x="815" 
d="M399 -12q-156 0 -247.5 102t-91.5 265q0 164 99 263t259 99t248.5 -102t88.5 -262q0 -163 -96.5 -264t-259.5 -101zM402 39q142 0 218 88t76 227q0 137 -77 224.5t-210 87.5q-138 0 -214.5 -87t-76.5 -223q0 -134 75 -225.5t209 -91.5zM443 853l-173 -113l-27 36l164 124
zM663 806l-199 -63l-17 41l194 77z" />
    <glyph glyph-name="ohungarumlaut" unicode="&#x151;" horiz-adv-x="593" 
d="M295 -12q-110 0 -172.5 72.5t-62.5 206.5q0 139 67 216t174 77q115 0 173.5 -74t58.5 -213t-65.5 -212t-172.5 -73zM300 35q51 0 87 20.5t55 56.5t27 75.5t8 85.5q0 43 -8 82t-26.5 76.5t-55.5 59.5t-89 22q-51 0 -88 -22t-56.5 -59t-28 -76.5t-8.5 -83.5
q0 -47 9.5 -87.5t29.5 -75t57 -54.5t87 -20zM155 619l-24 39l181 131l33 -51zM381 624l-28 36l179 136l37 -47z" />
    <glyph glyph-name="OE" unicode="&#x152;" horiz-adv-x="1079" 
d="M399 -12q-156 0 -247.5 102t-91.5 265q0 165 99 264t259 99q116 0 208 -65v54h378v-49h-317v-277h295v-52h-295v-278h342v-51h-403v62q-36 -25 -61 -38.5t-68.5 -24.5t-97.5 -11zM402 42q148 0 224 98v425q-76 98 -217 98q-137 0 -212.5 -86t-75.5 -221q0 -133 74 -223.5
t207 -90.5z" />
    <glyph glyph-name="oe" unicode="&#x153;" horiz-adv-x="944" 
d="M295 -12q-110 0 -172.5 72.5t-62.5 206.5q0 139 67 216t174 77q152 0 204 -131q54 131 205 131q94 0 139.5 -66.5t45.5 -205.5v-20h-362q1 -72 17 -119t47.5 -70t66 -31.5t84.5 -8.5q27 0 70 8.5t59 14.5l11 -48q-6 -3 -24 -8.5t-57.5 -11.5t-82.5 -6q-174 0 -223 127
q-59 -127 -206 -127zM300 35q51 0 87 20.5t55 56.5t27 75.5t8 85.5q0 43 -8 82t-26.5 76.5t-55.5 59.5t-89 22q-51 0 -88 -22t-56.5 -59t-28 -76.5t-8.5 -83.5q0 -47 9.5 -87.5t29.5 -75t57 -54.5t87 -20zM533 314h303q0 95 -34.5 149t-103.5 54t-113 -52t-52 -151z" />
    <glyph glyph-name="Racute" unicode="&#x154;" horiz-adv-x="689" 
d="M659 -10q-96 7 -154 93l-144 214q-29 -6 -74 -6h-107v-291h-60v707h219q101 0 159 -50t58 -151q0 -67 -33.5 -118.5t-104.5 -75.5l121 -178q49 -72 133 -97zM180 346h113q94 0 147 34t53 120q0 85 -44 121.5t-132 36.5h-137v-312zM243 748l-17 41l207 83l22 -55z" />
    <glyph glyph-name="racute" unicode="&#x155;" horiz-adv-x="376" 
d="M100 0v546h55v-73q20 36 62 60.5t98 24.5q34 0 61 -9l-11 -48q-30 7 -62 7q-89 0 -148 -98v-410h-55zM183 623l-26 39l175 130l32 -44z" />
    <glyph glyph-name="Rcommaaccent" unicode="&#x156;" horiz-adv-x="689" 
d="M659 -10q-96 7 -154 93l-144 214q-29 -6 -74 -6h-107v-291h-60v707h219q101 0 159 -50t58 -151q0 -67 -33.5 -118.5t-104.5 -75.5l121 -178q49 -72 133 -97zM180 346h113q94 0 147 34t53 120q0 85 -44 121.5t-132 36.5h-137v-312zM393 -58l-38 -198h-43l21 198h60z" />
    <glyph glyph-name="rcommaaccent" unicode="&#x157;" horiz-adv-x="376" 
d="M100 0v546h55v-73q20 36 62 60.5t98 24.5q34 0 61 -9l-11 -48q-30 7 -62 7q-89 0 -148 -98v-410h-55zM162 -58l-38 -198h-43l21 198h60z" />
    <glyph glyph-name="Rcaron" unicode="&#x158;" horiz-adv-x="689" 
d="M659 -10q-96 7 -154 93l-144 214q-29 -6 -74 -6h-107v-291h-60v707h219q101 0 159 -50t58 -151q0 -67 -33.5 -118.5t-104.5 -75.5l121 -178q49 -72 133 -97zM180 346h113q94 0 147 34t53 120q0 85 -44 121.5t-132 36.5h-137v-312zM469 820l-175 -72l-168 74l19 42
l150 -62l154 60z" />
    <glyph glyph-name="rcaron" unicode="&#x159;" horiz-adv-x="376" 
d="M100 0v546h55v-73q20 36 62 60.5t98 24.5q34 0 61 -9l-11 -48q-30 7 -62 7q-89 0 -148 -98v-410h-55zM228 630l-172 106l22 35l149 -81l154 82l22 -35z" />
    <glyph glyph-name="Sacute" unicode="&#x15a;" horiz-adv-x="543" 
d="M246 -12q-108 0 -186 41l22 51q81 -38 162 -38q32 0 61.5 6t58 20t45.5 41t17 64q0 53 -36 90.5t-87 61l-102 49t-87 70t-36 107.5q0 79 55.5 122t141.5 43q88 0 159 -31l-16 -46q-72 27 -142 27q-64 0 -104 -27t-40 -84q0 -41 26 -73.5t65 -52l84.5 -43.5t84.5 -48
t65 -65t26 -94q0 -94 -65.5 -142.5t-171.5 -48.5zM206 748l-17 41l207 83l22 -55z" />
    <glyph glyph-name="sacute" unicode="&#x15b;" horiz-adv-x="453" 
d="M206 -11q-77 0 -149 23l12 49q81 -25 133 -25q65 0 106.5 26t41.5 71q0 39 -28.5 66t-69 43.5l-80.5 34.5t-68.5 53t-28.5 86q0 68 48 106t127 38q49 0 119 -21l-11 -47q-68 20 -119 20q-52 0 -81.5 -26t-29.5 -66q0 -39 28 -66t68 -44l80.5 -35t68.5 -51.5t28 -82.5
q0 -43 -17.5 -74t-47 -47.5t-62 -23.5t-68.5 -7zM175 623l-26 39l175 130l32 -44z" />
    <glyph glyph-name="Scircumflex" unicode="&#x15c;" horiz-adv-x="543" 
d="M246 -12q-108 0 -186 41l22 51q81 -38 162 -38q32 0 61.5 6t58 20t45.5 41t17 64q0 53 -36 90.5t-87 61l-102 49t-87 70t-36 107.5q0 79 55.5 122t141.5 43q88 0 159 -31l-16 -46q-72 27 -142 27q-64 0 -104 -27t-40 -84q0 -41 26 -73.5t65 -52l84.5 -43.5t84.5 -48
t65 -65t26 -94q0 -94 -65.5 -142.5t-171.5 -48.5zM124 743l-20 42l178 73l166 -73l-19 -42l-148 61z" />
    <glyph glyph-name="scircumflex" unicode="&#x15d;" horiz-adv-x="453" 
d="M206 -11q-77 0 -149 23l12 49q81 -25 133 -25q65 0 106.5 26t41.5 71q0 39 -28.5 66t-69 43.5l-80.5 34.5t-68.5 53t-28.5 86q0 68 48 106t127 38q49 0 119 -21l-11 -47q-68 20 -119 20q-52 0 -81.5 -26t-29.5 -66q0 -39 28 -66t68 -44l80.5 -35t68.5 -51.5t28 -82.5
q0 -43 -17.5 -74t-47 -47.5t-62 -23.5t-68.5 -7zM379 632l-153 84l-153 -82l-23 37l176 105l174 -107z" />
    <glyph glyph-name="Scedilla" unicode="&#x15e;" horiz-adv-x="543" 
d="M246 -12q-108 0 -186 41l22 51q81 -38 162 -38q32 0 61.5 6t58 20t45.5 41t17 64q0 53 -36 90.5t-87 61l-102 49t-87 70t-36 107.5q0 79 55.5 122t141.5 43q88 0 159 -31l-16 -46q-72 27 -142 27q-64 0 -104 -27t-40 -84q0 -41 26 -73.5t65 -52l84.5 -43.5t84.5 -48
t65 -65t26 -94q0 -94 -65.5 -142.5t-171.5 -48.5zM214 -229l-18 31q54 33 54 79q0 25 -26 68h62q20 -32 20 -63q2 -75 -92 -115z" />
    <glyph glyph-name="scedilla" unicode="&#x15f;" horiz-adv-x="453" 
d="M206 -11q-77 0 -149 23l12 49q81 -25 133 -25q65 0 106.5 26t41.5 71q0 39 -28.5 66t-69 43.5l-80.5 34.5t-68.5 53t-28.5 86q0 68 48 106t127 38q49 0 119 -21l-11 -47q-68 20 -119 20q-52 0 -81.5 -26t-29.5 -66q0 -39 28 -66t68 -44l80.5 -35t68.5 -51.5t28 -82.5
q0 -43 -17.5 -74t-47 -47.5t-62 -23.5t-68.5 -7zM184 -229l-18 31q54 33 54 79q0 25 -26 68h62q20 -32 20 -63q2 -75 -92 -115z" />
    <glyph glyph-name="Scaron" unicode="&#x160;" horiz-adv-x="543" 
d="M246 -12q-108 0 -186 41l22 51q81 -38 162 -38q32 0 61.5 6t58 20t45.5 41t17 64q0 53 -36 90.5t-87 61l-102 49t-87 70t-36 107.5q0 79 55.5 122t141.5 43q88 0 159 -31l-16 -46q-72 27 -142 27q-64 0 -104 -27t-40 -84q0 -41 26 -73.5t65 -52l84.5 -43.5t84.5 -48
t65 -65t26 -94q0 -94 -65.5 -142.5t-171.5 -48.5zM445 820l-175 -72l-168 74l19 42l150 -62l154 60z" />
    <glyph glyph-name="scaron" unicode="&#x161;" horiz-adv-x="453" 
d="M206 -11q-77 0 -149 23l12 49q81 -25 133 -25q65 0 106.5 26t41.5 71q0 39 -28.5 66t-69 43.5l-80.5 34.5t-68.5 53t-28.5 86q0 68 48 106t127 38q49 0 119 -21l-11 -47q-68 20 -119 20q-52 0 -81.5 -26t-29.5 -66q0 -39 28 -66t68 -44l80.5 -35t68.5 -51.5t28 -82.5
q0 -43 -17.5 -74t-47 -47.5t-62 -23.5t-68.5 -7zM226 630l-172 106l22 35l149 -81l154 82l22 -35z" />
    <glyph glyph-name="Tcommaaccent" unicode="&#x162;" horiz-adv-x="553" 
d="M247 0v654h-247v53h553v-53h-247v-654h-59zM315 -58l-38 -198h-43l21 198h60z" />
    <glyph glyph-name="tcommaaccent" unicode="&#x163;" horiz-adv-x="403" 
d="M293 -11q-46 0 -71 3.5t-52 18t-38.5 48t-11.5 88.5v347h-80v52h80v112h53v-112h172v-52h-171v-346q0 -67 23 -87.5t93 -20.5q29 0 77 16l14 -49q-47 -18 -88 -18zM292 -58l-38 -198h-43l21 198h60z" />
    <glyph glyph-name="tcommaaccent" unicode="&#x21b;" horiz-adv-x="403" 
d="M293 -11q-46 0 -71 3.5t-52 18t-38.5 48t-11.5 88.5v347h-80v52h80v112h53v-112h172v-52h-171v-346q0 -67 23 -87.5t93 -20.5q29 0 77 16l14 -49q-47 -18 -88 -18zM292 -58l-38 -198h-43l21 198h60z" />
    <glyph glyph-name="Tcaron" unicode="&#x164;" horiz-adv-x="553" 
d="M247 0v654h-247v53h553v-53h-247v-654h-59zM446 820l-175 -72l-168 74l19 42l150 -62l154 60z" />
    <glyph glyph-name="tcaron" unicode="&#x165;" horiz-adv-x="403" 
d="M293 -11q-46 0 -71 3.5t-52 18t-38.5 48t-11.5 88.5v347h-80v52h80v112h53v-112h172v-52h-171v-346q0 -67 23 -87.5t93 -20.5q29 0 77 16l14 -49q-47 -18 -88 -18zM321 818l-38 -198h-43l21 198h60z" />
    <glyph glyph-name="Tbar" unicode="&#x166;" horiz-adv-x="553" 
d="M247 0v353h-147v47h147v254h-247v53h553v-53h-247v-254h148v-47h-148v-353h-59z" />
    <glyph glyph-name="tbar" unicode="&#x167;" horiz-adv-x="403" 
d="M293 -8q-32 0 -48.5 1t-40.5 5t-36 14t-25 26.5t-18 44t-5 64.5v157h-74v43h74v147h-80v52h80v112h53v-112h172v-52h-171v-147h143v-43h-143v-156q0 -67 22.5 -86t93.5 -19q38 0 77 13l14 -49q-39 -15 -88 -15z" />
    <glyph glyph-name="Utilde" unicode="&#x168;" horiz-adv-x="762" 
d="M383 -12q-42 0 -79 6.5t-73.5 23.5t-62.5 44t-42 71t-16 102v472h61v-465q0 -201 212 -201q213 0 213 225v441h56v-445q0 -64 -17 -113.5t-43.5 -79t-63 -48.5t-72 -26t-73.5 -7zM437 754q-23 0 -62 18.5t-61 18.5q-35 0 -69 -24l-22 38l5 4l9.5 7.5t13 8t17.5 7.5
t22.5 5.5t27.5 2.5q26 0 65 -18t58 -18q38 0 66 28l24 -36q-5 -6 -15 -14.5t-32.5 -18t-46.5 -9.5z" />
    <glyph glyph-name="utilde" unicode="&#x169;" horiz-adv-x="603" 
d="M254 -12q-43 0 -73.5 14t-47 33.5t-25.5 50.5t-11 54.5t-2 54.5v351h55v-334q0 -28 1 -44.5t4 -39t10.5 -36t19.5 -26.5t32 -19t47 -6q13 0 28.5 3t28.5 7t29 11t27 12.5t25.5 13.5t21 12.5t17.5 11t12 7.5v427h52v-546h-52v66q-5 -3 -23.5 -15l-28.5 -18t-30 -16
t-35.5 -15.5t-37.5 -9.5t-44 -4zM361 648q-23 0 -62 18.5t-61 18.5q-36 0 -68 -24l-23 38l5 4l9.5 7.5t13 8t17.5 7.5t22.5 5.5t27.5 2.5q26 0 65 -18t58 -18q38 0 66 28l24 -36q-36 -42 -94 -42z" />
    <glyph glyph-name="Umacron" unicode="&#x16a;" horiz-adv-x="762" 
d="M383 -12q-42 0 -79 6.5t-73.5 23.5t-62.5 44t-42 71t-16 102v472h61v-465q0 -201 212 -201q213 0 213 225v441h56v-445q0 -64 -17 -113.5t-43.5 -79t-63 -48.5t-72 -26t-73.5 -7zM233 791v48h291v-48h-291z" />
    <glyph glyph-name="umacron" unicode="&#x16b;" horiz-adv-x="603" 
d="M254 -12q-43 0 -73.5 14t-47 33.5t-25.5 50.5t-11 54.5t-2 54.5v351h55v-334q0 -28 1 -44.5t4 -39t10.5 -36t19.5 -26.5t32 -19t47 -6q13 0 28.5 3t28.5 7t29 11t27 12.5t25.5 13.5t21 12.5t17.5 11t12 7.5v427h52v-546h-52v66q-5 -3 -23.5 -15l-28.5 -18t-30 -16
t-35.5 -15.5t-37.5 -9.5t-44 -4zM155 675v48h291v-48h-291z" />
    <glyph glyph-name="Ubreve" unicode="&#x16c;" horiz-adv-x="762" 
d="M383 -12q-42 0 -79 6.5t-73.5 23.5t-62.5 44t-42 71t-16 102v472h61v-465q0 -201 212 -201q213 0 213 225v441h56v-445q0 -64 -17 -113.5t-43.5 -79t-63 -48.5t-72 -26t-73.5 -7zM386 753q-98 0 -156 78l32 29q6 -8 18 -19.5t43 -25.5t66 -14q83 0 126 58l31 -26
q-50 -80 -160 -80z" />
    <glyph glyph-name="ubreve" unicode="&#x16d;" horiz-adv-x="603" 
d="M254 -12q-43 0 -73.5 14t-47 33.5t-25.5 50.5t-11 54.5t-2 54.5v351h55v-334q0 -28 1 -44.5t4 -39t10.5 -36t19.5 -26.5t32 -19t47 -6q13 0 28.5 3t28.5 7t29 11t27 12.5t25.5 13.5t21 12.5t17.5 11t12 7.5v427h52v-546h-52v66q-5 -3 -23.5 -15l-28.5 -18t-30 -16
t-35.5 -15.5t-37.5 -9.5t-44 -4zM301 652q-100 0 -154 75q-1 2 -2 3l32 29q6 -8 18 -19.5t43 -25.5t66 -14q83 0 126 58l31 -26q-50 -80 -160 -80z" />
    <glyph glyph-name="Uring" unicode="&#x16e;" horiz-adv-x="762" 
d="M383 -12q-42 0 -79 6.5t-73.5 23.5t-62.5 44t-42 71t-16 102v472h61v-465q0 -201 212 -201q213 0 213 225v441h56v-445q0 -64 -17 -113.5t-43.5 -79t-63 -48.5t-72 -26t-73.5 -7zM383 705q-48 0 -80 26t-32 75q0 48 32.5 76t77.5 28q43 0 77 -25.5t34 -76.5
q0 -47 -30.5 -75t-78.5 -28zM382 742q30 0 48.5 17.5t18.5 47.5q0 29 -20.5 47.5t-47.5 18.5q-30 0 -48.5 -17t-18.5 -47t19 -48.5t49 -18.5z" />
    <glyph glyph-name="uring" unicode="&#x16f;" horiz-adv-x="603" 
d="M254 -12q-43 0 -73.5 14t-47 33.5t-25.5 50.5t-11 54.5t-2 54.5v351h55v-334q0 -28 1 -44.5t4 -39t10.5 -36t19.5 -26.5t32 -19t47 -6q13 0 28.5 3t28.5 7t29 11t27 12.5t25.5 13.5t21 12.5t17.5 11t12 7.5v427h52v-546h-52v66q-5 -3 -23.5 -15l-28.5 -18t-30 -16
t-35.5 -15.5t-37.5 -9.5t-44 -4zM303 611q-48 0 -80 26t-32 75q0 48 32.5 76t77.5 28q43 0 77 -25.5t34 -76.5q0 -47 -30.5 -75t-78.5 -28zM302 648q30 0 48.5 17.5t18.5 47.5q0 29 -20.5 47.5t-47.5 18.5q-30 0 -48.5 -17t-18.5 -47t19 -48.5t49 -18.5z" />
    <glyph glyph-name="Uhungarumlaut" unicode="&#x170;" horiz-adv-x="762" 
d="M383 -12q-42 0 -79 6.5t-73.5 23.5t-62.5 44t-42 71t-16 102v472h61v-465q0 -201 212 -201q213 0 213 225v441h56v-445q0 -64 -17 -113.5t-43.5 -79t-63 -48.5t-72 -26t-73.5 -7zM409 853l-173 -113l-27 36l164 124zM629 806l-199 -63l-17 41l194 77z" />
    <glyph glyph-name="uhungarumlaut" unicode="&#x171;" horiz-adv-x="603" 
d="M254 -12q-43 0 -73.5 14t-47 33.5t-25.5 50.5t-11 54.5t-2 54.5v351h55v-334q0 -28 1 -44.5t4 -39t10.5 -36t19.5 -26.5t32 -19t47 -6q13 0 28.5 3t28.5 7t29 11t27 12.5t25.5 13.5t21 12.5t17.5 11t12 7.5v427h52v-546h-52v66q-5 -3 -23.5 -15l-28.5 -18t-30 -16
t-35.5 -15.5t-37.5 -9.5t-44 -4zM172 619l-24 39l181 131l33 -51zM398 624l-28 36l179 136l37 -47z" />
    <glyph glyph-name="Uogonek" unicode="&#x172;" horiz-adv-x="762" 
d="M428 -217q-108 0 -108 100q0 52 65 104h-2q-42 0 -79 6.5t-73.5 23.5t-62.5 44t-42 71t-16 102v473h61v-466q0 -201 212 -201q213 0 213 225v442h56v-446q0 -211 -172 -261q-37 -22 -70.5 -54t-33.5 -60q0 -31 17.5 -42.5t52.5 -11.5q30 0 38 8l15 -44q-19 -13 -71 -13z
" />
    <glyph glyph-name="uogonek" unicode="&#x173;" horiz-adv-x="603" 
d="M524 -204q-19 -13 -71 -13q-108 0 -108 100q0 67 108 134v49l-23 -15t-29 -18t-29.5 -15.5t-36 -15t-37.5 -9t-44 -4.5q-43 0 -73.5 14t-47 33.5t-25.5 50t-11 54t-2 54.5v351h55v-334q0 -33 1 -52.5t7 -45t17.5 -39t34 -23.5t54.5 -10q66 0 189 77v427h52v-546
q-37 -22 -70.5 -54t-33.5 -60q0 -31 17.5 -42.5t52.5 -11.5q30 0 38 8z" />
    <glyph glyph-name="Wcircumflex" unicode="&#x174;" horiz-adv-x="998" 
d="M218 0l-208 707h63l195 -672l200 498l-59 174h61l230 -673l230 673h58l-242 -707h-94l-157 457l-184 -457h-93zM343 743l-20 42l178 73l166 -73l-19 -42l-148 61z" />
    <glyph glyph-name="wcircumflex" unicode="&#x175;" horiz-adv-x="870" 
d="M197 0l-177 546h58l160 -510l161 510h76l142 -510l178 510h55l-195 -546h-80l-122 426l-17 71l-19 -70l-140 -427h-80zM591 632l-153 84l-153 -82l-23 37l176 105l174 -107z" />
    <glyph glyph-name="Ycircumflex" unicode="&#x176;" horiz-adv-x="531" 
d="M229 0v279l-223 428h65l190 -374l203 374h61l-237 -430v-277h-59zM108 743l-20 42l178 73l166 -73l-19 -42l-148 61z" />
    <glyph glyph-name="ycircumflex" unicode="&#x177;" horiz-adv-x="491" 
d="M149 -220l75 220h-31l-173 546h61l125 -408l32 -100l34 98l141 410h58l-267 -766h-55zM399 632l-153 84l-153 -82l-23 37l176 105l174 -107z" />
    <glyph glyph-name="Ydieresis" unicode="&#x178;" horiz-adv-x="531" 
d="M229 0v279l-223 428h65l190 -374l203 374h61l-237 -430v-277h-59zM158 750l-46 47l46 46l46 -46zM362 750l-46 47l46 46l47 -46z" />
    <glyph glyph-name="Zacute" unicode="&#x179;" horiz-adv-x="529" 
d="M30 0v60l386 595h-360v52h422v-53l-389 -602h410v-52h-469zM203 748l-17 41l207 83l22 -55z" />
    <glyph glyph-name="zacute" unicode="&#x17a;" horiz-adv-x="487" 
d="M40 0v57l340 437h-311v52h374v-53l-346 -441h350v-52h-407zM203 623l-26 39l175 130l32 -44z" />
    <glyph glyph-name="Zdotaccent" unicode="&#x17b;" horiz-adv-x="529" 
d="M30 0v60l386 595h-360v52h422v-53l-389 -602h410v-52h-469zM327 817l-55 -55l-53 55l53 54z" />
    <glyph glyph-name="zdotaccent" unicode="&#x17c;" horiz-adv-x="487" 
d="M40 0v57l340 437h-311v52h374v-53l-346 -441h350v-52h-407zM255 661l-53 55l53 54l55 -54z" />
    <glyph glyph-name="Zcaron" unicode="&#x17d;" horiz-adv-x="529" 
d="M30 0v60l386 595h-360v52h422v-53l-389 -602h410v-52h-469zM439 820l-175 -72l-168 74l19 42l150 -62l154 60z" />
    <glyph glyph-name="zcaron" unicode="&#x17e;" horiz-adv-x="487" 
d="M40 0v57l340 437h-311v52h374v-53l-346 -441h350v-52h-407zM243 630l-172 106l22 35l149 -81l154 82l22 -35z" />
    <glyph glyph-name="uni018F" unicode="&#x18f;" horiz-adv-x="745" 
d="M359 -12q-148 0 -226 93t-83 250v51h575q-6 128 -74 206t-192 78q-116 0 -258 -69l-16 47q141 73 283 73q158 0 237.5 -100.5t79.5 -263.5q0 -167 -83 -266t-243 -99zM362 39q252 0 263 292h-517q6 -130 67.5 -211t186.5 -81z" />
    <glyph glyph-name="florin" unicode="&#x192;" horiz-adv-x="432" 
d="M-3 -9l-2 47q85 5 110 14q67 22 74 115q1 7 1 15l2 79h-104v50h106l1 45q1 49 14.5 85.5t35 57t53.5 33t62.5 16.5t68.5 4l3 -48q-85 -8 -110 -18q-66 -25 -71 -121v-11l-1 -43h111v-50h-113l-2 -82q-1 -50 -17.5 -86.5t-39.5 -55.5t-58 -30t-61.5 -13.5t-62.5 -2.5z" />
    <glyph glyph-name="uni01D3" unicode="&#x1d3;" horiz-adv-x="762" 
d="M383 -12q-42 0 -79 6.5t-73.5 23.5t-62.5 44t-42 71t-16 102v472h61v-465q0 -201 212 -201q213 0 213 225v441h56v-445q0 -64 -17 -113.5t-43.5 -79t-63 -48.5t-72 -26t-73.5 -7zM554 820l-175 -72l-168 74l19 42l150 -62l154 60z" />
    <glyph glyph-name="uni01D4" unicode="&#x1d4;" horiz-adv-x="603" 
d="M254 -12q-43 0 -73.5 14t-47 33.5t-25.5 50.5t-11 54.5t-2 54.5v351h55v-334q0 -28 1 -44.5t4 -39t10.5 -36t19.5 -26.5t32 -19t47 -6q13 0 28.5 3t28.5 7t29 11t27 12.5t25.5 13.5t21 12.5t17.5 11t12 7.5v427h52v-546h-52v66q-5 -3 -23.5 -15l-28.5 -18t-30 -16
t-35.5 -15.5t-37.5 -9.5t-44 -4zM301 630l-172 106l22 35l149 -81l154 82l22 -35z" />
    <glyph glyph-name="AEmacron" unicode="&#x1e2;" horiz-adv-x="897" 
d="M0 0l387 707h436v-49h-319v-277h297v-52h-297v-278h343v-51h-402v329h-202l-177 -329h-66zM271 381h174v277h-25zM444 791v48h291v-48h-291z" />
    <glyph glyph-name="aemacron" unicode="&#x1e3;" horiz-adv-x="849" 
d="M631 -9q-153 0 -214 98q-2 -2 -18.5 -13.5l-29.5 -20t-36 -21.5t-43.5 -21.5t-47 -14.5t-51.5 -6q-69 0 -107.5 39.5t-38.5 112.5q0 38 13.5 67t33.5 46.5t48.5 29t54 16t53.5 5.5l138 3v83q0 73 -33 95t-117 22q-22 0 -49 -5t-52.5 -12t-26.5 -7l-12 43q17 8 63.5 18.5
t98.5 10.5q141 0 174 -88q61 88 185 88q182 0 182 -257v-23l-361 -15q1 -70 17 -115.5t47.5 -68t66 -30.5t86.5 -8q58 0 128 20l11 -48q-48 -23 -163 -23zM208 40q35 0 96.5 30.5t96.5 56.5q-16 50 -18 137l-137 -4q-73 -2 -111 -32.5t-38 -76.5q0 -63 29 -87t82 -24z
M440 312l301 15q0 86 -35 137.5t-101 51.5t-112.5 -50.5t-52.5 -153.5zM276 675v48h291v-48h-291z" />
    <glyph glyph-name="AEacute" unicode="&#x1fc;" horiz-adv-x="897" 
d="M0 0l387 707h436v-49h-319v-277h297v-52h-297v-278h343v-51h-402v329h-202l-177 -329h-66zM271 381h174v277h-25zM519 748l-17 41l207 83l22 -55z" />
    <glyph glyph-name="aeacute" unicode="&#x1fd;" horiz-adv-x="849" 
d="M631 -9q-153 0 -214 98q-2 -2 -18.5 -13.5l-29.5 -20t-36 -21.5t-43.5 -21.5t-47 -14.5t-51.5 -6q-69 0 -107.5 39.5t-38.5 112.5q0 38 13.5 67t33.5 46.5t48.5 29t54 16t53.5 5.5l138 3v83q0 73 -33 95t-117 22q-22 0 -49 -5t-52.5 -12t-26.5 -7l-12 43q17 8 63.5 18.5
t98.5 10.5q141 0 174 -88q61 88 185 88q182 0 182 -257v-23l-361 -15q1 -70 17 -115.5t47.5 -68t66 -30.5t86.5 -8q58 0 128 20l11 -48q-48 -23 -163 -23zM208 40q35 0 96.5 30.5t96.5 56.5q-16 50 -18 137l-137 -4q-73 -2 -111 -32.5t-38 -76.5q0 -63 29 -87t82 -24z
M440 312l301 15q0 86 -35 137.5t-101 51.5t-112.5 -50.5t-52.5 -153.5zM384 623l-26 39l175 130l32 -44z" />
    <glyph glyph-name="Oslashacute" unicode="&#x1fe;" horiz-adv-x="815" 
d="M66 -26l-30 31l100 103q-76 97 -76 247q0 164 99 263t259 99q138 0 228 -82l97 100l32 -29q1 -1 -98 -104q78 -98 78 -249q0 -163 -96.5 -264t-259.5 -101q-142 0 -234 87zM402 39q142 0 218 88t76 227q0 122 -61 204l-430 -441q76 -78 197 -78zM177 151l428 442
q-76 73 -196 73q-138 0 -214.5 -87t-76.5 -223q0 -120 59 -205zM328 748l-17 41l207 83l22 -55z" />
    <glyph glyph-name="oslashacute" unicode="&#x1ff;" horiz-adv-x="593" 
d="M68 -33l-31 30l71 85q-48 70 -48 185q0 139 67 215t174 76q99 0 158 -57l60 72l32 -29l-64 -77q46 -72 46 -194q0 -139 -65.5 -210t-172.5 -71q-98 0 -159 56zM300 39q51 0 87 20t55 55t27 74t8 85q0 87 -30 147l-276 -330q48 -51 129 -51zM146 128l277 330
q-46 53 -125 53q-51 0 -88 -21.5t-56.5 -58.5t-28 -76t-8.5 -83q0 -87 29 -144zM235 623l-26 39l175 130l32 -44z" />
    <glyph glyph-name="Scommaaccent" unicode="&#x218;" horiz-adv-x="543" 
d="M246 -12q-108 0 -186 41l22 51q81 -38 162 -38q32 0 61.5 6t58 20t45.5 41t17 64q0 53 -36 90.5t-87 61l-102 49t-87 70t-36 107.5q0 79 55.5 122t141.5 43q88 0 159 -31l-16 -46q-72 27 -142 27q-64 0 -104 -27t-40 -84q0 -41 26 -73.5t65 -52l84.5 -43.5t84.5 -48
t65 -65t26 -94q0 -94 -65.5 -142.5t-171.5 -48.5zM293 -58l-38 -198h-43l21 198h60z" />
    <glyph glyph-name="scommaaccent" unicode="&#x219;" horiz-adv-x="453" 
d="M206 -11q-77 0 -149 23l12 49q81 -25 133 -25q65 0 106.5 26t41.5 71q0 39 -28.5 66t-69 43.5l-80.5 34.5t-68.5 53t-28.5 86q0 68 48 106t127 38q49 0 119 -21l-11 -47q-68 20 -119 20q-52 0 -81.5 -26t-29.5 -66q0 -39 28 -66t68 -44l80.5 -35t68.5 -51.5t28 -82.5
q0 -43 -17.5 -74t-47 -47.5t-62 -23.5t-68.5 -7zM256 -58l-38 -198h-43l21 198h60z" />
    <glyph glyph-name="uni021A" unicode="&#x21a;" horiz-adv-x="553" 
d="M247 0v654h-247v53h553v-53h-247v-654h-59zM315 -58l-38 -198h-43l21 198h60z" />
    <glyph glyph-name="Ymacron" unicode="&#x232;" horiz-adv-x="531" 
d="M229 0v279l-223 428h65l190 -374l203 374h61l-237 -430v-277h-59zM117 791v48h291v-48h-291z" />
    <glyph glyph-name="ymacron" unicode="&#x233;" horiz-adv-x="491" 
d="M149 -220l75 220h-31l-173 546h61l125 -408l32 -100l34 98l141 410h58l-267 -766h-55zM97 675v48h291v-48h-291z" />
    <glyph glyph-name="schwa" unicode="&#x259;" horiz-adv-x="529" 
d="M221 561q121 0 184.5 -63.5t63.5 -211.5q0 -155 -64 -226t-170 -71q-94 0 -139.5 66.5t-45.5 205.5v20h362q-1 72 -17 119t-47.5 70t-66 31.5t-84.5 8.5q-27 0 -70 -8.5t-59 -14.5l-11 48q6 3 24 8.5t57.5 11.5t82.5 6zM412 235h-303q0 -95 34.5 -149t103.5 -54t113 52
t52 151z" />
    <glyph glyph-name="h.superior" unicode="&#x2b0;" horiz-adv-x="427" 
d="M66 416v498h51v-177q58 37 97 45q18 4 38 4q123 0 123 -137v-233h-50v222q0 103 -85 103q-46 0 -123 -48v-277h-51z" />
    <glyph glyph-name="j.superior" unicode="&#x2b2;" horiz-adv-x="220" 
d="M15 271q-25 0 -46 7l10 42q18 -4 37 -4q39 0 53.5 22.5t14.5 66.5v371h51v-371q0 -134 -120 -134zM110 845l-43 44l43 42l43 -42z" />
    <glyph glyph-name="r.superior" unicode="&#x2b3;" horiz-adv-x="263" 
d="M66 416v360h51v-48q13 23 41.5 39t61.5 16q26 0 41 -5l-8 -49q-15 5 -42 5q-59 0 -94 -55v-263h-51z" />
    <glyph glyph-name="w.superior" unicode="&#x2b7;" horiz-adv-x="629" 
d="M141 416l-128 360h56l109 -324l101 324h74l89 -324l121 324h53l-137 -360h-74l-91 321l-99 -321h-74z" />
    <glyph glyph-name="y.superior" unicode="&#x2b8;" horiz-adv-x="364" 
d="M115 271l53 145h-23l-132 360h56l113 -323l117 323h52l-187 -505h-49z" />
    <glyph glyph-name="circumflex" unicode="&#x2c6;" horiz-adv-x="536" 
d="M380 632l-153 84l-153 -82l-23 37l176 105l174 -107z" />
    <glyph glyph-name="caron" unicode="&#x2c7;" horiz-adv-x="536" 
d="M267 630l-172 106l22 35l149 -81l154 82l22 -35z" />
    <glyph glyph-name="breve" unicode="&#x2d8;" horiz-adv-x="496" 
d="M266 652q-98 0 -156 78l32 29q6 -8 18 -19.5t43 -25.5t66 -14q83 0 126 58l31 -26q-50 -80 -160 -80z" />
    <glyph glyph-name="dotaccent" unicode="&#x2d9;" horiz-adv-x="273" 
d="M136 661l-53 55l53 54l55 -54z" />
    <glyph glyph-name="ring" unicode="&#x2da;" horiz-adv-x="532" 
d="M268 611q-48 0 -80 26t-32 75q0 48 32.5 76t77.5 28q43 0 77 -25.5t34 -76.5q0 -47 -30.5 -75t-78.5 -28zM267 648q30 0 48.5 17.5t18.5 47.5q0 29 -20.5 47.5t-47.5 18.5q-30 0 -48.5 -17t-18.5 -47t19 -48.5t49 -18.5z" />
    <glyph glyph-name="ogonek" unicode="&#x2db;" horiz-adv-x="561" 
d="M399 -217q-108 0 -108 100q0 78 151 158l26 -31q-30 -15 -75.5 -53t-45.5 -71q0 -31 17.5 -42.5t52.5 -11.5q23 0 39 6l14 -42q-19 -13 -71 -13z" />
    <glyph glyph-name="tilde" unicode="&#x2dc;" horiz-adv-x="536" 
d="M328 648q-23 0 -62 18.5t-61 18.5q-37 0 -68 -24l-23 38l5 4l9.5 7.5t13 8t17.5 7.5t22.5 5.5t27.5 2.5q26 0 65 -18t58 -18q38 0 66 28l24 -36q-36 -42 -94 -42z" />
    <glyph glyph-name="hungarumlaut" unicode="&#x2dd;" horiz-adv-x="549" 
d="M79 619l-24 39l181 131l33 -51zM305 624l-28 36l179 136l37 -47z" />
    <glyph glyph-name="x.superior" unicode="&#x2e3;" horiz-adv-x="362" 
d="M17 416l138 185l-129 175h56l98 -137l100 137h55l-129 -175l139 -185h-60l-105 146l-105 -146h-58z" />
    <glyph glyph-name="uni0374" unicode="&#x374;" horiz-adv-x="147" 
d="M28 572q1 2 7.5 18.5t9.5 25t6 25t3 31.5v83h56v-24q0 -91 -34 -159h-48z" />
    <glyph glyph-name="uni0375" unicode="&#x375;" horiz-adv-x="188" 
d="M76 -122q2 5 9 25t11 38t4 37v84h58v-26q0 -84 -35 -158h-47z" />
    <glyph glyph-name="uni037E" unicode="&#x37e;" horiz-adv-x="300" 
d="M185 475h-70v71h70v-71zM183 36q0 -84 -35 -158h-47q2 5 9 25t11 38t4 37v84h58v-26z" />
    <glyph glyph-name="tonos" unicode="&#x384;" horiz-adv-x="467" 
d="M339 633l78 158h60l-86 -158h-52z" />
    <glyph glyph-name="dieresistonos" unicode="&#x385;" horiz-adv-x="424" 
d="M86 629l-46 47l46 46l46 -46zM157 623l78 158h60l-86 -158h-52zM333 629l-46 47l46 46l47 -46z" />
    <glyph glyph-name="Alphatonos" unicode="&#x386;" horiz-adv-x="650" 
d="M14 0l284 707h82l260 -707h-64l-101 279h-290l-112 -279h-59zM205 330h252l-120 331zM28 548l78 158h60l-86 -158h-52z" />
    <glyph glyph-name="anoteleia" unicode="&#x387;" horiz-adv-x="256" 
d="M128 293l-53 55l53 54l55 -54z" />
    <glyph glyph-name="Epsilontonos" unicode="&#x388;" horiz-adv-x="571" 
d="M-91 549l78 158h60l-86 -158h-52zM120 0v707h378v-49h-319v-277h297v-52h-297v-278h342v-51h-401z" />
    <glyph glyph-name="Etatonos" unicode="&#x389;" horiz-adv-x="769" 
d="M-91 549l78 158h60l-86 -158h-52zM120 0v707h59v-326h411v326h59v-707h-59v329h-411v-329h-59z" />
    <glyph glyph-name="Iotatonos" unicode="&#x38a;" horiz-adv-x="299" 
d="M-91 549l78 158h60l-86 -158h-52zM120 0v707h59v-707h-59z" />
    <glyph glyph-name="Omicrontonos" unicode="&#x38c;" horiz-adv-x="815" 
d="M-81 549l78 158h60l-86 -158h-52zM399 -12q-156 0 -247.5 102t-91.5 265q0 164 99 263t259 99t248.5 -102t88.5 -262q0 -163 -96.5 -264t-259.5 -101zM402 39q142 0 218 88t76 227q0 137 -77 224.5t-210 87.5q-138 0 -214.5 -87t-76.5 -223q0 -134 75 -225.5t209 -91.5z
" />
    <glyph glyph-name="Upsilontonos" unicode="&#x38e;" horiz-adv-x="531" 
d="M-181 549l78 158h60l-86 -158h-52zM229 0v279l-223 428h65l190 -374l203 374h61l-237 -430v-277h-59z" />
    <glyph glyph-name="Omegatonos" unicode="&#x38f;" horiz-adv-x="815" 
d="M-81 549l78 158h60l-86 -158h-52zM28 0v54h242q-79 34 -137.5 118.5t-58.5 194.5q0 164 92 257.5t251 93.5t243.5 -99t84.5 -256q0 -95 -60 -181.5t-142 -127.5h246v-54h-306v54q200 148 200 310q0 135 -71.5 216.5t-203.5 81.5q-138 0 -205 -79.5t-67 -216.5
q0 -34 5 -64t17.5 -56t23 -44.5t33 -42t34.5 -35t41 -36t40 -34.5v-54h-302z" />
    <glyph glyph-name="iotadieresistonos" unicode="&#x390;" horiz-adv-x="257" 
d="M189 -10q-42 0 -65.5 25.5t-23.5 71.5v459h55v-438q0 -69 56 -69q6 0 24 2l2 -47q-24 -4 -48 -4zM6 629l-46 47l46 46l46 -46zM77 623l78 158h60l-86 -158h-52zM253 629l-46 47l46 46l47 -46z" />
    <glyph glyph-name="Alpha" unicode="&#x391;" horiz-adv-x="650" 
d="M14 0l284 707h82l260 -707h-64l-101 279h-290l-112 -279h-59zM205 330h252l-120 331z" />
    <glyph glyph-name="Beta" unicode="&#x392;" horiz-adv-x="640" 
d="M120 0v707h180q111 0 165 -46.5t54 -122.5q0 -105 -76 -151q-22 -13 -27 -11v-3l22 -3q82 -21 115 -91q17 -36 17 -82q0 -91 -58 -144t-182 -53h-210zM180 51h133q42 0 74 5.5t61.5 20t45 44t15.5 73.5q0 46 -15.5 75.5t-48.5 44t-71 19.5t-97 5h-97v-287zM180 390h118
q87 0 123.5 32.5t36.5 102.5q0 75 -44 105t-135 30h-99v-270z" />
    <glyph glyph-name="Gamma" unicode="&#x393;" horiz-adv-x="501" 
d="M120 0v707h381v-49h-322v-658h-59z" />
    <glyph glyph-name="uni0394" unicode="&#x394;" horiz-adv-x="660" 
d="M86 52h489l-179 469l-54 141l-63 -149zM5 0l298 707h82l275 -707h-655z" />
    <glyph glyph-name="Epsilon" unicode="&#x395;" horiz-adv-x="571" 
d="M120 0v707h378v-49h-319v-277h297v-52h-297v-278h342v-51h-401z" />
    <glyph glyph-name="Zeta" unicode="&#x396;" horiz-adv-x="529" 
d="M30 0v60l386 595h-360v52h422v-53l-389 -602h410v-52h-469z" />
    <glyph glyph-name="Eta" unicode="&#x397;" horiz-adv-x="769" 
d="M120 0v707h59v-326h411v326h59v-707h-59v329h-411v-329h-59z" />
    <glyph glyph-name="Theta" unicode="&#x398;" horiz-adv-x="815" 
d="M246 317l-16 43q40 25 109 25q30 0 75 -8t67 -8q55 0 89 17l15 -42q-42 -25 -109 -25q-27 0 -71 8.5t-70 8.5q-56 0 -89 -19zM399 -12q-156 0 -247.5 102t-91.5 265q0 164 99 263t259 99t248.5 -102t88.5 -262q0 -163 -96.5 -264t-259.5 -101zM402 39q142 0 218 88
t76 227q0 137 -77 224.5t-210 87.5q-138 0 -214.5 -87t-76.5 -223q0 -134 75 -225.5t209 -91.5z" />
    <glyph glyph-name="Iota" unicode="&#x399;" horiz-adv-x="299" 
d="M120 0v707h59v-707h-59z" />
    <glyph glyph-name="Kappa" unicode="&#x39a;" horiz-adv-x="598" 
d="M518 0l-301 367v19l285 321h74l-295 -326l316 -381h-79zM120 0v707h59v-707h-59z" />
    <glyph glyph-name="Lambda" unicode="&#x39b;" horiz-adv-x="630" 
d="M18 0l270 707h82l246 -707h-64l-167 489l-58 172l-66 -175l-184 -486h-59z" />
    <glyph glyph-name="Mu" unicode="&#x39c;" horiz-adv-x="944" 
d="M120 0v707h97l243 -685l269 685h95v-707h-59v571l3 94l-260 -665h-100l-234 662l5 -94v-568h-59z" />
    <glyph glyph-name="Nu" unicode="&#x39d;" horiz-adv-x="778" 
d="M120 0v707h97l383 -678l-3 91v587h61v-707h-109l-374 669l4 -67v-602h-59z" />
    <glyph glyph-name="Xi" unicode="&#x39e;" horiz-adv-x="552" 
d="M50 0v55h452v-55h-452zM82 327v56h388v-56h-388zM60 652v55h432v-55h-432z" />
    <glyph glyph-name="Omicron" unicode="&#x39f;" horiz-adv-x="815" 
d="M399 -12q-156 0 -247.5 102t-91.5 265q0 164 99 263t259 99t248.5 -102t88.5 -262q0 -163 -96.5 -264t-259.5 -101zM402 39q142 0 218 88t76 227q0 137 -77 224.5t-210 87.5q-138 0 -214.5 -87t-76.5 -223q0 -134 75 -225.5t209 -91.5z" />
    <glyph glyph-name="Pi" unicode="&#x3a0;" horiz-adv-x="755" 
d="M120 0v707h515v-707h-59v653h-397v-653h-59z" />
    <glyph glyph-name="Rho" unicode="&#x3a1;" horiz-adv-x="576" 
d="M120 0v707h219q103 0 160 -55t57 -158q0 -99 -67 -161.5t-202 -62.5h-23v52h29q91 0 145.5 39.5t54.5 127.5q0 87 -43.5 128t-132.5 41h-137v-658h-60z" />
    <glyph glyph-name="Sigma" unicode="&#x3a3;" horiz-adv-x="524" 
d="M35 0v59l219 300l-216 294v54h452v-49h-389l218 -299l-224 -308h399v-51h-459z" />
    <glyph glyph-name="Tau" unicode="&#x3a4;" horiz-adv-x="553" 
d="M247 0v654h-247v53h553v-53h-247v-654h-59z" />
    <glyph glyph-name="Upsilon" unicode="&#x3a5;" horiz-adv-x="531" 
d="M229 0v279l-223 428h65l190 -374l203 374h61l-237 -430v-277h-59z" />
    <glyph glyph-name="Phi" unicode="&#x3a6;" horiz-adv-x="811" 
d="M376 0v85q-145 0 -230.5 73t-85.5 215t85.5 215t230.5 73v76h59v-76q145 0 230.5 -73t85.5 -215t-85.5 -215t-230.5 -73v-85h-59zM435 136q121 0 189 61.5t68 175.5t-68 175.5t-189 61.5v-474zM376 136v474q-121 0 -189.5 -61.5t-68.5 -175.5t68.5 -175.5t189.5 -61.5z
" />
    <glyph glyph-name="Chi" unicode="&#x3a7;" horiz-adv-x="583" 
d="M6 0l248 377l-202 330h67l170 -280l181 280h63l-213 -328l233 -379h-69l-199 329l-211 -329h-68z" />
    <glyph glyph-name="Psi" unicode="&#x3a8;" horiz-adv-x="702" 
d="M324 0v168q-53 3 -98.5 16t-88.5 40t-67.5 75.5t-24.5 114.5v293h61v-286q0 -54 20 -93.5t54 -61.5t69 -33t75 -15v489h59v-489q42 4 78.5 17t69 38t51.5 69t19 103v262h56v-266q0 -58 -17.5 -105t-44.5 -76t-64 -49.5t-73 -30t-75 -12.5v-168h-59z" />
    <glyph glyph-name="uni03A9" unicode="&#x3a9;" horiz-adv-x="813" 
d="M28 0v54h242q-79 34 -137.5 118.5t-58.5 194.5q0 164 92 257.5t251 93.5t243.5 -99t84.5 -256q0 -95 -60 -181.5t-142 -127.5h246v-54h-306v54q200 148 200 310q0 135 -71.5 216.5t-203.5 81.5q-138 0 -205 -79.5t-67 -216.5q0 -34 5 -64t17.5 -56t23 -44.5t33 -42
t34.5 -35t41 -36t40 -34.5v-54h-302z" />
    <glyph glyph-name="Iotadieresis" unicode="&#x3aa;" horiz-adv-x="299" 
d="M120 0v707h59v-707h-59zM50 750l-46 47l46 46l46 -46zM254 750l-46 47l46 46l47 -46z" />
    <glyph glyph-name="Upsilondieresis" unicode="&#x3ab;" horiz-adv-x="531" 
d="M229 0v279l-223 428h65l190 -374l203 374h61l-237 -430v-277h-59zM159 750l-46 47l46 46l46 -46zM363 750l-46 47l46 46l47 -46z" />
    <glyph glyph-name="alphatonos" unicode="&#x3ac;" 
d="M247 -9q-26 0 -49.5 5.5t-49.5 22.5t-44.5 44t-31 75.5t-12.5 111.5q0 138 59 220t149 82q106 0 159 -85v79h55v-441q0 -66 52 -66l-5 -45q-31 2 -43 7q-33 13 -43.5 41t-10.5 86q-29 -63 -79 -100t-106 -37zM250 40q60 0 118.5 66t58.5 157v106q-25 63 -65 99.5
t-88 36.5q-78 0 -117.5 -69t-39.5 -186q0 -103 34.5 -156.5t98.5 -53.5zM281 633l78 158h60l-86 -158h-52z" />
    <glyph glyph-name="epsilontonos" unicode="&#x3ad;" horiz-adv-x="495" 
d="M269 -11q-212 0 -212 159q0 51 29 89.5t82 56.5q-88 30 -88 119q0 62 51.5 104.5t150.5 42.5q97 0 168 -34l-19 -47q-93 34 -153 34q-68 0 -104.5 -26t-36.5 -72q0 -30 9.5 -50.5t26 -30t31.5 -13t32 -3.5h120v-45h-124q-41 0 -79 -31t-38 -91q0 -50 39.5 -81.5
t120.5 -31.5q76 0 163 34l17 -42q-78 -41 -186 -41zM231 633l78 158h60l-86 -158h-52z" />
    <glyph glyph-name="etatonos" unicode="&#x3ae;" horiz-adv-x="621" 
d="M476 -220v559q0 87 -23.5 128.5t-100.5 41.5q-65 0 -183 -77v-432h-55v454q0 53 -52 60l5 45q19 0 39 -7q55 -18 63 -70q30 22 50 34t62 27.5t82 15.5q45 0 77.5 -13.5t49.5 -32.5t26 -49.5t11 -53.5t2 -55v-575h-53zM304 633l78 158h60l-86 -158h-52z" />
    <glyph glyph-name="iotatonos" unicode="&#x3af;" horiz-adv-x="257" 
d="M189 -10q-42 0 -65.5 25.5t-23.5 71.5v459h55v-438q0 -69 56 -69q6 0 24 2l2 -47q-24 -4 -48 -4zM90 633l78 158h60l-86 -158h-52z" />
    <glyph glyph-name="upsilondieresistonos" unicode="&#x3b0;" horiz-adv-x="572" 
d="M303 -8q-41 0 -75 8.5t-65.5 29t-49 60t-17.5 95.5v271q-3 46 -52 53l5 45q38 -1 68.5 -22.5t30.5 -67.5v-273q0 -152 153 -152q84 0 121.5 62t37.5 188q0 85 -15 141.5t-44 115.5h55q17 -33 26 -55t19.5 -78.5t10.5 -126.5q0 -147 -56 -220.5t-153 -73.5zM163 629
l-46 47l46 46l46 -46zM234 623l78 158h60l-86 -158h-52zM410 629l-46 47l46 46l47 -46z" />
    <glyph glyph-name="alpha" unicode="&#x3b1;" 
d="M247 -9q-26 0 -49.5 5.5t-49.5 22.5t-44.5 44t-31 75.5t-12.5 111.5q0 138 59 220t149 82q106 0 159 -85v79h55v-441q0 -66 52 -66l-5 -45q-31 2 -43 7q-33 13 -43.5 41t-10.5 86q-29 -63 -79 -100t-106 -37zM250 40q60 0 118.5 66t58.5 157v106q-25 63 -65 99.5
t-88 36.5q-78 0 -117.5 -69t-39.5 -186q0 -103 34.5 -156.5t98.5 -53.5z" />
    <glyph glyph-name="beta" unicode="&#x3b2;" horiz-adv-x="596" 
d="M100 -220v764q0 99 54.5 163t151.5 64q81 0 135.5 -52.5t54.5 -130.5q0 -57 -43 -110.5t-101 -69.5q83 -19 126 -63t43 -125q0 -111 -61.5 -171.5t-164.5 -60.5q-78 0 -140 24v-232h-55zM293 37q83 0 127.5 44t44.5 133q0 153 -211 162v47q78 4 132.5 52.5t54.5 109.5
q0 60 -40 99.5t-99 39.5q-71 0 -109 -48.5t-38 -122.5v-489q89 -27 138 -27z" />
    <glyph glyph-name="gamma" unicode="&#x3b3;" horiz-adv-x="471" 
d="M185 -220q-11 80 -11 162q0 40 3 79q-37 249 -157 525h60q98 -233 137 -463l53 108t60 126.5t39.5 110t21.5 118.5h54q-3 -81 -40 -178t-97.5 -213.5t-77.5 -157.5q9 -75 9 -152q0 -21 -2 -65h-52z" />
    <glyph glyph-name="delta" unicode="&#x3b4;" horiz-adv-x="593" 
d="M295 -11q-106 0 -170.5 63t-64.5 192q0 97 49.5 164.5t128.5 104.5q-53 26 -81 56t-28 77q0 60 55 93t131 33q101 0 178 -25l-10 -48q-83 23 -168 23q-58 0 -96 -18.5t-38 -52.5q0 -25 19.5 -46t42.5 -33.5t66.5 -33.5t68.5 -36q71 -41 113 -99.5t42 -152.5
q0 -135 -67.5 -198t-170.5 -63zM300 36q64 0 105 31t56.5 76.5t15.5 106.5q0 52 -15 91.5t-46 67.5t-57.5 44t-69.5 36q-86 -26 -129 -96t-43 -144q0 -96 44.5 -154.5t138.5 -58.5z" />
    <glyph glyph-name="epsilon" unicode="&#x3b5;" horiz-adv-x="495" 
d="M269 -11q-212 0 -212 159q0 51 29 89.5t82 56.5q-88 30 -88 119q0 62 51.5 104.5t150.5 42.5q97 0 168 -34l-19 -47q-93 34 -153 34q-68 0 -104.5 -26t-36.5 -72q0 -30 9.5 -50.5t26 -30t31.5 -13t32 -3.5h120v-45h-124q-41 0 -79 -31t-38 -91q0 -50 39.5 -81.5
t120.5 -31.5q76 0 163 34l17 -42q-78 -41 -186 -41z" />
    <glyph glyph-name="zeta" unicode="&#x3b6;" horiz-adv-x="464" 
d="M390 -201l-35 28q50 62 50 87q0 8 -2.5 14.5t-8 12t-11 9.5t-15.5 8t-18 6.5t-22 5.5t-22.5 4.5l-25 4.5t-25.5 5q-33 6 -56.5 12.5t-51.5 20t-45.5 31.5t-29.5 46.5t-12 65.5q0 138 107.5 297t235.5 251h-303v46h364v-51q-128 -94 -237.5 -247.5t-109.5 -285.5
q0 -37 12.5 -62.5t37 -41t48.5 -23t60 -14.5q9 -2 32.5 -6t33.5 -5.5t29 -6.5t28.5 -9t22.5 -12t19 -16.5t10.5 -21.5t4.5 -28q0 -53 -65 -125z" />
    <glyph glyph-name="eta" unicode="&#x3b7;" horiz-adv-x="621" 
d="M476 -220v559q0 87 -23.5 128.5t-100.5 41.5q-65 0 -183 -77v-432h-55v454q0 53 -52 60l5 45q19 0 39 -7q55 -18 63 -70q30 22 50 34t62 27.5t82 15.5q45 0 77.5 -13.5t49.5 -32.5t26 -49.5t11 -53.5t2 -55v-575h-53z" />
    <glyph glyph-name="theta" unicode="&#x3b8;" horiz-adv-x="605" 
d="M301 -12q-64 0 -108.5 27.5t-68.5 81t-34 119.5t-10 155q0 93 11.5 163.5t37.5 125t70.5 83t107.5 28.5q54 0 94 -20.5t63.5 -54.5t37.5 -87t18.5 -107t4.5 -125q0 -89 -11 -157t-36 -122t-69.5 -82t-107.5 -28zM137 414h332q-1 74 -8.5 126.5t-25 96t-50.5 65.5t-81 22
q-47 0 -79.5 -22t-51 -65t-26.5 -96.5t-10 -126.5zM306 35q91 0 126.5 83.5t36.5 249.5h-332q1 -169 37.5 -251t131.5 -82z" />
    <glyph glyph-name="iota" unicode="&#x3b9;" horiz-adv-x="257" 
d="M189 -10q-42 0 -65.5 25.5t-23.5 71.5v459h55v-438q0 -69 56 -69q6 0 24 2l2 -47q-24 -4 -48 -4z" />
    <glyph glyph-name="kappa" unicode="&#x3ba;" horiz-adv-x="539" 
d="M503 -7q-66 5 -146 100l-162 192l229 261h68l-231 -260l126 -147q38 -44 74.5 -71.5t57.5 -33.5zM100 0v546h55v-546h-55z" />
    <glyph glyph-name="lambda" unicode="&#x3bb;" horiz-adv-x="500" 
d="M470 -9q-49 5 -69 31t-36 80l-87 308l-28 94l-31 -98l-135 -406h-62l189 546h27l-18 63q-13 56 -33.5 85.5t-59.5 29.5q-47 0 -76 -14l-11 41q40 18 88 18q60 0 89.5 -31.5t51.5 -101.5l145 -507q15 -48 29.5 -66.5t35.5 -26.5z" />
    <glyph glyph-name="uni03BC" unicode="&#x3bc;" horiz-adv-x="624" 
d="M100 -220v766h55v-334q0 -34 1 -52.5t7 -44.5t17.5 -39.5t34 -23.5t54.5 -10q21 0 43.5 6t44 17.5l35.5 19.5t32 21t19 13v427h55v-444q0 -40 19.5 -53.5t62.5 -8.5v-46q-24 -4 -48 -4q-83 0 -88 76q-2 -1 -13.5 -10t-14.5 -11t-14 -10t-16 -10.5t-16.5 -9t-19 -9
t-19.5 -7t-22.5 -6t-23.5 -3t-26 -1.5q-64 0 -104 33v-242h-55z" />
    <glyph glyph-name="nu" unicode="&#x3bd;" horiz-adv-x="475" 
d="M188 0l-168 546h58l147 -497q162 289 162 443q0 29 -3 54h55q3 -16 3 -48q0 -163 -193 -498h-61z" />
    <glyph glyph-name="xi" unicode="&#x3be;" horiz-adv-x="470" 
d="M387 -199l-34 26q46 60 46 93q0 25 -27 38t-84 26l-45.5 10.5t-44 13t-45 18t-37.5 23.5t-33 32.5t-19.5 43t-8.5 55.5q0 60 41 111.5t98.5 80.5t120.5 40q-35 1 -69.5 10t-68.5 27t-55.5 50t-21.5 74q0 92 66 142t182 50q47 0 102 -11l-6 -45q-54 9 -101 9
q-192 0 -192 -135q0 -38 21 -66.5t57.5 -44.5t78 -24.5t91.5 -10.5v-47q-43 -5 -90 -19t-93 -37.5t-75.5 -61t-29.5 -82.5q0 -40 14.5 -68.5t44 -45.5t54.5 -25.5t67 -17.5l49 -11t41 -12.5t38 -19.5t21 -26.5t10 -38.5q0 -52 -63 -124z" />
    <glyph glyph-name="omicron" unicode="&#x3bf;" horiz-adv-x="573" 
d="M285 -12q-103 0 -164 73t-61 206q0 138 65.5 215.5t165.5 77.5q108 0 165 -74t57 -213t-64 -212t-164 -73zM290 35q47 0 81.5 21t52 57t25.5 75t8 85q0 43 -7.5 82t-25.5 76.5t-53 59.5t-83 22t-83 -22t-53 -59t-26.5 -76.5t-8.5 -83.5q0 -101 41.5 -169t131.5 -68z" />
    <glyph glyph-name="pi" unicode="&#x3c0;" horiz-adv-x="590" 
d="M515 -10q-42 0 -66 25.5t-24 71.5v407h-260v-494h-55v494h-70v52h521v-52h-80v-386q0 -69 56 -69q6 0 24 2l2 -47q-24 -4 -48 -4z" />
    <glyph glyph-name="rho" unicode="&#x3c1;" horiz-adv-x="559" 
d="M70 -220v497q0 141 56 211t161 70q112 0 162 -74t50 -217q0 -141 -61.5 -208t-172.5 -67q-34 0 -70 9l11 46q30 -8 62 -8q51 0 86.5 17.5t54 51t26 71.5t7.5 88q0 244 -158 244q-159 0 -159 -229v-502h-55z" />
    <glyph glyph-name="sigma1" unicode="&#x3c2;" horiz-adv-x="487" 
d="M365 -199l-35 28q44 57 44 90q0 22 -14 36t-30.5 20t-49.5 13q-23 5 -32.5 7.5t-32 10t-34 14t-31 19t-30 26t-24 34.5t-20 45.5t-11.5 57.5t-5 72q0 124 62 205t182 81q88 0 142 -29l-19 -47q-62 28 -127 28q-93 0 -138 -66.5t-45 -166.5q0 -55 10.5 -96t26 -65.5
t40.5 -42t45.5 -25t50.5 -14.5q4 -1 26 -6t27 -7t22 -7.5t22.5 -10l16.5 -13t15 -17.5t7.5 -22.5t3.5 -29.5q0 -47 -65 -122z" />
    <glyph glyph-name="sigma" unicode="&#x3c3;" horiz-adv-x="585" 
d="M285 -8q-109 0 -167 68.5t-58 202.5t65.5 210.5t201.5 76.5q31 0 248 -6v-50l-130 2q68 -77 68 -223q0 -140 -61 -210.5t-167 -70.5zM290 39q51 0 85.5 20t51.5 55.5t23.5 73t6.5 85.5q0 157 -80 225l-49 2q-107 1 -159.5 -55t-51.5 -173q0 -233 173 -233z" />
    <glyph glyph-name="tau" unicode="&#x3c4;" horiz-adv-x="444" 
d="M293 -13q-64 0 -95 29t-31 121v357h-147v52h384v-52h-181v-354q0 -56 17 -80t53 -24q37 0 79 15l12 -44q-40 -20 -91 -20z" />
    <glyph glyph-name="upsilon" unicode="&#x3c5;" horiz-adv-x="572" 
d="M303 -8q-41 0 -75 8.5t-65.5 29t-49 60t-17.5 95.5v271q-3 46 -52 53l5 45q38 -1 68.5 -22.5t30.5 -67.5v-273q0 -152 153 -152q84 0 121.5 62t37.5 188q0 85 -15 141.5t-44 115.5h55q17 -33 26 -55t19.5 -78.5t10.5 -126.5q0 -147 -56 -220.5t-153 -73.5z" />
    <glyph glyph-name="phi" unicode="&#x3c6;" horiz-adv-x="715" 
d="M330 -220v213q-130 6 -200 76t-70 198q0 131 72.5 206t197.5 84v101h55v-100q270 -10 270 -285q0 -132 -72 -202.5t-198 -77.5v-213h-55zM330 38v474q-59 -4 -102 -25.5t-66.5 -56t-34 -73.5t-10.5 -85q0 -97 50.5 -161.5t162.5 -72.5zM385 38q214 12 214 235
q0 98 -49 164.5t-165 74.5v-474z" />
    <glyph glyph-name="chi" unicode="&#x3c7;" horiz-adv-x="472" 
d="M476 -225q-41 2 -67 25t-51 78l-113 248l-163 -346h-59l196 404l-125 252q-32 65 -74 77l11 48q42 -8 66 -32.5t48 -74.5l104 -216l146 308h60l-181 -362l133 -279q22 -46 36 -62.5t37 -20.5z" />
    <glyph glyph-name="psi" unicode="&#x3c8;" horiz-adv-x="696" 
d="M324 -220v213q-108 8 -171 68.5t-63 177.5v210q0 53 -52 60l5 45q38 -1 68.5 -22.5t30.5 -67.5v-219q0 -192 182 -205v618h55v-618q94 7 149.5 71.5t55.5 177.5q0 135 -59 257h56q55 -108 55 -260q0 -137 -73 -212t-184 -81v-213h-55z" />
    <glyph glyph-name="omega" unicode="&#x3c9;" horiz-adv-x="783" 
d="M245 -8q-85 0 -135 69t-50 176q0 92 27.5 162t101.5 147h67q-140 -123 -140 -305q0 -29 7 -60.5t21.5 -64t43.5 -53t67 -20.5q48 0 78.5 42.5t30.5 116.5v158h55v-154q0 -79 30 -121t79 -42q38 0 67 20.5t43.5 53t21.5 64t7 60.5q0 87 -37 166t-106 139h74
q68 -70 96.5 -142.5t28.5 -161.5q0 -103 -53 -176.5t-142 -73.5q-44 0 -86.5 30t-51.5 80q-17 -54 -59 -82t-86 -28z" />
    <glyph glyph-name="iotadieresis" unicode="&#x3ca;" horiz-adv-x="257" 
d="M189 -10q-42 0 -65.5 25.5t-23.5 71.5v459h55v-438q0 -69 56 -69q6 0 24 2l2 -47q-24 -4 -48 -4zM24 669l-46 47l46 46l46 -46zM228 669l-46 47l46 46l47 -46z" />
    <glyph glyph-name="upsilondieresis" unicode="&#x3cb;" horiz-adv-x="572" 
d="M303 -8q-41 0 -75 8.5t-65.5 29t-49 60t-17.5 95.5v271q-3 46 -52 53l5 45q38 -1 68.5 -22.5t30.5 -67.5v-273q0 -152 153 -152q84 0 121.5 62t37.5 188q0 85 -15 141.5t-44 115.5h55q17 -33 26 -55t19.5 -78.5t10.5 -126.5q0 -147 -56 -220.5t-153 -73.5zM178 669
l-46 47l46 46l46 -46zM382 669l-46 47l46 46l47 -46z" />
    <glyph glyph-name="omicrontonos" unicode="&#x3cc;" horiz-adv-x="573" 
d="M285 -12q-103 0 -164 73t-61 206q0 138 65.5 215.5t165.5 77.5q108 0 165 -74t57 -213t-64 -212t-164 -73zM290 35q47 0 81.5 21t52 57t25.5 75t8 85q0 43 -7.5 82t-25.5 76.5t-53 59.5t-83 22t-83 -22t-53 -59t-26.5 -76.5t-8.5 -83.5q0 -101 41.5 -169t131.5 -68z
M259 633l78 158h60l-86 -158h-52z" />
    <glyph glyph-name="upsilontonos" unicode="&#x3cd;" horiz-adv-x="572" 
d="M303 -8q-41 0 -75 8.5t-65.5 29t-49 60t-17.5 95.5v271q-3 46 -52 53l5 45q38 -1 68.5 -22.5t30.5 -67.5v-273q0 -152 153 -152q84 0 121.5 62t37.5 188q0 85 -15 141.5t-44 115.5h55q17 -33 26 -55t19.5 -78.5t10.5 -126.5q0 -147 -56 -220.5t-153 -73.5zM255 633
l78 158h60l-86 -158h-52z" />
    <glyph glyph-name="omegatonos" unicode="&#x3ce;" horiz-adv-x="783" 
d="M245 -8q-85 0 -135 69t-50 176q0 92 27.5 162t101.5 147h67q-140 -123 -140 -305q0 -29 7 -60.5t21.5 -64t43.5 -53t67 -20.5q48 0 78.5 42.5t30.5 116.5v158h55v-154q0 -79 30 -121t79 -42q38 0 67 20.5t43.5 53t21.5 64t7 60.5q0 87 -37 166t-106 139h74
q68 -70 96.5 -142.5t28.5 -161.5q0 -103 -53 -176.5t-142 -73.5q-44 0 -86.5 30t-51.5 80q-17 -54 -59 -82t-86 -28zM354 633l78 158h60l-86 -158h-52z" />
    <glyph glyph-name="beta.alt" unicode="&#x3d0;" horiz-adv-x="597" 
d="M303 -7q-212 0 -212 335v81q0 78 13 142t40.5 115.5t75.5 80t113 28.5q91 0 134 -41t43 -96q0 -92 -141 -158q80 -10 129 -65t49 -162q0 -67 -25 -124.5t-82 -96.5t-137 -39zM311 38q85 0 130.5 58.5t45.5 162.5q0 81 -40.5 130.5t-103.5 49.5q-89 0 -193 -67v-73
q0 -261 161 -261zM150 418q27 17 119 57t136 76t44 82q0 43 -35 69.5t-86 26.5q-83 0 -130.5 -74t-47.5 -213v-24z" />
    <glyph glyph-name="theta.alt" unicode="&#x3d1;" horiz-adv-x="605" 
d="M304 -12q-86 0 -131 58t-55 178q-3 26 -52 10l-10 39q49 15 70 15q44 0 48 -51q7 -107 40 -154.5t95 -47.5q160 0 160 333q0 28 -1 42q-86 -42 -159 -42q-101 0 -153 52.5t-52 134.5q0 89 57 152.5t146 63.5q54 0 94 -20.5t63.5 -54.5t37.5 -87t18.5 -107t4.5 -125
q0 -178 -56 -283.5t-165 -105.5zM307 414q80 0 160 38q-8 140 -46 206t-117 66q-68 0 -107 -49t-39 -120q0 -60 43 -100.5t106 -40.5z" />
    <glyph glyph-name="phi.alt" unicode="&#x3d5;" horiz-adv-x="715" 
d="M328 -220v213q-130 6 -199 76t-69 198q0 90 30 162t69 117h57q-99 -116 -99 -274q0 -46 11 -85t34.5 -71.5t65.5 -53t100 -24.5v354q0 75 43 121.5t117 46.5q85 0 126 -61.5t41 -192.5q0 -161 -71 -233.5t-201 -79.5v-213h-55zM383 38q120 6 168 71.5t48 196.5
q0 205 -119 205q-49 0 -73 -30.5t-24 -107.5v-335z" />
    <glyph glyph-name="uni03D8" unicode="&#x3d8;" horiz-adv-x="800" 
d="M365 -166v156q-43 4 -81.5 17t-76.5 40.5t-65 67t-43.5 101.5t-16.5 139q0 188 89 278t229 90q141 0 229.5 -94t88.5 -274q0 -97 -24 -168.5t-65.5 -112t-89.5 -60.5t-105 -24v-156h-69zM401 38q40 0 75 8t69.5 30t59 56.5t40 92t15.5 131.5q0 149 -66 232.5t-194 83.5
t-194 -83.5t-66 -232.5q0 -74 16 -131.5t41.5 -92t60.5 -56.5t69.5 -30t73.5 -8z" />
    <glyph glyph-name="uni03D9" unicode="&#x3d9;" horiz-adv-x="628" 
d="M284 -182v204q-101 8 -162.5 78.5t-61.5 186.5q0 130 72.5 201.5t182.5 71.5q114 0 183.5 -71t69.5 -195q0 -119 -62 -189.5t-161 -81.5v-205h-61zM315 67q92 0 145 64t53 158t-49.5 158t-150.5 64q-53 0 -93 -19.5t-62.5 -52t-33 -69.5t-10.5 -77q0 -61 18.5 -110
t65.5 -82.5t117 -33.5z" />
    <glyph glyph-name="uni03DA" unicode="&#x3da;" horiz-adv-x="557" 
d="M537 668l-20 -48q-103 43 -204 43q-103 0 -146 -61.5t-43 -174.5q0 -66 19.5 -112t50.5 -68.5t69 -36t75.5 -23t68.5 -22.5t50.5 -40t19.5 -70q0 -125 -267 -196l-14 46q10 3 41 13.5l45.5 15.5t41 15.5t40 20t29.5 23t22.5 29t6.5 33.5q0 28 -20 45.5t-52 27.5t-70.5 20
t-77 27.5t-70.5 44.5t-52 77t-20 119q0 142 63 221.5t190 79.5q140 0 224 -49z" />
    <glyph glyph-name="uni03DB" unicode="&#x3db;" horiz-adv-x="500" 
d="M444 509l-19 -46q-83 34 -164 34q-41 0 -71.5 -18.5t-47.5 -51t-24.5 -70t-7.5 -80.5q0 -180 145 -201q68 -8 103.5 -33t35.5 -78q0 -114 -209 -117v43q160 1 160 74q0 30 -26 44.5t-87 22.5q-175 23 -175 250q0 117 51 190t153 73q103 0 183 -36z" />
    <glyph glyph-name="uni03DC" unicode="&#x3dc;" horiz-adv-x="545" 
d="M515 658h-336v-297h314v-53h-314v-308h-59v707h395v-49z" />
    <glyph glyph-name="uni03DD" unicode="&#x3dd;" horiz-adv-x="500" 
d="M446 760l-10 -48q-61 13 -102 13q-74 0 -109.5 -27t-35.5 -98v-226h117v-51h-117v-543h-55v543h-80v51h80v225q0 176 200 176q67 0 112 -15z" />
    <glyph glyph-name="uni03DE" unicode="&#x3de;" horiz-adv-x="800" 
d="M450 -110l-57 -14l140 385h-341l139 427l56 8l-121 -379h342z" />
    <glyph glyph-name="uni03DF" unicode="&#x3df;" horiz-adv-x="500" 
d="M287 -30l-60 -12l146 337h-325l161 363l59 6l-142 -315h326z" />
    <glyph glyph-name="uni03E0" unicode="&#x3e0;" horiz-adv-x="800" 
d="M551 -60l-32 41q131 104 131 261q0 34 -4 53l-404 -262l-24 39l414 269q-24 64 -67 106l-446 -290l-24 39l430 278q-32 27 -81 41t-98 14q-92 0 -173 -49l-27 45q78 56 200 56q158 0 258 -98t100 -233q0 -97 -43.5 -179.5t-109.5 -130.5z" />
    <glyph glyph-name="uni03E1" unicode="&#x3e1;" horiz-adv-x="700" 
d="M496 -73l-31 36q131 100 131 252q0 39 -1 51l-393 -255l-27 41l402 263q-28 67 -63 102l-434 -284l-27 42l416 269q-32 21 -78.5 34.5t-87.5 13.5q-85 0 -169 -47l-26 39q88 59 195 59q155 0 250 -93t95 -226q0 -101 -46.5 -178t-105.5 -119z" />
    <glyph glyph-name="uni0400" unicode="&#x400;" horiz-adv-x="571" 
d="M120 0v707h378v-49h-319v-277h297v-52h-297v-278h342v-51h-401zM380 748l-211 69l21 55l208 -83z" />
    <glyph glyph-name="afii10023" unicode="&#x401;" horiz-adv-x="571" 
d="M120 0v707h378v-49h-319v-277h297v-52h-297v-278h342v-51h-401zM211 750l-46 47l46 46l46 -46zM415 750l-46 47l46 46l47 -46z" />
    <glyph glyph-name="afii10051" unicode="&#x402;" horiz-adv-x="747" 
d="M476 -220l-41 44q19 16 42.5 41t59 74.5t58.5 122t23 152.5q0 76 -39 119t-110 43q-43 0 -97.5 -13.5t-97.5 -36.5v-326h-59v654h-215v53h533v-53h-259v-271q120 45 209 45q101 0 147.5 -60.5t46.5 -152.5q0 -232 -201 -435z" />
    <glyph glyph-name="afii10052" unicode="&#x403;" horiz-adv-x="545" 
d="M120 0v707h395v-49h-336v-658h-59zM224 748l-17 41l207 83l22 -55z" />
    <glyph glyph-name="afii10053" unicode="&#x404;" horiz-adv-x="639" 
d="M419 -10q-166 0 -262.5 100.5t-96.5 258.5q0 165 94.5 265.5t260.5 100.5q24 0 47 -1.5t40 -3.5t33.5 -4.5t27.5 -5.5l21.5 -6t16 -5t9.5 -4l5 -2l-17 -51q-87 29 -181 29q-58 0 -107.5 -15.5t-91 -47.5t-67 -87.5t-29.5 -128.5h387v-53h-386q4 -75 31 -131.5t70.5 -89.5
t97 -49.5t115.5 -16.5q89 0 166 25l16 -49q-64 -28 -200 -28z" />
    <glyph glyph-name="afii10054" unicode="&#x405;" horiz-adv-x="543" 
d="M246 -12q-108 0 -186 41l22 51q81 -38 162 -38q32 0 61.5 6t58 20t45.5 41t17 64q0 53 -36 90.5t-87 61l-102 49t-87 70t-36 107.5q0 79 55.5 122t141.5 43q88 0 159 -31l-16 -46q-72 27 -142 27q-64 0 -104 -27t-40 -84q0 -41 26 -73.5t65 -52l84.5 -43.5t84.5 -48
t65 -65t26 -94q0 -94 -65.5 -142.5t-171.5 -48.5z" />
    <glyph glyph-name="afii10055" unicode="&#x406;" horiz-adv-x="299" 
d="M120 0v707h59v-707h-59z" />
    <glyph glyph-name="afii10056" unicode="&#x407;" horiz-adv-x="299" 
d="M120 0v707h59v-707h-59zM48 750l-46 47l46 46l46 -46zM252 750l-46 47l46 46l47 -46z" />
    <glyph glyph-name="afii10057" unicode="&#x408;" horiz-adv-x="299" 
d="M3 -184l-28 44q85 47 115 114.5t30 176.5v556h59v-554q0 -128 -36 -207t-140 -130z" />
    <glyph glyph-name="afii10058" unicode="&#x409;" horiz-adv-x="989" 
d="M38 -22l-27 56q39 18 71 48t47 60q51 105 78 565h356v-658h144q82 0 125.5 42t43.5 117q0 157 -200 157h-29v52h30q262 0 262 -214q0 -90 -56 -146.5t-154 -56.5h-225v655h-240q-2 -26 -7 -78.5l-7.5 -77.5l-7 -69t-7.5 -68l-7.5 -59t-9 -57.5t-10.5 -48.5t-12.5 -46
t-14.5 -37q-39 -86 -143 -136z" />
    <glyph glyph-name="afii10059" unicode="&#x40a;" horiz-adv-x="1025" 
d="M120 0v707h59v-306h361v306h59v-658h134q83 0 131 40t48 111q0 82 -53 115.5t-147 33.5h-27v52h28q262 0 262 -206q0 -85 -65.5 -140t-165.5 -55h-204v349h-361v-349h-59z" />
    <glyph glyph-name="afii10060" unicode="&#x40b;" horiz-adv-x="757" 
d="M215 0v654h-215v53h533v-53h-259v-271q107 45 209 45q61 0 101.5 -15.5t59.5 -44.5t26 -57t7 -65v-246h-59v257q0 33 -12.5 56.5t-29 35t-41.5 18.5t-41.5 8t-38.5 1q-91 0 -181 -50v-326h-59z" />
    <glyph glyph-name="afii10061" unicode="&#x40c;" horiz-adv-x="598" 
d="M518 0l-301 367v19l285 321h74l-295 -326l316 -381h-79zM120 0v707h59v-707h-59zM259 763l-17 41l207 83l22 -55z" />
    <glyph glyph-name="uni040D" unicode="&#x40d;" horiz-adv-x="789" 
d="M120 0v707h59v-528l-3 -110l62 107l372 531h59v-707h-59v528l3 110l-36 -62l-398 -576h-59zM468 748l-211 69l21 55l208 -83z" />
    <glyph glyph-name="afii10062" unicode="&#x40e;" horiz-adv-x="553" 
d="M151 -9l-25 55q51 17 84 46t59 92l15 34h-34l-241 489h65l225 -451l183 451h62l-226 -537q-36 -85 -70 -119t-97 -60zM282 762q-95 0 -158 77l34 31q49 -56 124 -56t124 56l34 -31q-63 -77 -158 -77z" />
    <glyph glyph-name="afii10145" unicode="&#x40f;" horiz-adv-x="759" 
d="M350 -153v153h-230v707h59v-655h401v655h59v-707h-230v-153h-59z" />
    <glyph glyph-name="afii10017" unicode="&#x410;" horiz-adv-x="650" 
d="M14 0l284 707h82l260 -707h-64l-101 279h-290l-112 -279h-59zM205 330h252l-120 331z" />
    <glyph glyph-name="afii10018" unicode="&#x411;" horiz-adv-x="635" 
d="M120 0v707h405v-49h-346v-609h154q82 0 125.5 42t43.5 117q0 157 -200 157h-42v52h43q262 0 262 -214q0 -90 -56 -146.5t-154 -56.5h-235z" />
    <glyph glyph-name="afii10019" unicode="&#x412;" horiz-adv-x="640" 
d="M120 0v707h180q111 0 165 -46.5t54 -122.5q0 -105 -76 -151q-22 -13 -27 -11v-3l22 -3q82 -21 115 -91q17 -36 17 -82q0 -91 -58 -144t-182 -53h-210zM180 51h133q42 0 74 5.5t61.5 20t45 44t15.5 73.5q0 46 -15.5 75.5t-48.5 44t-71 19.5t-97 5h-97v-287zM180 390h118
q87 0 123.5 32.5t36.5 102.5q0 75 -44 105t-135 30h-99v-270z" />
    <glyph glyph-name="afii10020" unicode="&#x413;" horiz-adv-x="545" 
d="M120 0v707h395v-49h-336v-658h-59z" />
    <glyph glyph-name="afii10021" unicode="&#x414;" horiz-adv-x="706" 
d="M13 -153v205h59q40 72 88 196q15 40 36 169t28 290h346v-655h90v-205h-59v153h-529v-153h-59zM140 52h371v603h-233q-12 -150 -30 -260.5t-29 -146.5q-27 -87 -79 -196z" />
    <glyph glyph-name="afii10022" unicode="&#x415;" horiz-adv-x="571" 
d="M120 0v707h378v-49h-319v-277h297v-52h-297v-278h342v-51h-401z" />
    <glyph glyph-name="afii10024" unicode="&#x416;" horiz-adv-x="857" 
d="M1 0l291 376l-265 331h74l260 -326v-19l-281 -362h-79zM777 0l-281 362v19l260 326h74l-265 -331l291 -376h-79zM399 0v707h59v-707h-59z" />
    <glyph glyph-name="afii10025" unicode="&#x417;" horiz-adv-x="525" 
d="M214 -8q-100 0 -194 39l22 51q77 -36 170 -36q81 0 131.5 34.5t50.5 111.5q0 137 -195 137h-67v52h67q75 0 119.5 38t44.5 106q0 66 -39.5 101t-108.5 35q-59 0 -148 -32l-18 44q84 38 172 38q95 0 149 -48t54 -125q0 -42 -13.5 -76t-34 -54.5t-36 -31t-29.5 -16.5v-2
q144 -36 144 -161q0 -83 -58.5 -144t-182.5 -61z" />
    <glyph glyph-name="afii10026" unicode="&#x418;" horiz-adv-x="789" 
d="M120 0v707h59v-528l-3 -110l62 107l372 531h59v-707h-59v528l3 110l-36 -62l-398 -576h-59z" />
    <glyph glyph-name="afii10027" unicode="&#x419;" horiz-adv-x="789" 
d="M394 762q-95 0 -158 77l34 31q49 -56 124 -56t124 56l34 -31q-63 -77 -158 -77zM120 0v707h59v-528l-3 -110l62 107l372 531h59v-707h-59v528l3 110l-36 -62l-398 -576h-59z" />
    <glyph glyph-name="afii10028" unicode="&#x41a;" horiz-adv-x="598" 
d="M518 0l-301 367v19l285 321h74l-295 -326l316 -381h-79zM120 0v707h59v-707h-59z" />
    <glyph glyph-name="afii10029" unicode="&#x41b;" horiz-adv-x="683" 
d="M38 -22l-27 56q39 18 71 48t47 60q51 105 78 565h356v-707h-59v655h-240q-2 -26 -7 -78.5l-7.5 -77.5l-7 -69t-7.5 -68l-7.5 -59t-9 -57.5t-10.5 -48.5t-12.5 -46t-14.5 -37q-39 -86 -143 -136z" />
    <glyph glyph-name="afii10030" unicode="&#x41c;" horiz-adv-x="944" 
d="M120 0v707h97l243 -685l269 685h95v-707h-59v571l3 94l-260 -665h-100l-234 662l5 -94v-568h-59z" />
    <glyph glyph-name="afii10031" unicode="&#x41d;" horiz-adv-x="769" 
d="M120 0v707h59v-326h411v326h59v-707h-59v329h-411v-329h-59z" />
    <glyph glyph-name="afii10032" unicode="&#x41e;" horiz-adv-x="815" 
d="M399 -12q-156 0 -247.5 102t-91.5 265q0 164 99 263t259 99t248.5 -102t88.5 -262q0 -163 -96.5 -264t-259.5 -101zM402 39q142 0 218 88t76 227q0 137 -77 224.5t-210 87.5q-138 0 -214.5 -87t-76.5 -223q0 -134 75 -225.5t209 -91.5z" />
    <glyph glyph-name="afii10033" unicode="&#x41f;" horiz-adv-x="759" 
d="M120 0v707h519v-707h-59v655h-401v-655h-59z" />
    <glyph glyph-name="afii10034" unicode="&#x420;" horiz-adv-x="576" 
d="M120 0v707h219q103 0 160 -55t57 -158q0 -99 -67 -161.5t-202 -62.5h-23v52h29q91 0 145.5 39.5t54.5 127.5q0 87 -43.5 128t-132.5 41h-137v-658h-60z" />
    <glyph glyph-name="afii10035" unicode="&#x421;" horiz-adv-x="639" 
d="M419 -10q-166 0 -262.5 100.5t-96.5 258.5q0 165 94.5 265.5t260.5 100.5q24 0 47 -1.5t40 -3.5t33.5 -4.5t27.5 -5.5l21.5 -6t16 -5t9.5 -4l5 -2l-17 -51q-87 29 -181 29q-60 0 -111 -16.5t-93.5 -51t-66.5 -94.5t-24 -140q0 -161 89 -239t226 -78q89 0 166 25l16 -49
q-64 -28 -200 -28z" />
    <glyph glyph-name="afii10036" unicode="&#x422;" horiz-adv-x="553" 
d="M247 0v654h-247v53h553v-53h-247v-654h-59z" />
    <glyph glyph-name="afii10037" unicode="&#x423;" horiz-adv-x="553" 
d="M151 -9l-25 55q51 17 84 46t59 92l15 34h-34l-241 489h65l225 -451l183 451h62l-226 -537q-36 -85 -70 -119t-97 -60z" />
    <glyph glyph-name="afii10038" unicode="&#x424;" horiz-adv-x="811" 
d="M376 0v85q-145 0 -230.5 73t-85.5 215t85.5 215t230.5 73v76h59v-76q145 0 230.5 -73t85.5 -215t-85.5 -215t-230.5 -73v-85h-59zM435 136q121 0 189 61.5t68 175.5t-68 175.5t-189 61.5v-474zM376 136v474q-121 0 -189.5 -61.5t-68.5 -175.5t68.5 -175.5t189.5 -61.5z
" />
    <glyph glyph-name="afii10039" unicode="&#x425;" horiz-adv-x="583" 
d="M6 0l248 377l-202 330h67l170 -280l181 280h63l-213 -328l233 -379h-69l-199 329l-211 -329h-68z" />
    <glyph glyph-name="afii10040" unicode="&#x426;" horiz-adv-x="765" 
d="M660 -153v153h-540v707h59v-655h391v655h59v-655h90v-205h-59z" />
    <glyph glyph-name="afii10041" unicode="&#x427;" horiz-adv-x="672" 
d="M493 0v334q-107 -45 -214 -45q-61 0 -102.5 16t-61.5 44t-27.5 57t-7.5 65v236h59v-247q0 -119 168 -119q37 0 89.5 13t96.5 37v316h59v-707h-59z" />
    <glyph glyph-name="afii10042" unicode="&#x428;" horiz-adv-x="1015" 
d="M120 0v707h59v-655h299v655h59v-655h299v655h59v-707h-775z" />
    <glyph glyph-name="afii10043" unicode="&#x429;" horiz-adv-x="1031" 
d="M926 -153v153h-806v707h59v-655h299v655h59v-655h299v655h59v-655h90v-205h-59z" />
    <glyph glyph-name="afii10044" unicode="&#x42a;" horiz-adv-x="682" 
d="M197 0v654h-194v53h253v-658h144q82 0 125.5 42t43.5 117q0 157 -200 157h-28v52h29q262 0 262 -214q0 -90 -56 -146.5t-154 -56.5h-225z" />
    <glyph glyph-name="afii10045" unicode="&#x42b;" horiz-adv-x="856" 
d="M120 0v707h59v-658h144q82 0 125.5 42t43.5 117q0 157 -200 157h-29v52h30q262 0 262 -214q0 -90 -56 -146.5t-154 -56.5h-225zM677 0v707h59v-707h-59z" />
    <glyph glyph-name="afii10046" unicode="&#x42c;" horiz-adv-x="605" 
d="M120 0v707h59v-658h144q82 0 125.5 42t43.5 117q0 157 -200 157h-29v52h30q262 0 262 -214q0 -90 -56 -146.5t-154 -56.5h-225z" />
    <glyph glyph-name="afii10047" unicode="&#x42d;" horiz-adv-x="639" 
d="M220 -10q-136 0 -200 28l16 49q77 -25 166 -25q131 0 219 71.5t95 216.5h-386v52h386q-4 74 -30 129.5t-67.5 87.5t-90.5 47t-106 15q-94 0 -181 -29l-17 51l4 2l10.5 4t16 5l21.5 6t27.5 5.5t33.5 4.5t40 3.5t47 1.5q167 0 261 -96t94 -260q0 -159 -97 -264t-262 -105z
" />
    <glyph glyph-name="afii10048" unicode="&#x42e;" horiz-adv-x="1086" 
d="M670 -12q-150 0 -240.5 94t-98.5 247h-152v-329h-59v707h59v-326h153q8 154 106 245t251 91q160 0 248.5 -102t88.5 -262q0 -163 -96.5 -264t-259.5 -101zM673 39q142 0 218 88t76 227q0 137 -77 224.5t-210 87.5q-138 0 -214.5 -87t-76.5 -223q0 -134 75 -225.5
t209 -91.5z" />
    <glyph glyph-name="afii10049" unicode="&#x42f;" horiz-adv-x="666" 
d="M52 -10l-12 50q51 16 76 39.5t68 98.5l74 129q-69 13 -108.5 64t-39.5 125q0 98 60.5 154.5t156.5 56.5h219v-707h-60v291h-107q-35 0 -64 3l-95 -167q-38 -67 -76.5 -98.5t-91.5 -38.5zM373 343h113v315h-137q-83 0 -129.5 -41.5t-46.5 -121.5q0 -152 200 -152z" />
    <glyph glyph-name="afii10065" unicode="&#x430;" horiz-adv-x="555" 
d="M190 -8q-69 0 -107.5 39.5t-38.5 112.5q0 47 19 80.5t51.5 50.5t64.5 24.5t68 8.5l139 3v83q0 69 -33.5 92t-117.5 23q-48 0 -128 -25l-12 46q17 8 63.5 18.5t98.5 10.5q183 0 183 -140v-320q0 -53 52 -60l-5 -45h-8q-33 0 -60 18.5t-30 53.5q-3 -2 -17 -13t-28.5 -19.5
t-37 -19t-52.5 -16.5t-64 -6zM207 39q35 0 79 17t68 32t32 22v157l-144 -6q-69 -3 -106.5 -33.5t-37.5 -76.5q0 -60 27.5 -86t81.5 -26z" />
    <glyph glyph-name="afii10066" unicode="&#x431;" horiz-adv-x="596" 
d="M295 -8q-111 0 -168 77.5t-57 244.5q0 94 17.5 197t52.5 141q18 20 48 35.5t88.5 32t92.5 24l125 27.5l11 -53l-113 -23t-91 -21.5t-80.5 -26t-39.5 -26.5q-30 -36 -48 -168q103 57 191 57q212 0 212 -237q0 -139 -66.5 -210t-174.5 -71zM300 39q51 0 87.5 20t56 55
t28 74t8.5 85q0 85 -38.5 137.5t-120.5 52.5q-37 0 -73.5 -10t-56 -19t-62.5 -31q-2 -44 -2 -66q0 -152 42 -225t131 -73z" />
    <glyph glyph-name="afii10067" unicode="&#x432;" horiz-adv-x="550" 
d="M100 0v546h178q90 0 136.5 -36t46.5 -98q0 -44 -22.5 -77.5t-59.5 -46.5q47 -7 79 -43t32 -90q0 -71 -50 -113t-149 -42h-191zM155 52h123q33 0 58 4t48.5 14t36 30.5t12.5 51.5q0 59 -43 83t-131 24h-104v-207zM155 305h130q119 0 119 99q0 51 -35.5 70.5t-106.5 19.5
h-107v-189z" />
    <glyph glyph-name="afii10068" unicode="&#x433;" horiz-adv-x="461" 
d="M100 0v546h321v-52h-266v-494h-55z" />
    <glyph glyph-name="afii10069" unicode="&#x434;" horiz-adv-x="598" 
d="M15 -147v198h51q36 54 74 172q11 32 23 132t14 191h307v-495h74v-198h-53v147h-437v-147h-53zM131 51h298v444h-201q-23 -236 -41 -302q-16 -60 -56 -142z" />
    <glyph glyph-name="afii10070" unicode="&#x435;" horiz-adv-x="529" 
d="M308 -12q-122 0 -185 63t-63 212q0 155 64 226t170 71q94 0 139.5 -66.5t45.5 -205.5v-20h-362q1 -72 17 -119t47.5 -70t66 -31.5t84.5 -8.5q27 0 70 8.5t59 14.5l11 -48q-6 -3 -24 -8.5t-57.5 -11.5t-82.5 -6zM117 314h303q0 95 -34.5 149t-103.5 54t-113 -52t-52 -151z
" />
    <glyph glyph-name="afii10072" unicode="&#x436;" horiz-adv-x="753" 
d="M717 -7q-63 5 -136 100l-147 192l214 261h68l-214 -260l109 -147q65 -88 122 -105zM36 -7l-16 41q57 17 122 105l109 147l-214 260h68l214 -261l-147 -192q-73 -95 -136 -100zM349 0v546h55v-546h-55z" />
    <glyph glyph-name="afii10073" unicode="&#x437;" horiz-adv-x="447" 
d="M196 -8q-94 0 -168 37l21 47q67 -35 148 -35q59 0 96 28.5t37 84.5q0 104 -151 104h-52v46h52q64 0 95 32.5t31 75.5q0 44 -28 70.5t-84 26.5q-57 0 -123 -28l-16 45q66 32 145 32q83 0 123 -40t40 -97q0 -47 -25 -82.5t-64 -50.5q46 -10 80 -43.5t34 -90.5
q0 -66 -47 -114t-144 -48z" />
    <glyph glyph-name="afii10074" unicode="&#x438;" horiz-adv-x="637" 
d="M100 0v546h55v-409l-2 -64l39 66l290 407h55v-546h-55v409l2 64l-39 -66l-290 -407h-55z" />
    <glyph glyph-name="afii10075" unicode="&#x439;" horiz-adv-x="637" 
d="M319 661q-95 0 -153 82l31 32q52 -62 122 -62t122 62l31 -32q-58 -82 -153 -82zM100 0v546h55v-409l-2 -64l39 66l290 407h55v-546h-55v409l2 64l-39 -66l-290 -407h-55z" />
    <glyph glyph-name="afii10076" unicode="&#x43a;" horiz-adv-x="539" 
d="M503 -7q-66 5 -146 100l-162 192l229 261h68l-231 -260l126 -147q38 -44 74.5 -71.5t57.5 -33.5zM100 0v546h55v-546h-55z" />
    <glyph glyph-name="afii10077" unicode="&#x43b;" horiz-adv-x="576" 
d="M31 -17l-22 51q71 31 99 86q53 101 63 426h305v-546h-55v495h-195q-11 -162 -25.5 -253t-41.5 -146q-40 -81 -128 -113z" />
    <glyph glyph-name="afii10078" unicode="&#x43c;" horiz-adv-x="754" 
d="M100 0v546h84l184 -518l204 518h82v-546h-55v419l3 73l-191 -492h-88l-172 492l4 -73v-419h-55z" />
    <glyph glyph-name="afii10079" unicode="&#x43d;" horiz-adv-x="617" 
d="M100 0v546h55v-246h307v246h55v-546h-55v248h-307v-248h-55z" />
    <glyph glyph-name="afii10080" unicode="&#x43e;" horiz-adv-x="593" 
d="M295 -12q-110 0 -172.5 72.5t-62.5 206.5q0 139 67 216t174 77q115 0 173.5 -74t58.5 -213t-65.5 -212t-172.5 -73zM300 35q51 0 87 20.5t55 56.5t27 75.5t8 85.5q0 43 -8 82t-26.5 76.5t-55.5 59.5t-89 22q-51 0 -88 -22t-56.5 -59t-28 -76.5t-8.5 -83.5
q0 -47 9.5 -87.5t29.5 -75t57 -54.5t87 -20z" />
    <glyph glyph-name="afii10081" unicode="&#x43f;" horiz-adv-x="607" 
d="M100 0v546h407v-546h-55v495h-297v-495h-55z" />
    <glyph glyph-name="afii10082" unicode="&#x440;" horiz-adv-x="589" 
d="M100 -220v766h55v-46q86 58 157 58q103 0 160 -73t57 -198q0 -82 -20.5 -142t-56.5 -93t-79 -48t-95 -15q-65 0 -123 10v-219h-55zM281 38q92 0 141.5 62.5t49.5 162.5q0 50 -6.5 89.5t-23.5 77t-52 58.5t-86 21q-39 0 -83 -22t-66 -40v-396q2 0 25 -4.5t45.5 -6.5
t55.5 -2z" />
    <glyph glyph-name="afii10083" unicode="&#x441;" horiz-adv-x="487" 
d="M327 -9q-139 0 -203 66.5t-64 214.5q0 133 66 210.5t178 77.5q88 0 142 -29l-19 -47q-64 28 -127 28q-85 0 -134 -63.5t-49 -172.5q0 -123 48.5 -178.5t169.5 -55.5q19 0 40.5 3t40 7t21.5 4l10 -47q-45 -18 -120 -18z" />
    <glyph glyph-name="afii10084" unicode="&#x442;" horiz-adv-x="501" 
d="M223 0v494h-190v52h435v-52h-190v-494h-55z" />
    <glyph glyph-name="afii10085" unicode="&#x443;" horiz-adv-x="491" 
d="M149 -220l75 220h-31l-173 546h61l125 -408l32 -100l34 98l141 410h58l-267 -766h-55z" />
    <glyph glyph-name="afii10086" unicode="&#x444;" horiz-adv-x="753" 
d="M349 -220v213q-131 0 -210 67t-79 215q0 76 22 132t62.5 88t91.5 47t113 15v197h55v-197q130 0 209.5 -67.5t79.5 -214.5q0 -148 -79.5 -215t-209.5 -67v-213h-55zM404 39q116 0 174.5 62t58.5 174t-58.5 173.5t-174.5 61.5v-471zM349 39v471q-117 0 -174.5 -61.5
t-57.5 -173.5t57.5 -174t174.5 -62z" />
    <glyph glyph-name="afii10087" unicode="&#x445;" horiz-adv-x="479" 
d="M21 0l187 279l-177 267h65l144 -223l143 223h62l-174 -264l187 -282h-68l-151 236l-153 -236h-65z" />
    <glyph glyph-name="afii10088" unicode="&#x446;" horiz-adv-x="621" 
d="M528 -147v147h-428v546h55v-495h297v495h55v-495h74v-198h-53z" />
    <glyph glyph-name="afii10089" unicode="&#x447;" horiz-adv-x="548" 
d="M393 0v247l-29.5 -7.5t-34.5 -8.5t-29.5 -5.5t-38.5 -5t-38 -1.5q-92 0 -125.5 38.5t-33.5 110.5v178h55v-170q0 -52 23.5 -78.5t103.5 -26.5q62 0 147 27v248h55v-546h-55z" />
    <glyph glyph-name="afii10090" unicode="&#x448;" horiz-adv-x="851" 
d="M100 0v546h55v-495h243v495h55v-495h243v495h55v-546h-651z" />
    <glyph glyph-name="afii10091" unicode="&#x449;" horiz-adv-x="865" 
d="M772 -147v147h-672v546h55v-495h243v495h55v-495h243v495h55v-495h74v-198h-53z" />
    <glyph glyph-name="afii10092" unicode="&#x44a;" horiz-adv-x="577" 
d="M162 0v494h-157v52h212v-494h135q60 0 94 29.5t34 84.5q0 115 -151 115h-68v52h74q98 0 150 -42.5t52 -125.5q0 -73 -43.5 -119t-118.5 -46h-213z" />
    <glyph glyph-name="afii10093" unicode="&#x44b;" horiz-adv-x="726" 
d="M100 0v546h55v-494h135q60 0 94 29.5t34 84.5q0 115 -151 115h-68v52h74q98 0 150 -42.5t52 -125.5q0 -73 -43.5 -119t-118.5 -46h-213zM569 0v546h57v-546h-57z" />
    <glyph glyph-name="afii10094" unicode="&#x44c;" horiz-adv-x="515" 
d="M100 0v546h55v-494h135q60 0 94 29.5t34 84.5q0 115 -151 115h-68v52h74q98 0 150 -42.5t52 -125.5q0 -73 -43.5 -119t-118.5 -46h-213z" />
    <glyph glyph-name="afii10095" unicode="&#x44d;" horiz-adv-x="493" 
d="M185 -11q-79 0 -145 34l20 44q65 -31 120 -31q94 0 142.5 61t52.5 154h-238v52h238q-2 40 -11.5 74.5t-29 66t-54.5 50t-82 18.5q-64 0 -131 -30l-19 47q66 30 153 30q115 0 173.5 -73.5t58.5 -212.5q0 -133 -71 -208.5t-177 -75.5z" />
    <glyph glyph-name="afii10096" unicode="&#x44e;" horiz-adv-x="807" 
d="M509 -8q-106 0 -168.5 65.5t-66.5 190.5h-119v-248h-55v546h55v-246h120q8 123 73.5 190.5t166.5 67.5q115 0 173.5 -73t58.5 -212t-65.5 -210t-172.5 -71zM514 39q51 0 87 20t55 55t27 74t8 85q0 43 -8 81.5t-26.5 75.5t-55.5 59t-89 22q-51 0 -88 -21.5t-56.5 -58.5
t-28 -76t-8.5 -83q0 -101 43 -167t140 -66z" />
    <glyph glyph-name="afii10097" unicode="&#x44f;" horiz-adv-x="567" 
d="M56 -5l-11 46q40 9 64 29.5t54 65.5l51 85q-51 14 -81 53.5t-30 94.5q0 80 53 128.5t135 48.5h176v-546h-55v207h-97q-20 0 -42 2l-77 -120q-59 -87 -140 -94zM310 253h102v241h-120q-132 0 -132 -126q0 -60 41 -87.5t109 -27.5z" />
    <glyph glyph-name="uni0450" unicode="&#x450;" horiz-adv-x="529" 
d="M308 -12q-122 0 -185 63t-63 212q0 155 64 226t170 71q94 0 139.5 -66.5t45.5 -205.5v-20h-362q1 -72 17 -119t47.5 -70t66 -31.5t84.5 -8.5q27 0 70 8.5t59 14.5l11 -48q-6 -3 -24 -8.5t-57.5 -11.5t-82.5 -6zM117 314h303q0 95 -34.5 149t-103.5 54t-113 -52t-52 -151z
M321 623l-180 125l31 45l176 -132z" />
    <glyph glyph-name="afii10071" unicode="&#x451;" horiz-adv-x="529" 
d="M308 -12q-122 0 -185 63t-63 212q0 155 64 226t170 71q94 0 139.5 -66.5t45.5 -205.5v-20h-362q1 -72 17 -119t47.5 -70t66 -31.5t84.5 -8.5q27 0 70 8.5t59 14.5l11 -48q-6 -3 -24 -8.5t-57.5 -11.5t-82.5 -6zM117 314h303q0 95 -34.5 149t-103.5 54t-113 -52t-52 -151z
M168 669l-46 47l46 46l46 -46zM372 669l-46 47l46 46l47 -46z" />
    <glyph glyph-name="afii10099" unicode="&#x452;" horiz-adv-x="606" 
d="M342 -220l-33 37q74 65 121.5 170t47.5 241q0 195 -130 195q-16 0 -32.5 -3t-30.5 -6.5t-30.5 -10.5t-27 -12t-24.5 -13.5l-20 -12t-17 -11.5l-11 -7v-347h-55v580h-109v52h109v122h55v-122h194v-52h-194v-183q34 23 51.5 33.5t60.5 26.5t81 16q98 0 142.5 -66.5
t44.5 -170.5q0 -86 -20 -166t-52 -136t-62 -94t-59 -60z" />
    <glyph glyph-name="afii10100" unicode="&#x453;" horiz-adv-x="461" 
d="M100 0v546h321v-52h-266v-494h-55zM188 623l-26 39l175 130l32 -44z" />
    <glyph glyph-name="afii10101" unicode="&#x454;" horiz-adv-x="487" 
d="M327 -11q-139 0 -203 67.5t-64 215.5q0 133 66 210.5t178 77.5q88 0 142 -29l-19 -47q-64 28 -127 28q-78 0 -126 -54t-56 -148h242v-52h-243q3 -114 52.5 -166t165.5 -52q19 0 40.5 3t40 7t21.5 4l10 -47q-45 -18 -120 -18z" />
    <glyph glyph-name="afii10102" unicode="&#x455;" horiz-adv-x="453" 
d="M206 -11q-77 0 -149 23l12 49q81 -25 133 -25q65 0 106.5 26t41.5 71q0 39 -28.5 66t-69 43.5l-80.5 34.5t-68.5 53t-28.5 86q0 68 48 106t127 38q49 0 119 -21l-11 -47q-68 20 -119 20q-52 0 -81.5 -26t-29.5 -66q0 -39 28 -66t68 -44l80.5 -35t68.5 -51.5t28 -82.5
q0 -43 -17.5 -74t-47 -47.5t-62 -23.5t-68.5 -7z" />
    <glyph glyph-name="afii10103" unicode="&#x456;" horiz-adv-x="257" 
d="M99 0v546h57v-546h-57zM126 661l-53 55l53 54l55 -54z" />
    <glyph glyph-name="afii10104" unicode="&#x457;" horiz-adv-x="257" 
d="M99 0v546h57v-546h-57zM24 669l-46 47l46 46l46 -46zM228 669l-46 47l46 46l47 -46z" />
    <glyph glyph-name="afii10105" unicode="&#x458;" horiz-adv-x="257" 
d="M-18 -220q-28 0 -55 8l9 47q22 -6 48 -6q64 0 90 40t26 111v566h55v-567q0 -199 -173 -199zM126 661l-53 55l53 54l55 -54z" />
    <glyph glyph-name="afii10106" unicode="&#x459;" horiz-adv-x="836" 
d="M31 -17l-22 51q71 31 99 86q53 101 63 426h305v-494h135q60 0 94 29.5t34 84.5q0 115 -151 115h-68v52h74q98 0 150 -42.5t52 -125.5q0 -73 -43.5 -119t-118.5 -46h-213v495h-195q-11 -157 -25 -247.5t-39 -145.5q-39 -86 -131 -119z" />
    <glyph glyph-name="afii10107" unicode="&#x45a;" horiz-adv-x="867" 
d="M100 0v546h55v-230h297v230h55v-494h135q60 0 94 27t34 79q0 106 -151 106h-68v52h74q98 0 150 -40t52 -119q0 -69 -43.5 -113t-118.5 -44h-213v264h-297v-264h-55z" />
    <glyph glyph-name="afii10108" unicode="&#x45b;" horiz-adv-x="606" 
d="M100 0v580h-109v52h109v122h55v-122h194v-52h-194v-183l49 34.5t58.5 26t86.5 15.5q38 0 67 -8.5t46 -25.5t28 -34.5t15.5 -44t6 -45t1.5 -45.5v-270h-51v267q0 84 -23 120t-101 36q-66 0 -183 -76v-347h-55z" />
    <glyph glyph-name="afii10109" unicode="&#x45c;" horiz-adv-x="539" 
d="M503 -7q-66 5 -146 100l-162 192l229 261h68l-231 -260l126 -147q38 -44 74.5 -71.5t57.5 -33.5zM100 0v546h55v-546h-55zM211 623l-26 39l175 130l32 -44z" />
    <glyph glyph-name="uni045D" unicode="&#x45d;" horiz-adv-x="637" 
d="M100 0v546h55v-409l-2 -64l39 66l290 407h55v-546h-55v409l2 64l-39 -66l-290 -407h-55zM359 623l-180 125l31 45l176 -132z" />
    <glyph glyph-name="afii10110" unicode="&#x45e;" horiz-adv-x="491" 
d="M149 -220l75 220h-31l-173 546h61l125 -408l32 -100l34 98l141 410h58l-267 -766h-55zM245 671q-95 0 -153 82l31 32q52 -62 122 -62t122 62l31 -32q-58 -82 -153 -82z" />
    <glyph glyph-name="afii10193" unicode="&#x45f;" horiz-adv-x="607" 
d="M277 -147v147h-177v546h55v-495h297v495h55v-546h-177v-147h-53z" />
    <glyph glyph-name="afii10146" unicode="&#x462;" horiz-adv-x="613" 
d="M158 0v542h-198v52h198v113h59v-113h230v-51h-230v-494h144q82 0 125.5 39.5t43.5 111.5q0 82 -53 115.5t-147 33.5h-30v52h31q262 0 262 -206q0 -87 -56 -141t-154 -54h-225z" />
    <glyph glyph-name="afii10194" unicode="&#x463;" horiz-adv-x="543" 
d="M128 0v494h-178v52h178v161h55v-161h202v-52h-202v-442h135q60 0 94 29.5t34 84.5q0 115 -151 115h-68v52h74q98 0 150 -42.5t52 -125.5q0 -73 -43.5 -119t-118.5 -46h-213z" />
    <glyph glyph-name="afii10147" unicode="&#x472;" horiz-adv-x="815" 
d="M399 -12q-156 0 -247.5 102t-91.5 265q0 164 99 263t259 99t248.5 -102t88.5 -262q0 -163 -96.5 -264t-259.5 -101zM402 39q136 0 211.5 81t81.5 211h-577q7 -126 81.5 -209t202.5 -83zM119 382h576q-8 126 -84 205t-202 79q-131 0 -207 -79t-83 -205z" />
    <glyph glyph-name="afii10195" unicode="&#x473;" horiz-adv-x="593" 
d="M295 -12q-110 0 -172.5 72.5t-62.5 206.5q0 139 67 216t174 77q115 0 173.5 -74t58.5 -213t-65.5 -212t-172.5 -73zM300 35q47 0 82 18t54.5 50t28.5 68t11 79h-359q4 -94 47.5 -154.5t135.5 -60.5zM117 298h359q-2 41 -11.5 76t-28.5 68t-54.5 52t-83.5 19
q-47 0 -82.5 -19t-55.5 -51.5t-30.5 -68t-12.5 -76.5z" />
    <glyph glyph-name="afii10148" unicode="&#x474;" horiz-adv-x="626" 
d="M259 0l-259 707h66l238 -659l189 473q65 163 129 207l43 -33q-58 -40 -108 -166l-212 -529h-86z" />
    <glyph glyph-name="afii10196" unicode="&#x475;" horiz-adv-x="495" 
d="M193 0l-173 546h62l120 -396l37 -118l41 121l73 210q24 71 56 123.5t62 74.5l41 -33q-64 -47 -113 -192l-117 -336h-89z" />
    <glyph glyph-name="afii10050" unicode="&#x490;" horiz-adv-x="545" 
d="M120 0v707h326v161h59v-210h-326v-658h-59z" />
    <glyph glyph-name="afii10098" unicode="&#x491;" horiz-adv-x="461" 
d="M100 0v546h266v114h55v-166h-266v-494h-55z" />
    <glyph glyph-name="uni04D8" unicode="&#x4d8;" horiz-adv-x="745" 
d="M359 -12q-148 0 -226 93t-83 250v51h575q-6 128 -74 206t-192 78q-116 0 -258 -69l-16 47q141 73 283 73q158 0 237.5 -100.5t79.5 -263.5q0 -167 -83 -266t-243 -99zM362 39q252 0 263 292h-517q6 -130 67.5 -211t186.5 -81z" />
    <glyph glyph-name="afii10846" unicode="&#x4d9;" horiz-adv-x="529" 
d="M221 561q121 0 184.5 -63.5t63.5 -211.5q0 -155 -64 -226t-170 -71q-94 0 -139.5 66.5t-45.5 205.5v20h362q-1 72 -17 119t-47.5 70t-66 31.5t-84.5 8.5q-27 0 -70 -8.5t-59 -14.5l-11 48q6 3 24 8.5t57.5 11.5t82.5 6zM412 235h-303q0 -95 34.5 -149t103.5 -54t113 52
t52 151z" />
    <glyph glyph-name="i.inferior" unicode="&#x1d62;" horiz-adv-x="218" 
d="M84 0v360h51v-360h-51zM109 429l-43 44l43 42l43 -42z" />
    <glyph glyph-name="r.inferior" unicode="&#x1d63;" horiz-adv-x="263" 
d="M66 0v360h51v-48q13 23 41.5 39t61.5 16q26 0 41 -5l-8 -49q-15 5 -42 5q-59 0 -94 -55v-263h-51z" />
    <glyph glyph-name="u.inferior" unicode="&#x1d64;" horiz-adv-x="427" 
d="M172 -8q-29 0 -50 9t-32.5 21.5t-18 32.5t-8 36.5t-1.5 38.5v230h50v-219q0 -34 4 -54t20.5 -35.5t48.5 -15.5q38 0 127 50v274h49v-360h-49v42q-78 -50 -140 -50z" />
    <glyph glyph-name="v.inferior" unicode="&#x1d65;" horiz-adv-x="364" 
d="M141 0l-128 360h56l109 -324l121 324h52l-136 -360h-74z" />
    <glyph glyph-name="uni1E46" unicode="&#x1e46;" horiz-adv-x="778" 
d="M120 0v707h97l383 -678l-3 91v587h61v-707h-109l-374 669l4 -67v-602h-59zM390 -220l-53 55l53 54l55 -54z" />
    <glyph glyph-name="uni1E47" unicode="&#x1e47;" horiz-adv-x="607" 
d="M100 0v546h55v-64q38 26 58.5 38.5t59 26t76.5 13.5q45 0 77.5 -14t49.5 -33t26 -49.5t11 -53.5t2 -55v-355h-53v339q0 87 -23.5 129t-100.5 42q-14 0 -28 -2.5t-30 -8.5l-26.5 -10t-28 -14t-24 -14l-25.5 -16t-21 -13v-432h-55zM313 -221l-53 55l53 54l55 -54z" />
    <glyph glyph-name="uni1E62" unicode="&#x1e62;" horiz-adv-x="543" 
d="M246 -12q-108 0 -186 41l22 51q81 -38 162 -38q32 0 61.5 6t58 20t45.5 41t17 64q0 53 -36 90.5t-87 61l-102 49t-87 70t-36 107.5q0 79 55.5 122t141.5 43q88 0 159 -31l-16 -46q-72 27 -142 27q-64 0 -104 -27t-40 -84q0 -41 26 -73.5t65 -52l84.5 -43.5t84.5 -48
t65 -65t26 -94q0 -94 -65.5 -142.5t-171.5 -48.5zM251 -219l-53 55l53 54l55 -54z" />
    <glyph glyph-name="uni1E63" unicode="&#x1e63;" horiz-adv-x="453" 
d="M206 -11q-77 0 -149 23l12 49q81 -25 133 -25q65 0 106.5 26t41.5 71q0 39 -28.5 66t-69 43.5l-80.5 34.5t-68.5 53t-28.5 86q0 68 48 106t127 38q49 0 119 -21l-11 -47q-68 20 -119 20q-52 0 -81.5 -26t-29.5 -66q0 -39 28 -66t68 -44l80.5 -35t68.5 -51.5t28 -82.5
q0 -43 -17.5 -74t-47 -47.5t-62 -23.5t-68.5 -7zM221 -221l-53 55l53 54l55 -54z" />
    <glyph glyph-name="Wgrave" unicode="&#x1e80;" horiz-adv-x="998" 
d="M218 0l-208 707h63l195 -672l200 498l-59 174h61l230 -673l230 673h58l-242 -707h-94l-157 457l-184 -457h-93zM562 748l-211 69l21 55l208 -83z" />
    <glyph glyph-name="wgrave" unicode="&#x1e81;" horiz-adv-x="870" 
d="M197 0l-177 546h58l160 -510l161 510h76l142 -510l178 510h55l-195 -546h-80l-122 426l-17 71l-19 -70l-140 -427h-80zM496 623l-180 125l31 45l176 -132z" />
    <glyph glyph-name="Wacute" unicode="&#x1e82;" horiz-adv-x="998" 
d="M218 0l-208 707h63l195 -672l200 498l-59 174h61l230 -673l230 673h58l-242 -707h-94l-157 457l-184 -457h-93zM420 748l-17 41l207 83l22 -55z" />
    <glyph glyph-name="wacute" unicode="&#x1e83;" horiz-adv-x="870" 
d="M197 0l-177 546h58l160 -510l161 510h76l142 -510l178 510h55l-195 -546h-80l-122 426l-17 71l-19 -70l-140 -427h-80zM384 623l-26 39l175 130l32 -44z" />
    <glyph glyph-name="Wdieresis" unicode="&#x1e84;" horiz-adv-x="998" 
d="M218 0l-208 707h63l195 -672l200 498l-59 174h61l230 -673l230 673h58l-242 -707h-94l-157 457l-184 -457h-93zM394 750l-46 47l46 46l46 -46zM598 750l-46 47l46 46l47 -46z" />
    <glyph glyph-name="wdieresis" unicode="&#x1e85;" horiz-adv-x="870" 
d="M197 0l-177 546h58l160 -510l161 510h76l142 -510l178 510h55l-195 -546h-80l-122 426l-17 71l-19 -70l-140 -427h-80zM332 669l-46 47l46 46l46 -46zM536 669l-46 47l46 46l47 -46z" />
    <glyph glyph-name="uni1EBC" unicode="&#x1ebc;" horiz-adv-x="571" 
d="M120 0v707h378v-49h-319v-277h297v-52h-297v-278h342v-51h-401zM375 754q-23 0 -62 18.5t-61 18.5q-35 0 -69 -24l-22 38l5 4l9.5 7.5t13 8t17.5 7.5t22.5 5.5t27.5 2.5q26 0 65 -18t58 -18q38 0 66 28l24 -36q-5 -6 -15 -14.5t-32.5 -18t-46.5 -9.5z" />
    <glyph glyph-name="uni1EBD" unicode="&#x1ebd;" horiz-adv-x="529" 
d="M308 -12q-122 0 -185 63t-63 212q0 155 64 226t170 71q94 0 139.5 -66.5t45.5 -205.5v-20h-362q1 -72 17 -119t47.5 -70t66 -31.5t84.5 -8.5q27 0 70 8.5t59 14.5l11 -48q-6 -3 -24 -8.5t-57.5 -11.5t-82.5 -6zM117 314h303q0 95 -34.5 149t-103.5 54t-113 -52t-52 -151z
M343 648q-23 0 -62 18.5t-61 18.5q-36 0 -68 -24l-23 38l5 4l9.5 7.5t13 8t17.5 7.5t22.5 5.5t27.5 2.5q26 0 65 -18t58 -18q38 0 66 28l24 -36q-36 -42 -94 -42z" />
    <glyph glyph-name="Ygrave" unicode="&#x1ef2;" horiz-adv-x="531" 
d="M229 0v279l-223 428h65l190 -374l203 374h61l-237 -430v-277h-59zM327 748l-211 69l21 55l208 -83z" />
    <glyph glyph-name="ygrave" unicode="&#x1ef3;" horiz-adv-x="491" 
d="M149 -220l75 220h-31l-173 546h61l125 -408l32 -100l34 98l141 410h58l-267 -766h-55zM305 623l-180 125l31 45l176 -132z" />
    <glyph glyph-name="uni1F00" unicode="&#x1f00;" 
d="M247 -9q-26 0 -49.5 5.5t-49.5 22.5t-44.5 44t-31 75.5t-12.5 111.5q0 138 59 220t149 82q106 0 159 -85v79h55v-441q0 -66 52 -66l-5 -45q-31 2 -43 7q-33 13 -43.5 41t-10.5 86q-29 -63 -79 -100t-106 -37zM250 40q60 0 118.5 66t58.5 157v106q-25 63 -65 99.5
t-88 36.5q-78 0 -117.5 -69t-39.5 -186q0 -103 34.5 -156.5t98.5 -53.5zM275 633q30 53 30 116q0 19 -5 42h59q8 -29 8 -51q0 -59 -43 -107h-49z" />
    <glyph glyph-name="uni1F01" unicode="&#x1f01;" 
d="M247 -9q-26 0 -49.5 5.5t-49.5 22.5t-44.5 44t-31 75.5t-12.5 111.5q0 138 59 220t149 82q106 0 159 -85v79h55v-441q0 -66 52 -66l-5 -45q-31 2 -43 7q-33 13 -43.5 41t-10.5 86q-29 -63 -79 -100t-106 -37zM250 40q60 0 118.5 66t58.5 157v106q-25 63 -65 99.5
t-88 36.5q-78 0 -117.5 -69t-39.5 -186q0 -103 34.5 -156.5t98.5 -53.5zM322 633q-43 48 -43 107q0 22 8 51h59q-5 -23 -5 -42q0 -28 7.5 -57t15.5 -44l7 -15h-49z" />
    <glyph glyph-name="uni1F02" unicode="&#x1f02;" 
d="M247 -9q-26 0 -49.5 5.5t-49.5 22.5t-44.5 44t-31 75.5t-12.5 111.5q0 138 59 220t149 82q106 0 159 -85v79h55v-441q0 -66 52 -66l-5 -45q-31 2 -43 7q-33 13 -43.5 41t-10.5 86q-29 -63 -79 -100t-106 -37zM250 40q60 0 118.5 66t58.5 157v106q-25 63 -65 99.5
t-88 36.5q-78 0 -117.5 -69t-39.5 -186q0 -103 34.5 -156.5t98.5 -53.5zM201 633q30 53 30 116q0 19 -5 42h59q8 -29 8 -51q0 -59 -43 -107h-49zM395 633l-86 158h60l78 -158h-52z" />
    <glyph glyph-name="uni1F03" unicode="&#x1f03;" 
d="M247 -9q-26 0 -49.5 5.5t-49.5 22.5t-44.5 44t-31 75.5t-12.5 111.5q0 138 59 220t149 82q106 0 159 -85v79h55v-441q0 -66 52 -66l-5 -45q-31 2 -43 7q-33 13 -43.5 41t-10.5 86q-29 -63 -79 -100t-106 -37zM250 40q60 0 118.5 66t58.5 157v106q-25 63 -65 99.5
t-88 36.5q-78 0 -117.5 -69t-39.5 -186q0 -103 34.5 -156.5t98.5 -53.5zM238 633q-43 48 -43 107q0 22 8 51h59q-5 -23 -5 -42q0 -28 7.5 -57t15.5 -44l7 -15h-49zM367 633l-86 158h60l78 -158h-52z" />
    <glyph glyph-name="uni1F04" unicode="&#x1f04;" 
d="M247 -9q-26 0 -49.5 5.5t-49.5 22.5t-44.5 44t-31 75.5t-12.5 111.5q0 138 59 220t149 82q106 0 159 -85v79h55v-441q0 -66 52 -66l-5 -45q-31 2 -43 7q-33 13 -43.5 41t-10.5 86q-29 -63 -79 -100t-106 -37zM250 40q60 0 118.5 66t58.5 157v106q-25 63 -65 99.5
t-88 36.5q-78 0 -117.5 -69t-39.5 -186q0 -103 34.5 -156.5t98.5 -53.5zM230 633q30 53 30 116q0 19 -5 42h59q8 -29 8 -51q0 -59 -43 -107h-49zM318 633l78 158h60l-86 -158h-52z" />
    <glyph glyph-name="uni1F05" unicode="&#x1f05;" 
d="M247 -9q-26 0 -49.5 5.5t-49.5 22.5t-44.5 44t-31 75.5t-12.5 111.5q0 138 59 220t149 82q106 0 159 -85v79h55v-441q0 -66 52 -66l-5 -45q-31 2 -43 7q-33 13 -43.5 41t-10.5 86q-29 -63 -79 -100t-106 -37zM250 40q60 0 118.5 66t58.5 157v106q-25 63 -65 99.5
t-88 36.5q-78 0 -117.5 -69t-39.5 -186q0 -103 34.5 -156.5t98.5 -53.5zM262 633q-43 48 -43 107q0 22 8 51h59q-5 -23 -5 -42q0 -28 7.5 -57t15.5 -44l7 -15h-49zM333 633l78 158h60l-86 -158h-52z" />
    <glyph glyph-name="uni1F06" unicode="&#x1f06;" 
d="M247 -9q-26 0 -49.5 5.5t-49.5 22.5t-44.5 44t-31 75.5t-12.5 111.5q0 138 59 220t149 82q106 0 159 -85v79h55v-441q0 -66 52 -66l-5 -45q-31 2 -43 7q-33 13 -43.5 41t-10.5 86q-29 -63 -79 -100t-106 -37zM250 40q60 0 118.5 66t58.5 157v106q-25 63 -65 99.5
t-88 36.5q-78 0 -117.5 -69t-39.5 -186q0 -103 34.5 -156.5t98.5 -53.5zM390 794q-23 0 -62 18.5t-61 18.5q-35 0 -69 -24l-22 38l5 4l9.5 7.5t13 8t17.5 7.5t22.5 5.5t27.5 2.5q26 0 65 -18t58 -18q38 0 66 28l24 -36q-5 -6 -15 -14.5t-32.5 -18t-46.5 -9.5zM278 615
q30 53 30 116q0 19 -5 42h59q8 -29 8 -51q0 -59 -43 -107h-49z" />
    <glyph glyph-name="uni1F07" unicode="&#x1f07;" 
d="M247 -9q-26 0 -49.5 5.5t-49.5 22.5t-44.5 44t-31 75.5t-12.5 111.5q0 138 59 220t149 82q106 0 159 -85v79h55v-441q0 -66 52 -66l-5 -45q-31 2 -43 7q-33 13 -43.5 41t-10.5 86q-29 -63 -79 -100t-106 -37zM250 40q60 0 118.5 66t58.5 157v106q-25 63 -65 99.5
t-88 36.5q-78 0 -117.5 -69t-39.5 -186q0 -103 34.5 -156.5t98.5 -53.5zM369 794q-23 0 -62 18.5t-61 18.5q-35 0 -69 -24l-22 38l5 4l9.5 7.5t13 8t17.5 7.5t22.5 5.5t27.5 2.5q26 0 65 -18t58 -18q38 0 66 28l24 -36q-5 -6 -15 -14.5t-32.5 -18t-46.5 -9.5zM306 615
q-43 48 -43 107q0 22 8 51h59q-5 -23 -5 -42q0 -28 7.5 -57t15.5 -44l7 -15h-49z" />
    <glyph glyph-name="uni1F08" unicode="&#x1f08;" horiz-adv-x="650" 
d="M66 549q30 53 30 116q0 19 -5 42h59q8 -29 8 -51q0 -59 -43 -107h-49zM14 0l284 707h82l260 -707h-64l-101 279h-290l-112 -279h-59zM205 330h252l-120 331z" />
    <glyph glyph-name="uni1F09" unicode="&#x1f09;" horiz-adv-x="650" 
d="M98 549q-43 48 -43 107q0 22 8 51h59q-5 -23 -5 -42q0 -28 7.5 -57t15.5 -44l7 -15h-49zM14 0l284 707h82l260 -707h-64l-101 279h-290l-112 -279h-59zM205 330h252l-120 331z" />
    <glyph glyph-name="uni1F0A" unicode="&#x1f0a;" horiz-adv-x="650" 
d="M-45 549q30 53 30 116q0 19 -5 42h59q8 -29 8 -51q0 -59 -43 -107h-49zM149 549l-86 158h60l78 -158h-52zM14 0l284 707h82l260 -707h-64l-101 279h-290l-112 -279h-59zM205 330h252l-120 331z" />
    <glyph glyph-name="uni1F0B" unicode="&#x1f0b;" horiz-adv-x="650" 
d="M-21 549q-43 48 -43 107q0 22 8 51h59q-5 -23 -5 -42q0 -28 7.5 -57t14.5 -44l8 -15h-49zM108 549l-86 158h60l78 -158h-52zM14 0l284 707h82l260 -707h-64l-101 279h-290l-112 -279h-59zM205 330h252l-120 331z" />
    <glyph glyph-name="uni1F0C" unicode="&#x1f0c;" horiz-adv-x="650" 
d="M-3 549q30 53 30 116q0 19 -5 42h59q8 -29 8 -51q0 -59 -43 -107h-49zM85 549l78 158h60l-86 -158h-52zM14 0l284 707h82l260 -707h-64l-101 279h-290l-112 -279h-59zM205 330h252l-120 331z" />
    <glyph glyph-name="uni1F0D" unicode="&#x1f0d;" horiz-adv-x="650" 
d="M11 549q-43 48 -43 107q0 22 8 51h59q-5 -23 -5 -42q0 -28 7.5 -57t14.5 -44l8 -15h-49zM82 549l78 158h60l-86 -158h-52zM14 0l284 707h82l260 -707h-64l-101 279h-290l-112 -279h-59zM205 330h252l-120 331z" />
    <glyph glyph-name="uni1F0E" unicode="&#x1f0e;" horiz-adv-x="650" 
d="M132 620q-23 0 -62 18.5t-61 18.5q-35 0 -69 -24l-22 38l5 4l9.5 7.5t13 8t17.5 7.5t22.5 5.5t27.5 2.5q26 0 65 -18t58 -18q38 0 66 28l24 -36q-5 -6 -15 -14.5t-32.5 -18t-46.5 -9.5zM20 441q30 53 30 116q0 19 -5 42h59q8 -29 8 -51q0 -59 -43 -107h-49zM14 0l284 707
h82l260 -707h-64l-101 279h-290l-112 -279h-59zM205 330h252l-120 331z" />
    <glyph glyph-name="uni1F0F" unicode="&#x1f0f;" horiz-adv-x="650" 
d="M116 620q-23 0 -62 18.5t-61 18.5q-35 0 -69 -24l-22 38l5 4l9.5 7.5t13 8t17.5 7.5t22.5 5.5t27.5 2.5q26 0 65 -18t58 -18q38 0 66 28l24 -36q-5 -6 -15 -14.5t-32.5 -18t-46.5 -9.5zM53 441q-43 48 -43 107q0 22 8 51h59q-5 -23 -5 -42q0 -28 7.5 -57t14.5 -44l8 -15
h-49zM14 0l284 707h82l260 -707h-64l-101 279h-290l-112 -279h-59zM205 330h252l-120 331z" />
    <glyph glyph-name="uni1F10" unicode="&#x1f10;" horiz-adv-x="495" 
d="M269 -11q-212 0 -212 159q0 51 29 89.5t82 56.5q-88 30 -88 119q0 62 51.5 104.5t150.5 42.5q97 0 168 -34l-19 -47q-93 34 -153 34q-68 0 -104.5 -26t-36.5 -72q0 -30 9.5 -50.5t26 -30t31.5 -13t32 -3.5h120v-45h-124q-41 0 -79 -31t-38 -91q0 -50 39.5 -81.5
t120.5 -31.5q76 0 163 34l17 -42q-78 -41 -186 -41zM262 633q30 53 30 116q0 19 -5 42h59q8 -29 8 -51q0 -59 -43 -107h-49z" />
    <glyph glyph-name="uni1F11" unicode="&#x1f11;" horiz-adv-x="495" 
d="M269 -11q-212 0 -212 159q0 51 29 89.5t82 56.5q-88 30 -88 119q0 62 51.5 104.5t150.5 42.5q97 0 168 -34l-19 -47q-93 34 -153 34q-68 0 -104.5 -26t-36.5 -72q0 -30 9.5 -50.5t26 -30t31.5 -13t32 -3.5h120v-45h-124q-41 0 -79 -31t-38 -91q0 -50 39.5 -81.5
t120.5 -31.5q76 0 163 34l17 -42q-78 -41 -186 -41zM282 633q-43 48 -43 107q0 22 8 51h59q-5 -23 -5 -42q0 -28 7.5 -57t15.5 -44l7 -15h-49z" />
    <glyph glyph-name="uni1F12" unicode="&#x1f12;" horiz-adv-x="495" 
d="M269 -11q-212 0 -212 159q0 51 29 89.5t82 56.5q-88 30 -88 119q0 62 51.5 104.5t150.5 42.5q97 0 168 -34l-19 -47q-93 34 -153 34q-68 0 -104.5 -26t-36.5 -72q0 -30 9.5 -50.5t26 -30t31.5 -13t32 -3.5h120v-45h-124q-41 0 -79 -31t-38 -91q0 -50 39.5 -81.5
t120.5 -31.5q76 0 163 34l17 -42q-78 -41 -186 -41zM167 633q30 53 30 116q0 19 -5 42h59q8 -29 8 -51q0 -59 -43 -107h-49zM361 633l-86 158h60l78 -158h-52z" />
    <glyph glyph-name="uni1F13" unicode="&#x1f13;" horiz-adv-x="495" 
d="M269 -11q-212 0 -212 159q0 51 29 89.5t82 56.5q-88 30 -88 119q0 62 51.5 104.5t150.5 42.5q97 0 168 -34l-19 -47q-93 34 -153 34q-68 0 -104.5 -26t-36.5 -72q0 -30 9.5 -50.5t26 -30t31.5 -13t32 -3.5h120v-45h-124q-41 0 -79 -31t-38 -91q0 -50 39.5 -81.5
t120.5 -31.5q76 0 163 34l17 -42q-78 -41 -186 -41zM204 633q-43 48 -43 107q0 22 8 51h59q-5 -23 -5 -42q0 -28 7.5 -57t15.5 -44l7 -15h-49zM333 633l-86 158h60l78 -158h-52z" />
    <glyph glyph-name="uni1F14" unicode="&#x1f14;" horiz-adv-x="495" 
d="M269 -11q-212 0 -212 159q0 51 29 89.5t82 56.5q-88 30 -88 119q0 62 51.5 104.5t150.5 42.5q97 0 168 -34l-19 -47q-93 34 -153 34q-68 0 -104.5 -26t-36.5 -72q0 -30 9.5 -50.5t26 -30t31.5 -13t32 -3.5h120v-45h-124q-41 0 -79 -31t-38 -91q0 -50 39.5 -81.5
t120.5 -31.5q76 0 163 34l17 -42q-78 -41 -186 -41zM205 633q30 53 30 116q0 19 -5 42h59q8 -29 8 -51q0 -59 -43 -107h-49zM293 633l78 158h60l-86 -158h-52z" />
    <glyph glyph-name="uni1F15" unicode="&#x1f15;" horiz-adv-x="495" 
d="M269 -11q-212 0 -212 159q0 51 29 89.5t82 56.5q-88 30 -88 119q0 62 51.5 104.5t150.5 42.5q97 0 168 -34l-19 -47q-93 34 -153 34q-68 0 -104.5 -26t-36.5 -72q0 -30 9.5 -50.5t26 -30t31.5 -13t32 -3.5h120v-45h-124q-41 0 -79 -31t-38 -91q0 -50 39.5 -81.5
t120.5 -31.5q76 0 163 34l17 -42q-78 -41 -186 -41zM225 633q-43 48 -43 107q0 22 8 51h59q-5 -23 -5 -42q0 -28 7.5 -57t14.5 -44l8 -15h-49zM296 633l78 158h60l-86 -158h-52z" />
    <glyph glyph-name="uni1F18" unicode="&#x1f18;" horiz-adv-x="571" 
d="M-30 549q30 53 30 116q0 19 -5 42h59q8 -29 8 -51q0 -59 -43 -107h-49zM120 0v707h378v-49h-319v-277h297v-52h-297v-278h342v-51h-401z" />
    <glyph glyph-name="uni1F19" unicode="&#x1f19;" horiz-adv-x="571" 
d="M37 549q-43 48 -43 107q0 22 8 51h59q-5 -23 -5 -42q0 -28 7.5 -57t14.5 -44l8 -15h-49zM120 0v707h378v-49h-319v-277h297v-52h-297v-278h342v-51h-401z" />
    <glyph glyph-name="uni1F1A" unicode="&#x1f1a;" horiz-adv-x="571" 
d="M-160 549q30 53 30 116q0 19 -5 42h59q8 -29 8 -51q0 -59 -43 -107h-49zM34 549l-86 158h60l78 -158h-52zM120 0v707h378v-49h-319v-277h297v-52h-297v-278h342v-51h-401z" />
    <glyph glyph-name="uni1F1B" unicode="&#x1f1b;" horiz-adv-x="571" 
d="M-112 549q-43 48 -43 107q0 22 8 51h59q-5 -23 -5 -42q0 -28 7.5 -57t15.5 -44l7 -15h-49zM17 549l-86 158h60l78 -158h-52zM120 0v707h378v-49h-319v-277h297v-52h-297v-278h342v-51h-401z" />
    <glyph glyph-name="uni1F1C" unicode="&#x1f1c;" horiz-adv-x="571" 
d="M-143 549q30 53 30 116q0 19 -5 42h59q8 -29 8 -51q0 -59 -43 -107h-49zM-55 549l78 158h60l-86 -158h-52zM120 0v707h378v-49h-319v-277h297v-52h-297v-278h342v-51h-401z" />
    <glyph glyph-name="uni1F1D" unicode="&#x1f1d;" horiz-adv-x="571" 
d="M-131 549q-43 48 -43 107q0 22 8 51h59q-5 -23 -5 -42q0 -28 7.5 -57t14.5 -44l8 -15h-49zM-60 549l78 158h60l-86 -158h-52zM120 0v707h378v-49h-319v-277h297v-52h-297v-278h342v-51h-401z" />
    <glyph glyph-name="uni1F20" unicode="&#x1f20;" horiz-adv-x="621" 
d="M476 -220v559q0 87 -23.5 128.5t-100.5 41.5q-65 0 -183 -77v-432h-55v454q0 53 -52 60l5 45q19 0 39 -7q55 -18 63 -70q30 22 50 34t62 27.5t82 15.5q45 0 77.5 -13.5t49.5 -32.5t26 -49.5t11 -53.5t2 -55v-575h-53zM295 633q30 53 30 116q0 19 -5 42h59q8 -29 8 -51
q0 -59 -43 -107h-49z" />
    <glyph glyph-name="uni1F21" unicode="&#x1f21;" horiz-adv-x="621" 
d="M476 -220v559q0 87 -23.5 128.5t-100.5 41.5q-65 0 -183 -77v-432h-55v454q0 53 -52 60l5 45q19 0 39 -7q55 -18 63 -70q30 22 50 34t62 27.5t82 15.5q45 0 77.5 -13.5t49.5 -32.5t26 -49.5t11 -53.5t2 -55v-575h-53zM322 633q-43 48 -43 107q0 22 8 51h59q-5 -23 -5 -42
q0 -28 7.5 -57t15.5 -44l7 -15h-49z" />
    <glyph glyph-name="uni1F22" unicode="&#x1f22;" horiz-adv-x="621" 
d="M476 -220v559q0 87 -23.5 128.5t-100.5 41.5q-65 0 -183 -77v-432h-55v454q0 53 -52 60l5 45q19 0 39 -7q55 -18 63 -70q30 22 50 34t62 27.5t82 15.5q45 0 77.5 -13.5t49.5 -32.5t26 -49.5t11 -53.5t2 -55v-575h-53zM202 633q30 53 30 116q0 19 -5 42h59q8 -29 8 -51
q0 -59 -43 -107h-49zM396 633l-86 158h60l78 -158h-52z" />
    <glyph glyph-name="uni1F23" unicode="&#x1f23;" horiz-adv-x="621" 
d="M476 -220v559q0 87 -23.5 128.5t-100.5 41.5q-65 0 -183 -77v-432h-55v454q0 53 -52 60l5 45q19 0 39 -7q55 -18 63 -70q30 22 50 34t62 27.5t82 15.5q45 0 77.5 -13.5t49.5 -32.5t26 -49.5t11 -53.5t2 -55v-575h-53zM250 633q-43 48 -43 107q0 22 8 51h59q-5 -23 -5 -42
q0 -28 7.5 -57t15.5 -44l7 -15h-49zM379 633l-86 158h60l78 -158h-52z" />
    <glyph glyph-name="uni1F24" unicode="&#x1f24;" horiz-adv-x="621" 
d="M476 -220v559q0 87 -23.5 128.5t-100.5 41.5q-65 0 -183 -77v-432h-55v454q0 53 -52 60l5 45q19 0 39 -7q55 -18 63 -70q30 22 50 34t62 27.5t82 15.5q45 0 77.5 -13.5t49.5 -32.5t26 -49.5t11 -53.5t2 -55v-575h-53zM240 633q30 53 30 116q0 19 -5 42h59q8 -29 8 -51
q0 -59 -43 -107h-49zM328 633l78 158h60l-86 -158h-52z" />
    <glyph glyph-name="uni1F25" unicode="&#x1f25;" horiz-adv-x="621" 
d="M476 -220v559q0 87 -23.5 128.5t-100.5 41.5q-65 0 -183 -77v-432h-55v454q0 53 -52 60l5 45q19 0 39 -7q55 -18 63 -70q30 22 50 34t62 27.5t82 15.5q45 0 77.5 -13.5t49.5 -32.5t26 -49.5t11 -53.5t2 -55v-575h-53zM262 633q-43 48 -43 107q0 22 8 51h59q-5 -23 -5 -42
q0 -28 7.5 -57t15.5 -44l7 -15h-49zM333 633l78 158h60l-86 -158h-52z" />
    <glyph glyph-name="uni1F26" unicode="&#x1f26;" horiz-adv-x="621" 
d="M476 -220v559q0 87 -23.5 128.5t-100.5 41.5q-65 0 -183 -77v-432h-55v454q0 53 -52 60l5 45q19 0 39 -7q55 -18 63 -70q30 22 50 34t62 27.5t82 15.5q45 0 77.5 -13.5t49.5 -32.5t26 -49.5t11 -53.5t2 -55v-575h-53zM394 794q-23 0 -62 18.5t-61 18.5q-35 0 -69 -24
l-22 38l5 4l9.5 7.5t13 8t17.5 7.5t22.5 5.5t27.5 2.5q26 0 65 -18t58 -18q38 0 66 28l24 -36q-5 -6 -15 -14.5t-32.5 -18t-46.5 -9.5zM282 615q30 53 30 116q0 19 -5 42h59q8 -29 8 -51q0 -59 -43 -107h-49z" />
    <glyph glyph-name="uni1F27" unicode="&#x1f27;" horiz-adv-x="621" 
d="M476 -220v559q0 87 -23.5 128.5t-100.5 41.5q-65 0 -183 -77v-432h-55v454q0 53 -52 60l5 45q19 0 39 -7q55 -18 63 -70q30 22 50 34t62 27.5t82 15.5q45 0 77.5 -13.5t49.5 -32.5t26 -49.5t11 -53.5t2 -55v-575h-53zM384 794q-23 0 -62 18.5t-61 18.5q-35 0 -69 -24
l-22 38l5 4l9.5 7.5t13 8t17.5 7.5t22.5 5.5t27.5 2.5q26 0 65 -18t58 -18q38 0 66 28l24 -36q-5 -6 -15 -14.5t-32.5 -18t-46.5 -9.5zM321 615q-43 48 -43 107q0 22 8 51h59q-5 -23 -5 -42q0 -28 7.5 -57t14.5 -44l8 -15h-49z" />
    <glyph glyph-name="uni1F28" unicode="&#x1f28;" horiz-adv-x="769" 
d="M-11 549q30 53 30 116q0 19 -5 42h59q8 -29 8 -51q0 -59 -43 -107h-49zM120 0v707h59v-326h411v326h59v-707h-59v329h-411v-329h-59z" />
    <glyph glyph-name="uni1F29" unicode="&#x1f29;" horiz-adv-x="769" 
d="M22 549q-43 48 -43 107q0 22 8 51h59q-5 -23 -5 -42q0 -28 7.5 -57t15.5 -44l7 -15h-49zM120 0v707h59v-326h411v326h59v-707h-59v329h-411v-329h-59z" />
    <glyph glyph-name="uni1F2A" unicode="&#x1f2a;" horiz-adv-x="769" 
d="M-172 549q30 53 30 116q0 19 -5 42h59q8 -29 8 -51q0 -59 -43 -107h-49zM22 549l-86 158h60l78 -158h-52zM120 0v707h59v-326h411v326h59v-707h-59v329h-411v-329h-59z" />
    <glyph glyph-name="uni1F2B" unicode="&#x1f2b;" horiz-adv-x="769" 
d="M-91 549q-43 48 -43 107q0 22 8 51h59q-5 -23 -5 -42q0 -28 7.5 -57t14.5 -44l8 -15h-49zM38 549l-86 158h60l78 -158h-52zM120 0v707h59v-326h411v326h59v-707h-59v329h-411v-329h-59z" />
    <glyph glyph-name="uni1F2C" unicode="&#x1f2c;" horiz-adv-x="769" 
d="M-141 549q30 53 30 116q0 19 -5 42h59q8 -29 8 -51q0 -59 -43 -107h-49zM-53 549l78 158h60l-86 -158h-52zM120 0v707h59v-326h411v326h59v-707h-59v329h-411v-329h-59z" />
    <glyph glyph-name="uni1F2D" unicode="&#x1f2d;" horiz-adv-x="769" 
d="M-130 549q-43 48 -43 107q0 22 8 51h59q-5 -23 -5 -42q0 -28 7.5 -57t15.5 -44l7 -15h-49zM-59 549l78 158h60l-86 -158h-52zM120 0v707h59v-326h411v326h59v-707h-59v329h-411v-329h-59z" />
    <glyph glyph-name="uni1F2E" unicode="&#x1f2e;" horiz-adv-x="769" 
d="M-10 620q-23 0 -62 18.5t-61 18.5q-35 0 -69 -24l-22 38l5 4l9.5 7.5t13 8t17.5 7.5t22.5 5.5t27.5 2.5q26 0 65 -18t58 -18q38 0 66 28l24 -36q-5 -6 -15 -14.5t-32.5 -18t-46.5 -9.5zM-122 441q30 53 30 116q0 19 -5 42h59q8 -29 8 -51q0 -59 -43 -107h-49zM120 0v707
h59v-326h411v326h59v-707h-59v329h-411v-329h-59z" />
    <glyph glyph-name="uni1F2F" unicode="&#x1f2f;" horiz-adv-x="769" 
d="M-14 621q-23 0 -62 18.5t-61 18.5q-35 0 -69 -24l-22 38l5 4l9.5 7.5t13 8t17.5 7.5t22.5 5.5t27.5 2.5q26 0 65 -18t58 -18q38 0 66 28l24 -36q-5 -6 -15 -14.5t-32.5 -18t-46.5 -9.5zM-77 442q-43 48 -43 107q0 22 8 51h59q-5 -23 -5 -42q0 -28 7.5 -57t14.5 -44l8 -15
h-49zM120 0v707h59v-326h411v326h59v-707h-59v329h-411v-329h-59z" />
    <glyph glyph-name="uni1F30" unicode="&#x1f30;" horiz-adv-x="257" 
d="M189 -10q-42 0 -65.5 25.5t-23.5 71.5v459h55v-438q0 -69 56 -69q6 0 24 2l2 -47q-24 -4 -48 -4zM95 633q30 53 30 116q0 19 -5 42h59q8 -29 8 -51q0 -59 -43 -107h-49z" />
    <glyph glyph-name="uni1F31" unicode="&#x1f31;" horiz-adv-x="257" 
d="M189 -10q-42 0 -65.5 25.5t-23.5 71.5v459h55v-438q0 -69 56 -69q6 0 24 2l2 -47q-24 -4 -48 -4zM122 633q-43 48 -43 107q0 22 8 51h59q-5 -23 -5 -42q0 -28 7.5 -57t15.5 -44l7 -15h-49z" />
    <glyph glyph-name="uni1F32" unicode="&#x1f32;" horiz-adv-x="257" 
d="M189 -10q-42 0 -65.5 25.5t-23.5 71.5v459h55v-438q0 -69 56 -69q6 0 24 2l2 -47q-24 -4 -48 -4zM8 633q30 53 30 116q0 19 -5 42h59q8 -29 8 -51q0 -59 -43 -107h-49zM202 633l-86 158h60l78 -158h-52z" />
    <glyph glyph-name="uni1F33" unicode="&#x1f33;" horiz-adv-x="257" 
d="M189 -10q-42 0 -65.5 25.5t-23.5 71.5v459h55v-438q0 -69 56 -69q6 0 24 2l2 -47q-24 -4 -48 -4zM56 633q-43 48 -43 107q0 22 8 51h59q-5 -23 -5 -42q0 -28 7.5 -57t15.5 -44l7 -15h-49zM185 633l-86 158h60l78 -158h-52z" />
    <glyph glyph-name="uni1F34" unicode="&#x1f34;" horiz-adv-x="257" 
d="M189 -10q-42 0 -65.5 25.5t-23.5 71.5v459h55v-438q0 -69 56 -69q6 0 24 2l2 -47q-24 -4 -48 -4zM48 633q30 53 30 116q0 19 -5 42h59q8 -29 8 -51q0 -59 -43 -107h-49zM136 633l78 158h60l-86 -158h-52z" />
    <glyph glyph-name="uni1F35" unicode="&#x1f35;" horiz-adv-x="257" 
d="M189 -10q-42 0 -65.5 25.5t-23.5 71.5v459h55v-438q0 -69 56 -69q6 0 24 2l2 -47q-24 -4 -48 -4zM69 633q-43 48 -43 107q0 22 8 51h59q-5 -23 -5 -42q0 -28 7.5 -57t14.5 -44l8 -15h-49zM140 633l78 158h60l-86 -158h-52z" />
    <glyph glyph-name="uni1F36" unicode="&#x1f36;" horiz-adv-x="257" 
d="M189 -10q-42 0 -65.5 25.5t-23.5 71.5v459h55v-438q0 -69 56 -69q6 0 24 2l2 -47q-24 -4 -48 -4zM204 794q-23 0 -62 18.5t-61 18.5q-35 0 -69 -24l-22 38l5 4l9.5 7.5t13 8t17.5 7.5t22.5 5.5t27.5 2.5q26 0 65 -18t58 -18q38 0 66 28l24 -36q-5 -6 -15 -14.5t-32.5 -18
t-46.5 -9.5zM92 615q30 53 30 116q0 19 -5 42h59q8 -29 8 -51q0 -59 -43 -107h-49z" />
    <glyph glyph-name="uni1F37" unicode="&#x1f37;" horiz-adv-x="257" 
d="M189 -10q-42 0 -65.5 25.5t-23.5 71.5v459h55v-438q0 -69 56 -69q6 0 24 2l2 -47q-24 -4 -48 -4zM174 794q-23 0 -62 18.5t-61 18.5q-35 0 -69 -24l-22 38l5 4l9.5 7.5t13 8t17.5 7.5t22.5 5.5t27.5 2.5q26 0 65 -18t58 -18q38 0 66 28l24 -36q-5 -6 -15 -14.5t-32.5 -18
t-46.5 -9.5zM111 615q-43 48 -43 107q0 22 8 51h59q-5 -23 -5 -42q0 -28 7.5 -57t14.5 -44l8 -15h-49z" />
    <glyph glyph-name="uni1F38" unicode="&#x1f38;" horiz-adv-x="299" 
d="M-10 549q30 53 30 116q0 19 -5 42h59q8 -29 8 -51q0 -59 -43 -107h-49zM120 0v707h59v-707h-59z" />
    <glyph glyph-name="uni1F39" unicode="&#x1f39;" horiz-adv-x="299" 
d="M37 549q-43 48 -43 107q0 22 8 51h59q-5 -23 -5 -42q0 -28 7.5 -57t14.5 -44l8 -15h-49zM120 0v707h59v-707h-59z" />
    <glyph glyph-name="uni1F3A" unicode="&#x1f3a;" horiz-adv-x="299" 
d="M-159 549q30 53 30 116q0 19 -5 42h59q8 -29 8 -51q0 -59 -43 -107h-49zM35 549l-86 158h60l78 -158h-52zM120 0v707h59v-707h-59z" />
    <glyph glyph-name="uni1F3B" unicode="&#x1f3b;" horiz-adv-x="299" 
d="M-90 549q-43 48 -43 107q0 22 8 51h59q-5 -23 -5 -42q0 -28 7.5 -57t15.5 -44l7 -15h-49zM39 549l-86 158h60l78 -158h-52zM120 0v707h59v-707h-59z" />
    <glyph glyph-name="uni1F3C" unicode="&#x1f3c;" horiz-adv-x="299" 
d="M-143 549q30 53 30 116q0 19 -5 42h59q8 -29 8 -51q0 -59 -43 -107h-49zM-55 549l78 158h60l-86 -158h-52zM120 0v707h59v-707h-59z" />
    <glyph glyph-name="uni1F3D" unicode="&#x1f3d;" horiz-adv-x="299" 
d="M-129 548q-43 48 -43 107q0 22 8 51h59q-5 -23 -5 -42q0 -28 7.5 -57t14.5 -44l8 -15h-49zM-58 548l78 158h60l-86 -158h-52zM120 0v707h59v-707h-59z" />
    <glyph glyph-name="uni1F3E" unicode="&#x1f3e;" horiz-adv-x="299" 
d="M-12 620q-23 0 -62 18.5t-61 18.5q-35 0 -69 -24l-22 38l5 4l9.5 7.5t13 8t17.5 7.5t22.5 5.5t27.5 2.5q26 0 65 -18t58 -18q38 0 66 28l24 -36q-5 -6 -15 -14.5t-32.5 -18t-46.5 -9.5zM-124 441q30 53 30 116q0 19 -5 42h59q8 -29 8 -51q0 -59 -43 -107h-49zM120 0v707
h59v-707h-59z" />
    <glyph glyph-name="uni1F3F" unicode="&#x1f3f;" horiz-adv-x="299" 
d="M-12 621q-23 0 -62 18.5t-61 18.5q-35 0 -69 -24l-22 38l5 4l9.5 7.5t13 8t17.5 7.5t22.5 5.5t27.5 2.5q26 0 65 -18t58 -18q38 0 66 28l24 -36q-5 -6 -15 -14.5t-32.5 -18t-46.5 -9.5zM-75 442q-43 48 -43 107q0 22 8 51h59q-5 -23 -5 -42q0 -28 7.5 -57t14.5 -44l8 -15
h-49zM120 0v707h59v-707h-59z" />
    <glyph glyph-name="uni1F40" unicode="&#x1f40;" horiz-adv-x="573" 
d="M256 633q30 53 30 116q0 19 -5 42h59q8 -29 8 -51q0 -59 -43 -107h-49zM285 -12q-103 0 -164 73t-61 206q0 138 65.5 215.5t165.5 77.5q108 0 165 -74t57 -213t-64 -212t-164 -73zM290 35q47 0 81.5 21t52 57t25.5 75t8 85q0 43 -7.5 82t-25.5 76.5t-53 59.5t-83 22
t-83 -22t-53 -59t-26.5 -76.5t-8.5 -83.5q0 -101 41.5 -169t131.5 -68z" />
    <glyph glyph-name="uni1F41" unicode="&#x1f41;" horiz-adv-x="573" 
d="M295 633q-43 48 -43 107q0 22 8 51h59q-5 -23 -5 -42q0 -28 7.5 -57t14.5 -44l8 -15h-49zM285 -12q-103 0 -164 73t-61 206q0 138 65.5 215.5t165.5 77.5q108 0 165 -74t57 -213t-64 -212t-164 -73zM290 35q47 0 81.5 21t52 57t25.5 75t8 85q0 43 -7.5 82t-25.5 76.5
t-53 59.5t-83 22t-83 -22t-53 -59t-26.5 -76.5t-8.5 -83.5q0 -101 41.5 -169t131.5 -68z" />
    <glyph glyph-name="uni1F42" unicode="&#x1f42;" horiz-adv-x="573" 
d="M177 633q30 53 30 116q0 19 -5 42h59q8 -29 8 -51q0 -59 -43 -107h-49zM371 633l-86 158h60l78 -158h-52zM285 -12q-103 0 -164 73t-61 206q0 138 65.5 215.5t165.5 77.5q108 0 165 -74t57 -213t-64 -212t-164 -73zM290 35q47 0 81.5 21t52 57t25.5 75t8 85q0 43 -7.5 82
t-25.5 76.5t-53 59.5t-83 22t-83 -22t-53 -59t-26.5 -76.5t-8.5 -83.5q0 -101 41.5 -169t131.5 -68z" />
    <glyph glyph-name="uni1F43" unicode="&#x1f43;" horiz-adv-x="573" 
d="M225 633q-43 48 -43 107q0 22 8 51h59q-5 -23 -5 -42q0 -28 7.5 -57t14.5 -44l8 -15h-49zM354 633l-86 158h60l78 -158h-52zM285 -12q-103 0 -164 73t-61 206q0 138 65.5 215.5t165.5 77.5q108 0 165 -74t57 -213t-64 -212t-164 -73zM290 35q47 0 81.5 21t52 57t25.5 75
t8 85q0 43 -7.5 82t-25.5 76.5t-53 59.5t-83 22t-83 -22t-53 -59t-26.5 -76.5t-8.5 -83.5q0 -101 41.5 -169t131.5 -68z" />
    <glyph glyph-name="uni1F44" unicode="&#x1f44;" horiz-adv-x="573" 
d="M223 633q30 53 30 116q0 19 -5 42h59q8 -29 8 -51q0 -59 -43 -107h-49zM311 633l78 158h60l-86 -158h-52zM285 -12q-103 0 -164 73t-61 206q0 138 65.5 215.5t165.5 77.5q108 0 165 -74t57 -213t-64 -212t-164 -73zM290 35q47 0 81.5 21t52 57t25.5 75t8 85q0 43 -7.5 82
t-25.5 76.5t-53 59.5t-83 22t-83 -22t-53 -59t-26.5 -76.5t-8.5 -83.5q0 -101 41.5 -169t131.5 -68z" />
    <glyph glyph-name="uni1F45" unicode="&#x1f45;" horiz-adv-x="573" 
d="M241 633q-43 48 -43 107q0 22 8 51h59q-5 -23 -5 -42q0 -28 7.5 -57t14.5 -44l8 -15h-49zM312 633l78 158h60l-86 -158h-52zM285 -12q-103 0 -164 73t-61 206q0 138 65.5 215.5t165.5 77.5q108 0 165 -74t57 -213t-64 -212t-164 -73zM290 35q47 0 81.5 21t52 57t25.5 75
t8 85q0 43 -7.5 82t-25.5 76.5t-53 59.5t-83 22t-83 -22t-53 -59t-26.5 -76.5t-8.5 -83.5q0 -101 41.5 -169t131.5 -68z" />
    <glyph glyph-name="uni1F48" unicode="&#x1f48;" horiz-adv-x="815" 
d="M-35 549q30 53 30 116q0 19 -5 42h59q8 -29 8 -51q0 -59 -43 -107h-49zM399 -12q-156 0 -247.5 102t-91.5 265q0 164 99 263t259 99t248.5 -102t88.5 -262q0 -163 -96.5 -264t-259.5 -101zM402 39q142 0 218 88t76 227q0 137 -77 224.5t-210 87.5q-138 0 -214.5 -87
t-76.5 -223q0 -134 75 -225.5t209 -91.5z" />
    <glyph glyph-name="uni1F49" unicode="&#x1f49;" horiz-adv-x="815" 
d="M-4 549q-43 48 -43 107q0 22 8 51h59q-5 -23 -5 -42q0 -28 7.5 -57t15.5 -44l7 -15h-49zM399 -12q-156 0 -247.5 102t-91.5 265q0 164 99 263t259 99t248.5 -102t88.5 -262q0 -163 -96.5 -264t-259.5 -101zM402 39q142 0 218 88t76 227q0 137 -77 224.5t-210 87.5
q-138 0 -214.5 -87t-76.5 -223q0 -134 75 -225.5t209 -91.5z" />
    <glyph glyph-name="uni1F4A" unicode="&#x1f4a;" horiz-adv-x="815" 
d="M-197 549q30 53 30 116q0 19 -5 42h59q8 -29 8 -51q0 -59 -43 -107h-49zM-3 549l-86 158h60l78 -158h-52zM399 -12q-156 0 -247.5 102t-91.5 265q0 164 99 263t259 99t248.5 -102t88.5 -262q0 -163 -96.5 -264t-259.5 -101zM402 39q142 0 218 88t76 227q0 137 -77 224.5
t-210 87.5q-138 0 -214.5 -87t-76.5 -223q0 -134 75 -225.5t209 -91.5z" />
    <glyph glyph-name="uni1F4B" unicode="&#x1f4b;" horiz-adv-x="815" 
d="M-129 549q-43 48 -43 107q0 22 8 51h59q-5 -23 -5 -42q0 -28 7.5 -57t14.5 -44l8 -15h-49zM0 549l-86 158h60l78 -158h-52zM399 -12q-156 0 -247.5 102t-91.5 265q0 164 99 263t259 99t248.5 -102t88.5 -262q0 -163 -96.5 -264t-259.5 -101zM402 39q142 0 218 88t76 227
q0 137 -77 224.5t-210 87.5q-138 0 -214.5 -87t-76.5 -223q0 -134 75 -225.5t209 -91.5z" />
    <glyph glyph-name="uni1F4C" unicode="&#x1f4c;" horiz-adv-x="815" 
d="M-119 549q30 53 30 116q0 19 -5 42h59q8 -29 8 -51q0 -59 -43 -107h-49zM-31 549l78 158h60l-86 -158h-52zM399 -12q-156 0 -247.5 102t-91.5 265q0 164 99 263t259 99t248.5 -102t88.5 -262q0 -163 -96.5 -264t-259.5 -101zM402 39q142 0 218 88t76 227q0 137 -77 224.5
t-210 87.5q-138 0 -214.5 -87t-76.5 -223q0 -134 75 -225.5t209 -91.5z" />
    <glyph glyph-name="uni1F4D" unicode="&#x1f4d;" horiz-adv-x="815" 
d="M-109 549q-43 48 -43 107q0 22 8 51h59q-5 -23 -5 -42q0 -28 7.5 -57t14.5 -44l8 -15h-49zM-38 549l78 158h60l-86 -158h-52zM399 -12q-156 0 -247.5 102t-91.5 265q0 164 99 263t259 99t248.5 -102t88.5 -262q0 -163 -96.5 -264t-259.5 -101zM402 39q142 0 218 88
t76 227q0 137 -77 224.5t-210 87.5q-138 0 -214.5 -87t-76.5 -223q0 -134 75 -225.5t209 -91.5z" />
    <glyph glyph-name="uni1F50" unicode="&#x1f50;" horiz-adv-x="572" 
d="M303 -8q-41 0 -75 8.5t-65.5 29t-49 60t-17.5 95.5v271q-3 46 -52 53l5 45q38 -1 68.5 -22.5t30.5 -67.5v-273q0 -152 153 -152q84 0 121.5 62t37.5 188q0 85 -15 141.5t-44 115.5h55q17 -33 26 -55t19.5 -78.5t10.5 -126.5q0 -147 -56 -220.5t-153 -73.5zM242 633
q30 53 30 116q0 19 -5 42h59q8 -29 8 -51q0 -59 -43 -107h-49z" />
    <glyph glyph-name="uni1F51" unicode="&#x1f51;" horiz-adv-x="572" 
d="M303 -8q-41 0 -75 8.5t-65.5 29t-49 60t-17.5 95.5v271q-3 46 -52 53l5 45q38 -1 68.5 -22.5t30.5 -67.5v-273q0 -152 153 -152q84 0 121.5 62t37.5 188q0 85 -15 141.5t-44 115.5h55q17 -33 26 -55t19.5 -78.5t10.5 -126.5q0 -147 -56 -220.5t-153 -73.5zM262 633
q-43 48 -43 107q0 22 8 51h59q-5 -23 -5 -42q0 -28 7.5 -57t15.5 -44l7 -15h-49z" />
    <glyph glyph-name="uni1F52" unicode="&#x1f52;" horiz-adv-x="572" 
d="M303 -8q-41 0 -75 8.5t-65.5 29t-49 60t-17.5 95.5v271q-3 46 -52 53l5 45q38 -1 68.5 -22.5t30.5 -67.5v-273q0 -152 153 -152q84 0 121.5 62t37.5 188q0 85 -15 141.5t-44 115.5h55q17 -33 26 -55t19.5 -78.5t10.5 -126.5q0 -147 -56 -220.5t-153 -73.5zM161 633
q30 53 30 116q0 19 -5 42h59q8 -29 8 -51q0 -59 -43 -107h-49zM355 633l-86 158h60l78 -158h-52z" />
    <glyph glyph-name="uni1F53" unicode="&#x1f53;" horiz-adv-x="572" 
d="M303 -8q-41 0 -75 8.5t-65.5 29t-49 60t-17.5 95.5v271q-3 46 -52 53l5 45q38 -1 68.5 -22.5t30.5 -67.5v-273q0 -152 153 -152q84 0 121.5 62t37.5 188q0 85 -15 141.5t-44 115.5h55q17 -33 26 -55t19.5 -78.5t10.5 -126.5q0 -147 -56 -220.5t-153 -73.5zM194 633
q-43 48 -43 107q0 22 8 51h59q-5 -23 -5 -42q0 -28 7.5 -57t15.5 -44l7 -15h-49zM323 633l-86 158h60l78 -158h-52z" />
    <glyph glyph-name="uni1F54" unicode="&#x1f54;" horiz-adv-x="572" 
d="M303 -8q-41 0 -75 8.5t-65.5 29t-49 60t-17.5 95.5v271q-3 46 -52 53l5 45q38 -1 68.5 -22.5t30.5 -67.5v-273q0 -152 153 -152q84 0 121.5 62t37.5 188q0 85 -15 141.5t-44 115.5h55q17 -33 26 -55t19.5 -78.5t10.5 -126.5q0 -147 -56 -220.5t-153 -73.5zM195 633
q30 53 30 116q0 19 -5 42h59q8 -29 8 -51q0 -59 -43 -107h-49zM283 633l78 158h60l-86 -158h-52z" />
    <glyph glyph-name="uni1F55" unicode="&#x1f55;" horiz-adv-x="572" 
d="M303 -8q-41 0 -75 8.5t-65.5 29t-49 60t-17.5 95.5v271q-3 46 -52 53l5 45q38 -1 68.5 -22.5t30.5 -67.5v-273q0 -152 153 -152q84 0 121.5 62t37.5 188q0 85 -15 141.5t-44 115.5h55q17 -33 26 -55t19.5 -78.5t10.5 -126.5q0 -147 -56 -220.5t-153 -73.5zM212 633
q-43 48 -43 107q0 22 8 51h59q-5 -23 -5 -42q0 -28 7.5 -57t15.5 -44l7 -15h-49zM283 633l78 158h60l-86 -158h-52z" />
    <glyph glyph-name="uni1F56" unicode="&#x1f56;" horiz-adv-x="572" 
d="M303 -8q-41 0 -75 8.5t-65.5 29t-49 60t-17.5 95.5v271q-3 46 -52 53l5 45q38 -1 68.5 -22.5t30.5 -67.5v-273q0 -152 153 -152q84 0 121.5 62t37.5 188q0 85 -15 141.5t-44 115.5h55q17 -33 26 -55t19.5 -78.5t10.5 -126.5q0 -147 -56 -220.5t-153 -73.5zM358 794
q-23 0 -62 18.5t-61 18.5q-35 0 -69 -24l-22 38l5 4l9.5 7.5t13 8t17.5 7.5t22.5 5.5t27.5 2.5q26 0 65 -18t58 -18q38 0 66 28l24 -36q-5 -6 -15 -14.5t-32.5 -18t-46.5 -9.5zM246 615q30 53 30 116q0 19 -5 42h59q8 -29 8 -51q0 -59 -43 -107h-49z" />
    <glyph glyph-name="uni1F57" unicode="&#x1f57;" horiz-adv-x="572" 
d="M303 -8q-41 0 -75 8.5t-65.5 29t-49 60t-17.5 95.5v271q-3 46 -52 53l5 45q38 -1 68.5 -22.5t30.5 -67.5v-273q0 -152 153 -152q84 0 121.5 62t37.5 188q0 85 -15 141.5t-44 115.5h55q17 -33 26 -55t19.5 -78.5t10.5 -126.5q0 -147 -56 -220.5t-153 -73.5zM334 794
q-23 0 -62 18.5t-61 18.5q-35 0 -69 -24l-22 38l5 4l9.5 7.5t13 8t17.5 7.5t22.5 5.5t27.5 2.5q26 0 65 -18t58 -18q38 0 66 28l24 -36q-5 -6 -15 -14.5t-32.5 -18t-46.5 -9.5zM271 615q-43 48 -43 107q0 22 8 51h59q-5 -23 -5 -42q0 -28 7.5 -57t14.5 -44l8 -15h-49z" />
    <glyph glyph-name="uni1F59" unicode="&#x1f59;" horiz-adv-x="531" 
d="M-62 549q-43 48 -43 107q0 22 8 51h59q-5 -23 -5 -42q0 -28 7.5 -57t15.5 -44l7 -15h-49zM229 0v279l-223 428h65l190 -374l203 374h61l-237 -430v-277h-59z" />
    <glyph glyph-name="uni1F5B" unicode="&#x1f5b;" horiz-adv-x="531" 
d="M-153 549q-43 48 -43 107q0 22 8 51h59q-5 -23 -5 -42q0 -28 7.5 -57t14.5 -44l8 -15h-49zM-24 549l-86 158h60l78 -158h-52zM229 0v279l-223 428h65l190 -374l203 374h61l-237 -430v-277h-59z" />
    <glyph glyph-name="uni1F5D" unicode="&#x1f5d;" horiz-adv-x="531" 
d="M-243 549q-43 48 -43 107q0 22 8 51h59q-5 -23 -5 -42q0 -28 7.5 -57t14.5 -44l8 -15h-49zM-172 549l78 158h60l-86 -158h-52zM229 0v279l-223 428h65l190 -374l203 374h61l-237 -430v-277h-59z" />
    <glyph glyph-name="uni1F5F" unicode="&#x1f5f;" horiz-adv-x="531" 
d="M-102 620q-23 0 -62 18.5t-61 18.5q-35 0 -69 -24l-22 38l5 4l9.5 7.5t13 8t17.5 7.5t22.5 5.5t27.5 2.5q26 0 65 -18t58 -18q38 0 66 28l24 -36q-5 -6 -15 -14.5t-32.5 -18t-46.5 -9.5zM-165 441q-43 48 -43 107q0 22 8 51h59q-5 -23 -5 -42q0 -28 7.5 -57t14.5 -44
l8 -15h-49zM229 0v279l-223 428h65l190 -374l203 374h61l-237 -430v-277h-59z" />
    <glyph glyph-name="uni1F60" unicode="&#x1f60;" horiz-adv-x="783" 
d="M245 -8q-85 0 -135 69t-50 176q0 92 27.5 162t101.5 147h67q-140 -123 -140 -305q0 -29 7 -60.5t21.5 -64t43.5 -53t67 -20.5q48 0 78.5 42.5t30.5 116.5v158h55v-154q0 -79 30 -121t79 -42q38 0 67 20.5t43.5 53t21.5 64t7 60.5q0 87 -37 166t-106 139h74
q68 -70 96.5 -142.5t28.5 -161.5q0 -103 -53 -176.5t-142 -73.5q-44 0 -86.5 30t-51.5 80q-17 -54 -59 -82t-86 -28zM354 633q30 53 30 116q0 19 -5 42h59q8 -29 8 -51q0 -59 -43 -107h-49z" />
    <glyph glyph-name="uni1F61" unicode="&#x1f61;" horiz-adv-x="783" 
d="M245 -8q-85 0 -135 69t-50 176q0 92 27.5 162t101.5 147h67q-140 -123 -140 -305q0 -29 7 -60.5t21.5 -64t43.5 -53t67 -20.5q48 0 78.5 42.5t30.5 116.5v158h55v-154q0 -79 30 -121t79 -42q38 0 67 20.5t43.5 53t21.5 64t7 60.5q0 87 -37 166t-106 139h74
q68 -70 96.5 -142.5t28.5 -161.5q0 -103 -53 -176.5t-142 -73.5q-44 0 -86.5 30t-51.5 80q-17 -54 -59 -82t-86 -28zM362 633q-43 48 -43 107q0 22 8 51h59q-5 -23 -5 -42q0 -28 7.5 -57t15.5 -44l7 -15h-49z" />
    <glyph glyph-name="uni1F62" unicode="&#x1f62;" horiz-adv-x="783" 
d="M245 -8q-85 0 -135 69t-50 176q0 92 27.5 162t101.5 147h67q-140 -123 -140 -305q0 -29 7 -60.5t21.5 -64t43.5 -53t67 -20.5q48 0 78.5 42.5t30.5 116.5v158h55v-154q0 -79 30 -121t79 -42q38 0 67 20.5t43.5 53t21.5 64t7 60.5q0 87 -37 166t-106 139h74
q68 -70 96.5 -142.5t28.5 -161.5q0 -103 -53 -176.5t-142 -73.5q-44 0 -86.5 30t-51.5 80q-17 -54 -59 -82t-86 -28zM265 633q30 53 30 116q0 19 -5 42h59q8 -29 8 -51q0 -59 -43 -107h-49zM459 633l-86 158h60l78 -158h-52z" />
    <glyph glyph-name="uni1F63" unicode="&#x1f63;" horiz-adv-x="783" 
d="M245 -8q-85 0 -135 69t-50 176q0 92 27.5 162t101.5 147h67q-140 -123 -140 -305q0 -29 7 -60.5t21.5 -64t43.5 -53t67 -20.5q48 0 78.5 42.5t30.5 116.5v158h55v-154q0 -79 30 -121t79 -42q38 0 67 20.5t43.5 53t21.5 64t7 60.5q0 87 -37 166t-106 139h74
q68 -70 96.5 -142.5t28.5 -161.5q0 -103 -53 -176.5t-142 -73.5q-44 0 -86.5 30t-51.5 80q-17 -54 -59 -82t-86 -28zM320 633q-43 48 -43 107q0 22 8 51h59q-5 -23 -5 -42q0 -28 7.5 -57t15.5 -44l7 -15h-49zM449 633l-86 158h60l78 -158h-52z" />
    <glyph glyph-name="uni1F64" unicode="&#x1f64;" horiz-adv-x="783" 
d="M245 -8q-85 0 -135 69t-50 176q0 92 27.5 162t101.5 147h67q-140 -123 -140 -305q0 -29 7 -60.5t21.5 -64t43.5 -53t67 -20.5q48 0 78.5 42.5t30.5 116.5v158h55v-154q0 -79 30 -121t79 -42q38 0 67 20.5t43.5 53t21.5 64t7 60.5q0 87 -37 166t-106 139h74
q68 -70 96.5 -142.5t28.5 -161.5q0 -103 -53 -176.5t-142 -73.5q-44 0 -86.5 30t-51.5 80q-17 -54 -59 -82t-86 -28zM305 633q30 53 30 116q0 19 -5 42h59q8 -29 8 -51q0 -59 -43 -107h-49zM393 633l78 158h60l-86 -158h-52z" />
    <glyph glyph-name="uni1F65" unicode="&#x1f65;" horiz-adv-x="783" 
d="M245 -8q-85 0 -135 69t-50 176q0 92 27.5 162t101.5 147h67q-140 -123 -140 -305q0 -29 7 -60.5t21.5 -64t43.5 -53t67 -20.5q48 0 78.5 42.5t30.5 116.5v158h55v-154q0 -79 30 -121t79 -42q38 0 67 20.5t43.5 53t21.5 64t7 60.5q0 87 -37 166t-106 139h74
q68 -70 96.5 -142.5t28.5 -161.5q0 -103 -53 -176.5t-142 -73.5q-44 0 -86.5 30t-51.5 80q-17 -54 -59 -82t-86 -28zM332 633q-43 48 -43 107q0 22 8 51h59q-5 -23 -5 -42q0 -28 7.5 -57t15.5 -44l7 -15h-49zM403 633l78 158h60l-86 -158h-52z" />
    <glyph glyph-name="uni1F66" unicode="&#x1f66;" horiz-adv-x="783" 
d="M245 -8q-85 0 -135 69t-50 176q0 92 27.5 162t101.5 147h67q-140 -123 -140 -305q0 -29 7 -60.5t21.5 -64t43.5 -53t67 -20.5q48 0 78.5 42.5t30.5 116.5v158h55v-154q0 -79 30 -121t79 -42q38 0 67 20.5t43.5 53t21.5 64t7 60.5q0 87 -37 166t-106 139h74
q68 -70 96.5 -142.5t28.5 -161.5q0 -103 -53 -176.5t-142 -73.5q-44 0 -86.5 30t-51.5 80q-17 -54 -59 -82t-86 -28zM475 794q-23 0 -62 18.5t-61 18.5q-35 0 -69 -24l-22 38l5 4l9.5 7.5t13 8t17.5 7.5t22.5 5.5t27.5 2.5q26 0 65 -18t58 -18q38 0 66 28l24 -36
q-5 -6 -15 -14.5t-32.5 -18t-46.5 -9.5zM363 615q30 53 30 116q0 19 -5 42h59q8 -29 8 -51q0 -59 -43 -107h-49z" />
    <glyph glyph-name="uni1F67" unicode="&#x1f67;" horiz-adv-x="783" 
d="M245 -8q-85 0 -135 69t-50 176q0 92 27.5 162t101.5 147h67q-140 -123 -140 -305q0 -29 7 -60.5t21.5 -64t43.5 -53t67 -20.5q48 0 78.5 42.5t30.5 116.5v158h55v-154q0 -79 30 -121t79 -42q38 0 67 20.5t43.5 53t21.5 64t7 60.5q0 87 -37 166t-106 139h74
q68 -70 96.5 -142.5t28.5 -161.5q0 -103 -53 -176.5t-142 -73.5q-44 0 -86.5 30t-51.5 80q-17 -54 -59 -82t-86 -28zM444 794q-23 0 -62 18.5t-61 18.5q-35 0 -69 -24l-22 38l5 4l9.5 7.5t13 8t17.5 7.5t22.5 5.5t27.5 2.5q26 0 65 -18t58 -18q38 0 66 28l24 -36
q-5 -6 -15 -14.5t-32.5 -18t-46.5 -9.5zM381 615q-43 48 -43 107q0 22 8 51h59q-5 -23 -5 -42q0 -28 7.5 -57t14.5 -44l8 -15h-49z" />
    <glyph glyph-name="uni1F68" unicode="&#x1f68;" horiz-adv-x="815" 
d="M28 0v54h242q-79 34 -137.5 118.5t-58.5 194.5q0 164 92 257.5t251 93.5t243.5 -99t84.5 -256q0 -95 -60 -181.5t-142 -127.5h246v-54h-306v54q200 148 200 310q0 135 -71.5 216.5t-203.5 81.5q-138 0 -205 -79.5t-67 -216.5q0 -34 5 -64t17.5 -56t23 -44.5t33 -42
t34.5 -35t41 -36t40 -34.5v-54h-302zM-16 549q30 53 30 116q0 19 -5 42h59q8 -29 8 -51q0 -59 -43 -107h-49z" />
    <glyph glyph-name="uni1F69" unicode="&#x1f69;" horiz-adv-x="815" 
d="M28 0v54h242q-79 34 -137.5 118.5t-58.5 194.5q0 164 92 257.5t251 93.5t243.5 -99t84.5 -256q0 -95 -60 -181.5t-142 -127.5h246v-54h-306v54q200 148 200 310q0 135 -71.5 216.5t-203.5 81.5q-138 0 -205 -79.5t-67 -216.5q0 -34 5 -64t17.5 -56t23 -44.5t33 -42
t34.5 -35t41 -36t40 -34.5v-54h-302zM-8 549q-43 48 -43 107q0 22 8 51h59q-5 -23 -5 -42q0 -28 7.5 -57t15.5 -44l7 -15h-49z" />
    <glyph glyph-name="uni1F6A" unicode="&#x1f6a;" horiz-adv-x="815" 
d="M28 0v54h242q-79 34 -137.5 118.5t-58.5 194.5q0 164 92 257.5t251 93.5t243.5 -99t84.5 -256q0 -95 -60 -181.5t-142 -127.5h246v-54h-306v54q200 148 200 310q0 135 -71.5 216.5t-203.5 81.5q-138 0 -205 -79.5t-67 -216.5q0 -34 5 -64t17.5 -56t23 -44.5t33 -42
t34.5 -35t41 -36t40 -34.5v-54h-302zM-196 549q30 53 30 116q0 19 -5 42h59q8 -29 8 -51q0 -59 -43 -107h-49zM-2 549l-86 158h60l78 -158h-52z" />
    <glyph glyph-name="uni1F6B" unicode="&#x1f6b;" horiz-adv-x="815" 
d="M28 0v54h242q-79 34 -137.5 118.5t-58.5 194.5q0 164 92 257.5t251 93.5t243.5 -99t84.5 -256q0 -95 -60 -181.5t-142 -127.5h246v-54h-306v54q200 148 200 310q0 135 -71.5 216.5t-203.5 81.5q-138 0 -205 -79.5t-67 -216.5q0 -34 5 -64t17.5 -56t23 -44.5t33 -42
t34.5 -35t41 -36t40 -34.5v-54h-302zM-127 549q-43 48 -43 107q0 22 8 51h59q-5 -23 -5 -42q0 -28 7.5 -57t14.5 -44l8 -15h-49zM2 549l-86 158h60l78 -158h-52z" />
    <glyph glyph-name="uni1F6C" unicode="&#x1f6c;" horiz-adv-x="815" 
d="M28 0v54h242q-79 34 -137.5 118.5t-58.5 194.5q0 164 92 257.5t251 93.5t243.5 -99t84.5 -256q0 -95 -60 -181.5t-142 -127.5h246v-54h-306v54q200 148 200 310q0 135 -71.5 216.5t-203.5 81.5q-138 0 -205 -79.5t-67 -216.5q0 -34 5 -64t17.5 -56t23 -44.5t33 -42
t34.5 -35t41 -36t40 -34.5v-54h-302zM-126 549q30 53 30 116q0 19 -5 42h59q8 -29 8 -51q0 -59 -43 -107h-49zM-38 549l78 158h60l-86 -158h-52z" />
    <glyph glyph-name="uni1F6D" unicode="&#x1f6d;" horiz-adv-x="815" 
d="M28 0v54h242q-79 34 -137.5 118.5t-58.5 194.5q0 164 92 257.5t251 93.5t243.5 -99t84.5 -256q0 -95 -60 -181.5t-142 -127.5h246v-54h-306v54q200 148 200 310q0 135 -71.5 216.5t-203.5 81.5q-138 0 -205 -79.5t-67 -216.5q0 -34 5 -64t17.5 -56t23 -44.5t33 -42
t34.5 -35t41 -36t40 -34.5v-54h-302zM-97 549q-43 48 -43 107q0 22 8 51h59q-5 -23 -5 -42q0 -28 7.5 -57t14.5 -44l8 -15h-49zM-26 549l78 158h60l-86 -158h-52z" />
    <glyph glyph-name="uni1F6E" unicode="&#x1f6e;" horiz-adv-x="815" 
d="M28 0v54h242q-79 34 -137.5 118.5t-58.5 194.5q0 164 92 257.5t251 93.5t243.5 -99t84.5 -256q0 -95 -60 -181.5t-142 -127.5h246v-54h-306v54q200 148 200 310q0 135 -71.5 216.5t-203.5 81.5q-138 0 -205 -79.5t-67 -216.5q0 -34 5 -64t17.5 -56t23 -44.5t33 -42
t34.5 -35t41 -36t40 -34.5v-54h-302zM22 622q-23 0 -62 18.5t-61 18.5q-35 0 -69 -24l-22 38l5 4l9.5 7.5t13 8t17.5 7.5t22.5 5.5t27.5 2.5q26 0 65 -18t58 -18q38 0 66 28l24 -36q-5 -6 -15 -14.5t-32.5 -18t-46.5 -9.5zM-90 443q30 53 30 116q0 19 -5 42h59q8 -29 8 -51
q0 -59 -43 -107h-49z" />
    <glyph glyph-name="uni1F6F" unicode="&#x1f6f;" horiz-adv-x="815" 
d="M28 0v54h242q-79 34 -137.5 118.5t-58.5 194.5q0 164 92 257.5t251 93.5t243.5 -99t84.5 -256q0 -95 -60 -181.5t-142 -127.5h246v-54h-306v54q200 148 200 310q0 135 -71.5 216.5t-203.5 81.5q-138 0 -205 -79.5t-67 -216.5q0 -34 5 -64t17.5 -56t23 -44.5t33 -42
t34.5 -35t41 -36t40 -34.5v-54h-302zM14 620q-23 0 -62 18.5t-61 18.5q-35 0 -69 -24l-22 38l5 4l9.5 7.5t13 8t17.5 7.5t22.5 5.5t27.5 2.5q26 0 65 -18t58 -18q38 0 66 28l24 -36q-5 -6 -15 -14.5t-32.5 -18t-46.5 -9.5zM-49 441q-43 48 -43 107q0 22 8 51h59
q-5 -23 -5 -42q0 -28 7.5 -57t14.5 -44l8 -15h-49z" />
    <glyph glyph-name="uni1F70" unicode="&#x1f70;" 
d="M247 -9q-26 0 -49.5 5.5t-49.5 22.5t-44.5 44t-31 75.5t-12.5 111.5q0 138 59 220t149 82q106 0 159 -85v79h55v-441q0 -66 52 -66l-5 -45q-31 2 -43 7q-33 13 -43.5 41t-10.5 86q-29 -63 -79 -100t-106 -37zM250 40q60 0 118.5 66t58.5 157v106q-25 63 -65 99.5
t-88 36.5q-78 0 -117.5 -69t-39.5 -186q0 -103 34.5 -156.5t98.5 -53.5zM315 633l-86 158h60l78 -158h-52z" />
    <glyph glyph-name="uni1F71" unicode="&#x1f71;" 
d="M247 -9q-26 0 -49.5 5.5t-49.5 22.5t-44.5 44t-31 75.5t-12.5 111.5q0 138 59 220t149 82q106 0 159 -85v79h55v-441q0 -66 52 -66l-5 -45q-31 2 -43 7q-33 13 -43.5 41t-10.5 86q-29 -63 -79 -100t-106 -37zM250 40q60 0 118.5 66t58.5 157v106q-25 63 -65 99.5
t-88 36.5q-78 0 -117.5 -69t-39.5 -186q0 -103 34.5 -156.5t98.5 -53.5zM301 633l78 158h60l-86 -158h-52z" />
    <glyph glyph-name="uni1F72" unicode="&#x1f72;" horiz-adv-x="495" 
d="M269 -11q-212 0 -212 159q0 51 29 89.5t82 56.5q-88 30 -88 119q0 62 51.5 104.5t150.5 42.5q97 0 168 -34l-19 -47q-93 34 -153 34q-68 0 -104.5 -26t-36.5 -72q0 -30 9.5 -50.5t26 -30t31.5 -13t32 -3.5h120v-45h-124q-41 0 -79 -31t-38 -91q0 -50 39.5 -81.5
t120.5 -31.5q76 0 163 34l17 -42q-78 -41 -186 -41zM265 633l-86 158h60l78 -158h-52z" />
    <glyph glyph-name="uni1F73" unicode="&#x1f73;" horiz-adv-x="495" 
d="M269 -11q-212 0 -212 159q0 51 29 89.5t82 56.5q-88 30 -88 119q0 62 51.5 104.5t150.5 42.5q97 0 168 -34l-19 -47q-93 34 -153 34q-68 0 -104.5 -26t-36.5 -72q0 -30 9.5 -50.5t26 -30t31.5 -13t32 -3.5h120v-45h-124q-41 0 -79 -31t-38 -91q0 -50 39.5 -81.5
t120.5 -31.5q76 0 163 34l17 -42q-78 -41 -186 -41zM236 633l78 158h60l-86 -158h-52z" />
    <glyph glyph-name="uni1F74" unicode="&#x1f74;" horiz-adv-x="621" 
d="M476 -220v559q0 87 -23.5 128.5t-100.5 41.5q-65 0 -183 -77v-432h-55v454q0 53 -52 60l5 45q19 0 39 -7q55 -18 63 -70q30 22 50 34t62 27.5t82 15.5q45 0 77.5 -13.5t49.5 -32.5t26 -49.5t11 -53.5t2 -55v-575h-53zM315 633l-86 158h60l78 -158h-52z" />
    <glyph glyph-name="uni1F75" unicode="&#x1f75;" horiz-adv-x="621" 
d="M476 -220v559q0 87 -23.5 128.5t-100.5 41.5q-65 0 -183 -77v-432h-55v454q0 53 -52 60l5 45q19 0 39 -7q55 -18 63 -70q30 22 50 34t62 27.5t82 15.5q45 0 77.5 -13.5t49.5 -32.5t26 -49.5t11 -53.5t2 -55v-575h-53zM299 633l78 158h60l-86 -158h-52z" />
    <glyph glyph-name="uni1F76" unicode="&#x1f76;" horiz-adv-x="257" 
d="M189 -10q-42 0 -65.5 25.5t-23.5 71.5v459h55v-438q0 -69 56 -69q6 0 24 2l2 -47q-24 -4 -48 -4zM97 633l-86 158h60l78 -158h-52z" />
    <glyph glyph-name="uni1F77" unicode="&#x1f77;" horiz-adv-x="257" 
d="M189 -10q-42 0 -65.5 25.5t-23.5 71.5v459h55v-438q0 -69 56 -69q6 0 24 2l2 -47q-24 -4 -48 -4zM99 633l78 158h60l-86 -158h-52z" />
    <glyph glyph-name="uni1F78" unicode="&#x1f78;" horiz-adv-x="573" 
d="M275 633l-86 158h60l78 -158h-52zM285 -12q-103 0 -164 73t-61 206q0 138 65.5 215.5t165.5 77.5q108 0 165 -74t57 -213t-64 -212t-164 -73zM290 35q47 0 81.5 21t52 57t25.5 75t8 85q0 43 -7.5 82t-25.5 76.5t-53 59.5t-83 22t-83 -22t-53 -59t-26.5 -76.5t-8.5 -83.5
q0 -101 41.5 -169t131.5 -68z" />
    <glyph glyph-name="uni1F79" unicode="&#x1f79;" horiz-adv-x="573" 
d="M259 633l78 158h60l-86 -158h-52zM285 -12q-103 0 -164 73t-61 206q0 138 65.5 215.5t165.5 77.5q108 0 165 -74t57 -213t-64 -212t-164 -73zM290 35q47 0 81.5 21t52 57t25.5 75t8 85q0 43 -7.5 82t-25.5 76.5t-53 59.5t-83 22t-83 -22t-53 -59t-26.5 -76.5t-8.5 -83.5
q0 -101 41.5 -169t131.5 -68z" />
    <glyph glyph-name="uni1F7A" unicode="&#x1f7a;" horiz-adv-x="572" 
d="M303 -8q-41 0 -75 8.5t-65.5 29t-49 60t-17.5 95.5v271q-3 46 -52 53l5 45q38 -1 68.5 -22.5t30.5 -67.5v-273q0 -152 153 -152q84 0 121.5 62t37.5 188q0 85 -15 141.5t-44 115.5h55q17 -33 26 -55t19.5 -78.5t10.5 -126.5q0 -147 -56 -220.5t-153 -73.5zM265 633
l-86 158h60l78 -158h-52z" />
    <glyph glyph-name="uni1F7B" unicode="&#x1f7b;" horiz-adv-x="572" 
d="M303 -8q-41 0 -75 8.5t-65.5 29t-49 60t-17.5 95.5v271q-3 46 -52 53l5 45q38 -1 68.5 -22.5t30.5 -67.5v-273q0 -152 153 -152q84 0 121.5 62t37.5 188q0 85 -15 141.5t-44 115.5h55q17 -33 26 -55t19.5 -78.5t10.5 -126.5q0 -147 -56 -220.5t-153 -73.5zM249 633
l78 158h60l-86 -158h-52z" />
    <glyph glyph-name="uni1F7C" unicode="&#x1f7c;" horiz-adv-x="783" 
d="M245 -8q-85 0 -135 69t-50 176q0 92 27.5 162t101.5 147h67q-140 -123 -140 -305q0 -29 7 -60.5t21.5 -64t43.5 -53t67 -20.5q48 0 78.5 42.5t30.5 116.5v158h55v-154q0 -79 30 -121t79 -42q38 0 67 20.5t43.5 53t21.5 64t7 60.5q0 87 -37 166t-106 139h74
q68 -70 96.5 -142.5t28.5 -161.5q0 -103 -53 -176.5t-142 -73.5q-44 0 -86.5 30t-51.5 80q-17 -54 -59 -82t-86 -28zM385 633l-86 158h60l78 -158h-52z" />
    <glyph glyph-name="uni1F7D" unicode="&#x1f7d;" horiz-adv-x="783" 
d="M245 -8q-85 0 -135 69t-50 176q0 92 27.5 162t101.5 147h67q-140 -123 -140 -305q0 -29 7 -60.5t21.5 -64t43.5 -53t67 -20.5q48 0 78.5 42.5t30.5 116.5v158h55v-154q0 -79 30 -121t79 -42q38 0 67 20.5t43.5 53t21.5 64t7 60.5q0 87 -37 166t-106 139h74
q68 -70 96.5 -142.5t28.5 -161.5q0 -103 -53 -176.5t-142 -73.5q-44 0 -86.5 30t-51.5 80q-17 -54 -59 -82t-86 -28zM351 633l78 158h60l-86 -158h-52z" />
    <glyph glyph-name="uni1F80" unicode="&#x1f80;" 
d="M247 -9q-26 0 -49.5 5.5t-49.5 22.5t-44.5 44t-31 75.5t-12.5 111.5q0 138 59 220t149 82q106 0 159 -85v79h55v-441q0 -66 52 -66l-5 -45q-31 2 -43 7q-33 13 -43.5 41t-10.5 86q-29 -63 -79 -100t-106 -37zM250 40q60 0 118.5 66t58.5 157v106q-25 63 -65 99.5
t-88 36.5q-78 0 -117.5 -69t-39.5 -186q0 -103 34.5 -156.5t98.5 -53.5zM275 633q30 53 30 116q0 19 -5 42h59q8 -29 8 -51q0 -59 -43 -107h-49zM355 -229q-46 4 -61 26.5t-15 76.5v50h45v-48q0 -36 7.5 -50t31.5 -20z" />
    <glyph glyph-name="uni1F81" unicode="&#x1f81;" 
d="M247 -9q-26 0 -49.5 5.5t-49.5 22.5t-44.5 44t-31 75.5t-12.5 111.5q0 138 59 220t149 82q106 0 159 -85v79h55v-441q0 -66 52 -66l-5 -45q-31 2 -43 7q-33 13 -43.5 41t-10.5 86q-29 -63 -79 -100t-106 -37zM250 40q60 0 118.5 66t58.5 157v106q-25 63 -65 99.5
t-88 36.5q-78 0 -117.5 -69t-39.5 -186q0 -103 34.5 -156.5t98.5 -53.5zM345 -229q-46 4 -61 26.5t-15 76.5v50h45v-48q0 -36 7.5 -50t31.5 -20zM302 633q-43 48 -43 107q0 22 8 51h59q-5 -23 -5 -42q0 -28 7.5 -57t15.5 -44l7 -15h-49z" />
    <glyph glyph-name="uni1F82" unicode="&#x1f82;" 
d="M247 -9q-26 0 -49.5 5.5t-49.5 22.5t-44.5 44t-31 75.5t-12.5 111.5q0 138 59 220t149 82q106 0 159 -85v79h55v-441q0 -66 52 -66l-5 -45q-31 2 -43 7q-33 13 -43.5 41t-10.5 86q-29 -63 -79 -100t-106 -37zM250 40q60 0 118.5 66t58.5 157v106q-25 63 -65 99.5
t-88 36.5q-78 0 -117.5 -69t-39.5 -186q0 -103 34.5 -156.5t98.5 -53.5zM185 633q30 53 30 116q0 19 -5 42h59q8 -29 8 -51q0 -59 -43 -107h-49zM379 633l-86 158h60l78 -158h-52zM345 -229q-46 4 -61 26.5t-15 76.5v50h45v-48q0 -36 7.5 -50t31.5 -20z" />
    <glyph glyph-name="uni1F83" unicode="&#x1f83;" 
d="M247 -9q-26 0 -49.5 5.5t-49.5 22.5t-44.5 44t-31 75.5t-12.5 111.5q0 138 59 220t149 82q106 0 159 -85v79h55v-441q0 -66 52 -66l-5 -45q-31 2 -43 7q-33 13 -43.5 41t-10.5 86q-29 -63 -79 -100t-106 -37zM250 40q60 0 118.5 66t58.5 157v106q-25 63 -65 99.5
t-88 36.5q-78 0 -117.5 -69t-39.5 -186q0 -103 34.5 -156.5t98.5 -53.5zM230 633q-43 48 -43 107q0 22 8 51h59q-5 -23 -5 -42q0 -28 7.5 -57t15.5 -44l7 -15h-49zM359 633l-86 158h60l78 -158h-52zM355 -229q-46 4 -61 26.5t-15 76.5v50h45v-48q0 -36 7.5 -50t31.5 -20z
" />
    </font>
</defs>
</svg>
