<?xml version="1.0" standalone="no"?>
<!DOCTYPE svg PUBLIC "-//W3C//DTD SVG 1.1//EN" "http://www.w3.org/Graphics/SVG/1.1/DTD/svg11.dtd" >
<svg>
<metadata>
Created by FontForge 20090622 at Thu Mar 31 17:00:18 2016
 By deploy user
Copyright (c) 2001-2006 Peter Bilak (www.typotheque.com). All rights reserved.
</metadata>
<defs>
<font id="FedraSansPro-BookItalic" horiz-adv-x="526" >
  <font-face 
    font-family="Fedra Sans Pro Book"
    font-weight="350"
    font-style="italic"
    font-stretch="normal"
    units-per-em="1000"
    panose-1="2 11 5 4 4 0 0 9 0 4"
    ascent="780"
    descent="-220"
    x-height="546"
    cap-height="708"
    bbox="-339 -284 1322 953"
    underline-thickness="50"
    underline-position="-50"
    slope="-6"
    unicode-range="U+0020-U+FE69"
  />
<missing-glyph horiz-adv-x="712" 
d="M305 375v27h27v-27h-27zM380 525v27h27v-27h-27zM305 525v27h27v-27h-27zM230 525v27h27v-27h-27zM80 0v27h27v-27h-27zM155 0v27h27v-27h-27zM230 0v27h27v-27h-27zM305 0v27h27v-27h-27zM380 0v27h27v-27h-27zM80 75v27h27v-27h-27zM80 150v27h27v-27h-27zM80 225v27
h27v-27h-27zM80 300v27h27v-27h-27zM80 375v27h27v-27h-27zM80 450v27h27v-27h-27zM80 525v27h27v-27h-27zM80 600v27h27v-27h-27zM80 675v27h27v-27h-27zM155 675v27h27v-27h-27zM230 675v27h27v-27h-27zM305 675v27h27v-27h-27zM380 675v27h27v-27h-27zM455 675v27h27v-27
h-27zM530 675v27h27v-27h-27zM530 0v27h27v-27h-27zM455 0v27h27v-27h-27zM605 0v27h27v-27h-27zM605 675v27h27v-27h-27zM305 300v27h27v-27h-27zM305 150v27h27v-27h-27zM380 375v27h27v-27h-27zM455 375v27h27v-27h-27zM455 450v27h27v-27h-27zM455 525v27h27v-27h-27z
M605 600v27h27v-27h-27zM605 525v27h27v-27h-27zM605 375v27h27v-27h-27zM605 300v27h27v-27h-27zM605 150v27h27v-27h-27zM605 75v27h27v-27h-27zM605 225v27h27v-27h-27zM605 450v27h27v-27h-27z" />
    <glyph glyph-name="f_f" unicode="ff" horiz-adv-x="634" 
d="M48 -220l74 703h-80l6 63h80l6 48q6 55 27 93t54.5 55.5t67 24.5t76.5 7q91 0 160 -28q50 28 139 28q24 0 61 -7t49 -12l-21 -60l-15 3q-14 3 -39 6.5t-44 3.5q-132 0 -143 -114l-6 -48h120l-7 -63h-119l-74 -703h-74l74 703h-225l-74 -703h-73zM202 546h225l5 48
q6 59 31 99q-64 15 -112 15q-131 0 -144 -114z" />
    <glyph glyph-name="fi" unicode="fi" horiz-adv-x="584" 
d="M47 -219l74 702h-80l7 63h80l3 26q12 111 65 156.5t138 45.5q17 0 69.5 -3.5t81.5 -3.5q17 0 64 5l9 -56q-42 -15 -107 -15q-26 0 -69 3t-57 3q-58 0 -84.5 -34.5t-34.5 -101.5l-3 -25h302l-57 -546h-77l51 483h-225l-74 -702h-76z" />
    <glyph glyph-name="fl" unicode="fl" horiz-adv-x="578" 
d="M47 -220l74 703h-80l7 63h80l3 26q12 111 65 156.5t138 45.5q19 0 68.5 -3.5t76.5 -3.5q34 0 50 2l-82 -769h-76l75 703q-23 -1 -65.5 1.5t-55.5 2.5q-58 0 -84.5 -34.5t-34.5 -101.5l-3 -25h117l-7 -63h-116l-74 -703h-76z" />
    <glyph glyph-name="f_f_i" unicode="ffi" horiz-adv-x="847" 
d="M48 -220l74 703h-80l7 63h79l6 48q6 55 27 93t54.5 55.5t67 24.5t76.5 7q23 0 84 -11t75 -16q46 27 115 27q16 0 69 -2.5t82 -2.5q34 0 64 3l4 -57q-39 -14 -103 -14q-23 0 -66 3t-59 3q-59 0 -86 -34.5t-33 -101.5l-3 -25h302l-58 -546h-76l51 483h-225l-74 -703h-76
l74 703h-225l-74 -703h-73zM202 546h225l3 26q7 72 35 120q-80 16 -115 16q-130 0 -143 -114z" />
    <glyph glyph-name="f_f_l" unicode="ffl" horiz-adv-x="876" 
d="M48 -220l74 703h-80l7 63h79l6 48q6 55 27 93t54.5 55.5t67 24.5t76.5 7q37 0 88 -10t71 -17q46 27 115 27q18 0 67.5 -3.5t76.5 -3.5q34 0 50 2l-81 -769h-76l74 703q-22 -1 -64.5 1.5t-55.5 2.5q-59 0 -85.5 -34.5t-33.5 -101.5l-3 -25h116l-6 -63h-116l-74 -703h-76
l74 703h-225l-74 -703h-73zM202 546h224l3 26q7 72 36 120q-75 16 -114 16q-131 0 -144 -114z" />
    <glyph glyph-name="f_h" unicode="fh" horiz-adv-x="859" 
d="M47 -220l74 703h-80l7 63h80l3 26q20 202 203 202q19 0 68.5 -3.5t76.5 -3.5q34 0 50 2l-32 -315l17 13l22.5 17l23.5 16.5t27.5 18.5t26.5 15.5t29 14t26.5 8t26.5 3.5q54 0 74 -20.5t20 -69.5q0 -28 -5 -76l-42 -394h-76l41 378q6 58 6 67q0 25 -10 34.5t-38 9.5
q-17 0 -54 -21t-78.5 -50l-44.5 -31l-41 -387h-76l73 702q-21 -1 -63 2t-57 3q-59 0 -85.5 -34.5t-33.5 -101.5l-3 -25h117l-7 -63h-116l-74 -703h-76z" />
    <glyph glyph-name="f_b" unicode="fb" horiz-adv-x="849" 
d="M517 -8q-68 0 -143 22l72 689q-22 -1 -65 1.5t-56 2.5q-58 0 -84.5 -34.5t-34.5 -101.5l-3 -25h117l-7 -63h-116l-74 -703h-76l74 703h-80l7 63h80l3 26q12 111 65 156.5t138 45.5q19 0 68.5 -3.5t76.5 -3.5q35 0 51 2l-32 -298q34 23 56.5 36.5t61 27.5t72.5 14
q122 0 122 -160q0 -68 -17.5 -135.5t-51 -127.5t-92 -97t-132.5 -37zM523 56q57 0 100 34t66 87.5t33.5 107t10.5 104.5q0 53 -16 73t-48 20q-63 0 -179 -77l-35 -339q45 -10 68 -10z" />
    <glyph glyph-name="f_j" unicode="fj" horiz-adv-x="549" 
d="M243 -222q-38 0 -67 11l20 62q0 -6 56 -6q59 0 85.5 35t33.5 102l52 501h-225l-74 -702h-76l74 702h-80l6 63h80l3 26q12 111 65 156.5t138 45.5q17 0 69 -2.5t82 -2.5q35 0 64 3l5 -57q-38 -14 -103 -14q-23 0 -66 3t-59 3q-59 0 -85.5 -34.5t-33.5 -101.5l-3 -25h302
l-59 -565q-12 -111 -65.5 -157t-138.5 -46z" />
    <glyph glyph-name="f_k" unicode="fk" horiz-adv-x="797" 
d="M48 -219l74 702h-80l6 63h80l3 26q12 111 65.5 156.5t137.5 45.5q19 0 68.5 -3.5t76.5 -3.5q23 -1 50 2l-81 -769h-76l74 703q-22 -1 -64.5 1.5t-55.5 2.5q-59 0 -86 -34.5t-33 -101.5l-3 -25h116l-6 -63h-116l-74 -702h-76zM692 -14l-191 302l201 258h88l-201 -255
l180 -280z" />
    <glyph glyph-name="f_f_j" unicode="ffj" horiz-adv-x="847" 
d="M48 -220l74 703h-80l7 63h79l6 48q6 55 27 93t54.5 55.5t67 24.5t76.5 7q23 0 84 -11t75 -16q46 27 115 27q16 0 69 -2.5t82 -2.5q34 0 64 3l4 -57q-39 -14 -103 -14q-23 0 -66 3t-59 3q-59 0 -86 -34.5t-33 -101.5l-3 -25h302l-60 -564q-11 -111 -61.5 -156.5
t-134.5 -45.5q-41 0 -75 13l19 65q36 -11 65 -11q58 0 81 33.5t30 102.5l53 500h-225l-74 -703h-76l74 703h-225l-74 -703h-73zM202 546h225l3 26q7 72 35 120q-80 16 -115 16q-130 0 -143 -114z" />
    <glyph glyph-name="aogonek_j" unicode="&#x105;j" horiz-adv-x="781" 
d="M383 -233q-143 0 -143 108q0 37 26 72t66 59l10 93q-63 -57 -108.5 -84.5t-84.5 -27.5q-55 0 -82.5 44.5t-27.5 118.5q0 68 22.5 138t62.5 129t103 96.5t137 37.5q53 0 99 -8l-57 -543q-35 -20 -62 -50t-28 -59t18.5 -44.5t58.5 -15.5q163 0 179 152l59 563h76l-60 -568
q-6 -60 -33 -103.5t-66.5 -65.5t-80 -32t-84.5 -10zM168 59q31 0 86.5 40t94.5 77l33 307q-8 2 -34 2q-70 0 -125 -54t-81 -127t-26 -146q0 -44 13 -71.5t39 -27.5zM679 653l-58 63l71 62l60 -62z" />
    <glyph glyph-name=".notdef" horiz-adv-x="712" 
d="M305 375v27h27v-27h-27zM380 525v27h27v-27h-27zM305 525v27h27v-27h-27zM230 525v27h27v-27h-27zM80 0v27h27v-27h-27zM155 0v27h27v-27h-27zM230 0v27h27v-27h-27zM305 0v27h27v-27h-27zM380 0v27h27v-27h-27zM80 75v27h27v-27h-27zM80 150v27h27v-27h-27zM80 225v27
h27v-27h-27zM80 300v27h27v-27h-27zM80 375v27h27v-27h-27zM80 450v27h27v-27h-27zM80 525v27h27v-27h-27zM80 600v27h27v-27h-27zM80 675v27h27v-27h-27zM155 675v27h27v-27h-27zM230 675v27h27v-27h-27zM305 675v27h27v-27h-27zM380 675v27h27v-27h-27zM455 675v27h27v-27
h-27zM530 675v27h27v-27h-27zM530 0v27h27v-27h-27zM455 0v27h27v-27h-27zM605 0v27h27v-27h-27zM605 675v27h27v-27h-27zM305 300v27h27v-27h-27zM305 150v27h27v-27h-27zM380 375v27h27v-27h-27zM455 375v27h27v-27h-27zM455 450v27h27v-27h-27zM455 525v27h27v-27h-27z
M605 600v27h27v-27h-27zM605 525v27h27v-27h-27zM605 375v27h27v-27h-27zM605 300v27h27v-27h-27zM605 150v27h27v-27h-27zM605 75v27h27v-27h-27zM605 225v27h27v-27h-27zM605 450v27h27v-27h-27z" />
    <glyph glyph-name=".null" horiz-adv-x="0" 
 />
    <glyph glyph-name="nonmarkingreturn" horiz-adv-x="333" 
 />
    <glyph glyph-name="space" unicode=" " horiz-adv-x="211" 
 />
    <glyph glyph-name="exclam" unicode="!" horiz-adv-x="274" 
d="M108 170l11 138l42 399h75l-43 -399l-18 -138h-67zM80 0l9 85h87l-9 -85h-87z" />
    <glyph glyph-name="quotedbl" unicode="&#x22;" horiz-adv-x="336" 
d="M72 560l20 204h69l-32 -204h-57zM223 560l21 203h68l-31 -203h-58z" />
    <glyph glyph-name="numbersign" unicode="#" horiz-adv-x="592" 
d="M95 0l24 153h-89l7 64h93l21 131h-100l7 65h104l24 154h71l-24 -154h171l24 154h72l-25 -154h85l-7 -65h-88l-22 -131h96l-7 -64h-99l-25 -153h-71l24 153h-170l-25 -153h-71zM201 217h171l21 131h-170z" />
    <glyph glyph-name="dollar" unicode="$" horiz-adv-x="529" 
d="M182 -99l11 94q-96 3 -165 38l31 63q90 -35 165 -35q25 0 48 4t46 13t37 28.5t14 46.5q0 28 -28.5 49t-69 36.5t-81.5 33.5t-69.5 50.5t-28.5 77.5q0 66 45 102t114 46l10 96h69l-12 -93q80 -1 147 -30l-27 -58q-82 25 -142 25q-50 0 -88 -17t-38 -60q0 -29 28.5 -51.5
t70 -39.5l82.5 -35.5t69.5 -49t28.5 -70.5q0 -77 -54.5 -119t-134.5 -49l-7 -96h-71z" />
    <glyph glyph-name="percent" unicode="%" horiz-adv-x="772" 
d="M226 388q-63 0 -99 33.5t-36 97.5q0 80 47 137.5t125 57.5q137 0 137 -131q0 -82 -47 -138.5t-127 -56.5zM232 445q50 0 76.5 38.5t26.5 90.5q0 86 -77 86q-50 0 -75 -42t-25 -95q0 -78 74 -78zM569 -9q-63 0 -98.5 33.5t-35.5 97.5q0 80 46.5 137.5t125.5 57.5
q137 0 137 -131q0 -82 -47.5 -138.5t-127.5 -56.5zM576 48q50 0 76 38.5t26 90.5q0 86 -77 86q-50 0 -75 -41.5t-25 -94.5q0 -79 75 -79zM133 61l-38 42l586 531l39 -42z" />
    <glyph glyph-name="ampersand" unicode="&#x26;" horiz-adv-x="652" 
d="M678 -98q-158 0 -305 142q-76 -53 -175 -53q-78 0 -127.5 38.5t-49.5 116.5q0 68 39 121.5t107 105.5q-22 72 -22 143q0 89 45.5 143.5t136.5 54.5q63 0 100.5 -34t37.5 -96q0 -21 -5.5 -40t-20.5 -38l-26.5 -32.5t-37.5 -33l-38 -28.5t-45.5 -30.5l-42.5 -27.5
q61 -161 184 -274t268 -114q17 0 25 1l3 -61q-23 -4 -51 -4zM207 57q71 0 123 31q-90 102 -140 224q-92 -75 -92 -159q0 -96 109 -96zM229 413q43 29 62 43t48 37.5t40.5 43t11.5 39.5q0 32 -20 53.5t-53 21.5q-102 0 -102 -131q0 -52 13 -107zM437 104l6 64q32 24 90 24h84
l-7 -65h-83q-53 0 -90 -23z" />
    <glyph glyph-name="quotesingle" unicode="'" horiz-adv-x="171" 
d="M66 560l20 204h69l-31 -204h-58z" />
    <glyph glyph-name="parenleft" unicode="(" horiz-adv-x="337" 
d="M242 -222q-81 66 -125.5 186.5t-44.5 235.5q0 102 30 210.5t94.5 207.5t150.5 151l40 -51q-109 -71 -172 -217.5t-63 -289.5q0 -102 37 -211.5t104 -169.5z" />
    <glyph glyph-name="parenright" unicode=")" horiz-adv-x="337" 
d="M38 -222l-40 52q107 81 172 232.5t65 296.5q0 99 -37 202.5t-107 156.5l51 51q84 -57 129 -173t45 -237q0 -161 -76 -327.5t-202 -253.5z" />
    <glyph glyph-name="asterisk" unicode="*" horiz-adv-x="433" 
d="M87 466l-28 60l106 44l17 -38zM168 598l-96 45l40 60l83 -65zM182 408l24 109h46l-1 -109h-69zM221 652v110h68l-22 -110h-46zM360 466l-83 64l28 40l95 -43zM307 600l-18 38l96 65l28 -59z" />
    <glyph glyph-name="plus" unicode="+" horiz-adv-x="600" 
d="M233 54l22 216h-214l7 66l215 -1l23 222h68l-24 -223l227 2l-7 -66h-227l-22 -216h-68z" />
    <glyph glyph-name="comma" unicode="," horiz-adv-x="279" 
d="M32 -144q28 63 37 103t19 137h90q-9 -82 -23.5 -128t-56.5 -112h-66z" />
    <glyph glyph-name="hyphen" unicode="-" horiz-adv-x="360" 
d="M19 254l8 68h298l-8 -68h-298z" />
    <glyph glyph-name="hyphen" unicode="&#xad;" horiz-adv-x="360" 
d="M19 254l8 68h298l-8 -68h-298z" />
    <glyph glyph-name="period" unicode="." horiz-adv-x="297" 
d="M72 0l9 87h90l-9 -87h-90z" />
    <glyph glyph-name="slash" unicode="/" horiz-adv-x="386" 
d="M-3 -62l319 831h73l-319 -831h-73z" />
    <glyph glyph-name="zero" unicode="0" horiz-adv-x="612" 
d="M276 -10q-108 0 -172 65t-64 183q0 140 80 230.5t216 90.5q108 0 172 -64.5t64 -184.5q0 -139 -81.5 -229.5t-214.5 -90.5zM283 54q97 0 155 71t58 174q0 89 -43 142.5t-124 53.5q-99 0 -155 -69t-56 -175q0 -90 41.5 -143.5t123.5 -53.5z" />
    <glyph glyph-name="one" unicode="1" horiz-adv-x="311" 
d="M116 0l51 486h-142l6 59l219 7l-58 -552h-76z" />
    <glyph glyph-name="two" unicode="2" horiz-adv-x="428" 
d="M8 0l7 62l59.5 47.5l68 53.5t62 55t56.5 62t36 63.5t15 69.5q0 79 -96 79q-62 0 -119 -36l-26 54q67 51 158 51q82 0 122.5 -41t40.5 -97q0 -180 -278 -356h274l-8 -67h-372z" />
    <glyph glyph-name="three" unicode="3" horiz-adv-x="413" 
d="M109 -169q-79 0 -150 35l23 62q65 -30 129 -30q81 0 128.5 50.5t47.5 117.5q0 55 -42.5 87t-120.5 38l-2 55q68 17 116 66.5t48 103.5q0 78 -102 78q-62 0 -119 -22l-17 57q61 32 149 32q75 0 120 -35t45 -100q0 -56 -37 -108.5t-99 -83.5q139 -44 139 -164
q0 -96 -72.5 -167.5t-183.5 -71.5z" />
    <glyph glyph-name="four" unicode="4" horiz-adv-x="542" 
d="M266 -160l21 195h-281l7 69l283 442h120l-47 -446h126l-7 -65h-125l-21 -195h-76zM86 100h209l40 393z" />
    <glyph glyph-name="five" unicode="5" horiz-adv-x="460" 
d="M162 -171q-88 0 -165 30l20 63q80 -25 151 -25q79 0 126 44t47 118q0 42 -27 74t-72 51t-90.5 29t-96.5 15l32 318h335l-7 -64h-263l-20 -193q124 -19 204.5 -73t80.5 -147q0 -103 -71.5 -171.5t-183.5 -68.5z" />
    <glyph glyph-name="six" unicode="6" horiz-adv-x="553" 
d="M255 -11q-104 0 -156.5 60.5t-52.5 174.5q0 71 10 137t34.5 132t62 114.5t97 78.5t134.5 30q55 0 93 -17l-22 -65q-37 14 -86 14q-70 0 -120.5 -38t-76 -103t-37 -135.5t-11.5 -152.5q0 -79 36.5 -123t104.5 -44q69 0 103.5 54.5t34.5 131.5q0 133 -133 133q-26 0 -67 -9
v61q45 13 85 13q85 0 139.5 -49.5t54.5 -140.5q0 -111 -59.5 -184t-167.5 -73z" />
    <glyph glyph-name="seven" unicode="7" horiz-adv-x="421" 
d="M49 -175l-60 31l337 626h-324l7 64h400l-6 -66z" />
    <glyph glyph-name="eight" unicode="8" horiz-adv-x="560" 
d="M234 -10q-82 0 -137.5 40.5t-55.5 108.5q0 141 177 232q-36 27 -56 46t-37 51t-17 70q0 83 61 129.5t152 46.5q67 0 116 -36.5t49 -99.5q0 -124 -153 -209q61 -40 98.5 -84t37.5 -101q0 -92 -71.5 -143t-163.5 -51zM248 52q62 0 102.5 36t40.5 96q0 24 -11.5 46.5t-37 45
t-38.5 32.5t-42 30q-30 -18 -51 -33.5t-44.5 -39t-36 -51.5t-12.5 -60q0 -48 36.5 -75t93.5 -27zM286 401q123 71 123 169q0 39 -30 61t-75 22q-53 0 -87.5 -30.5t-34.5 -80.5q0 -28 20.5 -58t35.5 -43z" />
    <glyph glyph-name="nine" unicode="9" horiz-adv-x="518" 
d="M137 -167q-54 0 -92 17l22 65q34 -14 86 -14q70 0 120.5 38t76 103t37 135.5t11.5 152.5q0 79 -36.5 123t-104.5 44q-70 0 -104.5 -54.5t-34.5 -131.5q0 -133 134 -133q33 0 66 9l1 -61q-45 -13 -85 -13q-85 0 -139.5 49.5t-54.5 140.5q0 112 59.5 184.5t167.5 72.5
q208 0 208 -236q0 -71 -10 -137t-34.5 -131.5t-61.5 -114t-97 -78.5t-135 -30z" />
    <glyph glyph-name="colon" unicode=":" horiz-adv-x="295" 
d="M96 0l10 87h90l-9 -87h-91zM144 459l10 87h90l-10 -87h-90z" />
    <glyph glyph-name="semicolon" unicode=";" horiz-adv-x="277" 
d="M52 -144q28 63 37 103t19 137h90q-9 -82 -23.5 -128t-56.5 -112h-66zM144 459l10 87h89l-9 -87h-90z" />
    <glyph glyph-name="less" unicode="&#x3c;" horiz-adv-x="600" 
d="M462 64l-384 190l10 99l424 192l-8 -74l-370 -168l336 -164z" />
    <glyph glyph-name="equal" unicode="=" horiz-adv-x="600" 
d="M36 166l7 66h495l-7 -66h-495zM58 376l7 66h495l-7 -66h-495z" />
    <glyph glyph-name="greater" unicode="&#x3e;" horiz-adv-x="600" 
d="M58 64l8 75l369 164l-334 168l8 74l383 -192l-10 -99z" />
    <glyph glyph-name="question" unicode="?" horiz-adv-x="378" 
d="M132 163q-5 27 -5 50q0 37 13.5 69.5t33.5 55.5t44 46l44 42t33.5 42.5t13.5 48.5q0 57 -50.5 88.5t-115.5 37.5l23 66q90 -7 156.5 -52.5t66.5 -128.5q0 -44 -18 -80t-44.5 -61t-53.5 -48t-48 -51t-25 -59q-1 -13 1 -57zM109 0l9 85h87l-9 -85h-87z" />
    <glyph glyph-name="at" unicode="@" horiz-adv-x="781" 
d="M319 -72q-134 0 -204.5 70t-70.5 204q0 144 52 258.5t157.5 184.5t249.5 70q116 0 177 -59t61 -174q0 -80 -25.5 -153.5t-84.5 -127t-142 -53.5q-34 0 -53 17t-15 49q-20 -21 -57 -40.5t-63 -19.5q-45 0 -64 24t-19 70q0 104 59 178t160 74q58 0 103 -22l-50 -223
q-4 -16 -4 -25q0 -23 16 -23q46 0 80.5 26.5t53 69t27 86t8.5 86.5q0 178 -178 178q-93 0 -166 -35.5t-118 -97t-68.5 -140t-23.5 -168.5q0 -218 219 -218q71 0 153 18l6 -59q-68 -25 -176 -25zM321 215q24 0 55 17.5t51 38.5l38 169q-18 5 -35 5q-71 0 -108 -55.5
t-37 -130.5q0 -22 7.5 -33t28.5 -11z" />
    <glyph glyph-name="A" unicode="A" horiz-adv-x="622" 
d="M-39 0l352 707h118l148 -707h-82l-53 266h-270l-131 -266h-82zM206 330h225l-54 276l-10 60l-28 -61z" />
    <glyph glyph-name="B" unicode="B" horiz-adv-x="611" 
d="M66 0l75 707h192q202 0 202 -157q0 -59 -31 -108t-86 -64l1 -3q58 -7 94 -49t36 -101q0 -114 -70.5 -169.5t-189.5 -55.5h-223zM154 66h123q44 0 76 6.5t59 22t41 46.5t14 77q0 33 -14 56t-31.5 34t-49 17t-51.5 7t-54 1h-85zM189 396h99q81 0 121.5 33t40.5 113
q0 27 -8 46.5t-20.5 30t-33 17t-39 8t-44.5 1.5h-90z" />
    <glyph glyph-name="C" unicode="C" horiz-adv-x="596" 
d="M365 -10q-146 0 -232 85.5t-86 234.5q0 183 104.5 293t286.5 110q100 0 165 -28l-28 -63q-64 23 -142 23q-145 0 -224.5 -90.5t-79.5 -239.5q0 -122 70.5 -188t192.5 -66q86 0 152 21l15 -66q-82 -26 -194 -26z" />
    <glyph glyph-name="D" unicode="D" horiz-adv-x="723" 
d="M66 0l75 707h187q158 0 253.5 -77.5t95.5 -234.5q0 -194 -108.5 -294.5t-305.5 -100.5h-197zM153 66h125q155 0 236.5 82t81.5 243q0 128 -74 189t-204 61h-105z" />
    <glyph glyph-name="E" unicode="E" horiz-adv-x="566" 
d="M66 0l75 707h393l-7 -65h-313l-27 -254h292l-7 -66h-291l-28 -257h337l-6 -65h-418z" />
    <glyph glyph-name="F" unicode="F" horiz-adv-x="474" 
d="M66 0l75 707h352l-6 -65h-273l-29 -274h251l-6 -66h-252l-32 -302h-80z" />
    <glyph glyph-name="G" unicode="G" horiz-adv-x="655" 
d="M365 -10q-146 0 -232 85.5t-86 234.5q0 183 104.5 293t286.5 110q104 0 166 -28l-29 -62q-66 22 -143 22q-145 0 -224 -90t-79 -240q0 -123 70 -188.5t193 -65.5q49 0 93 11l28 278h80l-34 -326q-89 -34 -194 -34z" />
    <glyph glyph-name="H" unicode="H" horiz-adv-x="747" 
d="M66 0l75 707h79l-33 -320h380l33 321h80l-74 -708h-80l35 322h-380l-35 -322h-80z" />
    <glyph glyph-name="I" unicode="I" horiz-adv-x="287" 
d="M66 0l75 707h79l-74 -707h-80z" />
    <glyph glyph-name="J" unicode="J" horiz-adv-x="288" 
d="M-59 -187l-28 59q92 48 127.5 108.5t46.5 170.5l59 556h79l-58 -554q-13 -129 -63 -210.5t-163 -129.5z" />
    <glyph glyph-name="K" unicode="K" horiz-adv-x="600" 
d="M483 -25l-273 390l2 19l306 323h100l-318 -327l255 -363zM66 0l75 707h79l-74 -707h-80z" />
    <glyph glyph-name="L" unicode="L" horiz-adv-x="487" 
d="M66 0l75 707h79l-66 -639h307l-8 -68h-387z" />
    <glyph glyph-name="M" unicode="M" horiz-adv-x="876" 
d="M-16 0l230 707h107l53 -661l296 661h106l-19 -707h-79l24 610l-272 -610h-126l-50 612l-192 -612h-78z" />
    <glyph glyph-name="N" unicode="N" horiz-adv-x="734" 
d="M66 0l76 707h117l264 -649l65 649h79l-76 -707h-123l-256 633l-66 -633h-80z" />
    <glyph glyph-name="O" unicode="O" horiz-adv-x="784" 
d="M346 -11q-143 0 -221 85.5t-78 232.5q0 184 104.5 297.5t285.5 113.5q144 0 223 -85.5t79 -232.5q0 -184 -105.5 -297.5t-287.5 -113.5zM356 55q143 0 221 97t78 245q0 116 -59 184.5t-171 68.5q-141 0 -219 -95.5t-78 -242.5q0 -116 58 -186.5t170 -70.5z" />
    <glyph glyph-name="P" unicode="P" horiz-adv-x="566" 
d="M65 0l75 707h229q95 0 151 -48.5t56 -141.5q0 -130 -86.5 -194t-220.5 -63q-20 0 -22 1l8 65q53 0 93 8.5t74 28t51.5 57t17.5 90.5q0 133 -150 133h-128l-67 -643h-81z" />
    <glyph glyph-name="Q" unicode="Q" horiz-adv-x="784" 
d="M346 -11q-143 0 -221 85.5t-78 232.5q0 184 104.5 297.5t285.5 113.5q144 0 223 -85.5t79 -232.5q0 -184 -105.5 -297.5t-287.5 -113.5zM356 55q143 0 221 97t78 245q0 116 -59 184.5t-171 68.5q-141 0 -219 -95.5t-78 -242.5q0 -116 58 -186.5t170 -70.5zM719 -157
l-382 64l6 62l383 -59z" />
    <glyph glyph-name="R" unicode="R" horiz-adv-x="623" 
d="M526 -22l-200 326q-28 -3 -81 -3h-65l-33 -301h-81l75 707h219q93 0 150.5 -45t57.5 -127q0 -75 -41 -132.5t-118 -79.5l191 -305zM186 365h94q203 0 203 167q0 111 -151 111h-117z" />
    <glyph glyph-name="S" unicode="S" horiz-adv-x="482" 
d="M186 -11q-48 0 -105 14t-91 34l31 67q96 -45 171 -45q167 0 167 134q0 31 -21.5 57.5t-54 45.5l-70.5 43t-70.5 48t-54 62.5t-21.5 85.5q0 86 64.5 132t160.5 46q107 0 179 -39l-27 -62q-75 33 -155 33q-144 0 -144 -108q0 -36 30 -67.5t73 -57l86 -53.5t73 -70.5
t30 -93.5q0 -100 -71.5 -153t-179.5 -53z" />
    <glyph glyph-name="T" unicode="T" horiz-adv-x="553" 
d="M206 0l67 640h-242l8 67h563l-8 -67h-241l-68 -640h-79z" />
    <glyph glyph-name="U" unicode="U" horiz-adv-x="722" 
d="M333 -12q-52 0 -94.5 10t-80.5 33t-59.5 66.5t-21.5 104.5q0 12 2 40l49 465h81l-48 -458q-2 -24 -2 -35q0 -158 174 -158q90 0 146.5 49t69.5 168l45 434h76l-46 -437q-9 -81 -37.5 -139t-71 -87.5t-87 -42.5t-95.5 -13z" />
    <glyph glyph-name="V" unicode="V" horiz-adv-x="635" 
d="M211 0l-172 707h83l151 -650l329 650h84l-364 -707h-111z" />
    <glyph glyph-name="W" unicode="W" horiz-adv-x="898" 
d="M137 0l-105 707h83l87 -643l232 485l-32 158h83l123 -645l253 645h80l-283 -707h-110l-92 442l-211 -442h-108z" />
    <glyph glyph-name="X" unicode="X" horiz-adv-x="568" 
d="M-46 0l290 373l-163 334h88l128 -273l202 273h87l-257 -333l185 -374h-89l-148 309l-231 -309h-92z" />
    <glyph glyph-name="Y" unicode="Y" horiz-adv-x="522" 
d="M177 0l28 274l-183 433h88l144 -365l236 365h86l-291 -432l-29 -275h-79z" />
    <glyph glyph-name="Z" unicode="Z" horiz-adv-x="525" 
d="M-14 0l7 70l431 565h-345l7 72h438l-6 -63l-434 -573h394l-7 -71h-485z" />
    <glyph glyph-name="bracketleft" unicode="[" horiz-adv-x="349" 
d="M50 -220l103 974h176l-7 -64h-100l-88 -846h100l-7 -64h-177z" />
    <glyph glyph-name="backslash" unicode="\" horiz-adv-x="386" 
d="M228 -62l-145 831h73l146 -831h-74z" />
    <glyph glyph-name="bracketright" unicode="]" horiz-adv-x="349" 
d="M21 -220l6 64h100l89 846h-100l7 64h177l-103 -974h-176z" />
    <glyph glyph-name="asciicircum" unicode="^" horiz-adv-x="545" 
d="M46 294l205 413h101l104 -413h-79l-81 359l-171 -359h-79z" />
    <glyph glyph-name="underscore" unicode="_" horiz-adv-x="500" 
d="M-3 -165l6 68h500l-7 -68h-499z" />
    <glyph glyph-name="grave" unicode="`" horiz-adv-x="572" 
d="M391 613l-189 121l39 62l183 -131z" />
    <glyph glyph-name="a" unicode="a" 
d="M149 -13q-55 0 -82.5 44.5t-27.5 118.5q0 68 22.5 138t62.5 129t103 96.5t137 37.5q53 0 99 -8l-56 -543h-76l11 99q-63 -57 -108.5 -84.5t-84.5 -27.5zM168 59q31 0 86.5 40t94.5 77l33 307q-8 2 -34 2q-70 0 -125 -54t-81 -127t-26 -146q0 -44 13 -71.5t39 -27.5z" />
    <glyph glyph-name="b" unicode="b" horiz-adv-x="537" 
d="M205 -8q-67 0 -142 22l77 741h75l-28 -284q113 78 190 78q122 0 122 -160q0 -68 -17.5 -135.5t-51.5 -127.5t-92.5 -97t-132.5 -37zM212 56q57 0 100 34t66 87.5t33.5 107t10.5 104.5q0 53 -16.5 73t-48.5 20q-63 0 -178 -77l-36 -339q45 -10 69 -10z" />
    <glyph glyph-name="c" unicode="c" horiz-adv-x="440" 
d="M171 -12q-47 0 -77.5 32.5t-41 74t-10.5 89.5q0 160 72 268t196 108q77 0 128 -49l-42 -48q-43 33 -91 33q-51 0 -89 -30t-57 -78t-28 -95.5t-9 -94.5q0 -66 16.5 -103.5t39.5 -37.5q72 0 182 57l27 -54q-36 -22 -59.5 -34t-68 -25t-88.5 -13z" />
    <glyph glyph-name="d" unicode="d" horiz-adv-x="522" 
d="M149 -13q-107 0 -107 178q0 169 92 277.5t231 107.5h25l22 205h76l-81 -755h-76l11 99q-112 -112 -193 -112zM168 59q36 0 88 36.5t93 79.5l33 310q-9 1 -43 1q-59 0 -111 -44t-81 -113.5t-29 -143.5q0 -73 12.5 -99.5t37.5 -26.5z" />
    <glyph glyph-name="e" unicode="e" horiz-adv-x="446" 
d="M169 -12q-128 0 -128 204q0 156 69.5 262.5t192.5 106.5q69 0 103.5 -35.5t34.5 -89.5q0 -94 -143 -146l-178 -66q-1 -9 -1 -27q0 -141 64 -141q65 0 171 55l27 -57q-38 -21 -62.5 -32.5t-66 -22.5t-83.5 -11zM127 291l158 62q81 32 81 80q0 33 -19 48t-47 15
q-75 0 -116.5 -58.5t-56.5 -146.5z" />
    <glyph glyph-name="f" unicode="f" horiz-adv-x="312" 
d="M45 -220l72 703h-80l7 63h81l3 43q4 45 18 78.5t33.5 53.5t47 32t55 16.5t60.5 4.5q54 0 104 -18l-21 -61q-48 14 -92 14q-63 0 -94 -27t-36 -88l-5 -48h119l-6 -63h-119l-74 -703h-73z" />
    <glyph glyph-name="g" unicode="g" 
d="M155 -230q-99 0 -172 22l18 68q86 -23 142 -23q40 0 68.5 5t55 19.5t42 44t20.5 74.5l13 119q-62 -58 -106.5 -85t-86.5 -27q-57 0 -82 40.5t-25 123.5q0 160 93.5 280t228.5 120q53 0 99 -8l-60 -579q-6 -54 -29.5 -93.5t-59.5 -60.5t-75.5 -30.5t-83.5 -9.5zM168 59
q31 0 86.5 40t94.5 77l33 307q-9 2 -34 2q-96 0 -163 -100.5t-67 -222.5q0 -58 12.5 -80.5t37.5 -22.5z" />
    <glyph glyph-name="h" unicode="h" horiz-adv-x="552" 
d="M62 0l80 755h77l-32 -299q41 35 63.5 52t60.5 34.5t74 17.5q53 0 74 -25t21 -81q0 -16 -4 -60l-43 -394h-76l42 378q3 32 3 52q0 31 -9.5 44.5t-33.5 13.5q-57 0 -180 -101l-41 -387h-76z" />
    <glyph glyph-name="i" unicode="i" horiz-adv-x="269" 
d="M63 0l57 546h76l-57 -546h-76zM168 653l-58 63l71 62l60 -62z" />
    <glyph glyph-name="j" unicode="j" horiz-adv-x="267" 
d="M-61 -220q-40 0 -74 13l18 65q38 -11 65 -11q58 0 81 33.5t31 102.5l59 563h76l-59 -564q-12 -111 -62.5 -156.5t-134.5 -45.5zM166 653l-58 63l71 62l60 -62z" />
    <glyph glyph-name="k" unicode="k" horiz-adv-x="485" 
d="M380 -14l-191 302l201 258h89l-202 -255l180 -280zM61 0l79 754h77l-80 -754h-76z" />
    <glyph glyph-name="l" unicode="l" horiz-adv-x="266" 
d="M61 0l79 754h77l-80 -754h-76z" />
    <glyph glyph-name="m" unicode="m" horiz-adv-x="826" 
d="M61 0l58 546h76l-9 -89q75 64 115 83q40 20 76 20q51 0 72.5 -23t20.5 -72q53 45 98 70t92 25q51 0 72 -25t21 -80q0 -15 -4 -61l-43 -394h-75l41 378q4 44 4 55q0 32 -10.5 44t-36.5 12q-32 0 -68 -22.5t-96 -72.5l-42 -394h-76l41 378q4 44 4 55q0 31 -10 42.5
t-36 11.5q-52 0 -167 -100l-42 -387h-76z" />
    <glyph glyph-name="n" unicode="n" horiz-adv-x="552" 
d="M61 0l58 546h76l-9 -90q44 37 64.5 52.5t59 33.5t74.5 18q53 0 74 -24.5t21 -79.5q0 -31 -4 -62l-42 -394h-76l41 378q4 42 4 53q0 31 -10 44t-34 13q-58 0 -179 -101l-42 -387h-76z" />
    <glyph glyph-name="o" unicode="o" horiz-adv-x="511" 
d="M202 -12q-74 0 -117 55t-43 137q0 173 74.5 276.5t196.5 103.5q75 0 116.5 -55.5t41.5 -131.5q0 -54 -8.5 -106.5t-29 -103.5t-50.5 -89.5t-77 -62t-104 -23.5zM220 54q71 0 122 86.5t51 217.5q0 72 -24 105t-79 33q-69 0 -119 -88t-50 -213q0 -141 99 -141z" />
    <glyph glyph-name="p" unicode="p" horiz-adv-x="537" 
d="M38 -220l82 766h75l-7 -76q105 78 189 78q122 0 122 -160q0 -68 -17.5 -135.5t-51 -127t-92 -96.5t-132.5 -37q-32 0 -69 7l-23 -219h-76zM213 56q46 0 83 23t60 58.5t38.5 81.5t21.5 88t6 82q0 53 -16.5 73t-47.5 20q-61 0 -178 -78l-36 -338q56 -10 69 -10z" />
    <glyph glyph-name="q" unicode="q" 
d="M308 -220l34 319q-66 -57 -110 -84.5t-83 -27.5q-56 0 -81.5 42t-25.5 126q0 104 41.5 194.5t116 146t164.5 55.5q53 0 99 -8l-79 -763h-76zM168 59q31 0 86.5 40t94.5 77l33 307q-9 2 -34 2q-96 0 -163 -99t-67 -221q0 -62 12.5 -84t37.5 -22z" />
    <glyph glyph-name="r" unicode="r" horiz-adv-x="353" 
d="M61 0l58 546h76l-10 -91q1 1 10.5 9.5l13.5 12l14.5 13t17 14l18 12.5t19.5 13t19.5 10.5t21 9t21 5.5t21.5 2q6 0 26 -2l-15 -71q-5 1 -24 1q-22 0 -59.5 -21.5t-56 -36.5l-54.5 -45l-41 -381h-76z" />
    <glyph glyph-name="s" unicode="s" horiz-adv-x="429" 
d="M170 -9q-92 0 -149 25l22 66q70 -25 133 -25q26 0 50.5 5t48 24.5t23.5 50.5q0 29 -22 55t-53 46.5l-62 43t-53 54.5t-22 71q0 78 51 113.5t129 35.5q81 0 141 -30l-23 -59q-70 26 -129 26q-40 0 -68 -18t-28 -57q0 -29 22 -55t53 -47l62 -43.5t53 -57t22 -75.5
q0 -54 -32.5 -89t-75 -47.5t-93.5 -12.5z" />
    <glyph glyph-name="t" unicode="t" horiz-adv-x="380" 
d="M179 -12q-103 0 -103 115q0 8 2 32l38 347h-80l7 64h81l11 112h75l-11 -112h169l-6 -64h-170l-37 -345q-9 -80 45 -80q50 0 114 33l17 -58q-67 -44 -152 -44z" />
    <glyph glyph-name="u" unicode="u" horiz-adv-x="549" 
d="M175 -11q-56 0 -80 26t-24 85q0 22 3 49l43 397h76l-42 -378q-3 -32 -3 -52q0 -34 10.5 -47.5t36.5 -13.5q70 0 175 103l42 388h76l-58 -546h-76l9 90q-50 -50 -93 -75.5t-95 -25.5z" />
    <glyph glyph-name="v" unicode="v" horiz-adv-x="465" 
d="M133 0l-92 546h83l71 -492l146 307q45 97 45 166q0 7 -2 19h78q1 -6 1 -19q0 -76 -48 -174l-171 -353h-111z" />
    <glyph glyph-name="w" unicode="w" horiz-adv-x="768" 
d="M133 0l-92 546h83l71 -492l180 313l-30 179h82l71 -492l146 307q44 91 44 165q0 14 -1 20h78q1 -6 1 -19q0 -78 -48 -174l-171 -353h-112l-45 273l-157 -273h-100z" />
    <glyph glyph-name="x" unicode="x" horiz-adv-x="441" 
d="M-39 0l217 291l-114 255h82l82 -192l139 192h82l-191 -257l126 -289h-83l-93 224l-163 -224h-84z" />
    <glyph glyph-name="y" unicode="y" horiz-adv-x="465" 
d="M60 -220l108 220h-41l-86 546h83l69 -492l148 307q45 93 45 166q0 7 -2 19h79q1 -6 1 -19q0 -75 -47 -174l-277 -573h-80z" />
    <glyph glyph-name="z" unicode="z" horiz-adv-x="432" 
d="M-9 0l7 66l338 414h-268l7 66h355l-6 -63l-342 -418h302l-7 -65h-386z" />
    <glyph glyph-name="braceleft" unicode="{" horiz-adv-x="342" 
d="M256 -220q-80 0 -127 24.5t-47 91.5q0 22 6 49l42 199q7 33 -14 63.5t-58 30.5l7 70q37 0 65 30t28 65v206q0 164 202 164h21l-7 -64h-24q-60 0 -89.5 -25t-29.5 -80l2 -182q0 -123 -100 -146v-2q74 -27 74 -103q0 -16 -5 -43l-40 -184q-21 -100 98 -100h24l-7 -64h-21z
" />
    <glyph glyph-name="bar" unicode="|" horiz-adv-x="277" 
d="M37 -220l102 974h76l-102 -974h-76z" />
    <glyph glyph-name="braceright" unicode="}" horiz-adv-x="342" 
d="M-18 -220l7 64h23q119 0 119 100l-1 184q0 110 100 146v2q-74 18 -74 101q0 18 5 45l39 182q4 16 4 34q0 70 -101 70h-24l8 65h20q174 0 174 -120q0 -17 -5 -44l-43 -206q-8 -35 13.5 -65t58.5 -30l-7 -70q-37 0 -65 -30.5t-28 -63.5l1 -199q0 -41 -11.5 -71.5t-29.5 -48
t-46 -28t-55 -14t-62 -3.5h-20z" />
    <glyph glyph-name="asciitilde" unicode="~" horiz-adv-x="506" 
d="M361 285q-54 0 -118 30t-99 30q-45 0 -91 -30l-34 54q64 53 134 53q52 0 111 -31t100 -31q43 0 88 33l38 -48q-58 -60 -129 -60z" />
    <glyph glyph-name="uni00A0" unicode="&#xa0;" horiz-adv-x="211" 
 />
    <glyph glyph-name="exclamdown" unicode="&#xa1;" horiz-adv-x="271" 
d="M52 -161l42 399l18 138h67l-10 -138l-43 -399h-74zM112 461l8 85h87l-9 -85h-86z" />
    <glyph glyph-name="cent" unicode="&#xa2;" horiz-adv-x="499" 
d="M228 -45l11 77q-93 10 -138 56t-45 138q0 118 59 195.5t174 89.5l5 82h80l-11 -80q67 -4 102 -28l-29 -56q-50 22 -118 22q-95 0 -140 -60t-45 -159q0 -81 43 -110t129 -29q39 0 113 14l5 -60q-57 -16 -110 -17l-5 -75h-80z" />
    <glyph glyph-name="sterling" unicode="&#xa3;" horiz-adv-x="469" 
d="M33 0l7 65q38 16 64 56.5t32 84.5h-96l7 62h97q3 29 7 87q6 60 28 100t61.5 60.5t81.5 28t102 9.5l-2 -65q-33 -3 -49.5 -5t-43 -7.5t-40.5 -14.5t-29.5 -23.5t-22.5 -36.5t-9 -51q-1 -13 -3.5 -40t-3.5 -42h177l-6 -62h-183q-11 -89 -83 -141h288l-7 -65h-374z" />
    <glyph glyph-name="currency" unicode="&#xa4;" horiz-adv-x="500" 
d="M76 138l-39 39l70 69q-36 43 -36 106q0 66 35 106l-69 68l39 38l70 -70q53 32 104 32q61 0 105 -30l68 69l40 -40l-68 -67q35 -38 35 -106t-36 -107l67 -68l-37 -39l-70 69q-51 -28 -104 -28q-58 0 -102 30zM250 242q55 0 83 30.5t28 79.5q0 48 -28.5 79.5t-82.5 31.5
q-53 0 -82 -31.5t-29 -79.5t29.5 -79t81.5 -31z" />
    <glyph glyph-name="yen" unicode="&#xa5;" horiz-adv-x="587" 
d="M573 546l-152 -227h129l-7 -65h-166l-64 -97l-1 -12h220l-7 -65h-220l-8 -80h-76l9 80h-208l6 65h208l2 11l-40 98h-158l7 65h122l-97 227h85l128 -320l206 320h82z" />
    <glyph glyph-name="brokenbar" unicode="&#xa6;" horiz-adv-x="277" 
d="M49 -220l38 362h76l-38 -362h-76zM114 392l38 361h76l-38 -361h-76z" />
    <glyph glyph-name="section" unicode="&#xa7;" horiz-adv-x="538" 
d="M85 -55q-64 0 -111 40l32 64q46 -37 85 -37q23 0 38 21t19 43.5t4 46.5q0 31 -8 95l-3 32q-4 44 -4 68q0 127 68 204t193 77q84 0 142 -44l-32 -60q-58 39 -117 39q-55 0 -55 -101q0 -22 3 -43l6 -50q8 -74 8 -108q0 -125 -72.5 -206t-195.5 -81zM194 23q88 54 88 189
q0 12 -5 72l-6 63q-4 46 -4 63q0 76 22 109l-2 3q-76 -45 -76 -181q0 -30 3 -60l6 -62q4 -33 4 -74q0 -73 -32 -120z" />
    <glyph glyph-name="dieresis" unicode="&#xa8;" horiz-adv-x="408" 
d="M200 657l-52 57l63 57l52 -57zM395 657l-50 57l62 57l52 -57z" />
    <glyph glyph-name="copyright" unicode="&#xa9;" horiz-adv-x="828" 
d="M417 52q-94 0 -143.5 49.5t-47.5 130.5q2 107 63 173t171 66q70 0 117 -27l-25 -48q-43 21 -97 21q-73 0 -120 -46.5t-48 -132.5q-1 -64 40.5 -97t107.5 -33q39 0 95 16l13 -48q-67 -24 -126 -24zM367 -114q-143 0 -225.5 86t-82.5 228q0 185 112.5 302.5t291.5 117.5
q145 0 225.5 -87t80.5 -227q0 -182 -110.5 -301t-291.5 -119zM376 -54q155 0 241.5 100.5t86.5 250.5q0 119 -65 191t-187 72q-152 0 -239.5 -100t-87.5 -249q0 -116 64 -190.5t187 -74.5z" />
    <glyph glyph-name="ordfeminine" unicode="&#xaa;" horiz-adv-x="418" 
d="M163 387q-68 0 -68 111q0 91 54.5 154.5t136.5 63.5q30 0 65 -7l-34 -317h-58l6 49q-61 -54 -102 -54zM174 440q16 0 46.5 19.5t49.5 36.5l17 166l-16 1q-46 2 -82 -47.5t-36 -112.5t21 -63zM64 296l6 55h278l-7 -55h-277z" />
    <glyph glyph-name="guillemotleft" unicode="&#xab;" horiz-adv-x="429" 
d="M143 52l-83 220l129 220l54 -22l-107 -198l65 -195zM318 52l-82 220l129 220l53 -22l-107 -198l65 -195z" />
    <glyph glyph-name="logicalnot" unicode="&#xac;" horiz-adv-x="600" 
d="M435 112l17 158h-403l7 67h474l-23 -225h-72z" />
    <glyph glyph-name="registered" unicode="&#xae;" horiz-adv-x="622" 
d="M313 311q-41 0 -80 11.5t-74.5 36t-57 69.5t-21.5 104q0 104 65.5 164t166.5 60q94 0 162 -55.5t68 -168.5q0 -103 -64.5 -162t-164.5 -59zM318 353q78 0 128.5 47.5t50.5 131.5q0 89 -54.5 135.5t-129.5 46.5q-81 0 -133.5 -44.5t-52.5 -133.5q0 -55 20.5 -94t53 -57
t61 -25t56.5 -7zM428 417q-48 2 -72 27q-23 22 -51 70h-34v-91h-47v242h90q84 0 84 -75q0 -47 -45 -68q32 -44 36 -48q9 -9 45 -24zM271 547h31q51 0 51 42q0 22 -10 32t-36 10h-36v-84z" />
    <glyph glyph-name="macron" unicode="&#xaf;" horiz-adv-x="529" 
d="M195 667l7 65h261l-7 -65h-261z" />
    <glyph glyph-name="macron" unicode="&#x2c9;" horiz-adv-x="529" 
d="M195 667l7 65h261l-7 -65h-261z" />
    <glyph glyph-name="degree" unicode="&#xb0;" horiz-adv-x="325" 
d="M142 404q-74 0 -109 40t-28 118q7 68 56 111.5t118 43.5q73 0 110.5 -41t30.5 -114q-8 -73 -57 -115.5t-121 -42.5zM150 458q44 0 70.5 27t32.5 77q5 47 -16.5 74t-64.5 27t-69.5 -27t-31.5 -74q-6 -51 16 -77.5t63 -26.5z" />
    <glyph glyph-name="plusminus" unicode="&#xb1;" horiz-adv-x="600" 
d="M247 123l19 183h-182l7 67l183 -1l19 184h71l-20 -184l184 1l-8 -67h-183l-19 -183h-71zM51 0l7 68h437l-7 -68h-437z" />
    <glyph glyph-name="twosuperior" unicode="&#xb2;" horiz-adv-x="307" 
d="M-3 415l5 51l35.5 24l35 24l31.5 22t30 22.5l25 21.5t22.5 22.5t16 21.5t12.5 23t5 23q4 29 -12.5 44t-44.5 15q-53 0 -92 -34q-1 3 -11.5 21t-11.5 21q52 49 128 49q53 0 84.5 -29t26.5 -81q-4 -34 -21.5 -64t-51.5 -57.5t-57.5 -42.5l-66.5 -41h181l-6 -56h-263z" />
    <glyph glyph-name="threesuperior" unicode="&#xb3;" horiz-adv-x="301" 
d="M114 410q-53 0 -106 16q1 3 9.5 25.5t9.5 25.5q45 -13 86 -13q85 0 90 55q4 36 -21 50t-81 18l4 39q94 8 99 64q2 22 -14 33.5t-42 11.5q-35 0 -73 -17q-1 3 -6 21.5t-6 21.5q50 26 100 26t80.5 -24.5t25.5 -64.5q-2 -28 -20.5 -51t-48.5 -35q37 -8 55.5 -33.5
t14.5 -58.5q-6 -57 -50 -83.5t-106 -26.5z" />
    <glyph glyph-name="acute" unicode="&#xb4;" horiz-adv-x="569" 
d="M254 615l-31 52l196 137l37 -62z" />
    <glyph glyph-name="mu" unicode="&#xb5;" horiz-adv-x="551" 
d="M37 -220l81 766h76l-42 -378q-4 -42 -4 -54q0 -34 11 -47t38 -13q29 0 62 19t71.5 51.5t41.5 34.5l41 387h76l-58 -546h-76l10 90q-6 -4 -35.5 -30t-45 -37.5t-45.5 -24t-59 -12.5q-33 2 -46 6l-22 -212h-75z" />
    <glyph glyph-name="paragraph" unicode="&#xb6;" horiz-adv-x="599" 
d="M267 -220q-39 0 -68 11l21 61q15 -5 55 -5q60 0 86.5 35.5t33.5 100.5l76 724h75l-76 -725q-10 -99 -58.5 -150.5t-144.5 -51.5zM255 270q-95 0 -147.5 45.5t-52.5 138.5q0 122 62.5 187.5t182.5 65.5h77l-45 -437h-77z" />
    <glyph glyph-name="periodcentered" unicode="&#xb7;" horiz-adv-x="277" 
d="M138 295l-59 65l73 63l60 -63z" />
    <glyph glyph-name="cedilla" unicode="&#xb8;" horiz-adv-x="457" 
d="M164 -239l-21 44q59 34 66 77q2 23 -16 67h74q16 -32 13 -66q-7 -77 -116 -122z" />
    <glyph glyph-name="onesuperior" unicode="&#xb9;" horiz-adv-x="253" 
d="M95 415l33 312h-89l5 53q7 0 78.5 2t78.5 2l-39 -369h-67z" />
    <glyph glyph-name="ordmasculine" unicode="&#xba;" horiz-adv-x="418" 
d="M193 385q-49 0 -79.5 37.5t-30.5 91.5q0 92 41.5 149t113.5 57q54 0 82 -38t28 -93q0 -80 -38.5 -142t-116.5 -62zM202 435q42 0 64 50t22 102q0 33 -15.5 58t-44.5 25q-42 0 -63 -47.5t-21 -101.5q0 -35 14 -60.5t44 -25.5zM49 298l6 53h278l-7 -53h-277z" />
    <glyph glyph-name="guillemotright" unicode="&#xbb;" horiz-adv-x="430" 
d="M98 52l-52 25l106 195l-66 198l59 22l82 -220zM273 52l-52 25l106 195l-66 198l59 22l82 -220z" />
    <glyph glyph-name="onequarter" unicode="&#xbc;" horiz-adv-x="737" 
d="M99 415l33 312h-89l5 53q7 0 78.5 2t78.5 2l-39 -369h-67zM58 76l-36 40l582 535l34 -38zM561 0l9 88h-168l6 57l155 221h101l-24 -226h62l-5 -52h-62l-10 -88h-64zM459 140h116l20 189z" />
    <glyph glyph-name="onehalf" unicode="&#xbd;" horiz-adv-x="723" 
d="M410 0l5 51l35.5 24l35 24l31.5 22t30 22.5l25 21.5t22.5 22.5t16 21.5t12.5 23t5 23q4 29 -12.5 44t-44.5 15q-53 0 -92 -34l-23 42q52 49 128 49q53 0 84.5 -29t26.5 -81q-4 -34 -21.5 -64t-51.5 -57.5t-57.5 -42.5l-66.5 -41h181l-6 -56h-263zM99 415l33 312h-89l5 53
q7 0 78.5 2t78.5 2l-39 -369h-67zM49 76l-36 40l582 535l34 -38z" />
    <glyph glyph-name="threequarters" unicode="&#xbe;" horiz-adv-x="736" 
d="M117 410q-53 0 -106 16q1 3 9.5 25.5t9.5 25.5q45 -13 86 -13q84 0 90 55q4 36 -21 50t-81 18l4 39q94 8 99 64q2 22 -14 33.5t-42 11.5q-35 0 -73 -17q0 3 -6 21.5t-6 21.5q50 26 100 26t80.5 -24.5t25.5 -64.5q-2 -28 -20.5 -51t-48.5 -35q37 -8 55.5 -33.5t14.5 -58.5
q-6 -57 -50 -83.5t-106 -26.5zM68 76l-36 40l582 535l34 -38zM560 0l9 88h-168l6 57l155 221h101l-24 -226h62l-5 -52h-62l-10 -88h-64zM458 140h116l20 189z" />
    <glyph glyph-name="questiondown" unicode="&#xbf;" horiz-adv-x="378" 
d="M255 -163q-90 7 -156.5 52.5t-66.5 128.5q0 44 18 80t44.5 61t53.5 47.5t48 51t25 59.5q1 13 -1 57l69 9q5 -27 5 -50q0 -37 -13.5 -69.5t-33.5 -55.5t-44 -46.5l-44 -42t-33.5 -42.5t-13.5 -49q0 -39 27.5 -67.5t63.5 -41.5t75 -16zM216 461l9 85h87l-9 -85h-87z" />
    <glyph glyph-name="Agrave" unicode="&#xc0;" horiz-adv-x="622" 
d="M-39 0l352 707h118l148 -707h-82l-53 266h-270l-131 -266h-82zM206 330h225l-54 276l-10 60l-28 -61zM434 736l-220 65l27 72l211 -82z" />
    <glyph glyph-name="Aacute" unicode="&#xc1;" horiz-adv-x="622" 
d="M-39 0l352 707h118l148 -707h-82l-53 266h-270l-131 -266h-82zM206 330h225l-54 276l-10 60l-28 -61zM309 737l-16 54l229 80l19 -70z" />
    <glyph glyph-name="Acircumflex" unicode="&#xc2;" horiz-adv-x="622" 
d="M-39 0l352 707h118l148 -707h-82l-53 266h-270l-131 -266h-82zM206 330h225l-54 276l-10 60l-28 -61zM522 737l-137 68l-154 -67l-21 54l182 85l160 -85z" />
    <glyph glyph-name="Atilde" unicode="&#xc3;" horiz-adv-x="622" 
d="M-39 0l352 707h118l148 -707h-82l-53 266h-270l-131 -266h-82zM206 330h225l-54 276l-10 60l-28 -61zM437 747q-21 0 -63 18.5t-59 18.5q-35 0 -73 -25l-27 43q52 45 106 45q25 0 65 -18t58 -18q35 0 74 27l25 -45q-52 -46 -106 -46z" />
    <glyph glyph-name="Adieresis" unicode="&#xc4;" horiz-adv-x="622" 
d="M-39 0l352 707h118l148 -707h-82l-53 266h-270l-131 -266h-82zM206 330h225l-54 276l-10 60l-28 -61zM271 750l-49 58l61 57l51 -57zM477 750l-50 58l62 57l51 -57z" />
    <glyph glyph-name="Aring" unicode="&#xc5;" horiz-adv-x="622" 
d="M-39 0l340 684q-39 24 -39 71q0 54 37.5 88t92.5 34q45 0 76.5 -25.5t31.5 -67.5q0 -72 -63 -104l143 -680h-83l-53 266h-269l-131 -266h-83zM375 709q30 0 49.5 18.5t19.5 48.5q0 24 -16.5 39.5t-40.5 15.5q-31 0 -50 -18t-19 -49q0 -25 16 -40t41 -15zM206 330h225
l-64 336z" />
    <glyph glyph-name="AE" unicode="&#xc6;" horiz-adv-x="900" 
d="M-54 0l468 707h455l-6 -65h-314l-27 -254h293l-8 -66h-291l-28 -257h338l-7 -65h-416l35 322h-197l-206 -322h-89zM282 387h162l28 255h-26z" />
    <glyph glyph-name="Ccedilla" unicode="&#xc7;" horiz-adv-x="596" 
d="M365 -10q-146 0 -232 85.5t-86 234.5q0 183 104.5 293t286.5 110q100 0 165 -28l-28 -63q-64 23 -142 23q-145 0 -224.5 -90.5t-79.5 -239.5q0 -122 70.5 -188t192.5 -66q86 0 152 21l15 -66q-82 -26 -194 -26zM287 -239l-21 44q59 34 66 77q2 23 -16 67h74
q16 -32 13 -66q-7 -77 -116 -122z" />
    <glyph glyph-name="Egrave" unicode="&#xc8;" horiz-adv-x="566" 
d="M66 0l75 707h393l-7 -65h-313l-27 -254h292l-7 -66h-291l-28 -257h337l-6 -65h-418zM412 736l-220 65l27 72l211 -82z" />
    <glyph glyph-name="Eacute" unicode="&#xc9;" horiz-adv-x="566" 
d="M273 737l-16 54l229 80l19 -70zM66 0l75 707h393l-7 -65h-313l-27 -254h292l-7 -66h-291l-28 -257h337l-6 -65h-418z" />
    <glyph glyph-name="Ecircumflex" unicode="&#xca;" horiz-adv-x="566" 
d="M485 737l-137 68l-154 -67l-21 54l182 85l160 -85zM66 0l75 707h393l-7 -65h-313l-27 -254h292l-7 -66h-291l-28 -257h337l-6 -65h-418z" />
    <glyph glyph-name="Edieresis" unicode="&#xcb;" horiz-adv-x="566" 
d="M245 750l-49 58l61 57l51 -57zM451 750l-50 58l62 57l51 -57zM66 0l75 707h393l-7 -65h-313l-27 -254h292l-7 -66h-291l-28 -257h337l-6 -65h-418z" />
    <glyph glyph-name="Igrave" unicode="&#xcc;" horiz-adv-x="287" 
d="M66 0l75 707h79l-74 -707h-80zM230 736l-220 65l27 72l211 -82z" />
    <glyph glyph-name="Iacute" unicode="&#xcd;" horiz-adv-x="287" 
d="M66 0l75 707h79l-74 -707h-80zM135 737l-16 54l229 80l19 -70z" />
    <glyph glyph-name="Icircumflex" unicode="&#xce;" horiz-adv-x="287" 
d="M66 0l75 707h79l-74 -707h-80zM331 737l-137 68l-154 -67l-21 54l182 85l160 -85z" />
    <glyph glyph-name="Idieresis" unicode="&#xcf;" horiz-adv-x="287" 
d="M66 0l75 707h79l-74 -707h-80zM83 750l-49 58l61 57l51 -57zM289 750l-50 58l62 57l51 -57z" />
    <glyph glyph-name="Eth" unicode="&#xd0;" horiz-adv-x="722" 
d="M65 0l34 318h-72l7 68h72l34 322h187q157 0 253 -78t96 -235q0 -196 -109 -295.5t-308 -99.5h-194zM150 66h127q153 0 235.5 84.5t82.5 240.5q0 128 -74 189.5t-204 61.5h-106l-27 -256h147l-7 -68h-148z" />
    <glyph glyph-name="Ntilde" unicode="&#xd1;" horiz-adv-x="734" 
d="M66 0l76 707h117l264 -649l65 649h79l-76 -707h-123l-256 633l-66 -633h-80zM479 747q-21 0 -63 18.5t-59 18.5q-35 0 -73 -25l-27 43q52 45 106 45q25 0 65 -18t58 -18q35 0 74 27l25 -45q-52 -46 -106 -46z" />
    <glyph glyph-name="Ograve" unicode="&#xd2;" horiz-adv-x="784" 
d="M346 -11q-143 0 -221 85.5t-78 232.5q0 184 104.5 297.5t285.5 113.5q144 0 223 -85.5t79 -232.5q0 -184 -105.5 -297.5t-287.5 -113.5zM356 55q143 0 221 97t78 245q0 116 -59 184.5t-171 68.5q-141 0 -219 -95.5t-78 -242.5q0 -116 58 -186.5t170 -70.5zM494 736
l-220 65l27 72l211 -82z" />
    <glyph glyph-name="Oacute" unicode="&#xd3;" horiz-adv-x="784" 
d="M349 737l-16 54l229 80l19 -70zM346 -11q-143 0 -221 85.5t-78 232.5q0 184 104.5 297.5t285.5 113.5q144 0 223 -85.5t79 -232.5q0 -184 -105.5 -297.5t-287.5 -113.5zM356 55q143 0 221 97t78 245q0 116 -59 184.5t-171 68.5q-141 0 -219 -95.5t-78 -242.5
q0 -116 58 -186.5t170 -70.5z" />
    <glyph glyph-name="Ocircumflex" unicode="&#xd4;" horiz-adv-x="784" 
d="M574 737l-137 68l-154 -67l-21 54l182 85l160 -85zM346 -11q-143 0 -221 85.5t-78 232.5q0 184 104.5 297.5t285.5 113.5q144 0 223 -85.5t79 -232.5q0 -184 -105.5 -297.5t-287.5 -113.5zM356 55q143 0 221 97t78 245q0 116 -59 184.5t-171 68.5q-141 0 -219 -95.5
t-78 -242.5q0 -116 58 -186.5t170 -70.5z" />
    <glyph glyph-name="Otilde" unicode="&#xd5;" horiz-adv-x="784" 
d="M346 -11q-143 0 -221 85.5t-78 232.5q0 184 104.5 297.5t285.5 113.5q144 0 223 -85.5t79 -232.5q0 -184 -105.5 -297.5t-287.5 -113.5zM356 55q143 0 221 97t78 245q0 116 -59 184.5t-171 68.5q-141 0 -219 -95.5t-78 -242.5q0 -116 58 -186.5t170 -70.5zM495 747
q-21 0 -63 18.5t-59 18.5q-35 0 -73 -25l-27 43q52 45 106 45q25 0 65 -18t58 -18q35 0 74 27l25 -45q-52 -46 -106 -46z" />
    <glyph glyph-name="Odieresis" unicode="&#xd6;" horiz-adv-x="784" 
d="M330 750l-49 58l61 57l51 -57zM536 750l-50 58l62 57l51 -57zM346 -11q-143 0 -221 85.5t-78 232.5q0 184 104.5 297.5t285.5 113.5q144 0 223 -85.5t79 -232.5q0 -184 -105.5 -297.5t-287.5 -113.5zM356 55q143 0 221 97t78 245q0 116 -59 184.5t-171 68.5
q-141 0 -219 -95.5t-78 -242.5q0 -116 58 -186.5t170 -70.5z" />
    <glyph glyph-name="multiply" unicode="&#xd7;" horiz-adv-x="593" 
d="M449 81l-160 180l-191 -173l-43 48l191 173l-154 171l51 47l153 -172l196 176l44 -48l-198 -177l162 -179z" />
    <glyph glyph-name="Oslash" unicode="&#xd8;" horiz-adv-x="784" 
d="M61 -29l-41 39l84 87q-59 82 -59 210q0 184 105 297.5t286 113.5q123 0 202 -66l79 81l41 -40l-81 -84q60 -82 60 -209q0 -185 -105 -298t-288 -113q-127 0 -202 67zM163 157l419 438q-60 55 -158 55q-141 0 -219 -96t-78 -242q0 -95 36 -155zM355 55q143 0 221 97
t78 245q0 88 -36 151l-420 -436q59 -57 157 -57z" />
    <glyph glyph-name="Ugrave" unicode="&#xd9;" horiz-adv-x="722" 
d="M333 -12q-52 0 -94.5 10t-80.5 33t-59.5 66.5t-21.5 104.5q0 12 2 40l49 465h81l-48 -458q-2 -24 -2 -35q0 -158 174 -158q90 0 146.5 49t69.5 168l45 434h76l-46 -437q-9 -81 -37.5 -139t-71 -87.5t-87 -42.5t-95.5 -13zM482 736l-220 65l27 72l211 -82z" />
    <glyph glyph-name="Uacute" unicode="&#xda;" horiz-adv-x="722" 
d="M339 737l-16 54l229 80l19 -70zM333 -12q-52 0 -94.5 10t-80.5 33t-59.5 66.5t-21.5 104.5q0 12 2 40l49 465h81l-48 -458q-2 -24 -2 -35q0 -158 174 -158q90 0 146.5 49t69.5 168l45 434h76l-46 -437q-9 -81 -37.5 -139t-71 -87.5t-87 -42.5t-95.5 -13z" />
    <glyph glyph-name="Ucircumflex" unicode="&#xdb;" horiz-adv-x="722" 
d="M552 737l-137 68l-154 -67l-21 54l182 85l160 -85zM333 -12q-52 0 -94.5 10t-80.5 33t-59.5 66.5t-21.5 104.5q0 12 2 40l49 465h81l-48 -458q-2 -24 -2 -35q0 -158 174 -158q90 0 146.5 49t69.5 168l45 434h76l-46 -437q-9 -81 -37.5 -139t-71 -87.5t-87 -42.5
t-95.5 -13z" />
    <glyph glyph-name="Udieresis" unicode="&#xdc;" horiz-adv-x="722" 
d="M296 750l-49 58l61 57l51 -57zM502 750l-50 58l62 57l51 -57zM333 -12q-52 0 -94.5 10t-80.5 33t-59.5 66.5t-21.5 104.5q0 12 2 40l49 465h81l-48 -458q-2 -24 -2 -35q0 -158 174 -158q90 0 146.5 49t69.5 168l45 434h76l-46 -437q-9 -81 -37.5 -139t-71 -87.5
t-87 -42.5t-95.5 -13z" />
    <glyph glyph-name="Yacute" unicode="&#xdd;" horiz-adv-x="522" 
d="M177 0l28 274l-183 433h88l144 -365l236 365h86l-291 -432l-29 -275h-79zM243 737l-16 54l229 80l19 -70z" />
    <glyph glyph-name="Thorn" unicode="&#xde;" horiz-adv-x="566" 
d="M65 0l75 707h79l-13 -129h121q52 0 91.5 -8t73 -27.5t51 -57.5t17.5 -93q0 -125 -78.5 -188.5t-206.5 -63.5q-29 0 -42 1l7 66h19q216 -3 216 181q0 69 -39 97t-111 28h-126l-53 -513h-81z" />
    <glyph glyph-name="germandbls" unicode="&#xdf;" horiz-adv-x="624" 
d="M48 -220l83 793q11 111 71 156t156 45q62 0 110 -34.5t48 -106.5q0 -36 -21.5 -71.5t-47.5 -58t-47.5 -47t-21.5 -41.5q0 -23 18.5 -46.5t45 -45.5t53.5 -47t45.5 -60.5t18.5 -76.5q0 -40 -18.5 -70.5t-48 -46.5t-60.5 -24t-63 -8q-73 0 -143 25l18 64q61 -21 120 -21
q49 0 84 20.5t35 50.5q0 33 -18.5 61.5t-45 51l-53 45.5t-45 54.5t-18.5 67.5q0 25 14 49t33.5 43l39.5 38.5t34 44t14 50.5q0 33 -26.5 53t-61.5 20q-71 0 -104 -34.5t-39 -100.5l-84 -792h-75z" />
    <glyph glyph-name="agrave" unicode="&#xe0;" 
d="M149 -13q-55 0 -82.5 44.5t-27.5 118.5q0 68 22.5 138t62.5 129t103 96.5t137 37.5q53 0 99 -8l-56 -543h-76l11 99q-63 -57 -108.5 -84.5t-84.5 -27.5zM168 59q31 0 86.5 40t94.5 77l33 307q-8 2 -34 2q-70 0 -125 -54t-81 -127t-26 -146q0 -44 13 -71.5t39 -27.5z
M423 613l-189 121l39 62l183 -131z" />
    <glyph glyph-name="aacute" unicode="&#xe1;" 
d="M149 -13q-55 0 -82.5 44.5t-27.5 118.5q0 68 22.5 138t62.5 129t103 96.5t137 37.5q53 0 99 -8l-56 -543h-76l11 99q-63 -57 -108.5 -84.5t-84.5 -27.5zM168 59q31 0 86.5 40t94.5 77l33 307q-8 2 -34 2q-70 0 -125 -54t-81 -127t-26 -146q0 -44 13 -71.5t39 -27.5z
M302 615l-31 52l196 137l37 -62z" />
    <glyph glyph-name="acircumflex" unicode="&#xe2;" 
d="M149 -13q-55 0 -82.5 44.5t-27.5 118.5q0 68 22.5 138t62.5 129t103 96.5t137 37.5q53 0 99 -8l-56 -543h-76l11 99q-63 -57 -108.5 -84.5t-84.5 -27.5zM168 59q31 0 86.5 40t94.5 77l33 307q-8 2 -34 2q-70 0 -125 -54t-81 -127t-26 -146q0 -44 13 -71.5t39 -27.5z
M210 620l-31 53l196 115l164 -114l-36 -54l-137 88z" />
    <glyph glyph-name="atilde" unicode="&#xe3;" 
d="M149 -13q-55 0 -82.5 44.5t-27.5 118.5q0 68 22.5 138t62.5 129t103 96.5t137 37.5q53 0 99 -8l-56 -543h-76l11 99q-63 -57 -108.5 -84.5t-84.5 -27.5zM168 59q31 0 86.5 40t94.5 77l33 307q-8 2 -34 2q-70 0 -125 -54t-81 -127t-26 -146q0 -44 13 -71.5t39 -27.5z
M424 645q-20 0 -63 18.5t-62 18.5q-37 0 -75 -25l-28 44q50 46 109 46q25 0 65 -18.5t60 -18.5q35 0 76 29l26 -47q-52 -47 -108 -47z" />
    <glyph glyph-name="adieresis" unicode="&#xe4;" 
d="M149 -13q-55 0 -82.5 44.5t-27.5 118.5q0 68 22.5 138t62.5 129t103 96.5t137 37.5q53 0 99 -8l-56 -543h-76l11 99q-63 -57 -108.5 -84.5t-84.5 -27.5zM168 59q31 0 86.5 40t94.5 77l33 307q-8 2 -34 2q-70 0 -125 -54t-81 -127t-26 -146q0 -44 13 -71.5t39 -27.5z
M265 657l-52 57l63 57l52 -57zM460 657l-50 57l62 57l52 -57z" />
    <glyph glyph-name="aring" unicode="&#xe5;" 
d="M149 -13q-55 0 -82.5 44.5t-27.5 118.5q0 68 22.5 138t62.5 129t103 96.5t137 37.5q53 0 99 -8l-56 -543h-76l11 99q-63 -57 -108.5 -84.5t-84.5 -27.5zM168 59q31 0 86.5 40t94.5 77l33 307q-8 2 -34 2q-70 0 -125 -54t-81 -127t-26 -146q0 -44 13 -71.5t39 -27.5z
M360 608q-45 0 -77 24t-32 66q0 54 37.5 88.5t92.5 34.5q44 0 75.5 -26t31.5 -67q0 -54 -36.5 -87t-91.5 -33zM364 651q30 0 50 19t20 49q0 25 -17 40.5t-42 15.5q-31 0 -50.5 -18.5t-19.5 -48.5q0 -26 16.5 -41.5t42.5 -15.5z" />
    <glyph glyph-name="ae" unicode="&#xe6;" horiz-adv-x="752" 
d="M148 -13q-55 0 -81.5 48.5t-26.5 129.5q0 166 92.5 276t230.5 110q49 0 93 -8l-8 -62q67 80 163 80q72 0 104 -34t32 -90q0 -94 -143 -146l-177 -66q0 -5 -0.5 -14t-0.5 -13q0 -142 65 -142q54 0 170 55l27 -57q-37 -21 -61 -32.5t-66 -22.5t-84 -11q-101 0 -120 125
q-128 -126 -209 -126zM166 59q22 0 62.5 25.5t68 48t49.5 43.5l33 307l-41 2q-89 3 -155.5 -91t-66.5 -209q0 -73 13 -99.5t37 -26.5zM434 292l158 62q81 34 81 80q0 32 -19 47t-46 15q-40 0 -71.5 -17.5t-51.5 -48.5t-32 -64.5t-19 -73.5z" />
    <glyph glyph-name="ccedilla" unicode="&#xe7;" horiz-adv-x="440" 
d="M171 -12q-47 0 -77.5 32.5t-41 74t-10.5 89.5q0 160 72 268t196 108q77 0 128 -49l-42 -48q-43 33 -91 33q-51 0 -89 -30t-57 -78t-28 -95.5t-9 -94.5q0 -66 16.5 -103.5t39.5 -37.5q72 0 182 57l27 -54q-36 -22 -59.5 -34t-68 -25t-88.5 -13zM147 -239l-21 44
q59 34 66 77q2 23 -16 67h74q16 -32 13 -66q-7 -77 -116 -122z" />
    <glyph glyph-name="egrave" unicode="&#xe8;" horiz-adv-x="446" 
d="M169 -12q-128 0 -128 204q0 156 69.5 262.5t192.5 106.5q69 0 103.5 -35.5t34.5 -89.5q0 -94 -143 -146l-178 -66q-1 -9 -1 -27q0 -141 64 -141q65 0 171 55l27 -57q-38 -21 -62.5 -32.5t-66 -22.5t-83.5 -11zM127 291l158 62q81 32 81 80q0 33 -19 48t-47 15
q-75 0 -116.5 -58.5t-56.5 -146.5zM333 613l-189 121l39 62l183 -131z" />
    <glyph glyph-name="eacute" unicode="&#xe9;" horiz-adv-x="446" 
d="M226 615l-31 52l196 137l37 -62zM169 -12q-128 0 -128 204q0 156 69.5 262.5t192.5 106.5q69 0 103.5 -35.5t34.5 -89.5q0 -94 -143 -146l-178 -66q-1 -9 -1 -27q0 -141 64 -141q65 0 171 55l27 -57q-38 -21 -62.5 -32.5t-66 -22.5t-83.5 -11zM127 291l158 62
q81 32 81 80q0 33 -19 48t-47 15q-75 0 -116.5 -58.5t-56.5 -146.5z" />
    <glyph glyph-name="ecircumflex" unicode="&#xea;" horiz-adv-x="446" 
d="M148 620l-31 53l196 115l164 -114l-36 -54l-137 88zM169 -12q-128 0 -128 204q0 156 69.5 262.5t192.5 106.5q69 0 103.5 -35.5t34.5 -89.5q0 -94 -143 -146l-178 -66q-1 -9 -1 -27q0 -141 64 -141q65 0 171 55l27 -57q-38 -21 -62.5 -32.5t-66 -22.5t-83.5 -11zM127 291
l158 62q81 32 81 80q0 33 -19 48t-47 15q-75 0 -116.5 -58.5t-56.5 -146.5z" />
    <glyph glyph-name="edieresis" unicode="&#xeb;" horiz-adv-x="446" 
d="M203 657l-52 57l63 57l52 -57zM398 657l-50 57l62 57l52 -57zM169 -12q-128 0 -128 204q0 156 69.5 262.5t192.5 106.5q69 0 103.5 -35.5t34.5 -89.5q0 -94 -143 -146l-178 -66q-1 -9 -1 -27q0 -141 64 -141q65 0 171 55l27 -57q-38 -21 -62.5 -32.5t-66 -22.5t-83.5 -11
zM127 291l158 62q81 32 81 80q0 33 -19 48t-47 15q-75 0 -116.5 -58.5t-56.5 -146.5z" />
    <glyph glyph-name="igrave" unicode="&#xec;" horiz-adv-x="264" 
d="M61 0l57 546h76l-57 -546h-76zM208 613l-189 121l39 62l183 -131z" />
    <glyph glyph-name="iacute" unicode="&#xed;" horiz-adv-x="264" 
d="M113 615l-31 52l196 137l37 -62zM61 0l57 546h76l-57 -546h-76z" />
    <glyph glyph-name="icircumflex" unicode="&#xee;" horiz-adv-x="264" 
d="M24 620l-31 53l196 115l164 -114l-36 -54l-137 88zM61 0l57 546h76l-57 -546h-76z" />
    <glyph glyph-name="idieresis" unicode="&#xef;" horiz-adv-x="264" 
d="M70 657l-52 57l63 57l52 -57zM265 657l-50 57l62 57l52 -57zM61 0l57 546h76l-57 -546h-76z" />
    <glyph glyph-name="eth" unicode="&#xf0;" horiz-adv-x="508" 
d="M199 -12q-73 0 -116 56.5t-43 135.5q0 171 73.5 273.5t192.5 104.5q29 0 53 -11q-13 41 -33 78l-97 -34l-18 48l86 29q-23 30 -47 50l49 51q36 -26 67 -68l98 34l19 -47l-89 -31q75 -132 75 -298q0 -62 -14.5 -123t-44 -118.5t-84.5 -93.5t-127 -36zM224 54
q73 0 120.5 89.5t47.5 214.5q0 70 -25.5 104t-81.5 34q-68 0 -117 -92.5t-49 -208.5q0 -141 105 -141z" />
    <glyph glyph-name="ntilde" unicode="&#xf1;" horiz-adv-x="552" 
d="M61 0l58 546h76l-9 -90q44 37 64.5 52.5t59 33.5t74.5 18q53 0 74 -24.5t21 -79.5q0 -31 -4 -62l-42 -394h-76l41 378q4 42 4 53q0 31 -10 44t-34 13q-58 0 -179 -101l-42 -387h-76zM395 645q-20 0 -63 18.5t-62 18.5q-37 0 -75 -25l-28 44q50 46 109 46q25 0 65 -18.5
t60 -18.5q35 0 76 29l26 -47q-52 -47 -108 -47z" />
    <glyph glyph-name="ograve" unicode="&#xf2;" horiz-adv-x="511" 
d="M202 -12q-74 0 -117 55t-43 137q0 173 74.5 276.5t196.5 103.5q75 0 116.5 -55.5t41.5 -131.5q0 -54 -8.5 -106.5t-29 -103.5t-50.5 -89.5t-77 -62t-104 -23.5zM220 54q71 0 122 86.5t51 217.5q0 72 -24 105t-79 33q-69 0 -119 -88t-50 -213q0 -141 99 -141zM355 613
l-189 121l39 62l183 -131z" />
    <glyph glyph-name="oacute" unicode="&#xf3;" horiz-adv-x="511" 
d="M251 615l-31 52l196 137l37 -62zM202 -12q-74 0 -117 55t-43 137q0 173 74.5 276.5t196.5 103.5q75 0 116.5 -55.5t41.5 -131.5q0 -54 -8.5 -106.5t-29 -103.5t-50.5 -89.5t-77 -62t-104 -23.5zM220 54q71 0 122 86.5t51 217.5q0 72 -24 105t-79 33q-69 0 -119 -88
t-50 -213q0 -141 99 -141z" />
    <glyph glyph-name="ocircumflex" unicode="&#xf4;" horiz-adv-x="511" 
d="M170 620l-31 53l196 115l164 -114l-36 -54l-137 88zM202 -12q-74 0 -117 55t-43 137q0 173 74.5 276.5t196.5 103.5q75 0 116.5 -55.5t41.5 -131.5q0 -54 -8.5 -106.5t-29 -103.5t-50.5 -89.5t-77 -62t-104 -23.5zM220 54q71 0 122 86.5t51 217.5q0 72 -24 105t-79 33
q-69 0 -119 -88t-50 -213q0 -141 99 -141z" />
    <glyph glyph-name="otilde" unicode="&#xf5;" horiz-adv-x="511" 
d="M202 -12q-74 0 -117 55t-43 137q0 173 74.5 276.5t196.5 103.5q75 0 116.5 -55.5t41.5 -131.5q0 -54 -8.5 -106.5t-29 -103.5t-50.5 -89.5t-77 -62t-104 -23.5zM220 54q71 0 122 86.5t51 217.5q0 72 -24 105t-79 33q-69 0 -119 -88t-50 -213q0 -141 99 -141zM377 645
q-20 0 -63 18.5t-62 18.5q-37 0 -75 -25l-28 44q50 46 109 46q25 0 65 -18.5t60 -18.5q35 0 76 29l26 -47q-52 -47 -108 -47z" />
    <glyph glyph-name="odieresis" unicode="&#xf6;" horiz-adv-x="511" 
d="M211 657l-52 57l63 57l52 -57zM406 657l-50 57l62 57l52 -57zM202 -12q-74 0 -117 55t-43 137q0 173 74.5 276.5t196.5 103.5q75 0 116.5 -55.5t41.5 -131.5q0 -54 -8.5 -106.5t-29 -103.5t-50.5 -89.5t-77 -62t-104 -23.5zM220 54q71 0 122 86.5t51 217.5q0 72 -24 105
t-79 33q-69 0 -119 -88t-50 -213q0 -141 99 -141z" />
    <glyph glyph-name="divide" unicode="&#xf7;" horiz-adv-x="600" 
d="M229 68l8 78h80l-9 -78h-79zM41 270l7 66h509l-7 -66h-509zM271 461l8 79h80l-9 -79h-79z" />
    <glyph glyph-name="oslash" unicode="&#xf8;" horiz-adv-x="508" 
d="M16 -28l-36 30l77 90q-17 44 -17 88q0 171 75.5 275.5t196.5 104.5q63 0 108 -48l54 62l35 -31l-61 -73q21 -44 21 -97q0 -69 -14.5 -134t-44.5 -123t-84 -93t-126 -35t-118 59zM122 167l249 289q-25 40 -82 40q-67 0 -118 -84.5t-52 -211.5q0 -3 3 -33zM219 54
q70 0 120.5 86t51.5 215q0 29 -3 47l-254 -295q21 -53 85 -53z" />
    <glyph glyph-name="ugrave" unicode="&#xf9;" horiz-adv-x="549" 
d="M175 -11q-56 0 -80 26t-24 85q0 22 3 49l43 397h76l-42 -378q-3 -32 -3 -52q0 -34 10.5 -47.5t36.5 -13.5q70 0 175 103l42 388h76l-58 -546h-76l9 90q-50 -50 -93 -75.5t-95 -25.5zM360 613l-189 121l39 62l183 -131z" />
    <glyph glyph-name="uacute" unicode="&#xfa;" horiz-adv-x="549" 
d="M266 615l-31 52l196 137l37 -62zM175 -11q-56 0 -80 26t-24 85q0 22 3 49l43 397h76l-42 -378q-3 -32 -3 -52q0 -34 10.5 -47.5t36.5 -13.5q70 0 175 103l42 388h76l-58 -546h-76l9 90q-50 -50 -93 -75.5t-95 -25.5z" />
    <glyph glyph-name="ucircumflex" unicode="&#xfb;" horiz-adv-x="549" 
d="M171 620l-31 53l196 115l164 -114l-36 -54l-137 88zM175 -11q-56 0 -80 26t-24 85q0 22 3 49l43 397h76l-42 -378q-3 -32 -3 -52q0 -34 10.5 -47.5t36.5 -13.5q70 0 175 103l42 388h76l-58 -546h-76l9 90q-50 -50 -93 -75.5t-95 -25.5z" />
    <glyph glyph-name="udieresis" unicode="&#xfc;" horiz-adv-x="549" 
d="M216 657l-52 57l63 57l52 -57zM411 657l-50 57l62 57l52 -57zM175 -11q-56 0 -80 26t-24 85q0 22 3 49l43 397h76l-42 -378q-3 -32 -3 -52q0 -34 10.5 -47.5t36.5 -13.5q70 0 175 103l42 388h76l-58 -546h-76l9 90q-50 -50 -93 -75.5t-95 -25.5z" />
    <glyph glyph-name="yacute" unicode="&#xfd;" horiz-adv-x="465" 
d="M60 -220l108 220h-41l-86 546h83l69 -492l148 307q45 93 45 166q0 7 -2 19h79q1 -6 1 -19q0 -75 -47 -174l-277 -573h-80zM227 615l-31 52l196 137l37 -62z" />
    <glyph glyph-name="thorn" unicode="&#xfe;" horiz-adv-x="535" 
d="M35 -220l106 973h75l-29 -276q103 74 178 74q66 0 100.5 -38t34.5 -123q0 -75 -18 -144.5t-53 -127t-93.5 -92t-132.5 -34.5q-27 0 -69 6l-23 -218h-76zM210 57q57 0 100 34t66 87t34 107t11 104q0 53 -16.5 75t-47.5 22q-58 0 -178 -82l-37 -337q56 -10 68 -10z" />
    <glyph glyph-name="ydieresis" unicode="&#xff;" horiz-adv-x="465" 
d="M60 -220l108 220h-41l-86 546h83l69 -492l148 307q45 93 45 166q0 7 -2 19h79q1 -6 1 -19q0 -75 -47 -174l-277 -573h-80zM169 657l-52 57l63 57l52 -57zM364 657l-50 57l62 57l52 -57z" />
    <glyph glyph-name="Amacron" unicode="&#x100;" horiz-adv-x="622" 
d="M-39 0l352 707h118l148 -707h-82l-53 266h-270l-131 -266h-82zM206 330h225l-54 276l-10 60l-28 -61zM236 766l7 64h282l-7 -64h-282z" />
    <glyph glyph-name="amacron" unicode="&#x101;" 
d="M149 -13q-55 0 -82.5 44.5t-27.5 118.5q0 68 22.5 138t62.5 129t103 96.5t137 37.5q53 0 99 -8l-56 -543h-76l11 99q-63 -57 -108.5 -84.5t-84.5 -27.5zM168 59q31 0 86.5 40t94.5 77l33 307q-8 2 -34 2q-70 0 -125 -54t-81 -127t-26 -146q0 -44 13 -71.5t39 -27.5z
M229 667l7 65h261l-7 -65h-261z" />
    <glyph glyph-name="Abreve" unicode="&#x102;" horiz-adv-x="622" 
d="M-39 0l352 707h118l148 -707h-82l-53 266h-270l-131 -266h-82zM206 330h225l-54 276l-10 60l-28 -61zM373 754q-49 0 -84.5 25.5t-51.5 56.5l45 38q41 -57 100 -57q66 0 110 57l35 -38q-63 -82 -154 -82z" />
    <glyph glyph-name="abreve" unicode="&#x103;" 
d="M149 -13q-55 0 -82.5 44.5t-27.5 118.5q0 68 22.5 138t62.5 129t103 96.5t137 37.5q53 0 99 -8l-56 -543h-76l11 99q-63 -57 -108.5 -84.5t-84.5 -27.5zM168 59q31 0 86.5 40t94.5 77l33 307q-8 2 -34 2q-70 0 -125 -54t-81 -127t-26 -146q0 -44 13 -71.5t39 -27.5z
M350 645q-49 0 -84.5 25.5t-51.5 56.5l45 38q41 -57 100 -57q66 0 110 57l35 -38q-63 -82 -154 -82z" />
    <glyph glyph-name="Aogonek" unicode="&#x104;" horiz-adv-x="622" 
d="M498 -225q-62 0 -85 28t-20 73q5 66 102 131l-51 259h-270l-131 -266h-82l352 707h118l148 -707q-109 -65 -113 -114q-3 -27 12 -37.5t46 -10.5q26 0 45 8l12 -55q-30 -16 -83 -16zM206 330h225l-64 336z" />
    <glyph glyph-name="aogonek" unicode="&#x105;" 
d="M325 -225q-54 0 -79.5 25.5t-25.5 67.5q0 38 34 76.5t78 65.5l10 89q-63 -57 -108.5 -84.5t-84.5 -27.5q-55 0 -82.5 44.5t-27.5 118.5q0 68 22.5 138t62.5 129t103 96.5t137 37.5q53 0 99 -8l-57 -543q-41 -24 -76.5 -56t-36.5 -60q-1 -27 13 -36.5t45 -9.5q26 0 45 8
l12 -55q-30 -16 -83 -16zM168 59q31 0 86.5 40t94.5 77l33 307q-8 2 -34 2q-70 0 -125 -54t-81 -127t-26 -146q0 -44 13 -71.5t39 -27.5z" />
    <glyph glyph-name="Cacute" unicode="&#x106;" horiz-adv-x="596" 
d="M340 737l-16 54l229 80l19 -70zM365 -10q-146 0 -232 85.5t-86 234.5q0 183 104.5 293t286.5 110q100 0 165 -28l-28 -63q-64 23 -142 23q-145 0 -224.5 -90.5t-79.5 -239.5q0 -122 70.5 -188t192.5 -66q86 0 152 21l15 -66q-82 -26 -194 -26z" />
    <glyph glyph-name="cacute" unicode="&#x107;" horiz-adv-x="440" 
d="M246 615l-31 52l196 137l37 -62zM171 -12q-47 0 -77.5 32.5t-41 74t-10.5 89.5q0 160 72 268t196 108q77 0 128 -49l-42 -48q-43 33 -91 33q-51 0 -89 -30t-57 -78t-28 -95.5t-9 -94.5q0 -66 16.5 -103.5t39.5 -37.5q72 0 182 57l27 -54q-36 -22 -59.5 -34t-68 -25
t-88.5 -13z" />
    <glyph glyph-name="Ccircumflex" unicode="&#x108;" horiz-adv-x="596" 
d="M581 737l-137 68l-154 -67l-21 54l182 85l160 -85zM365 -10q-146 0 -232 85.5t-86 234.5q0 183 104.5 293t286.5 110q100 0 165 -28l-28 -63q-64 23 -142 23q-145 0 -224.5 -90.5t-79.5 -239.5q0 -122 70.5 -188t192.5 -66q86 0 152 21l15 -66q-82 -26 -194 -26z" />
    <glyph glyph-name="ccircumflex" unicode="&#x109;" horiz-adv-x="440" 
d="M160 620l-31 53l196 115l164 -114l-36 -54l-137 88zM171 -12q-47 0 -77.5 32.5t-41 74t-10.5 89.5q0 160 72 268t196 108q77 0 128 -49l-42 -48q-43 33 -91 33q-51 0 -89 -30t-57 -78t-28 -95.5t-9 -94.5q0 -66 16.5 -103.5t39.5 -37.5q72 0 182 57l27 -54
q-36 -22 -59.5 -34t-68 -25t-88.5 -13z" />
    <glyph glyph-name="Cdotaccent" unicode="&#x10a;" horiz-adv-x="596" 
d="M365 -10q-146 0 -232 85.5t-86 234.5q0 183 104.5 293t286.5 110q100 0 165 -28l-28 -63q-64 23 -142 23q-145 0 -224.5 -90.5t-79.5 -239.5q0 -122 70.5 -188t192.5 -66q86 0 152 21l15 -66q-82 -26 -194 -26zM429 753l-58 65l72 63l61 -63z" />
    <glyph glyph-name="cdotaccent" unicode="&#x10b;" horiz-adv-x="440" 
d="M171 -12q-47 0 -77.5 32.5t-41 74t-10.5 89.5q0 160 72 268t196 108q77 0 128 -49l-42 -48q-43 33 -91 33q-51 0 -89 -30t-57 -78t-28 -95.5t-9 -94.5q0 -66 16.5 -103.5t39.5 -37.5q72 0 182 57l27 -54q-36 -22 -59.5 -34t-68 -25t-88.5 -13zM314 653l-58 63l71 62
l60 -62z" />
    <glyph glyph-name="Ccaron" unicode="&#x10c;" horiz-adv-x="596" 
d="M404 739l-159 85l30 54l136 -68l154 67l22 -54zM365 -10q-146 0 -232 85.5t-86 234.5q0 183 104.5 293t286.5 110q100 0 165 -28l-28 -63q-64 23 -142 23q-145 0 -224.5 -90.5t-79.5 -239.5q0 -122 70.5 -188t192.5 -66q86 0 152 21l15 -66q-82 -26 -194 -26z" />
    <glyph glyph-name="ccaron" unicode="&#x10d;" horiz-adv-x="440" 
d="M298 619l-163 113l36 52l135 -91l154 91l30 -52zM171 -12q-47 0 -77.5 32.5t-41 74t-10.5 89.5q0 160 72 268t196 108q77 0 128 -49l-42 -48q-43 33 -91 33q-51 0 -89 -30t-57 -78t-28 -95.5t-9 -94.5q0 -66 16.5 -103.5t39.5 -37.5q72 0 182 57l27 -54
q-36 -22 -59.5 -34t-68 -25t-88.5 -13z" />
    <glyph glyph-name="Dcaron" unicode="&#x10e;" horiz-adv-x="723" 
d="M342 739l-159 85l30 54l136 -68l154 67l22 -54zM66 0l75 707h187q158 0 253.5 -77.5t95.5 -234.5q0 -194 -108.5 -294.5t-305.5 -100.5h-197zM153 66h125q155 0 236.5 82t81.5 243q0 128 -74 189t-204 61h-105z" />
    <glyph glyph-name="dcaron" unicode="&#x10f;" horiz-adv-x="547" 
d="M517 552l43 203h73l-56 -203h-60zM149 -13q-107 0 -107 178q0 169 92 277.5t231 107.5h25l22 205h76l-81 -755h-76l11 99q-112 -112 -193 -112zM168 59q36 0 88 36.5t93 79.5l33 310q-9 1 -43 1q-59 0 -111 -44t-81 -113.5t-29 -143.5q0 -73 12.5 -99.5t37.5 -26.5z" />
    <glyph glyph-name="Dcroat" unicode="&#x110;" horiz-adv-x="722" 
d="M65 0l34 318h-72l7 68h72l34 322h187q157 0 253 -78t96 -235q0 -196 -109 -295.5t-308 -99.5h-194zM150 66h127q153 0 235.5 84.5t82.5 240.5q0 128 -74 189.5t-204 61.5h-106l-27 -256h147l-7 -68h-148z" />
    <glyph glyph-name="dcroat" unicode="&#x111;" horiz-adv-x="522" 
d="M149 -13q-107 0 -107 178q0 169 92 277.5t231 107.5h25l7 67h-141l7 57h140l9 81h76l-8 -81h86l-7 -57h-86l-66 -617h-76l11 99q-122 -112 -193 -112zM168 59q52 0 181 116l33 311h-43q-90 2 -155.5 -92t-65.5 -209q0 -73 12.5 -99.5t37.5 -26.5z" />
    <glyph glyph-name="Emacron" unicode="&#x112;" horiz-adv-x="566" 
d="M66 0l75 707h393l-7 -65h-313l-27 -254h292l-7 -66h-291l-28 -257h337l-6 -65h-418zM203 766l7 64h282l-7 -64h-282z" />
    <glyph glyph-name="emacron" unicode="&#x113;" horiz-adv-x="446" 
d="M169 -12q-128 0 -128 204q0 156 69.5 262.5t192.5 106.5q69 0 103.5 -35.5t34.5 -89.5q0 -94 -143 -146l-178 -66q-1 -9 -1 -27q0 -141 64 -141q65 0 171 55l27 -57q-38 -21 -62.5 -32.5t-66 -22.5t-83.5 -11zM127 291l158 62q81 32 81 80q0 33 -19 48t-47 15
q-75 0 -116.5 -58.5t-56.5 -146.5zM179 667l7 65h261l-7 -65h-261z" />
    <glyph glyph-name="Ebreve" unicode="&#x114;" horiz-adv-x="566" 
d="M66 0l75 707h393l-7 -65h-313l-27 -254h292l-7 -66h-291l-28 -257h337l-6 -65h-418zM345 754q-49 0 -84.5 25.5t-51.5 56.5l45 38q41 -57 100 -57q66 0 110 57l35 -38q-63 -82 -154 -82z" />
    <glyph glyph-name="ebreve" unicode="&#x115;" horiz-adv-x="446" 
d="M169 -12q-128 0 -128 204q0 156 69.5 262.5t192.5 106.5q69 0 103.5 -35.5t34.5 -89.5q0 -94 -143 -146l-178 -66q-1 -9 -1 -27q0 -141 64 -141q65 0 171 55l27 -57q-38 -21 -62.5 -32.5t-66 -22.5t-83.5 -11zM127 291l158 62q81 32 81 80q0 33 -19 48t-47 15
q-75 0 -116.5 -58.5t-56.5 -146.5zM308 645q-49 0 -84.5 25.5t-51.5 56.5l45 38q41 -57 100 -57q66 0 110 57l35 -38q-63 -82 -154 -82z" />
    <glyph glyph-name="Edotaccent" unicode="&#x116;" horiz-adv-x="566" 
d="M66 0l75 707h393l-7 -65h-313l-27 -254h292l-7 -66h-291l-28 -257h337l-6 -65h-418zM342 753l-58 65l72 63l61 -63z" />
    <glyph glyph-name="edotaccent" unicode="&#x117;" horiz-adv-x="446" 
d="M169 -12q-128 0 -128 204q0 156 69.5 262.5t192.5 106.5q69 0 103.5 -35.5t34.5 -89.5q0 -94 -143 -146l-178 -66q-1 -9 -1 -27q0 -141 64 -141q65 0 171 55l27 -57q-38 -21 -62.5 -32.5t-66 -22.5t-83.5 -11zM127 291l158 62q81 32 81 80q0 33 -19 48t-47 15
q-75 0 -116.5 -58.5t-56.5 -146.5zM285 653l-58 63l71 62l60 -62z" />
    <glyph glyph-name="Eogonek" unicode="&#x118;" horiz-adv-x="566" 
d="M402 -225q-112 0 -105 105q5 59 94 120h-325l75 707h393l-7 -65h-313l-27 -254h292l-7 -66h-291l-28 -257h337l-7 -65q-110 -64 -114 -113q-3 -28 12 -38.5t46 -10.5q29 0 45 8l12 -55q-28 -16 -82 -16z" />
    <glyph glyph-name="eogonek" unicode="&#x119;" horiz-adv-x="446" 
d="M265 -225q-51 0 -76.5 25.5t-25.5 69.5q0 54 69 125q-33 -7 -63 -7q-128 0 -128 204q0 156 69.5 262.5t192.5 106.5q69 0 103.5 -35.5t34.5 -89.5q0 -94 -143 -146l-178 -66q-1 -8 -1 -27q0 -141 64 -141q65 0 171 55l27 -57q-50 -29 -98 -81.5t-48 -90.5q0 -45 50 -45
q25 0 54 9l12 -55q-36 -16 -86 -16zM127 291l158 62q81 32 81 80q0 33 -19 48t-47 15q-75 0 -116.5 -58.5t-56.5 -146.5z" />
    <glyph glyph-name="Ecaron" unicode="&#x11a;" horiz-adv-x="566" 
d="M333 739l-159 85l30 54l136 -68l154 67l22 -54zM66 0l75 707h393l-7 -65h-313l-27 -254h292l-7 -66h-291l-28 -257h337l-6 -65h-418z" />
    <glyph glyph-name="ecaron" unicode="&#x11b;" horiz-adv-x="446" 
d="M285 619l-163 113l36 52l135 -91l154 91l30 -52zM169 -12q-128 0 -128 204q0 156 69.5 262.5t192.5 106.5q69 0 103.5 -35.5t34.5 -89.5q0 -94 -143 -146l-178 -66q-1 -9 -1 -27q0 -141 64 -141q65 0 171 55l27 -57q-38 -21 -62.5 -32.5t-66 -22.5t-83.5 -11zM127 291
l158 62q81 32 81 80q0 33 -19 48t-47 15q-75 0 -116.5 -58.5t-56.5 -146.5z" />
    <glyph glyph-name="Gcircumflex" unicode="&#x11c;" horiz-adv-x="655" 
d="M580 737l-137 68l-154 -67l-21 54l182 85l160 -85zM365 -10q-146 0 -232 85.5t-86 234.5q0 183 104.5 293t286.5 110q104 0 166 -28l-29 -62q-66 22 -143 22q-145 0 -224 -90t-79 -240q0 -123 70 -188.5t193 -65.5q49 0 93 11l28 278h80l-34 -326q-89 -34 -194 -34z" />
    <glyph glyph-name="gcircumflex" unicode="&#x11d;" 
d="M200 620l-31 53l196 115l164 -114l-36 -54l-137 88zM155 -230q-99 0 -172 22l18 68q86 -23 142 -23q40 0 68.5 5t55 19.5t42 44t20.5 74.5l13 119q-62 -58 -106.5 -85t-86.5 -27q-57 0 -82 40.5t-25 123.5q0 160 93.5 280t228.5 120q53 0 99 -8l-60 -579
q-6 -54 -29.5 -93.5t-59.5 -60.5t-75.5 -30.5t-83.5 -9.5zM168 59q31 0 86.5 40t94.5 77l33 307q-9 2 -34 2q-96 0 -163 -100.5t-67 -222.5q0 -58 12.5 -80.5t37.5 -22.5z" />
    <glyph glyph-name="Gbreve" unicode="&#x11e;" horiz-adv-x="655" 
d="M365 -10q-146 0 -232 85.5t-86 234.5q0 183 104.5 293t286.5 110q104 0 166 -28l-29 -62q-66 22 -143 22q-145 0 -224 -90t-79 -240q0 -123 70 -188.5t193 -65.5q49 0 93 11l28 278h80l-34 -326q-89 -34 -194 -34zM419 754q-49 0 -84.5 25.5t-51.5 56.5l45 38
q41 -57 100 -57q66 0 110 57l35 -38q-63 -82 -154 -82z" />
    <glyph glyph-name="gbreve" unicode="&#x11f;" 
d="M155 -230q-99 0 -172 22l18 68q86 -23 142 -23q40 0 68.5 5t55 19.5t42 44t20.5 74.5l13 119q-62 -58 -106.5 -85t-86.5 -27q-57 0 -82 40.5t-25 123.5q0 160 93.5 280t228.5 120q53 0 99 -8l-60 -579q-6 -54 -29.5 -93.5t-59.5 -60.5t-75.5 -30.5t-83.5 -9.5zM168 59
q31 0 86.5 40t94.5 77l33 307q-9 2 -34 2q-96 0 -163 -100.5t-67 -222.5q0 -58 12.5 -80.5t37.5 -22.5zM337 645q-49 0 -84.5 25.5t-51.5 56.5l45 38q41 -57 100 -57q66 0 110 57l35 -38q-63 -82 -154 -82z" />
    <glyph glyph-name="Gdotaccent" unicode="&#x120;" horiz-adv-x="655" 
d="M365 -10q-146 0 -232 85.5t-86 234.5q0 183 104.5 293t286.5 110q104 0 166 -28l-29 -62q-66 22 -143 22q-145 0 -224 -90t-79 -240q0 -123 70 -188.5t193 -65.5q49 0 93 11l28 278h80l-34 -326q-89 -34 -194 -34zM445 753l-58 65l72 63l61 -63z" />
    <glyph glyph-name="gdotaccent" unicode="&#x121;" 
d="M155 -230q-99 0 -172 22l18 68q86 -23 142 -23q40 0 68.5 5t55 19.5t42 44t20.5 74.5l13 119q-62 -58 -106.5 -85t-86.5 -27q-57 0 -82 40.5t-25 123.5q0 160 93.5 280t228.5 120q53 0 99 -8l-60 -579q-6 -54 -29.5 -93.5t-59.5 -60.5t-75.5 -30.5t-83.5 -9.5zM168 59
q31 0 86.5 40t94.5 77l33 307q-9 2 -34 2q-96 0 -163 -100.5t-67 -222.5q0 -58 12.5 -80.5t37.5 -22.5zM342 653l-58 63l71 62l60 -62z" />
    <glyph glyph-name="Gcommaaccent" unicode="&#x122;" horiz-adv-x="655" 
d="M288 -261l43 203h73l-56 -203h-60zM365 -10q-146 0 -232 85.5t-86 234.5q0 183 104.5 293t286.5 110q104 0 166 -28l-29 -62q-66 22 -143 22q-145 0 -224 -90t-79 -240q0 -123 70 -188.5t193 -65.5q49 0 93 11l28 278h80l-34 -326q-89 -34 -194 -34z" />
    <glyph glyph-name="gcommaaccent" unicode="&#x123;" 
d="M439 807l-43 -203h-73l56 203h60zM155 -230q-99 0 -172 22l18 68q86 -23 142 -23q40 0 68.5 5t55 19.5t42 44t20.5 74.5l13 119q-62 -58 -106.5 -85t-86.5 -27q-57 0 -82 40.5t-25 123.5q0 160 93.5 280t228.5 120q53 0 99 -8l-60 -579q-6 -54 -29.5 -93.5t-59.5 -60.5
t-75.5 -30.5t-83.5 -9.5zM168 59q31 0 86.5 40t94.5 77l33 307q-9 2 -34 2q-96 0 -163 -100.5t-67 -222.5q0 -58 12.5 -80.5t37.5 -22.5z" />
    <glyph glyph-name="Hcircumflex" unicode="&#x124;" horiz-adv-x="747" 
d="M557 737l-137 68l-154 -67l-21 54l182 85l160 -85zM66 0l75 707h79l-33 -320h380l33 321h80l-74 -708h-80l35 322h-380l-35 -322h-80z" />
    <glyph glyph-name="hcircumflex" unicode="&#x125;" horiz-adv-x="552" 
d="M325 745l-137 68l-154 -67l-21 54l182 85l160 -85zM62 0l80 755h77l-32 -299q41 35 63.5 52t60.5 34.5t74 17.5q53 0 74 -25t21 -81q0 -16 -4 -60l-43 -394h-76l42 378q3 32 3 52q0 31 -9.5 44.5t-33.5 13.5q-57 0 -180 -101l-41 -387h-76z" />
    <glyph glyph-name="Hbar" unicode="&#x126;" horiz-adv-x="747" 
d="M66 0l53 502h-63l6 59h63l16 146h79l-16 -146h381l15 147h80l-15 -147h71l-7 -59h-71l-52 -502h-80l35 322h-380l-35 -322h-80zM187 387h380l11 115h-380z" />
    <glyph glyph-name="hbar" unicode="&#x127;" horiz-adv-x="552" 
d="M62 0l65 617h-81l7 57h80l9 81h76l-8 -81h134l-8 -57h-133l-16 -161l12 10q12 10 16 13l17 13t19.5 14.5l19.5 13t22 13l22 10.5t23.5 9t23 5.5t23.5 2.5q55 0 75.5 -22t20.5 -72q0 -27 -5 -72l-43 -394h-76l42 378q6 56 6 67q0 25 -10.5 34.5t-38.5 9.5q-19 0 -55 -20.5
t-78 -50.5t-44 -31l-41 -387h-76z" />
    <glyph glyph-name="Itilde" unicode="&#x128;" horiz-adv-x="287" 
d="M66 0l75 707h79l-74 -707h-80zM245 747q-21 0 -63 18.5t-59 18.5q-35 0 -73 -25l-27 43q52 45 106 45q25 0 65 -18t58 -18q35 0 74 27l25 -45q-52 -46 -106 -46z" />
    <glyph glyph-name="itilde" unicode="&#x129;" horiz-adv-x="264" 
d="M61 0l57 546h76l-57 -546h-76zM238 645q-20 0 -63 18.5t-62 18.5q-37 0 -75 -25l-28 44q50 46 109 46q25 0 65 -18.5t60 -18.5q35 0 76 29l26 -47q-52 -47 -108 -47z" />
    <glyph glyph-name="Imacron" unicode="&#x12a;" horiz-adv-x="287" 
d="M66 0l75 707h79l-74 -707h-80zM47 766l7 64h282l-7 -64h-282z" />
    <glyph glyph-name="imacron" unicode="&#x12b;" horiz-adv-x="264" 
d="M61 0l57 546h76l-57 -546h-76zM43 667l7 65h261l-7 -65h-261z" />
    <glyph glyph-name="Ibreve" unicode="&#x12c;" horiz-adv-x="287" 
d="M66 0l75 707h79l-74 -707h-80zM184 754q-49 0 -84.5 25.5t-51.5 56.5l45 38q41 -57 100 -57q66 0 110 57l35 -38q-63 -82 -154 -82z" />
    <glyph glyph-name="ibreve" unicode="&#x12d;" horiz-adv-x="264" 
d="M61 0l57 546h76l-57 -546h-76zM164 645q-49 0 -84.5 25.5t-51.5 56.5l45 38q41 -57 100 -57q66 0 110 57l35 -38q-63 -82 -154 -82z" />
    <glyph glyph-name="Iogonek" unicode="&#x12e;" horiz-adv-x="287" 
d="M65 -225q-62 0 -85 28.5t-20 73.5q7 71 108 132l73 698h79l-76 -708q-107 -63 -112 -113q-3 -27 12 -37.5t46 -10.5q29 0 45 8l12 -55q-28 -16 -82 -16z" />
    <glyph glyph-name="iogonek" unicode="&#x12f;" horiz-adv-x="267" 
d="M143 -154l12 -55q-34 -15 -74 -15q-113 0 -113 97q0 34 28.5 72.5t66.5 65.5l56 535h76l-57 -546q-34 -20 -65.5 -55.5t-32.5 -64.5q0 -41 54 -41q29 0 49 7zM167 653l-58 63l71 62l60 -62z" />
    <glyph glyph-name="Idotaccent" unicode="&#x130;" horiz-adv-x="287" 
d="M66 0l75 707h79l-74 -707h-80zM184 753l-58 65l72 63l61 -63z" />
    <glyph glyph-name="dotlessi" unicode="&#x131;" horiz-adv-x="264" 
d="M61 0l57 546h76l-57 -546h-76z" />
    <glyph glyph-name="IJ" unicode="&#x132;" horiz-adv-x="563" 
d="M66 0l75 707h79l-74 -707h-80zM215 -187l-28 59q92 48 127.5 108.5t46.5 170.5l59 556h79l-58 -554q-13 -129 -63 -210.5t-163 -129.5z" />
    <glyph glyph-name="ij" unicode="&#x133;" horiz-adv-x="515" 
d="M185 -220q-40 0 -74 13l18 65q39 -11 65 -11q58 0 81 33.5t31 102.5l59 563h76l-59 -564q-12 -111 -62.5 -156.5t-134.5 -45.5zM61 0l57 546h76l-57 -546h-76zM166 653l-58 63l71 62l60 -62zM413 653l-58 63l71 62l60 -62z" />
    <glyph glyph-name="Jcircumflex" unicode="&#x134;" horiz-adv-x="288" 
d="M336 737l-137 68l-154 -67l-21 54l182 85l160 -85zM-59 -187l-28 59q92 48 127.5 108.5t46.5 170.5l59 556h79l-58 -554q-13 -129 -63 -210.5t-163 -129.5z" />
    <glyph glyph-name="jcircumflex" unicode="&#x135;" horiz-adv-x="267" 
d="M-61 -220q-40 0 -74 13l18 65q38 -11 65 -11q58 0 81 33.5t31 102.5l59 563h76l-59 -564q-12 -111 -62.5 -156.5t-134.5 -45.5zM21 620l-31 53l196 115l164 -114l-36 -54l-137 88z" />
    <glyph glyph-name="Kcommaaccent" unicode="&#x136;" horiz-adv-x="600" 
d="M201 -261l43 203h73l-56 -203h-60zM483 -25l-273 390l2 19l306 323h100l-318 -327l255 -363zM66 0l75 707h79l-74 -707h-80z" />
    <glyph glyph-name="kcommaaccent" unicode="&#x137;" horiz-adv-x="485" 
d="M159 -261l43 203h73l-56 -203h-60zM380 -14l-191 302l201 258h89l-202 -255l180 -280zM61 0l79 754h77l-80 -754h-76z" />
    <glyph glyph-name="Lacute" unicode="&#x139;" horiz-adv-x="487" 
d="M158 737l-16 54l229 80l19 -70zM66 0l75 707h79l-66 -639h307l-8 -68h-387z" />
    <glyph glyph-name="lacute" unicode="&#x13a;" horiz-adv-x="266" 
d="M145 776l-16 54l229 80l19 -70zM61 0l79 754h77l-80 -754h-76z" />
    <glyph glyph-name="Lcommaaccent" unicode="&#x13b;" horiz-adv-x="487" 
d="M184 -261l43 203h73l-56 -203h-60zM66 0l75 707h79l-66 -639h307l-8 -68h-387z" />
    <glyph glyph-name="lcommaaccent" unicode="&#x13c;" horiz-adv-x="266" 
d="M25 -261l43 203h73l-56 -203h-60zM61 0l79 754h77l-80 -754h-76z" />
    <glyph glyph-name="Lcaron" unicode="&#x13d;" horiz-adv-x="487" 
d="M278 554l43 203h73l-56 -203h-60zM66 0l75 707h79l-66 -639h307l-8 -68h-387z" />
    <glyph glyph-name="lcaron" unicode="&#x13e;" horiz-adv-x="286" 
d="M243 551l43 203h73l-56 -203h-60zM61 0l79 754h77l-80 -754h-76z" />
    <glyph glyph-name="Ldot" unicode="&#x13f;" horiz-adv-x="487" 
d="M66 0l75 707h79l-66 -639h307l-8 -68h-387zM353 295l-59 65l73 63l60 -63z" />
    <glyph glyph-name="ldot" unicode="&#x140;" horiz-adv-x="326" 
d="M61 0l79 754h77l-80 -754h-76zM288 295l-59 65l73 63l60 -63z" />
    <glyph glyph-name="Lslash" unicode="&#x141;" horiz-adv-x="476" 
d="M63 0l32 305l-68 -37l7 63l67 37l36 339h80l-31 -294l150 82l-6 -62l-151 -82l-29 -282h307l-7 -69h-387z" />
    <glyph glyph-name="lslash" unicode="&#x142;" horiz-adv-x="266" 
d="M61 0l34 332l-83 -46l7 63l83 45l38 360h76l-34 -316l95 50l-6 -61l-95 -52l-39 -375h-76z" />
    <glyph glyph-name="Nacute" unicode="&#x143;" horiz-adv-x="734" 
d="M356 737l-16 54l229 80l19 -70zM66 0l76 707h117l264 -649l65 649h79l-76 -707h-123l-256 633l-66 -633h-80z" />
    <glyph glyph-name="nacute" unicode="&#x144;" horiz-adv-x="552" 
d="M277 615l-31 52l196 137l37 -62zM61 0l58 546h76l-9 -90q44 37 64.5 52.5t59 33.5t74.5 18q53 0 74 -24.5t21 -79.5q0 -31 -4 -62l-42 -394h-76l41 378q4 42 4 53q0 31 -10 44t-34 13q-58 0 -179 -101l-42 -387h-76z" />
    <glyph glyph-name="Ncommaaccent" unicode="&#x145;" horiz-adv-x="734" 
d="M245 -261l43 203h73l-56 -203h-60zM66 0l76 707h117l264 -649l65 649h79l-76 -707h-123l-256 633l-66 -633h-80z" />
    <glyph glyph-name="ncommaaccent" unicode="&#x146;" horiz-adv-x="552" 
d="M175 -261l43 203h73l-56 -203h-60zM61 0l58 546h76l-9 -90q44 37 64.5 52.5t59 33.5t74.5 18q53 0 74 -24.5t21 -79.5q0 -31 -4 -62l-42 -394h-76l41 378q4 42 4 53q0 31 -10 44t-34 13q-58 0 -179 -101l-42 -387h-76z" />
    <glyph glyph-name="Ncaron" unicode="&#x147;" horiz-adv-x="734" 
d="M412 739l-159 85l30 54l136 -68l154 67l22 -54zM66 0l76 707h117l264 -649l65 649h79l-76 -707h-123l-256 633l-66 -633h-80z" />
    <glyph glyph-name="ncaron" unicode="&#x148;" horiz-adv-x="552" 
d="M318 619l-163 113l36 52l135 -91l154 91l30 -52zM61 0l58 546h76l-9 -90q44 37 64.5 52.5t59 33.5t74.5 18q53 0 74 -24.5t21 -79.5q0 -31 -4 -62l-42 -394h-76l41 378q4 42 4 53q0 31 -10 44t-34 13q-58 0 -179 -101l-42 -387h-76z" />
    <glyph glyph-name="napostrophe" unicode="&#x149;" horiz-adv-x="552" 
d="M-12 556q38 81 47 207h84q-3 -68 -20.5 -114.5t-47.5 -92.5h-63zM61 0l58 546h76l-9 -90q44 37 64.5 52.5t59 33.5t74.5 18q53 0 74 -24.5t21 -79.5q0 -31 -4 -62l-42 -394h-76l41 378q4 42 4 53q0 31 -10 44t-34 13q-58 0 -179 -101l-42 -387h-76z" />
    <glyph glyph-name="Eng" unicode="&#x14a;" horiz-adv-x="734" 
d="M392 -220q-41 0 -75 13l19 65q36 -11 65 -11q57 0 80.5 33t30.5 98l2 22h-46l-256 633l-66 -633h-80l76 707h117l264 -649l65 649h79l-80 -739q-11 -98 -56.5 -143t-138.5 -45z" />
    <glyph glyph-name="eng" unicode="&#x14b;" horiz-adv-x="552" 
d="M234 -220q-41 0 -75 13l19 65q36 -11 65 -11q58 0 81 33.5t30 102.5l44 395q3 30 3 50q0 34 -10 47t-35 13q-52 0 -177 -101l-42 -387h-76l58 546h76l-9 -90q3 3 22 18l29 23t30.5 22t36.5 21.5t36.5 13.5t39.5 6q55 0 77 -24.5t22 -79.5q0 -31 -4 -62l-45 -412
q-11 -111 -61.5 -156.5t-134.5 -45.5z" />
    <glyph glyph-name="Omacron" unicode="&#x14c;" horiz-adv-x="784" 
d="M293 766l7 64h282l-7 -64h-282zM346 -11q-143 0 -221 85.5t-78 232.5q0 184 104.5 297.5t285.5 113.5q144 0 223 -85.5t79 -232.5q0 -184 -105.5 -297.5t-287.5 -113.5zM356 55q143 0 221 97t78 245q0 116 -59 184.5t-171 68.5q-141 0 -219 -95.5t-78 -242.5
q0 -116 58 -186.5t170 -70.5z" />
    <glyph glyph-name="omacron" unicode="&#x14d;" horiz-adv-x="511" 
d="M181 667l7 65h261l-7 -65h-261zM202 -12q-74 0 -117 55t-43 137q0 173 74.5 276.5t196.5 103.5q75 0 116.5 -55.5t41.5 -131.5q0 -54 -8.5 -106.5t-29 -103.5t-50.5 -89.5t-77 -62t-104 -23.5zM220 54q71 0 122 86.5t51 217.5q0 72 -24 105t-79 33q-69 0 -119 -88
t-50 -213q0 -141 99 -141z" />
    <glyph glyph-name="Obreve" unicode="&#x14e;" horiz-adv-x="784" 
d="M346 -11q-143 0 -221 85.5t-78 232.5q0 184 104.5 297.5t285.5 113.5q144 0 223 -85.5t79 -232.5q0 -184 -105.5 -297.5t-287.5 -113.5zM356 55q143 0 221 97t78 245q0 116 -59 184.5t-171 68.5q-141 0 -219 -95.5t-78 -242.5q0 -116 58 -186.5t170 -70.5zM432 754
q-49 0 -84.5 25.5t-51.5 56.5l45 38q41 -57 100 -57q66 0 110 57l35 -38q-63 -82 -154 -82z" />
    <glyph glyph-name="obreve" unicode="&#x14f;" horiz-adv-x="511" 
d="M202 -12q-74 0 -117 55t-43 137q0 173 74.5 276.5t196.5 103.5q75 0 116.5 -55.5t41.5 -131.5q0 -54 -8.5 -106.5t-29 -103.5t-50.5 -89.5t-77 -62t-104 -23.5zM220 54q71 0 122 86.5t51 217.5q0 72 -24 105t-79 33q-69 0 -119 -88t-50 -213q0 -141 99 -141zM298 645
q-49 0 -84.5 25.5t-51.5 56.5l45 38q41 -57 100 -57q66 0 110 57l35 -38q-63 -82 -154 -82z" />
    <glyph glyph-name="Ohungarumlaut" unicode="&#x150;" horiz-adv-x="784" 
d="M300 737l-36 45l189 152l43 -60zM487 736l-17 55l229 80l19 -71zM346 -11q-143 0 -221 85.5t-78 232.5q0 184 104.5 297.5t285.5 113.5q144 0 223 -85.5t79 -232.5q0 -184 -105.5 -297.5t-287.5 -113.5zM356 55q143 0 221 97t78 245q0 116 -59 184.5t-171 68.5
q-141 0 -219 -95.5t-78 -242.5q0 -116 58 -186.5t170 -70.5z" />
    <glyph glyph-name="ohungarumlaut" unicode="&#x151;" horiz-adv-x="511" 
d="M181 615l-29 48l198 141l38 -61zM410 618l-29 49l189 125l34 -62zM202 -12q-74 0 -117 55t-43 137q0 173 74.5 276.5t196.5 103.5q75 0 116.5 -55.5t41.5 -131.5q0 -54 -8.5 -106.5t-29 -103.5t-50.5 -89.5t-77 -62t-104 -23.5zM220 54q71 0 122 86.5t51 217.5
q0 72 -24 105t-79 33q-69 0 -119 -88t-50 -213q0 -141 99 -141z" />
    <glyph glyph-name="OE" unicode="&#x152;" horiz-adv-x="1073" 
d="M344 -11q-143 0 -221 85.5t-78 232.5q0 184 105 297.5t286 113.5q131 0 207 -76l7 65h393l-7 -65h-313l-27 -254h292l-7 -66h-292l-27 -257h337l-6 -65h-418l7 61q-95 -72 -238 -72zM355 56q159 0 240 122l36 345q-53 126 -207 126q-141 0 -219 -95.5t-78 -241.5
q0 -116 57.5 -186t170.5 -70z" />
    <glyph glyph-name="oe" unicode="&#x153;" horiz-adv-x="782" 
d="M200 -12q-74 0 -117 55t-43 137q0 173 75 276.5t197 103.5q52 0 87 -29t52 -76q72 106 190 106q69 0 102.5 -35t33.5 -89q0 -94 -143 -146l-177 -66q-1 -8 -1 -27q0 -142 64 -142q65 0 171 55l27 -57q-37 -21 -61.5 -32.5t-66 -22.5t-83.5 -11q-88 0 -114 107
q-71 -107 -193 -107zM219 54q71 0 121.5 86.5t50.5 217.5q0 72 -24 105t-78 33q-67 0 -118.5 -87t-51.5 -214q0 -141 100 -141zM464 292l158 62q81 34 81 80q0 32 -19 47t-46 15q-40 0 -71.5 -17.5t-51.5 -48.5t-32 -64.5t-19 -73.5z" />
    <glyph glyph-name="Racute" unicode="&#x154;" horiz-adv-x="623" 
d="M265 737l-16 54l229 80l19 -70zM526 -22l-200 326q-28 -3 -81 -3h-65l-33 -301h-81l75 707h219q93 0 150.5 -45t57.5 -127q0 -75 -41 -132.5t-118 -79.5l191 -305zM186 365h94q203 0 203 167q0 111 -151 111h-117z" />
    <glyph glyph-name="racute" unicode="&#x155;" horiz-adv-x="353" 
d="M211 615l-31 52l196 137l37 -62zM61 0l58 546h76l-10 -91q1 1 10.5 9.5l13.5 12l14.5 13t17 14l18 12.5t19.5 13t19.5 10.5t21 9t21 5.5t21.5 2q6 0 26 -2l-15 -71q-5 1 -24 1q-22 0 -59.5 -21.5t-56 -36.5l-54.5 -45l-41 -381h-76z" />
    <glyph glyph-name="Rcommaaccent" unicode="&#x156;" horiz-adv-x="623" 
d="M222 -261l43 203h73l-56 -203h-60zM526 -22l-200 326q-28 -3 -81 -3h-65l-33 -301h-81l75 707h219q93 0 150.5 -45t57.5 -127q0 -75 -41 -132.5t-118 -79.5l191 -305zM186 365h94q203 0 203 167q0 111 -151 111h-117z" />
    <glyph glyph-name="rcommaaccent" unicode="&#x157;" horiz-adv-x="353" 
d="M26 -261l43 203h73l-56 -203h-60zM61 0l58 546h76l-10 -91q1 1 10.5 9.5l13.5 12l14.5 13t17 14l18 12.5t19.5 13t19.5 10.5t21 9t21 5.5t21.5 2q6 0 26 -2l-15 -71q-5 1 -24 1q-22 0 -59.5 -21.5t-56 -36.5l-54.5 -45l-41 -381h-76z" />
    <glyph glyph-name="Rcaron" unicode="&#x158;" horiz-adv-x="623" 
d="M331 739l-159 85l30 54l136 -68l154 67l22 -54zM526 -22l-200 326q-28 -3 -81 -3h-65l-33 -301h-81l75 707h219q93 0 150.5 -45t57.5 -127q0 -75 -41 -132.5t-118 -79.5l191 -305zM186 365h94q203 0 203 167q0 111 -151 111h-117z" />
    <glyph glyph-name="rcaron" unicode="&#x159;" horiz-adv-x="353" 
d="M254 619l-163 113l36 52l135 -91l154 91l30 -52zM61 0l58 546h76l-10 -91q1 1 10.5 9.5l13.5 12l14.5 13t17 14l18 12.5t19.5 13t19.5 10.5t21 9t21 5.5t21.5 2q6 0 26 -2l-15 -71q-5 1 -24 1q-22 0 -59.5 -21.5t-56 -36.5l-54.5 -45l-41 -381h-76z" />
    <glyph glyph-name="Sacute" unicode="&#x15a;" horiz-adv-x="482" 
d="M225 737l-16 54l229 80l19 -70zM186 -11q-48 0 -105 14t-91 34l31 67q96 -45 171 -45q167 0 167 134q0 31 -21.5 57.5t-54 45.5l-70.5 43t-70.5 48t-54 62.5t-21.5 85.5q0 86 64.5 132t160.5 46q107 0 179 -39l-27 -62q-75 33 -155 33q-144 0 -144 -108q0 -36 30 -67.5
t73 -57l86 -53.5t73 -70.5t30 -93.5q0 -100 -71.5 -153t-179.5 -53z" />
    <glyph glyph-name="sacute" unicode="&#x15b;" horiz-adv-x="429" 
d="M219 615l-31 52l196 137l37 -62zM170 -9q-92 0 -149 25l22 66q70 -25 133 -25q26 0 50.5 5t48 24.5t23.5 50.5q0 29 -22 55t-53 46.5l-62 43t-53 54.5t-22 71q0 78 51 113.5t129 35.5q81 0 141 -30l-23 -59q-70 26 -129 26q-40 0 -68 -18t-28 -57q0 -29 22 -55t53 -47
l62 -43.5t53 -57t22 -75.5q0 -54 -32.5 -89t-75 -47.5t-93.5 -12.5z" />
    <glyph glyph-name="Scircumflex" unicode="&#x15c;" horiz-adv-x="482" 
d="M443 737l-137 68l-154 -67l-21 54l182 85l160 -85zM186 -11q-48 0 -105 14t-91 34l31 67q96 -45 171 -45q167 0 167 134q0 31 -21.5 57.5t-54 45.5l-70.5 43t-70.5 48t-54 62.5t-21.5 85.5q0 86 64.5 132t160.5 46q107 0 179 -39l-27 -62q-75 33 -155 33
q-144 0 -144 -108q0 -36 30 -67.5t73 -57l86 -53.5t73 -70.5t30 -93.5q0 -100 -71.5 -153t-179.5 -53z" />
    <glyph glyph-name="scircumflex" unicode="&#x15d;" horiz-adv-x="429" 
d="M120 620l-31 53l196 115l164 -114l-36 -54l-137 88zM170 -9q-92 0 -149 25l22 66q70 -25 133 -25q26 0 50.5 5t48 24.5t23.5 50.5q0 29 -22 55t-53 46.5l-62 43t-53 54.5t-22 71q0 78 51 113.5t129 35.5q81 0 141 -30l-23 -59q-70 26 -129 26q-40 0 -68 -18t-28 -57
q0 -29 22 -55t53 -47l62 -43.5t53 -57t22 -75.5q0 -54 -32.5 -89t-75 -47.5t-93.5 -12.5z" />
    <glyph glyph-name="Scedilla" unicode="&#x15e;" horiz-adv-x="482" 
d="M186 -11q-48 0 -105 14t-91 34l31 67q96 -45 171 -45q167 0 167 134q0 31 -21.5 57.5t-54 45.5l-70.5 43t-70.5 48t-54 62.5t-21.5 85.5q0 86 64.5 132t160.5 46q107 0 179 -39l-27 -62q-75 33 -155 33q-144 0 -144 -108q0 -36 30 -67.5t73 -57l86 -53.5t73 -70.5
t30 -93.5q0 -100 -71.5 -153t-179.5 -53zM129 -239l-21 44q59 34 66 77q2 23 -16 67h74q16 -32 13 -66q-7 -77 -116 -122z" />
    <glyph glyph-name="scedilla" unicode="&#x15f;" horiz-adv-x="429" 
d="M170 -9q-92 0 -149 25l22 66q70 -25 133 -25q26 0 50.5 5t48 24.5t23.5 50.5q0 29 -22 55t-53 46.5l-62 43t-53 54.5t-22 71q0 78 51 113.5t129 35.5q81 0 141 -30l-23 -59q-70 26 -129 26q-40 0 -68 -18t-28 -57q0 -29 22 -55t53 -47l62 -43.5t53 -57t22 -75.5
q0 -54 -32.5 -89t-75 -47.5t-93.5 -12.5zM106 -239l-21 44q59 34 66 77q2 23 -16 67h74q16 -32 13 -66q-7 -77 -116 -122z" />
    <glyph glyph-name="Scaron" unicode="&#x160;" horiz-adv-x="482" 
d="M281 739l-159 85l30 54l136 -68l154 67l22 -54zM186 -11q-48 0 -105 14t-91 34l31 67q96 -45 171 -45q167 0 167 134q0 31 -21.5 57.5t-54 45.5l-70.5 43t-70.5 48t-54 62.5t-21.5 85.5q0 86 64.5 132t160.5 46q107 0 179 -39l-27 -62q-75 33 -155 33q-144 0 -144 -108
q0 -36 30 -67.5t73 -57l86 -53.5t73 -70.5t30 -93.5q0 -100 -71.5 -153t-179.5 -53z" />
    <glyph glyph-name="scaron" unicode="&#x161;" horiz-adv-x="429" 
d="M270 619l-163 113l36 52l135 -91l154 91l30 -52zM170 -9q-92 0 -149 25l22 66q70 -25 133 -25q26 0 50.5 5t48 24.5t23.5 50.5q0 29 -22 55t-53 46.5l-62 43t-53 54.5t-22 71q0 78 51 113.5t129 35.5q81 0 141 -30l-23 -59q-70 26 -129 26q-40 0 -68 -18t-28 -57
q0 -29 22 -55t53 -47l62 -43.5t53 -57t22 -75.5q0 -54 -32.5 -89t-75 -47.5t-93.5 -12.5z" />
    <glyph glyph-name="Tcommaaccent" unicode="&#x162;" horiz-adv-x="553" 
d="M169 -261l43 203h73l-56 -203h-60zM206 0l67 640h-242l8 67h563l-8 -67h-241l-68 -640h-79z" />
    <glyph glyph-name="tcommaaccent" unicode="&#x163;" horiz-adv-x="380" 
d="M106 -261l43 203h73l-56 -203h-60zM179 -12q-103 0 -103 115q0 8 2 32l38 347h-80l7 64h81l11 112h75l-11 -112h169l-6 -64h-170l-37 -345q-9 -80 45 -80q50 0 114 33l17 -58q-67 -44 -152 -44z" />
    <glyph glyph-name="tcommaaccent" unicode="&#x21b;" horiz-adv-x="380" 
d="M106 -261l43 203h73l-56 -203h-60zM179 -12q-103 0 -103 115q0 8 2 32l38 347h-80l7 64h81l11 112h75l-11 -112h169l-6 -64h-170l-37 -345q-9 -80 45 -80q50 0 114 33l17 -58q-67 -44 -152 -44z" />
    <glyph glyph-name="Tcaron" unicode="&#x164;" horiz-adv-x="553" 
d="M318 739l-159 85l30 54l136 -68l154 67l22 -54zM206 0l67 640h-242l8 67h563l-8 -67h-241l-68 -640h-79z" />
    <glyph glyph-name="tcaron" unicode="&#x165;" horiz-adv-x="380" 
d="M274 607l43 203h73l-56 -203h-60zM179 -12q-103 0 -103 115q0 8 2 32l38 347h-80l7 64h81l11 112h75l-11 -112h169l-6 -64h-170l-37 -345q-9 -80 45 -80q50 0 114 33l17 -58q-67 -44 -152 -44z" />
    <glyph glyph-name="Tbar" unicode="&#x166;" horiz-adv-x="553" 
d="M206 0l35 340h-149l7 58h148l26 242h-242l8 67h563l-8 -67h-241l-26 -242h151l-8 -58h-149l-36 -340h-79z" />
    <glyph glyph-name="tbar" unicode="&#x167;" horiz-adv-x="380" 
d="M179 -12q-23 0 -36.5 2.5t-31.5 11.5t-26.5 32t-8.5 60q0 26 2 41l17 156h-60l6 58h60l15 133h-80l7 64h81l11 112h75l-11 -112h169l-6 -64h-170l-14 -133h150l-6 -58h-151l-16 -154q-3 -23 -3 -37q0 -25 9 -34t32 -9q49 0 119 31l18 -60q-23 -13 -65.5 -26.5
t-85.5 -13.5z" />
    <glyph glyph-name="Utilde" unicode="&#x168;" horiz-adv-x="722" 
d="M333 -12q-52 0 -94.5 10t-80.5 33t-59.5 66.5t-21.5 104.5q0 12 2 40l49 465h81l-48 -458q-2 -24 -2 -35q0 -158 174 -158q90 0 146.5 49t69.5 168l45 434h76l-46 -437q-9 -81 -37.5 -139t-71 -87.5t-87 -42.5t-95.5 -13zM470 747q-20 0 -62 18.5t-60 18.5q-36 0 -73 -25
l-27 43q52 45 106 45q25 0 65 -18t58 -18q35 0 74 27l25 -45q-52 -46 -106 -46z" />
    <glyph glyph-name="utilde" unicode="&#x169;" horiz-adv-x="549" 
d="M175 -11q-56 0 -80 26t-24 85q0 22 3 49l43 397h76l-42 -378q-3 -32 -3 -52q0 -34 10.5 -47.5t36.5 -13.5q70 0 175 103l42 388h76l-58 -546h-76l9 90q-50 -50 -93 -75.5t-95 -25.5zM399 645q-20 0 -63 18.5t-62 18.5q-37 0 -75 -25l-28 44q50 46 109 46q25 0 65 -18.5
t60 -18.5q35 0 76 29l26 -47q-52 -47 -108 -47z" />
    <glyph glyph-name="Umacron" unicode="&#x16a;" horiz-adv-x="722" 
d="M333 -12q-52 0 -94.5 10t-80.5 33t-59.5 66.5t-21.5 104.5q0 12 2 40l49 465h81l-48 -458q-2 -24 -2 -35q0 -158 174 -158q90 0 146.5 49t69.5 168l45 434h76l-46 -437q-9 -81 -37.5 -139t-71 -87.5t-87 -42.5t-95.5 -13zM264 766l7 64h282l-7 -64h-282z" />
    <glyph glyph-name="umacron" unicode="&#x16b;" horiz-adv-x="549" 
d="M175 -11q-56 0 -80 26t-24 85q0 22 3 49l43 397h76l-42 -378q-3 -32 -3 -52q0 -34 10.5 -47.5t36.5 -13.5q70 0 175 103l42 388h76l-58 -546h-76l9 90q-50 -50 -93 -75.5t-95 -25.5zM185 667l7 65h261l-7 -65h-261z" />
    <glyph glyph-name="Ubreve" unicode="&#x16c;" horiz-adv-x="722" 
d="M333 -12q-52 0 -94.5 10t-80.5 33t-59.5 66.5t-21.5 104.5q0 12 2 40l49 465h81l-48 -458q-2 -24 -2 -35q0 -158 174 -158q90 0 146.5 49t69.5 168l45 434h76l-46 -437q-9 -81 -37.5 -139t-71 -87.5t-87 -42.5t-95.5 -13zM408 745q-49 0 -84.5 25.5t-51.5 56.5l45 38
q41 -57 100 -57q66 0 110 57l35 -38q-63 -82 -154 -82z" />
    <glyph glyph-name="ubreve" unicode="&#x16d;" horiz-adv-x="549" 
d="M175 -11q-56 0 -80 26t-24 85q0 22 3 49l43 397h76l-42 -378q-3 -32 -3 -52q0 -34 10.5 -47.5t36.5 -13.5q70 0 175 103l42 388h76l-58 -546h-76l9 90q-50 -50 -93 -75.5t-95 -25.5zM320 645q-49 0 -84.5 25.5t-51.5 56.5l45 38q41 -57 100 -57q66 0 110 57l35 -38
q-63 -82 -154 -82z" />
    <glyph glyph-name="Uring" unicode="&#x16e;" horiz-adv-x="722" 
d="M401 703q-45 0 -77 24t-32 66q0 54 37.5 88.5t92.5 34.5q44 0 75.5 -26t31.5 -67q0 -54 -36.5 -87t-91.5 -33zM405 746q30 0 50 19t20 49q0 25 -17 40.5t-42 15.5q-31 0 -50.5 -18.5t-19.5 -48.5q0 -26 16.5 -41.5t42.5 -15.5zM333 -12q-52 0 -94.5 10t-80.5 33
t-59.5 66.5t-21.5 104.5q0 12 2 40l49 465h81l-48 -458q-2 -24 -2 -35q0 -158 174 -158q90 0 146.5 49t69.5 168l45 434h76l-46 -437q-9 -81 -37.5 -139t-71 -87.5t-87 -42.5t-95.5 -13z" />
    <glyph glyph-name="uring" unicode="&#x16f;" horiz-adv-x="549" 
d="M318 608q-45 0 -77 24t-32 66q0 54 37.5 88.5t92.5 34.5q44 0 75.5 -26t31.5 -67q0 -54 -36.5 -87t-91.5 -33zM322 651q30 0 50 19t20 49q0 25 -17 40.5t-42 15.5q-31 0 -50.5 -18.5t-19.5 -48.5q0 -26 16.5 -41.5t42.5 -15.5zM175 -11q-56 0 -80 26t-24 85q0 22 3 49
l43 397h76l-42 -378q-3 -32 -3 -52q0 -34 10.5 -47.5t36.5 -13.5q70 0 175 103l42 388h76l-58 -546h-76l9 90q-50 -50 -93 -75.5t-95 -25.5z" />
    <glyph glyph-name="Uhungarumlaut" unicode="&#x170;" horiz-adv-x="722" 
d="M333 -12q-52 0 -94.5 10t-80.5 33t-59.5 66.5t-21.5 104.5q0 12 2 40l49 465h81l-48 -458q-2 -24 -2 -35q0 -158 174 -158q90 0 146.5 49t69.5 168l45 434h76l-46 -437q-9 -81 -37.5 -139t-71 -87.5t-87 -42.5t-95.5 -13zM266 737l-36 45l189 152l43 -60zM453 736l-17 55
l229 80l19 -71z" />
    <glyph glyph-name="uhungarumlaut" unicode="&#x171;" horiz-adv-x="549" 
d="M175 -11q-56 0 -80 26t-24 85q0 22 3 49l43 397h76l-42 -378q-3 -32 -3 -52q0 -34 10.5 -47.5t36.5 -13.5q70 0 175 103l42 388h76l-58 -546h-76l9 90q-50 -50 -93 -75.5t-95 -25.5zM189 615l-29 48l198 141l38 -61zM418 618l-29 49l189 125l34 -62z" />
    <glyph glyph-name="Uogonek" unicode="&#x172;" horiz-adv-x="722" 
d="M347 -225q-114 0 -104 108q5 52 75 105q-241 8 -241 210q0 27 2 41l49 468h81l-48 -461q-2 -24 -2 -35q0 -155 174 -155q91 0 146.5 47.5t68.5 166.5l46 437h76l-47 -440q-22 -221 -194 -267q-40 -23 -75.5 -54.5t-38.5 -59.5q-3 -27 12 -37.5t46 -10.5q29 0 45 8l12 -55
q-28 -16 -83 -16z" />
    <glyph glyph-name="uogonek" unicode="&#x173;" horiz-adv-x="549" 
d="M349 -225q-62 0 -84.5 28t-19.5 75q5 67 110 133l8 79q-104 -101 -188 -101q-56 0 -80 26t-24 85q0 22 3 49l43 397h76l-42 -378q-4 -44 -4 -55q0 -32 10.5 -45t37.5 -13q29 0 69 23t56.5 36.5t49.5 43.5l42 388h76l-59 -546q-40 -23 -75 -54.5t-38 -59.5
q-3 -27 12 -37.5t46 -10.5q29 0 45 8l12 -55q-28 -16 -82 -16z" />
    <glyph glyph-name="Wcircumflex" unicode="&#x174;" horiz-adv-x="898" 
d="M599 737l-137 68l-154 -67l-21 54l182 85l160 -85zM137 0l-105 707h83l87 -643l232 485l-32 158h83l123 -645l253 645h80l-283 -707h-110l-92 442l-211 -442h-108z" />
    <glyph glyph-name="wcircumflex" unicode="&#x175;" horiz-adv-x="768" 
d="M263 620l-31 53l196 115l164 -114l-36 -54l-137 88zM133 0l-92 546h83l71 -492l180 313l-30 179h82l71 -492l146 307q44 91 44 165q0 14 -1 20h78q1 -6 1 -19q0 -78 -48 -174l-171 -353h-112l-45 273l-157 -273h-100z" />
    <glyph glyph-name="Ycircumflex" unicode="&#x176;" horiz-adv-x="522" 
d="M177 0l28 274l-183 433h88l144 -365l236 365h86l-291 -432l-29 -275h-79zM445 737l-137 68l-154 -67l-21 54l182 85l160 -85z" />
    <glyph glyph-name="ycircumflex" unicode="&#x177;" horiz-adv-x="465" 
d="M60 -220l108 220h-41l-86 546h83l69 -492l148 307q45 93 45 166q0 7 -2 19h79q1 -6 1 -19q0 -75 -47 -174l-277 -573h-80zM112 620l-31 53l196 115l164 -114l-36 -54l-137 88z" />
    <glyph glyph-name="Ydieresis" unicode="&#x178;" horiz-adv-x="522" 
d="M177 0l28 274l-183 433h88l144 -365l236 365h86l-291 -432l-29 -275h-79zM193 750l-49 58l61 57l51 -57zM399 750l-50 58l62 57l51 -57z" />
    <glyph glyph-name="Zacute" unicode="&#x179;" horiz-adv-x="525" 
d="M238 737l-16 54l229 80l19 -70zM-14 0l7 70l431 565h-345l7 72h438l-6 -63l-434 -573h394l-7 -71h-485z" />
    <glyph glyph-name="zacute" unicode="&#x17a;" horiz-adv-x="432" 
d="M210 615l-31 52l196 137l37 -62zM-9 0l7 66l338 414h-268l7 66h355l-6 -63l-342 -418h302l-7 -65h-386z" />
    <glyph glyph-name="Zdotaccent" unicode="&#x17b;" horiz-adv-x="525" 
d="M-14 0l7 70l431 565h-345l7 72h438l-6 -63l-434 -573h394l-7 -71h-485zM308 753l-58 65l72 63l61 -63z" />
    <glyph glyph-name="zdotaccent" unicode="&#x17c;" horiz-adv-x="432" 
d="M-9 0l7 66l338 414h-268l7 66h355l-6 -63l-342 -418h302l-7 -65h-386zM265 653l-58 63l71 62l60 -62z" />
    <glyph glyph-name="Zcaron" unicode="&#x17d;" horiz-adv-x="525" 
d="M303 739l-159 85l30 54l136 -68l154 67l22 -54zM-14 0l7 70l431 565h-345l7 72h438l-6 -63l-434 -573h394l-7 -71h-485z" />
    <glyph glyph-name="zcaron" unicode="&#x17e;" horiz-adv-x="432" 
d="M259 619l-163 113l36 52l135 -91l154 91l30 -52zM-9 0l7 66l338 414h-268l7 66h355l-6 -63l-342 -418h302l-7 -65h-386z" />
    <glyph glyph-name="uni018F" unicode="&#x18f;" horiz-adv-x="752" 
d="M333 -12q-142 0 -212 80t-70 220q0 20 8 100h571q4 118 -53.5 190t-175.5 72q-129 0 -261 -66l-20 59q142 74 296 74q146 0 220 -83t74 -222q0 -185 -99 -304.5t-278 -119.5zM344 54q125 0 192 73t86 197h-491q-1 -11 -1 -32q1 -108 52 -173t162 -65z" />
    <glyph glyph-name="florin" unicode="&#x192;" horiz-adv-x="452" 
d="M-23 -19l4 63q85 6 109 13q70 25 83 119l10 78h-104l6 65h106l6 48q6 49 23.5 85t41.5 57t57.5 34t66.5 17.5t74 4.5l-2 -65q-84 -8 -109 -17q-64 -24 -77 -115v-4l-6 -45h113l-7 -65h-114l-10 -81q-8 -59 -33 -99t-64.5 -59.5t-80 -26.5t-93.5 -7z" />
    <glyph glyph-name="uni01D3" unicode="&#x1d3;" horiz-adv-x="722" 
d="M394 739l-159 85l30 54l136 -68l154 67l22 -54zM333 -12q-52 0 -94.5 10t-80.5 33t-59.5 66.5t-21.5 104.5q0 12 2 40l49 465h81l-48 -458q-2 -24 -2 -35q0 -158 174 -158q90 0 146.5 49t69.5 168l45 434h76l-46 -437q-9 -81 -37.5 -139t-71 -87.5t-87 -42.5t-95.5 -13z
" />
    <glyph glyph-name="uni01D4" unicode="&#x1d4;" horiz-adv-x="549" 
d="M309 619l-163 113l36 52l135 -91l154 91l30 -52zM175 -11q-56 0 -80 26t-24 85q0 22 3 49l43 397h76l-42 -378q-3 -32 -3 -52q0 -34 10.5 -47.5t36.5 -13.5q70 0 175 103l42 388h76l-58 -546h-76l9 90q-50 -50 -93 -75.5t-95 -25.5z" />
    <glyph glyph-name="AEmacron" unicode="&#x1e2;" horiz-adv-x="900" 
d="M-54 0l468 707h455l-6 -65h-314l-27 -254h293l-8 -66h-291l-28 -257h338l-7 -65h-416l35 322h-197l-206 -322h-89zM282 387h162l28 255h-26zM501 766l7 64h282l-7 -64h-282z" />
    <glyph glyph-name="aemacron" unicode="&#x1e3;" horiz-adv-x="752" 
d="M148 -13q-55 0 -81.5 48.5t-26.5 129.5q0 166 92.5 276t230.5 110q49 0 93 -8l-8 -62q67 80 163 80q72 0 104 -34t32 -90q0 -94 -143 -146l-177 -66q0 -5 -0.5 -14t-0.5 -13q0 -142 65 -142q54 0 170 55l27 -57q-37 -21 -61 -32.5t-66 -22.5t-84 -11q-101 0 -120 125
q-128 -126 -209 -126zM166 59q22 0 62.5 25.5t68 48t49.5 43.5l33 307l-41 2q-89 3 -155.5 -91t-66.5 -209q0 -73 13 -99.5t37 -26.5zM434 292l158 62q81 34 81 80q0 32 -19 47t-46 15q-40 0 -71.5 -17.5t-51.5 -48.5t-32 -64.5t-19 -73.5zM344 667l7 65h261l-7 -65h-261z
" />
    <glyph glyph-name="AEacute" unicode="&#x1fc;" horiz-adv-x="900" 
d="M559 737l-16 54l229 80l19 -70zM-54 0l468 707h455l-6 -65h-314l-27 -254h293l-8 -66h-291l-28 -257h338l-7 -65h-416l35 322h-197l-206 -322h-89zM282 387h162l28 255h-26z" />
    <glyph glyph-name="aeacute" unicode="&#x1fd;" horiz-adv-x="752" 
d="M410 615l-31 52l196 137l37 -62zM148 -13q-55 0 -81.5 48.5t-26.5 129.5q0 166 92.5 276t230.5 110q49 0 93 -8l-8 -62q67 80 163 80q72 0 104 -34t32 -90q0 -94 -143 -146l-177 -66q0 -5 -0.5 -14t-0.5 -13q0 -142 65 -142q54 0 170 55l27 -57q-37 -21 -61 -32.5
t-66 -22.5t-84 -11q-101 0 -120 125q-128 -126 -209 -126zM166 59q22 0 62.5 25.5t68 48t49.5 43.5l33 307l-41 2q-89 3 -155.5 -91t-66.5 -209q0 -73 13 -99.5t37 -26.5zM434 292l158 62q81 34 81 80q0 32 -19 47t-46 15q-40 0 -71.5 -17.5t-51.5 -48.5t-32 -64.5
t-19 -73.5z" />
    <glyph glyph-name="Oslashacute" unicode="&#x1fe;" horiz-adv-x="784" 
d="M61 -29l-41 39l84 87q-59 82 -59 210q0 184 105 297.5t286 113.5q123 0 202 -66l79 81l41 -40l-81 -84q60 -82 60 -209q0 -185 -105 -298t-288 -113q-127 0 -202 67zM163 157l419 438q-60 55 -158 55q-141 0 -219 -96t-78 -242q0 -95 36 -155zM355 55q143 0 221 97
t78 245q0 88 -36 151l-420 -436q59 -57 157 -57zM325 737l-16 54l229 80l19 -70z" />
    <glyph glyph-name="oslashacute" unicode="&#x1ff;" horiz-adv-x="508" 
d="M16 -28l-36 30l77 90q-17 44 -17 88q0 171 75.5 275.5t196.5 104.5q63 0 108 -48l54 62l35 -31l-61 -73q21 -44 21 -97q0 -69 -14.5 -134t-44.5 -123t-84 -93t-126 -35t-118 59zM122 167l249 289q-25 40 -82 40q-67 0 -118 -84.5t-52 -211.5q0 -3 3 -33zM219 54
q70 0 120.5 86t51.5 215q0 29 -3 47l-254 -295q21 -53 85 -53zM224 615l-31 52l196 137l37 -62z" />
    <glyph glyph-name="Scommaaccent" unicode="&#x218;" horiz-adv-x="482" 
d="M117 -261l43 203h73l-56 -203h-60zM186 -11q-48 0 -105 14t-91 34l31 67q96 -45 171 -45q167 0 167 134q0 31 -21.5 57.5t-54 45.5l-70.5 43t-70.5 48t-54 62.5t-21.5 85.5q0 86 64.5 132t160.5 46q107 0 179 -39l-27 -62q-75 33 -155 33q-144 0 -144 -108
q0 -36 30 -67.5t73 -57l86 -53.5t73 -70.5t30 -93.5q0 -100 -71.5 -153t-179.5 -53z" />
    <glyph glyph-name="scommaaccent" unicode="&#x219;" horiz-adv-x="429" 
d="M95 -261l43 203h73l-56 -203h-60zM170 -9q-92 0 -149 25l22 66q70 -25 133 -25q26 0 50.5 5t48 24.5t23.5 50.5q0 29 -22 55t-53 46.5l-62 43t-53 54.5t-22 71q0 78 51 113.5t129 35.5q81 0 141 -30l-23 -59q-70 26 -129 26q-40 0 -68 -18t-28 -57q0 -29 22 -55t53 -47
l62 -43.5t53 -57t22 -75.5q0 -54 -32.5 -89t-75 -47.5t-93.5 -12.5z" />
    <glyph glyph-name="uni021A" unicode="&#x21a;" horiz-adv-x="553" 
d="M169 -261l43 203h73l-56 -203h-60zM206 0l67 640h-242l8 67h563l-8 -67h-241l-68 -640h-79z" />
    <glyph glyph-name="Ymacron" unicode="&#x232;" horiz-adv-x="522" 
d="M177 0l28 274l-183 433h88l144 -365l236 365h86l-291 -432l-29 -275h-79zM158 766l7 64h282l-7 -64h-282z" />
    <glyph glyph-name="ymacron" unicode="&#x233;" horiz-adv-x="465" 
d="M60 -220l108 220h-41l-86 546h83l69 -492l148 307q45 93 45 166q0 7 -2 19h79q1 -6 1 -19q0 -75 -47 -174l-277 -573h-80zM134 667l7 65h261l-7 -65h-261z" />
    <glyph glyph-name="schwa" unicode="&#x259;" horiz-adv-x="446" 
d="M276 560q128 0 128 -204q0 -156 -69.5 -262.5t-192.5 -106.5q-69 0 -103.5 35.5t-34.5 89.5q0 94 143 146l178 66q1 9 1 27q0 141 -64 141q-65 0 -171 -55l-27 57q38 21 62.5 32.5t66 22.5t83.5 11zM318 257l-158 -62q-81 -32 -81 -80q0 -33 19 -48t47 -15
q75 0 116.5 58.5t56.5 146.5z" />
    <glyph glyph-name="h.superior" unicode="&#x2b0;" horiz-adv-x="392" 
d="M38 416l52 498h62l-20 -193q84 65 138 65q42 0 59.5 -19t17.5 -62q0 -18 -1 -29l-29 -260h-62l27 248q5 38 -2.5 51.5t-32.5 13.5q-27 0 -121 -61l-27 -252h-61z" />
    <glyph glyph-name="j.superior" unicode="&#x2b2;" horiz-adv-x="181" 
d="M-37 271q-33 0 -55 10l14 51q24 -8 45 -8q35 0 50 21t20 64l38 367h63l-40 -370q-8 -75 -43 -105t-92 -30zM111 841l-44 48l54 46l44 -46z" />
    <glyph glyph-name="r.superior" unicode="&#x2b3;" horiz-adv-x="241" 
d="M37 416l38 360h61l-5 -55q1 1 8 7l10 8.5l10.5 9t12.5 9.5l13 8t14 8t14 6t15.5 4.5t14.5 1.5q3 0 9 -0.5t9 -0.5l-11 -59q-8 2 -20 2q-28 0 -105 -62l-27 -247h-61z" />
    <glyph glyph-name="w.superior" unicode="&#x2b7;" horiz-adv-x="524" 
d="M83 416l-59 360h66l44 -312l114 202l-18 110h66l43 -312l93 189q27 59 27 107q0 11 -1 16h65q2 -10 2 -16q0 -50 -33 -114l-115 -230h-87l-29 177l-99 -177h-79z" />
    <glyph glyph-name="y.superior" unicode="&#x2b8;" horiz-adv-x="319" 
d="M39 271l72 145h-30l-57 360h66l44 -314l94 191q28 58 28 108q0 10 -1 15h66q0 -2 0.5 -7t0.5 -8q0 -49 -32 -115l-186 -375h-65z" />
    <glyph glyph-name="circumflex" unicode="&#x2c6;" horiz-adv-x="529" 
d="M144 620l-31 53l196 115l164 -114l-36 -54l-137 88z" />
    <glyph glyph-name="caron" unicode="&#x2c7;" horiz-adv-x="529" 
d="M318 619l-163 113l36 52l135 -91l154 91l30 -52z" />
    <glyph glyph-name="breve" unicode="&#x2d8;" horiz-adv-x="496" 
d="M325 645q-49 0 -84.5 25.5t-51.5 56.5l45 38q41 -57 100 -57q66 0 110 57l35 -38q-63 -82 -154 -82z" />
    <glyph glyph-name="dotaccent" unicode="&#x2d9;" horiz-adv-x="313" 
d="M166 653l-58 63l71 62l60 -62z" />
    <glyph glyph-name="ring" unicode="&#x2da;" horiz-adv-x="525" 
d="M333 608q-45 0 -77 24t-32 66q0 54 37.5 88.5t92.5 34.5q44 0 75.5 -26t31.5 -67q0 -54 -36.5 -87t-91.5 -33zM337 651q30 0 50 19t20 49q0 25 -17 40.5t-42 15.5q-31 0 -50.5 -18.5t-19.5 -48.5q0 -26 16.5 -41.5t42.5 -15.5z" />
    <glyph glyph-name="ogonek" unicode="&#x2db;" horiz-adv-x="549" 
d="M449 -154l12 -55q-33 -15 -85 -15q-49 0 -76 25t-27 69q0 94 180 181l28 -40q-136 -76 -136 -129q0 -45 50 -45q25 0 54 9z" />
    <glyph glyph-name="tilde" unicode="&#x2dc;" horiz-adv-x="529" 
d="M394 645q-20 0 -63 18.5t-62 18.5q-37 0 -75 -25l-28 44q50 46 109 46q25 0 65 -18.5t60 -18.5q35 0 76 29l26 -47q-52 -47 -108 -47z" />
    <glyph glyph-name="hungarumlaut" unicode="&#x2dd;" horiz-adv-x="539" 
d="M137 615l-29 48l198 141l38 -61zM366 618l-29 49l189 125l34 -62z" />
    <glyph glyph-name="x.superior" unicode="&#x2e3;" horiz-adv-x="332" 
d="M-16 416l154 189l-86 171h66l61 -126l100 126h67l-140 -172l95 -188h-67l-69 142l-112 -142h-69z" />
    <glyph glyph-name="uni0374" unicode="&#x374;" horiz-adv-x="147" 
d="M40 556q38 84 47 207h83q-3 -68 -20 -114.5t-47 -92.5h-63z" />
    <glyph glyph-name="uni0375" unicode="&#x375;" horiz-adv-x="163" 
d="M22 -121q38 83 47 206h83q-3 -68 -20 -114.5t-47 -91.5h-63z" />
    <glyph glyph-name="uni037E" unicode="&#x37e;" horiz-adv-x="294" 
d="M47 -125q32 64 39 124q1 6 5 41t5 41h79q-3 -37 -6 -49q-10 -87 -57 -157h-65zM126 459l10 87h90l-9 -87h-91z" />
    <glyph glyph-name="tonos" unicode="&#x384;" horiz-adv-x="474" 
d="M291 622l65 158h84l-82 -158h-67z" />
    <glyph glyph-name="dieresistonos" unicode="&#x385;" horiz-adv-x="462" 
d="M49 628l-49 54l60 54l49 -54zM122 624l88 158h84l-105 -158h-67zM318 628l-48 54l59 54l49 -54z" />
    <glyph glyph-name="Alphatonos" unicode="&#x386;" horiz-adv-x="622" 
d="M-18 541l65 158h84l-82 -158h-67zM-39 0l352 707h118l148 -707h-82l-53 266h-270l-131 -266h-82zM206 330h225l-54 276l-10 60l-28 -61z" />
    <glyph glyph-name="anoteleia" unicode="&#x387;" horiz-adv-x="277" 
d="M138 296l-58 64l72 62l59 -62z" />
    <glyph glyph-name="Epsilontonos" unicode="&#x388;" horiz-adv-x="566" 
d="M-99 541l65 158h84l-82 -158h-67zM66 0l75 707h393l-7 -65h-313l-27 -254h292l-7 -66h-291l-28 -257h337l-6 -65h-418z" />
    <glyph glyph-name="Etatonos" unicode="&#x389;" horiz-adv-x="747" 
d="M-85 541l65 158h84l-82 -158h-67zM66 0l75 707h79l-33 -320h380l33 321h80l-74 -708h-80l35 322h-380l-35 -322h-80z" />
    <glyph glyph-name="Iotatonos" unicode="&#x38a;" horiz-adv-x="287" 
d="M-103 541l65 158h84l-82 -158h-67zM66 0l75 707h79l-74 -707h-80z" />
    <glyph glyph-name="Omicrontonos" unicode="&#x38c;" horiz-adv-x="784" 
d="M-67 541l65 158h84l-82 -158h-67zM346 -11q-143 0 -221 85.5t-78 232.5q0 184 104.5 297.5t285.5 113.5q144 0 223 -85.5t79 -232.5q0 -184 -105.5 -297.5t-287.5 -113.5zM356 55q143 0 221 97t78 245q0 116 -59 184.5t-171 68.5q-141 0 -219 -95.5t-78 -242.5
q0 -116 58 -186.5t170 -70.5z" />
    <glyph glyph-name="Upsilontonos" unicode="&#x38e;" horiz-adv-x="522" 
d="M-188 541l65 158h84l-82 -158h-67zM183 0l28 274l-183 433h88l144 -365l236 365h86l-291 -432l-29 -275h-79z" />
    <glyph glyph-name="Omegatonos" unicode="&#x38f;" horiz-adv-x="802" 
d="M-70 542l65 158h84l-82 -158h-67zM35 0l7 71h167q-59 31 -104 102t-45 165q0 168 108.5 274t278.5 106q148 0 226 -86t78 -223q0 -109 -59 -203.5t-153 -134.5h171l-6 -71h-271l6 69q228 122 228 334q0 112 -58 179.5t-173 67.5q-138 0 -217 -90t-79 -223
q0 -161 168 -268l-6 -69h-267z" />
    <glyph glyph-name="iotadieresistonos" unicode="&#x390;" horiz-adv-x="267" 
d="M56 634l-49 54l60 54l49 -54zM129 630l88 158h84l-105 -158h-67zM325 634l-48 54l59 54l49 -54zM62 0l57 546h76l-57 -546h-76z" />
    <glyph glyph-name="Alpha" unicode="&#x391;" horiz-adv-x="622" 
d="M-39 0l352 707h118l148 -707h-82l-53 266h-270l-131 -266h-82zM206 330h225l-54 276l-10 60l-28 -61z" />
    <glyph glyph-name="Beta" unicode="&#x392;" horiz-adv-x="611" 
d="M66 0l75 707h192q202 0 202 -157q0 -59 -31 -108t-86 -64l1 -3q58 -7 94 -49t36 -101q0 -114 -70.5 -169.5t-189.5 -55.5h-223zM154 66h123q44 0 76 6.5t59 22t41 46.5t14 77q0 33 -14 56t-31.5 34t-49 17t-51.5 7t-54 1h-85zM189 396h99q81 0 121.5 33t40.5 113
q0 27 -8 46.5t-20.5 30t-33 17t-39 8t-44.5 1.5h-90z" />
    <glyph glyph-name="Gamma" unicode="&#x393;" horiz-adv-x="447" 
d="M66 0l75 707h338l-7 -65h-258l-68 -642h-80z" />
    <glyph glyph-name="uni0394" unicode="&#x394;" horiz-adv-x="643" 
d="M74 68h435l-120 538l-12 61l-28 -61zM-42 0l365 707h118l166 -707h-649z" />
    <glyph glyph-name="Epsilon" unicode="&#x395;" horiz-adv-x="566" 
d="M66 0l75 707h393l-7 -65h-313l-27 -254h292l-7 -66h-291l-28 -257h337l-6 -65h-418z" />
    <glyph glyph-name="Zeta" unicode="&#x396;" horiz-adv-x="525" 
d="M-14 0l7 70l431 565h-345l7 72h438l-6 -63l-434 -573h394l-7 -71h-485z" />
    <glyph glyph-name="Eta" unicode="&#x397;" horiz-adv-x="747" 
d="M66 0l75 707h79l-33 -320h380l33 321h80l-74 -708h-80l35 322h-380l-35 -322h-80z" />
    <glyph glyph-name="Theta" unicode="&#x398;" horiz-adv-x="784" 
d="M346 -11q-143 0 -221 85.5t-78 232.5q0 184 104.5 297.5t285.5 113.5q144 0 223 -85.5t79 -232.5q0 -184 -105.5 -297.5t-287.5 -113.5zM356 55q143 0 221 97t78 245q0 116 -59 184.5t-171 68.5q-141 0 -219 -95.5t-78 -242.5q0 -116 58 -186.5t170 -70.5zM247 322l6 66
h285l-7 -66h-284z" />
    <glyph glyph-name="Iota" unicode="&#x399;" horiz-adv-x="287" 
d="M66 0l75 707h79l-74 -707h-80z" />
    <glyph glyph-name="Kappa" unicode="&#x39a;" horiz-adv-x="600" 
d="M483 -25l-273 390l2 19l306 323h100l-318 -327l255 -363zM66 0l75 707h79l-74 -707h-80z" />
    <glyph glyph-name="Lambda" unicode="&#x39b;" horiz-adv-x="608" 
d="M-32 0l336 707h119l137 -707h-81l-111 605l-9 59l-27 -60l-283 -604h-81z" />
    <glyph glyph-name="Mu" unicode="&#x39c;" horiz-adv-x="876" 
d="M-16 0l230 707h107l53 -661l296 661h106l-19 -707h-79l24 610l-272 -610h-126l-50 612l-192 -612h-78z" />
    <glyph glyph-name="Nu" unicode="&#x39d;" horiz-adv-x="734" 
d="M66 0l76 707h117l264 -649l65 649h79l-76 -707h-123l-256 633l-66 -633h-80z" />
    <glyph glyph-name="Xi" unicode="&#x39e;" horiz-adv-x="572" 
d="M6 0l8 71h468l-8 -71h-468zM72 320l8 70h403l-7 -70h-404zM84 636l7 71h448l-8 -71h-447z" />
    <glyph glyph-name="Omicron" unicode="&#x39f;" horiz-adv-x="784" 
d="M346 -11q-143 0 -221 85.5t-78 232.5q0 184 104.5 297.5t285.5 113.5q144 0 223 -85.5t79 -232.5q0 -184 -105.5 -297.5t-287.5 -113.5zM356 55q143 0 221 97t78 245q0 116 -59 184.5t-171 68.5q-141 0 -219 -95.5t-78 -242.5q0 -116 58 -186.5t170 -70.5z" />
    <glyph glyph-name="Pi" unicode="&#x3a0;" horiz-adv-x="728" 
d="M66 0l75 707h521l-75 -707h-80l68 638h-362l-67 -638h-80z" />
    <glyph glyph-name="Rho" unicode="&#x3a1;" horiz-adv-x="566" 
d="M65 0l75 707h229q95 0 151 -48.5t56 -141.5q0 -130 -86.5 -194t-220.5 -63q-20 0 -22 1l8 65q53 0 93 8.5t74 28t51.5 57t17.5 90.5q0 133 -150 133h-128l-67 -643h-81z" />
    <glyph glyph-name="Sigma" unicode="&#x3a3;" horiz-adv-x="565" 
d="M4 0l7 72l236 280l-173 286l7 69h467l-7 -64h-378l174 -289l-239 -283h387l-7 -71h-474z" />
    <glyph glyph-name="Tau" unicode="&#x3a4;" horiz-adv-x="553" 
d="M206 0l67 640h-242l8 67h563l-8 -67h-241l-68 -640h-79z" />
    <glyph glyph-name="Upsilon" unicode="&#x3a5;" horiz-adv-x="522" 
d="M177 0l28 274l-183 433h88l144 -365l236 365h86l-291 -432l-29 -275h-79z" />
    <glyph glyph-name="Phi" unicode="&#x3a6;" horiz-adv-x="795" 
d="M320 0l9 85q-132 0 -209 66t-74 196q3 151 97.5 232.5t243.5 81.5l8 76h80l-8 -76q133 0 209 -66t73 -197q-3 -150 -97 -231.5t-244 -81.5l-9 -85h-79zM335 151l46 444q-116 0 -185 -64t-71 -178q-1 -98 54 -150t156 -52zM415 151q115 0 184 64t70 179q2 98 -53 149.5
t-156 51.5z" />
    <glyph glyph-name="Chi" unicode="&#x3a7;" horiz-adv-x="568" 
d="M-46 0l290 373l-163 334h88l128 -273l202 273h87l-257 -333l185 -374h-89l-148 309l-231 -309h-92z" />
    <glyph glyph-name="Psi" unicode="&#x3a8;" horiz-adv-x="724" 
d="M285 0l17 163q-242 25 -242 213q0 10 2 32l30 299h81l-29 -295q-5 -48 7 -83t38 -54.5t54.5 -29.5t65.5 -15l51 477h79l-50 -476q193 30 211 205l26 271h76l-25 -273q-25 -245 -296 -272l-16 -162h-80z" />
    <glyph glyph-name="uni03A9" unicode="&#x3a9;" horiz-adv-x="802" 
d="M35 0l7 71h167q-59 31 -104 102t-45 165q0 168 108.5 274t278.5 106q148 0 226 -86t78 -223q0 -109 -59 -203.5t-153 -134.5h171l-6 -71h-271l6 69q228 122 228 334q0 112 -58 179.5t-173 67.5q-138 0 -217 -90t-79 -223q0 -161 168 -268l-6 -69h-267z" />
    <glyph glyph-name="Iotadieresis" unicode="&#x3aa;" horiz-adv-x="287" 
d="M82 750l-49 58l61 57l51 -57zM288 750l-50 58l62 57l51 -57zM66 0l75 707h79l-74 -707h-80z" />
    <glyph glyph-name="Upsilondieresis" unicode="&#x3ab;" horiz-adv-x="522" 
d="M192 750l-49 58l61 57l51 -57zM398 750l-50 58l62 57l51 -57zM177 0l28 274l-183 433h88l144 -365l236 365h86l-291 -432l-29 -275h-79z" />
    <glyph glyph-name="alphatonos" unicode="&#x3ac;" 
d="M290 632l65 158h84l-82 -158h-67zM149 -13q-55 0 -82.5 44.5t-27.5 118.5q0 67 16 135.5t45.5 129t79 98.5t109.5 38q68 0 95 -73l8 68h72l-57 -546h-76l12 112q-38 -55 -90.5 -90t-103.5 -35zM168 59q41 0 92.5 36.5t89.5 94.5l24 211q-38 83 -90 83q-51 0 -91 -55
t-58.5 -128t-18.5 -143q0 -44 13 -71.5t39 -27.5z" />
    <glyph glyph-name="epsilontonos" unicode="&#x3ad;" horiz-adv-x="439" 
d="M232 630l65 158h84l-82 -158h-67zM215 -12q-87 0 -133.5 38.5t-46.5 103.5q0 56 30 100.5t88 66.5q-33 12 -54 40t-21 64q0 66 54 112t149 46q83 0 139 -36l-27 -53q-56 27 -115 27q-123 0 -123 -96q0 -40 28 -58.5t68 -18.5h65l-6 -62h-74q-50 0 -85.5 -31.5
t-35.5 -85.5q0 -90 114 -90q63 0 156 39l24 -59q-102 -47 -194 -47z" />
    <glyph glyph-name="etatonos" unicode="&#x3ae;" horiz-adv-x="552" 
d="M280 632l65 158h84l-82 -158h-67zM333 -219l65 597q6 56 6 66q0 25 -10 35t-38 10q-15 0 -42.5 -14t-51.5 -30l-51.5 -35.5l-31.5 -22.5l-42 -387h-76l58 546h76l-9 -90q2 2 16 13l21 16.5l22.5 17t26 17.5l26 15t28.5 13.5t28.5 8t29.5 3.5q55 0 76 -21.5t21 -70.5
q0 -16 -6 -74l-66 -613h-76z" />
    <glyph glyph-name="iotatonos" unicode="&#x3af;" horiz-adv-x="267" 
d="M123 629l65 158h84l-82 -158h-67zM62 0l57 546h76l-57 -546h-76z" />
    <glyph glyph-name="upsilondieresistonos" unicode="&#x3b0;" horiz-adv-x="504" 
d="M174 628l-49 54l60 54l49 -54zM247 624l88 158h84l-105 -158h-67zM443 628l-48 54l59 54l49 -54zM230 -11q-164 0 -164 160q0 17 3 38l37 359h75l-38 -352q-2 -26 -2 -34q0 -105 96 -105q62 0 105 70t43 198q0 99 -44 223h75q44 -108 44 -225q0 -151 -66.5 -241.5
t-163.5 -90.5z" />
    <glyph glyph-name="alpha" unicode="&#x3b1;" 
d="M149 -13q-55 0 -82.5 44.5t-27.5 118.5q0 67 16 135.5t45.5 129t79 98.5t109.5 38q68 0 95 -73l8 68h72l-57 -546h-76l12 112q-38 -55 -90.5 -90t-103.5 -35zM168 59q41 0 92.5 36.5t89.5 94.5l24 211q-38 83 -90 83q-51 0 -91 -55t-58.5 -128t-18.5 -143q0 -44 13 -71.5
t39 -27.5z" />
    <glyph glyph-name="beta" unicode="&#x3b2;" horiz-adv-x="514" 
d="M225 -12q-161 0 -161 231q0 45 4 85l21 213q11 119 76 188t154 69q151 0 151 -135q0 -109 -108 -183q54 -9 83 -53t29 -112q0 -124 -68.5 -213.5t-180.5 -89.5zM231 51q72 0 119 68.5t47 160.5q0 66 -21 96t-76 30q-13 0 -28.5 -3.5t-34 -10.5l-31 -12t-33.5 -15t-28 -13
l-5 -51q-5 -50 -5 -82q0 -168 96 -168zM151 408q67 28 75 31q168 73 168 191q0 80 -90 80q-57 0 -93.5 -48t-47.5 -140z" />
    <glyph glyph-name="gamma" unicode="&#x3b3;" horiz-adv-x="454" 
d="M113 -220q2 67 21 224q-6 149 -39 295.5t-68 246.5h84q69 -218 87 -445q151 269 176 445h78q-7 -52 -26 -109.5t-50 -122.5l-53.5 -108.5t-63 -115l-52.5 -93.5q3 -100 -17 -217h-77z" />
    <glyph glyph-name="delta" unicode="&#x3b4;" horiz-adv-x="512" 
d="M211 -12q-76 0 -122.5 51t-46.5 141q0 123 55 207t146 118q-83 52 -83 121q0 75 53.5 111.5t134.5 36.5q80 0 152 -29l-20 -60q-75 25 -141 25q-106 0 -106 -74q0 -17 6 -32t21 -28.5t25 -21t34 -22t31 -19.5q32 -22 53.5 -42t41.5 -62.5t20 -95.5q0 -153 -75.5 -239
t-178.5 -86zM225 54q49 0 88 42t57 98t18 110q0 68 -23.5 102.5t-72.5 65.5q-85 -36 -128.5 -113t-43.5 -169q0 -136 105 -136z" />
    <glyph glyph-name="epsilon" unicode="&#x3b5;" horiz-adv-x="439" 
d="M215 -12q-87 0 -133.5 38.5t-46.5 103.5q0 56 30 100.5t88 66.5q-33 12 -54 40t-21 64q0 66 54 112t149 46q83 0 139 -36l-27 -53q-56 27 -115 27q-123 0 -123 -96q0 -40 28 -58.5t68 -18.5h65l-6 -62h-74q-50 0 -85.5 -31.5t-35.5 -85.5q0 -90 114 -90q63 0 156 39
l24 -59q-102 -47 -194 -47z" />
    <glyph glyph-name="zeta" unicode="&#x3b6;" horiz-adv-x="439" 
d="M341 -159l-56 9q52 88 52 129q0 21 -16 21q-23 0 -66 -6t-65 -6q-71 0 -111.5 39.5t-40.5 114.5q0 83 36 171t93 160t114 127t112 92h-261l7 62h349l-7 -63q-62 -44 -122 -100t-117 -126t-91.5 -151.5t-34.5 -157.5q0 -52 22.5 -75t68.5 -23q28 0 73.5 6.5t71.5 6.5
q27 0 40 -18t13 -45q0 -39 -21 -87t-43 -80z" />
    <glyph glyph-name="eta" unicode="&#x3b7;" horiz-adv-x="552" 
d="M333 -219l65 597q6 56 6 66q0 25 -10 35t-38 10q-15 0 -42.5 -14t-51.5 -30l-51.5 -35.5l-31.5 -22.5l-42 -387h-76l58 546h76l-9 -90q2 2 16 13l21 16.5l22.5 17t26 17.5l26 15t28.5 13.5t28.5 8t29.5 3.5q55 0 76 -21.5t21 -70.5q0 -16 -6 -74l-66 -613h-76z" />
    <glyph glyph-name="theta" unicode="&#x3b8;" horiz-adv-x="490" 
d="M194 -12q-82 0 -113.5 54t-29.5 173q0 27 -47 11l-8 50q55 20 82 20q26 0 36 -20t10 -65q0 -87 17 -122.5t65 -35.5q138 0 164 340q-58 -31 -124 -31q-86 0 -131.5 49.5t-45.5 124.5q0 92 58 164t146 72q99 0 140 -65.5t41 -188.5q0 -93 -13.5 -181t-41.5 -169
t-81 -130.5t-124 -49.5zM255 423q58 0 118 28q2 46 2 66q0 98 -26 144t-86 46q-56 0 -88 -47.5t-32 -113.5q0 -54 30.5 -88.5t81.5 -34.5z" />
    <glyph glyph-name="iota" unicode="&#x3b9;" horiz-adv-x="267" 
d="M62 0l57 546h76l-57 -546h-76z" />
    <glyph glyph-name="kappa" unicode="&#x3ba;" horiz-adv-x="486" 
d="M380 -14l-191 303l202 257h90l-204 -255l180 -280zM62 0l57 546h76l-57 -546h-76z" />
    <glyph glyph-name="lambda" unicode="&#x3bb;" horiz-adv-x="472" 
d="M428 -11q-53 2 -78.5 33.5t-33.5 87.5l-42 268l-12 106l-46 -109l-166 -375h-84l257 546h27l-12 74q-7 46 -22 68t-54 22q-29 0 -74 -17l-9 58q56 24 96 24q67 0 96 -32t37 -93l81 -521q5 -30 15 -47.5t18.5 -22t23.5 -9.5z" />
    <glyph glyph-name="uni03BC" unicode="&#x3bc;" horiz-adv-x="551" 
d="M37 -220l81 766h76l-42 -378q-4 -42 -4 -54q0 -34 11 -47t38 -13q29 0 62 19t71.5 51.5t41.5 34.5l41 387h76l-58 -546h-76l10 90q-6 -4 -35.5 -30t-45 -37.5t-45.5 -24t-59 -12.5q-33 2 -46 6l-22 -212h-75z" />
    <glyph glyph-name="nu" unicode="&#x3bd;" horiz-adv-x="465" 
d="M125 0l-84 546h83l62 -465q200 274 200 446q0 7 -2 19h78q1 -6 1 -19q0 -192 -255 -527h-83z" />
    <glyph glyph-name="xi" unicode="&#x3be;" horiz-adv-x="455" 
d="M337 -159l-56 9q52 88 52 129q0 21 -18 21q-136 0 -207 40.5t-71 145.5q0 83 55 145.5t149 82.5q-64 23 -97 67.5t-33 95.5q0 92 69 141.5t172 49.5q62 0 121 -25l-11 -61q-49 20 -108 20q-72 0 -119.5 -29.5t-47.5 -91.5q0 -56 45 -96t122 -41l-12 -60
q-114 -19 -170 -64.5t-56 -121.5q0 -36 11.5 -60.5t29.5 -38.5t50.5 -21t62.5 -9t78 -2q53 0 53 -61q0 -38 -21 -85t-43 -80z" />
    <glyph glyph-name="omicron" unicode="&#x3bf;" horiz-adv-x="511" 
d="M202 -12q-74 0 -117 55t-43 137q0 173 74.5 276.5t196.5 103.5q75 0 116.5 -55.5t41.5 -131.5q0 -54 -8.5 -106.5t-29 -103.5t-50.5 -89.5t-77 -62t-104 -23.5zM220 54q71 0 122 86.5t51 217.5q0 72 -24 105t-79 33q-69 0 -119 -88t-50 -213q0 -141 99 -141z" />
    <glyph glyph-name="pi" unicode="&#x3c0;" horiz-adv-x="546" 
d="M70 0l50 476h-68l8 70h476l-7 -70h-61l-51 -476h-76l50 476h-194l-50 -476h-77z" />
    <glyph glyph-name="rho" unicode="&#x3c1;" horiz-adv-x="532" 
d="M28 -220l44 413q20 195 84 281t172 86q70 0 116.5 -45.5t46.5 -132.5q0 -163 -70 -277.5t-191 -114.5q-57 0 -102 27l-24 -237h-76zM228 55q63 0 107 53t62 124t18 150q0 53 -26 83.5t-72 30.5q-71 0 -111 -71.5t-58 -226.5l-13 -114q50 -29 93 -29z" />
    <glyph glyph-name="sigma1" unicode="&#x3c2;" horiz-adv-x="442" 
d="M347 -159l-57 9q53 86 53 129q0 21 -17 21q-26 0 -75 -6t-76 -6q-133 0 -133 205q0 153 73 260t195 107q78 0 127 -49l-41 -48q-43 33 -91 33q-43 0 -76.5 -21.5t-53 -54t-32 -76t-17 -82t-4.5 -77.5q0 -73 20.5 -100.5t55.5 -27.5q27 0 80.5 7t78.5 7q28 0 41 -18
t13 -45q0 -39 -21 -87t-43 -80z" />
    <glyph glyph-name="sigma" unicode="&#x3c3;" horiz-adv-x="556" 
d="M203 -12q-73 0 -117 53.5t-44 140.5q0 100 30.5 184t98.5 138.5t162 50.5l207 -9l-9 -64l-91 4q35 -56 35 -135q0 -152 -72.5 -257.5t-199.5 -105.5zM221 54q55 0 96.5 47t61 112.5t19.5 133.5q0 95 -40 142l-35 2q-66 3 -113.5 -40.5t-68 -109.5t-20.5 -144
q0 -143 100 -143z" />
    <glyph glyph-name="tau" unicode="&#x3c4;" horiz-adv-x="405" 
d="M242 -12q-58 0 -88 25.5t-30 94.5q0 11 2 37l35 333h-131l8 68h378l-8 -68h-171l-34 -326q-10 -96 57 -96q34 0 78 19l7 -59q-47 -28 -103 -28z" />
    <glyph glyph-name="upsilon" unicode="&#x3c5;" horiz-adv-x="504" 
d="M230 -11q-164 0 -164 160q0 17 3 38l37 359h75l-38 -352q-2 -26 -2 -34q0 -105 96 -105q62 0 105 70t43 198q0 99 -44 223h75q44 -108 44 -225q0 -151 -66.5 -241.5t-163.5 -90.5z" />
    <glyph glyph-name="phi" unicode="&#x3c6;" horiz-adv-x="630" 
d="M225 -220l22 213q-91 1 -148 55t-57 142q0 117 39 211t102 145h76q-61 -47 -99.5 -139.5t-38.5 -200.5q0 -65 32 -107t101 -46l34 329q8 77 45.5 127.5t100.5 50.5q81 0 118.5 -52.5t37.5 -142.5q0 -92 -26 -168.5t-88 -133t-153 -67.5l-23 -216h-75zM329 57
q82 16 132.5 97.5t50.5 193.5q0 147 -78 147q-31 0 -47.5 -31.5t-23.5 -95.5z" />
    <glyph glyph-name="chi" unicode="&#x3c7;" horiz-adv-x="441" 
d="M368 -227q-57 12 -80 44.5t-45 119.5l-42 162l-175 -319h-84l231 401l-74 245q-17 59 -60 71l21 65q50 -8 72.5 -34.5t37.5 -79.5l53 -184l155 282h85l-213 -364l66 -223q18 -66 33 -89.5t40 -31.5z" />
    <glyph glyph-name="psi" unicode="&#x3c8;" horiz-adv-x="651" 
d="M238 -220l22 211q-91 8 -142 65t-51 152q0 20 1 30l33 308h74l-32 -301q-7 -79 24 -128t100 -58l64 599h75l-63 -598q81 14 132.5 81.5t51.5 181.5q0 118 -37 223h76q36 -91 36 -225q0 -141 -76 -228t-191 -101l-22 -212h-75z" />
    <glyph glyph-name="omega" unicode="&#x3c9;" horiz-adv-x="682" 
d="M180 -9q-62 0 -100 48t-38 128q0 240 162 379h83q-166 -134 -166 -365q0 -122 77 -122q37 0 65 40t35 109l17 152h74l-14 -148q-2 -28 -2 -48q0 -105 60 -105q37 0 64.5 28.5t41 72t19.5 82.5t6 71q0 139 -79 233h85q72 -105 72 -217q0 -61 -13 -119t-38 -108
t-67.5 -80.5t-96.5 -30.5q-38 0 -70.5 27.5t-35.5 77.5q-22 -52 -61.5 -78.5t-79.5 -26.5z" />
    <glyph glyph-name="iotadieresis" unicode="&#x3ca;" horiz-adv-x="267" 
d="M70 657l-52 57l63 57l52 -57zM265 657l-50 57l62 57l52 -57zM62 0l57 546h76l-57 -546h-76z" />
    <glyph glyph-name="upsilondieresis" unicode="&#x3cb;" horiz-adv-x="504" 
d="M200 657l-52 57l63 57l52 -57zM395 657l-50 57l62 57l52 -57zM230 -11q-164 0 -164 160q0 17 3 38l37 359h75l-38 -352q-2 -26 -2 -34q0 -105 96 -105q62 0 105 70t43 198q0 99 -44 223h75q44 -108 44 -225q0 -151 -66.5 -241.5t-163.5 -90.5z" />
    <glyph glyph-name="omicrontonos" unicode="&#x3cc;" horiz-adv-x="511" 
d="M269 630l65 158h84l-82 -158h-67zM202 -12q-74 0 -117 55t-43 137q0 173 74.5 276.5t196.5 103.5q75 0 116.5 -55.5t41.5 -131.5q0 -54 -8.5 -106.5t-29 -103.5t-50.5 -89.5t-77 -62t-104 -23.5zM220 54q71 0 122 86.5t51 217.5q0 72 -24 105t-79 33q-69 0 -119 -88
t-50 -213q0 -141 99 -141z" />
    <glyph glyph-name="upsilontonos" unicode="&#x3cd;" horiz-adv-x="504" 
d="M252 629l65 158h84l-82 -158h-67zM230 -11q-164 0 -164 160q0 17 3 38l37 359h75l-38 -352q-2 -26 -2 -34q0 -105 96 -105q62 0 105 70t43 198q0 99 -44 223h75q44 -108 44 -225q0 -151 -66.5 -241.5t-163.5 -90.5z" />
    <glyph glyph-name="omegatonos" unicode="&#x3ce;" horiz-adv-x="682" 
d="M340 624l65 158h84l-82 -158h-67zM180 -9q-62 0 -100 48t-38 128q0 240 162 379h83q-166 -134 -166 -365q0 -122 77 -122q37 0 65 40t35 109l17 152h74l-14 -148q-2 -28 -2 -48q0 -105 60 -105q37 0 64.5 28.5t41 72t19.5 82.5t6 71q0 139 -79 233h85q72 -105 72 -217
q0 -61 -13 -119t-38 -108t-67.5 -80.5t-96.5 -30.5q-38 0 -70.5 27.5t-35.5 77.5q-22 -52 -61.5 -78.5t-79.5 -26.5z" />
    <glyph glyph-name="beta.alt" unicode="&#x3d0;" horiz-adv-x="542" 
d="M40 -220l79 750q12 114 75.5 179t152.5 65q152 0 152 -134q0 -73 -38.5 -135t-95.5 -81q61 3 99 -30.5t38 -104.5q0 -124 -68.5 -211t-182.5 -87q-67 0 -113 24l-24 -235h-74zM257 55q74 0 121 64.5t47 156.5q0 66 -37 88t-109 20l-2 52q60 6 102.5 64.5t42.5 130.5
q0 79 -90 79q-57 0 -92.5 -46.5t-46.5 -135.5l-48 -446q54 -27 112 -27z" />
    <glyph glyph-name="theta.alt" unicode="&#x3d1;" horiz-adv-x="513" 
d="M211 -12q-79 0 -119 58.5t-40 161.5q0 74 8 148.5t27.5 151t49 134.5t77 95t106.5 37q79 0 118.5 -57.5t39.5 -152.5q0 -70 -5.5 -138t-22.5 -150.5t-45 -143.5t-78 -102.5t-116 -41.5zM225 53q35 0 63 26t47 71.5t31 98t20 115.5h-247q-9 -69 -9 -158q0 -77 22.5 -115
t72.5 -38zM147 424h245q8 67 8 142q0 73 -21.5 109t-69.5 36q-118 0 -162 -287z" />
    <glyph glyph-name="phi.alt" unicode="&#x3d5;" horiz-adv-x="632" 
d="M227 -220l22 213q-91 1 -149 55t-58 142q0 158 71.5 251t194.5 110l12 107h75l-11 -104q91 -1 149.5 -54.5t58.5 -136.5q0 -91 -26 -167t-88 -132.5t-153 -67.5l-23 -216h-75zM256 53l46 438q-86 -14 -133.5 -92.5t-47.5 -192.5q0 -64 32.5 -106.5t102.5 -46.5zM332 57
q83 17 132.5 95.5t49.5 193.5q0 68 -36.5 106t-100.5 42z" />
    <glyph glyph-name="uni03D8" unicode="&#x3d8;" horiz-adv-x="732" 
d="M242 -166l25 157q-101 13 -164.5 77t-63.5 194q0 107 32 195.5t85.5 146t123.5 89t147 31.5q123 0 196 -69.5t73 -205.5q0 -102 -29 -187t-78.5 -140t-109.5 -88.5t-127 -41.5l-25 -158h-85zM320 57q119 0 207.5 104t88.5 281q0 102 -50 158t-150 56q-93 0 -161.5 -54
t-102 -140t-33.5 -190q0 -114 56.5 -164.5t144.5 -50.5z" />
    <glyph glyph-name="uni03D9" unicode="&#x3d9;" horiz-adv-x="529" 
d="M184 -190l20 192q-78 8 -123 60.5t-45 137.5q0 125 73.5 201t183.5 76q95 0 149 -53t54 -147q0 -110 -61.5 -187t-153.5 -86l-23 -194h-74zM248 63q82 0 126 60.5t44 147.5q0 63 -33 102.5t-102 39.5q-46 0 -80.5 -18.5t-53.5 -50t-28 -66t-9 -72.5q0 -64 33 -103.5
t103 -39.5z" />
    <glyph glyph-name="uni03DA" unicode="&#x3da;" horiz-adv-x="553" 
d="M580 665l-34 -64q-90 44 -188 44q-106 0 -156.5 -72t-50.5 -189q0 -54 18 -91.5t47 -55.5t63.5 -30t68 -21t60.5 -22t41.5 -39.5t10.5 -67.5q-5 -46 -37.5 -83.5t-81.5 -61.5t-92.5 -37.5t-88.5 -22.5l-11 59q130 37 173 62q57 33 62 78q2 24 -14 40t-44 25t-62 18
t-69 24.5t-64 38.5t-47 66t-18 102q0 156 78.5 253.5t217.5 97.5q136 0 218 -51z" />
    <glyph glyph-name="uni03DB" unicode="&#x3db;" horiz-adv-x="508" 
d="M493 510l-33 -62q-76 33 -155 33q-86 0 -128.5 -71.5t-42.5 -170.5q0 -133 119 -150q70 -8 104 -34.5t28 -83.5q-7 -64 -70 -97.5t-170 -35.5l6 61q154 1 163 68q2 26 -19.5 38.5t-73.5 19.5q-163 19 -163 201q0 137 66 229.5t185 92.5q104 0 184 -38z" />
    <glyph glyph-name="uni03DC" unicode="&#x3dc;" horiz-adv-x="493" 
d="M66 0l75 707h352l-6 -65h-273l-29 -274h251l-6 -66h-252l-32 -302h-80z" />
    <glyph glyph-name="uni03DD" unicode="&#x3dd;" horiz-adv-x="365" 
d="M22 -220l54 530h-80l7 63h80l23 216q5 55 24 93.5t50 57.5t64 26.5t75 7.5q56 0 104 -18l-20 -61q-50 14 -93 14q-63 0 -93.5 -27t-36.5 -88l-23 -221h119l-6 -63h-119l-56 -530h-73z" />
    <glyph glyph-name="uni03DE" unicode="&#x3de;" horiz-adv-x="495" 
d="M151 -129l201 393h-349l231 467l85 10l-199 -411h346l-229 -438z" />
    <glyph glyph-name="uni03DF" unicode="&#x3df;" horiz-adv-x="500" 
d="M175 -64l177 347h-335l207 391l85 9l-174 -328h333l-205 -401z" />
    <glyph glyph-name="uni03E0" unicode="&#x3e0;" horiz-adv-x="642" 
d="M429 -74l-37 49q160 113 172 276v2l-423 -252l-26 59l440 265q-10 51 -41 89l-476 -286l-30 60l449 266q-26 17 -67 28.5t-78 11.5q-81 0 -179 -49l-28 51q103 66 221 66q141 0 224.5 -81.5t83.5 -201.5q0 -109 -67 -210.5t-138 -142.5z" />
    <glyph glyph-name="uni03E1" unicode="&#x3e1;" horiz-adv-x="642" 
d="M429 -74l-37 49q160 113 172 276v2l-423 -252l-26 59l440 265q-10 51 -41 89l-476 -286l-30 60l449 266q-26 17 -67 28.5t-78 11.5q-81 0 -179 -49l-28 51q103 66 221 66q141 0 224.5 -81.5t83.5 -201.5q0 -109 -67 -210.5t-138 -142.5z" />
    <glyph glyph-name="uni0400" unicode="&#x400;" horiz-adv-x="566" 
d="M66 0l75 707h393l-7 -65h-313l-27 -254h292l-7 -66h-291l-28 -257h337l-6 -65h-418zM423 736l-220 65l27 72l211 -82z" />
    <glyph glyph-name="afii10023" unicode="&#x401;" horiz-adv-x="566" 
d="M242 750l-49 58l61 57l51 -57zM448 750l-50 58l62 57l51 -57zM66 0l75 707h393l-7 -65h-313l-27 -254h292l-7 -66h-291l-28 -257h337l-6 -65h-418z" />
    <glyph glyph-name="afii10051" unicode="&#x402;" horiz-adv-x="732" 
d="M383 -220l-41 56q73 56 110 95q139 144 139 303q0 133 -126 133q-91 0 -182 -47l-34 -320h-79l66 640h-205l8 67h537l-8 -67h-252l-26 -249q115 42 201 42q93 0 138 -52.5t45 -142.5q0 -74 -25 -144t-69 -127.5t-92 -102.5t-105 -84z" />
    <glyph glyph-name="afii10052" unicode="&#x403;" horiz-adv-x="523" 
d="M258 737l-16 54l229 80l19 -70zM66 0l75 707h405l-7 -67h-325l-68 -640h-80z" />
    <glyph glyph-name="afii10053" unicode="&#x404;" horiz-adv-x="596" 
d="M365 -10q-146 0 -232 85.5t-86 234.5q0 183 104.5 293t286.5 110q100 0 165 -28l-28 -63q-64 23 -142 23q-126 0 -202.5 -69t-95.5 -187h379l-6 -67h-379q1 -2 1 -10.5t1 -10.5q4 -116 73 -178t188 -62q86 0 152 21l15 -66q-82 -26 -194 -26z" />
    <glyph glyph-name="afii10054" unicode="&#x405;" horiz-adv-x="482" 
d="M186 -11q-48 0 -105 14t-91 34l31 67q96 -45 171 -45q167 0 167 134q0 31 -21.5 57.5t-54 45.5l-70.5 43t-70.5 48t-54 62.5t-21.5 85.5q0 86 64.5 132t160.5 46q107 0 179 -39l-27 -62q-75 33 -155 33q-144 0 -144 -108q0 -36 30 -67.5t73 -57l86 -53.5t73 -70.5
t30 -93.5q0 -100 -71.5 -153t-179.5 -53z" />
    <glyph glyph-name="afii10055" unicode="&#x406;" horiz-adv-x="287" 
d="M66 0l75 707h79l-74 -707h-80z" />
    <glyph glyph-name="afii10056" unicode="&#x407;" horiz-adv-x="287" 
d="M66 0l75 707h79l-74 -707h-80zM84 750l-49 58l61 57l51 -57zM290 750l-50 58l62 57l51 -57z" />
    <glyph glyph-name="afii10057" unicode="&#x408;" horiz-adv-x="288" 
d="M-59 -187l-28 59q92 48 127.5 108.5t46.5 170.5l59 556h79l-58 -554q-13 -129 -63 -210.5t-163 -129.5z" />
    <glyph glyph-name="afii10058" unicode="&#x409;" horiz-adv-x="961" 
d="M11 -22l-32 73q94 42 133 109q63 102 131 547h368l-67 -642q2 -1 120 -1q81 0 129 40t54 115q7 78 -37.5 111t-127.5 33h-42l6 67h48q121 0 183 -53.5t54 -158.5q-7 -104 -79.5 -161t-183.5 -57h-210l66 641h-215q-6 -30 -17 -89.5l-16 -86t-15 -74t-15.5 -71.5t-15 -60
t-17 -57.5t-17.5 -45t-21 -41.5q-57 -92 -164 -138z" />
    <glyph glyph-name="afii10059" unicode="&#x40a;" horiz-adv-x="975" 
d="M66 0l75 707h79l-31 -298h335l31 298h79l-67 -642q2 -1 119 -1q77 0 122.5 37t51.5 107q7 74 -35 104t-123 30h-41l7 67h45q119 0 180 -51t52 -151q-7 -98 -77 -152.5t-177 -54.5h-210l36 343h-334l-37 -343h-80z" />
    <glyph glyph-name="afii10060" unicode="&#x40b;" horiz-adv-x="746" 
d="M169 0l67 640h-205l8 67h536l-7 -67h-252l-25 -249q107 43 204 43q186 0 186 -160q0 -11 -2 -33l-26 -241h-79l26 246q3 32 -5 55.5t-22.5 36t-36.5 19.5t-39.5 9t-39.5 2q-82 0 -174 -48l-35 -320h-79z" />
    <glyph glyph-name="afii10061" unicode="&#x40c;" horiz-adv-x="600" 
d="M281 737l-16 54l229 80l19 -70zM483 -25l-273 390l2 19l306 323h100l-318 -327l255 -363zM66 0l75 707h79l-74 -707h-80z" />
    <glyph glyph-name="uni040D" unicode="&#x40d;" horiz-adv-x="765" 
d="M66 0l75 707h80l-52 -489l-14 -106l71 105l393 490h80l-74 -707h-80l51 489l14 106l-49 -70l-415 -525h-80zM505 736l-220 65l27 72l211 -82z" />
    <glyph glyph-name="afii10062" unicode="&#x40e;" horiz-adv-x="565" 
d="M319 756q-109 0 -162 84l48 43q42 -59 121 -59q76 0 131 59l41 -43q-70 -84 -179 -84zM122 -9l-25 71q54 17 88.5 43t64.5 83l18 32h-38l-189 487h88l167 -434l213 434h88l-275 -527q-49 -94 -89 -128.5t-111 -60.5z" />
    <glyph glyph-name="afii10145" unicode="&#x40f;" horiz-adv-x="746" 
d="M274 -153l16 153h-224l74 707h80l-66 -641h362l67 641h79l-73 -707h-222l-15 -153h-78z" />
    <glyph glyph-name="afii10017" unicode="&#x410;" horiz-adv-x="622" 
d="M-39 0l352 707h118l148 -707h-82l-53 266h-270l-131 -266h-82zM206 330h225l-54 276l-10 60l-28 -61z" />
    <glyph glyph-name="afii10018" unicode="&#x411;" horiz-adv-x="622" 
d="M66 0l74 707h416l-7 -67h-337l-59 -575q2 -1 127 -1q82 0 130.5 39t54.5 114q7 77 -38 109.5t-129 32.5h-54l7 66h59q122 0 185 -52t54 -157q-7 -103 -80.5 -159.5t-184.5 -56.5h-218z" />
    <glyph glyph-name="afii10019" unicode="&#x412;" horiz-adv-x="611" 
d="M66 0l75 707h192q202 0 202 -157q0 -59 -31 -108t-86 -64l1 -3q58 -7 94 -49t36 -101q0 -114 -70.5 -169.5t-189.5 -55.5h-223zM154 66h123q44 0 76 6.5t59 22t41 46.5t14 77q0 33 -14 56t-31.5 34t-49 17t-51.5 7t-54 1h-85zM189 396h99q81 0 121.5 33t40.5 113
q0 27 -8 46.5t-20.5 30t-33 17t-39 8t-44.5 1.5h-90z" />
    <glyph glyph-name="afii10020" unicode="&#x413;" horiz-adv-x="523" 
d="M66 0l75 707h405l-7 -67h-325l-68 -640h-80z" />
    <glyph glyph-name="afii10021" unicode="&#x414;" horiz-adv-x="718" 
d="M-29 -153l23 219h59q56 88 102 191q18 41 50.5 169t56.5 281h364l-67 -641h90l-22 -219h-78l15 153h-501l-15 -153h-77zM143 66h336l59 574h-212q-44 -244 -94 -389q-32 -83 -89 -185z" />
    <glyph glyph-name="afii10022" unicode="&#x415;" horiz-adv-x="566" 
d="M66 0l75 707h393l-7 -65h-313l-27 -254h292l-7 -66h-291l-28 -257h337l-6 -65h-418z" />
    <glyph glyph-name="afii10024" unicode="&#x416;" horiz-adv-x="865" 
d="M49 -24l-73 43l307 365l-216 323h90l210 -326l-2 -20zM745 -24l-247 385l2 19l278 327h100l-293 -329l233 -359zM354 0l74 707h79l-73 -707h-80z" />
    <glyph glyph-name="afii10025" unicode="&#x417;" horiz-adv-x="520" 
d="M186 -9q-114 0 -195 44l31 65q78 -39 168 -39q74 0 123 32.5t56 103.5q6 67 -39.5 96.5t-128.5 29.5h-69l7 66h69q70 0 115 35t51 98q5 60 -28 92t-97 32q-60 0 -149 -32l-19 58q88 40 183 40q98 0 148 -48.5t44 -125.5q-4 -40 -19.5 -73t-37 -53.5t-37.5 -32t-32 -18.5
v-2q131 -38 120 -160q-6 -85 -71.5 -146.5t-192.5 -61.5z" />
    <glyph glyph-name="afii10026" unicode="&#x418;" horiz-adv-x="765" 
d="M66 0l75 707h80l-52 -489l-14 -106l71 105l393 490h80l-74 -707h-80l51 489l14 106l-49 -70l-415 -525h-80z" />
    <glyph glyph-name="afii10027" unicode="&#x419;" horiz-adv-x="765" 
d="M66 0l75 707h80l-52 -489l-14 -106l71 105l393 490h80l-74 -707h-80l51 489l14 106l-49 -70l-415 -525h-80zM429 756q-109 0 -162 84l48 43q42 -59 121 -59q76 0 131 59l41 -43q-70 -84 -179 -84z" />
    <glyph glyph-name="afii10028" unicode="&#x41a;" horiz-adv-x="600" 
d="M483 -25l-273 390l2 19l306 323h100l-318 -327l255 -363zM66 0l75 707h79l-74 -707h-80z" />
    <glyph glyph-name="afii10029" unicode="&#x41b;" horiz-adv-x="678" 
d="M11 -22l-32 73q94 42 133 109q63 102 131 547h368l-73 -707h-80l66 641h-215q-6 -30 -17 -89.5l-16 -86t-15 -74t-15.5 -71.5t-15 -60t-17 -57.5t-17.5 -45t-21 -41.5q-57 -92 -164 -138z" />
    <glyph glyph-name="afii10030" unicode="&#x41c;" horiz-adv-x="876" 
d="M-16 0l230 707h107l53 -661l296 661h106l-19 -707h-79l24 610l-272 -610h-126l-50 612l-192 -612h-78z" />
    <glyph glyph-name="afii10031" unicode="&#x41d;" horiz-adv-x="747" 
d="M66 0l75 707h79l-33 -320h380l33 321h80l-74 -708h-80l35 322h-380l-35 -322h-80z" />
    <glyph glyph-name="afii10032" unicode="&#x41e;" horiz-adv-x="784" 
d="M346 -11q-143 0 -221 85.5t-78 232.5q0 184 104.5 297.5t285.5 113.5q144 0 223 -85.5t79 -232.5q0 -184 -105.5 -297.5t-287.5 -113.5zM356 55q143 0 221 97t78 245q0 116 -59 184.5t-171 68.5q-141 0 -219 -95.5t-78 -242.5q0 -116 58 -186.5t170 -70.5z" />
    <glyph glyph-name="afii10033" unicode="&#x41f;" horiz-adv-x="736" 
d="M66 0l75 708h529l-74 -708h-80l68 640h-371l-67 -640h-80z" />
    <glyph glyph-name="afii10034" unicode="&#x420;" horiz-adv-x="566" 
d="M65 0l75 707h229q95 0 151 -48.5t56 -141.5q0 -130 -86.5 -194t-220.5 -63q-20 0 -22 1l8 65q53 0 93 8.5t74 28t51.5 57t17.5 90.5q0 133 -150 133h-128l-67 -643h-81z" />
    <glyph glyph-name="afii10035" unicode="&#x421;" horiz-adv-x="596" 
d="M365 -10q-146 0 -232 85.5t-86 234.5q0 183 104.5 293t286.5 110q100 0 165 -28l-28 -63q-64 23 -142 23q-145 0 -224.5 -90.5t-79.5 -239.5q0 -122 70.5 -188t192.5 -66q86 0 152 21l15 -66q-82 -26 -194 -26z" />
    <glyph glyph-name="afii10036" unicode="&#x422;" horiz-adv-x="553" 
d="M206 0l67 640h-242l8 67h563l-8 -67h-241l-68 -640h-79z" />
    <glyph glyph-name="afii10037" unicode="&#x423;" horiz-adv-x="565" 
d="M122 -9l-25 71q54 17 88.5 43t64.5 83l18 32h-38l-189 487h88l167 -434l213 434h88l-275 -527q-49 -94 -89 -128.5t-111 -60.5z" />
    <glyph glyph-name="afii10038" unicode="&#x424;" horiz-adv-x="795" 
d="M320 0l9 85q-132 0 -209 66t-74 196q3 151 97.5 232.5t243.5 81.5l8 76h80l-8 -76q133 0 209 -66t73 -197q-3 -150 -97 -231.5t-244 -81.5l-9 -85h-79zM335 151l46 444q-116 0 -185 -64t-71 -178q-1 -98 54 -150t156 -52zM415 151q115 0 184 64t70 179q2 98 -53 149.5
t-156 51.5z" />
    <glyph glyph-name="afii10039" unicode="&#x425;" horiz-adv-x="568" 
d="M-46 0l290 373l-163 334h88l128 -273l202 273h87l-257 -333l185 -374h-89l-148 309l-231 -309h-92z" />
    <glyph glyph-name="afii10040" unicode="&#x426;" horiz-adv-x="754" 
d="M585 -153l16 153h-535l74 707h80l-66 -641h362l67 641h79l-67 -641h91l-23 -219h-78z" />
    <glyph glyph-name="afii10041" unicode="&#x427;" horiz-adv-x="648" 
d="M428 0l34 324q-99 -42 -198 -42q-194 0 -194 159q0 11 2 33l24 233h80l-25 -238q-4 -39 8 -65.5t36.5 -38t45 -15t45.5 -3.5q92 0 183 48l32 312h80l-73 -707h-80z" />
    <glyph glyph-name="afii10042" unicode="&#x428;" horiz-adv-x="987" 
d="M66 0l74 707h80l-66 -641h270l67 641h80l-67 -641h271l66 641h80l-73 -707h-782z" />
    <glyph glyph-name="afii10043" unicode="&#x429;" horiz-adv-x="1013" 
d="M844 -153l16 153h-794l74 707h80l-66 -641h270l67 641h80l-67 -641h271l66 641h80l-67 -641h91l-23 -219h-78z" />
    <glyph glyph-name="afii10044" unicode="&#x42a;" horiz-adv-x="655" 
d="M153 0l66 640h-191l7 67h271l-67 -642q2 -1 120 -1q81 0 129 40t54 115q7 78 -37.5 111t-127.5 33h-45l7 67h50q121 0 183 -53.5t54 -158.5q-7 -104 -79.5 -161t-183.5 -57h-210z" />
    <glyph glyph-name="afii10045" unicode="&#x42b;" horiz-adv-x="844" 
d="M66 0l74 707h79l-67 -642q2 -1 121 -1q81 0 128.5 40t53.5 115q7 78 -37.5 111t-127.5 33h-47l7 67h52q121 0 183 -53.5t54 -158.5q-7 -104 -79.5 -161t-183.5 -57h-210zM624 0l75 707h79l-74 -707h-80z" />
    <glyph glyph-name="afii10046" unicode="&#x42c;" horiz-adv-x="569" 
d="M66 0l74 707h79l-67 -642q2 -1 121 -1q81 0 128.5 40t53.5 115q7 78 -37.5 111t-127.5 33h-49l6 67h55q121 0 183 -53.5t54 -158.5q-7 -104 -79.5 -161t-183.5 -57h-210z" />
    <glyph glyph-name="afii10047" unicode="&#x42d;" horiz-adv-x="629" 
d="M185 -10q-134 0 -194 33l26 62q77 -28 162 -28q122 0 208 66.5t107 199.5h-365l7 66h364q2 69 -17 120t-53.5 80.5t-78 43.5t-96.5 14q-97 0 -176 -31l-18 63q82 36 203 36q154 0 237 -80t83 -222q0 -13 -2 -43q-12 -167 -118.5 -273.5t-278.5 -106.5z" />
    <glyph glyph-name="afii10048" unicode="&#x42e;" horiz-adv-x="1057" 
d="M618 -11q-138 0 -215.5 81.5t-82.5 221.5q0 2 -0.5 15t-0.5 15h-138l-35 -322h-80l75 707h79l-33 -320h138q21 151 122.5 241t261.5 90q144 0 223 -85.5t79 -232.5q0 -184 -105.5 -297.5t-287.5 -113.5zM629 55q143 0 221 97t78 245q0 116 -59 184.5t-171 68.5
q-141 0 -219.5 -95.5t-78.5 -242.5q0 -116 58 -186.5t171 -70.5z" />
    <glyph glyph-name="afii10049" unicode="&#x42f;" horiz-adv-x="637" 
d="M64 -22l-71 39l236 287q-63 18 -96.5 61.5t-33.5 105.5q0 110 72 173t175 63h225l-72 -707h-81l29 286h-95q-29 0 -39 1zM352 350h102l30 293h-123q-82 0 -130 -46t-48 -121q0 -67 43 -96.5t126 -29.5z" />
    <glyph glyph-name="afii10065" unicode="&#x430;" 
d="M149 -13q-55 0 -82.5 44.5t-27.5 118.5q0 68 22.5 138t62.5 129t103 96.5t137 37.5q53 0 99 -8l-56 -543h-76l11 99q-63 -57 -108.5 -84.5t-84.5 -27.5zM168 59q31 0 86.5 40t94.5 77l33 307q-8 2 -34 2q-70 0 -125 -54t-81 -127t-26 -146q0 -44 13 -71.5t39 -27.5z" />
    <glyph glyph-name="afii10066" unicode="&#x431;" horiz-adv-x="514" 
d="M203 -8q-72 0 -114 47t-42 127q0 143 37.5 282.5t97.5 212.5q50 61 307 110l14 -71q-16 -4 -63.5 -13t-79.5 -16t-69.5 -21.5t-56.5 -32.5q-42 -43 -77 -182l60 37t61 27t74 14q121 0 121 -161q0 -91 -32 -172.5t-95 -134.5t-143 -53zM217 57q58 0 100 48.5t60 112.5
t18 131q0 57 -16.5 77.5t-50.5 20.5q-65 0 -184 -82q-18 -105 -18 -186q0 -122 91 -122z" />
    <glyph glyph-name="afii10067" unicode="&#x432;" horiz-adv-x="487" 
d="M216 -12q-93 0 -133.5 48.5t-40.5 119.5q0 105 30.5 195.5t95 150t149.5 59.5q66 0 97 -34t31 -82q0 -92 -101 -138q92 -33 92 -125q0 -81 -60 -137.5t-160 -56.5zM217 53q68 0 105.5 36t37.5 86q0 43 -24 68t-63 33l-150 -52q-4 -20 -4 -48q0 -60 22.5 -91.5t75.5 -31.5
zM129 290l119 40q67 25 94 49.5t27 54.5t-18.5 46t-48.5 16q-71 0 -114.5 -60.5t-58.5 -145.5z" />
    <glyph glyph-name="afii10068" unicode="&#x433;" horiz-adv-x="421" 
d="M163 -9q-58 0 -94.5 30.5t-36.5 86.5q0 31 12 58t38.5 52.5t46 41t57.5 41.5q85 58 106 83q23 27 23 52q0 56 -64 56q-25 0 -53 -10.5t-44 -20t-45 -28.5l-31 55q87 68 192 68q52 0 85 -28.5t33 -85.5q0 -30 -11 -55.5t-36.5 -50.5t-43 -39t-54.5 -40q-9 -7 -14 -10
q-43 -30 -63 -45.5t-40 -39.5t-20 -45q0 -60 67 -60q57 0 168 76l33 -55q-43 -35 -101.5 -61t-109.5 -26z" />
    <glyph glyph-name="afii10069" unicode="&#x434;" horiz-adv-x="517" 
d="M203 -12q-73 0 -117 54.5t-44 136.5q0 167 67 250.5t164 83.5q56 0 125 -53q-3 108 -34.5 164.5t-102.5 56.5q-45 0 -114 -20l-11 63q80 25 147 25q192 0 192 -297q0 -52 -5.5 -106t-23.5 -120.5t-46.5 -117.5t-79.5 -85.5t-117 -34.5zM218 53q70 0 121 96.5t54 238.5
q-21 23 -57.5 40.5t-62.5 17.5q-71 0 -112 -63.5t-41 -183.5q0 -146 98 -146z" />
    <glyph glyph-name="afii10070" unicode="&#x435;" horiz-adv-x="446" 
d="M169 -12q-128 0 -128 204q0 156 69.5 262.5t192.5 106.5q69 0 103.5 -35.5t34.5 -89.5q0 -94 -143 -146l-178 -66q-1 -9 -1 -27q0 -141 64 -141q65 0 171 55l27 -57q-38 -21 -62.5 -32.5t-66 -22.5t-83.5 -11zM127 291l158 62q81 32 81 80q0 33 -19 48t-47 15
q-75 0 -116.5 -58.5t-56.5 -146.5z" />
    <glyph glyph-name="afii10072" unicode="&#x436;" horiz-adv-x="724" 
d="M61 -14l-79 25l240 285l-165 250h89l158 -261zM295 0l57 546h76l-57 -546h-76zM612 -14l-189 299l209 261h91l-213 -257l179 -278z" />
    <glyph glyph-name="afii10073" unicode="&#x437;" horiz-adv-x="419" 
d="M153 -9q-84 0 -151 26l21 62q63 -22 120 -22q72 0 108 29t36 73q0 92 -149 95l-7 53q71 16 117 50.5t46 76.5q0 55 -100 55q-57 0 -109 -15l-16 59q56 23 137 23q77 0 120.5 -28.5t43.5 -82.5q0 -47 -34.5 -87t-91.5 -64q116 -24 116 -132q0 -74 -56.5 -122.5
t-150.5 -48.5z" />
    <glyph glyph-name="afii10074" unicode="&#x438;" horiz-adv-x="549" 
d="M175 -11q-56 0 -80 26t-24 85q0 22 3 49l43 397h76l-42 -378q-3 -32 -3 -52q0 -34 10.5 -47.5t36.5 -13.5q70 0 175 103l42 388h76l-58 -546h-76l9 90q-50 -50 -93 -75.5t-95 -25.5z" />
    <glyph glyph-name="afii10075" unicode="&#x439;" horiz-adv-x="549" 
d="M175 -11q-56 0 -80 26t-24 85q0 22 3 49l43 397h76l-42 -378q-3 -32 -3 -52q0 -34 10.5 -47.5t36.5 -13.5q70 0 175 103l42 388h76l-58 -546h-76l9 90q-50 -50 -93 -75.5t-95 -25.5zM288 652q-28 0 -59 27t-55 68l60 40q47 -69 74 -69q64 0 150 70l29 -36
q-48 -44 -102 -72t-97 -28z" />
    <glyph glyph-name="afii10076" unicode="&#x43a;" horiz-adv-x="491" 
d="M379 -14l-190 300l210 260h90l-212 -257l179 -278zM61 0l57 546h77l-58 -546h-76z" />
    <glyph glyph-name="afii10077" unicode="&#x43b;" horiz-adv-x="437" 
d="M3 0q0 2 -0.5 9t-0.5 9q0 75 49 175l182 353h126l20 -546h-80l-7 476h-22l-146 -291q-45 -93 -45 -167q0 -2 0.5 -9t0.5 -9h-77z" />
    <glyph glyph-name="afii10078" unicode="&#x43c;" horiz-adv-x="717" 
d="M15 0q-1 3 -1 18q0 74 35 175l122 353h116l34 -470l214 470h124l-57 -546h-76l51 492l-225 -492h-98l-33 492l-98 -307q-31 -93 -31 -167v-18h-77z" />
    <glyph glyph-name="afii10079" unicode="&#x43d;" horiz-adv-x="553" 
d="M61 0l59 546h76l-26 -237l221 18l24 219h76l-59 -546h-75l27 256l-221 -17l-26 -239h-76z" />
    <glyph glyph-name="afii10080" unicode="&#x43e;" horiz-adv-x="511" 
d="M202 -12q-74 0 -117 55t-43 137q0 173 74.5 276.5t196.5 103.5q75 0 116.5 -55.5t41.5 -131.5q0 -54 -8.5 -106.5t-29 -103.5t-50.5 -89.5t-77 -62t-104 -23.5zM220 54q71 0 122 86.5t51 217.5q0 72 -24 105t-79 33q-69 0 -119 -88t-50 -213q0 -141 99 -141z" />
    <glyph glyph-name="afii10081" unicode="&#x43f;" horiz-adv-x="552" 
d="M61 0l58 546h76l-9 -90q44 37 64.5 52.5t59 33.5t74.5 18q53 0 74 -24.5t21 -79.5q0 -31 -4 -62l-42 -394h-76l41 378q4 42 4 53q0 31 -10 44t-34 13q-58 0 -179 -101l-42 -387h-76z" />
    <glyph glyph-name="afii10082" unicode="&#x440;" horiz-adv-x="537" 
d="M38 -220l82 766h75l-7 -76q105 78 189 78q122 0 122 -160q0 -68 -17.5 -135.5t-51 -127t-92 -96.5t-132.5 -37q-32 0 -69 7l-23 -219h-76zM213 56q46 0 83 23t60 58.5t38.5 81.5t21.5 88t6 82q0 53 -16.5 73t-47.5 20q-61 0 -178 -78l-36 -338q56 -10 69 -10z" />
    <glyph glyph-name="afii10083" unicode="&#x441;" horiz-adv-x="440" 
d="M171 -12q-47 0 -77.5 32.5t-41 74t-10.5 89.5q0 160 72 268t196 108q77 0 128 -49l-42 -48q-43 33 -91 33q-51 0 -89 -30t-57 -78t-28 -95.5t-9 -94.5q0 -66 16.5 -103.5t39.5 -37.5q72 0 182 57l27 -54q-36 -22 -59.5 -34t-68 -25t-88.5 -13z" />
    <glyph glyph-name="afii10084" unicode="&#x442;" horiz-adv-x="826" 
d="M61 0l58 546h76l-9 -89q75 64 115 83q40 20 76 20q51 0 72.5 -23t20.5 -72q53 45 98 70t92 25q51 0 72 -25t21 -80q0 -15 -4 -61l-43 -394h-75l41 378q4 44 4 55q0 32 -10.5 44t-36.5 12q-32 0 -68 -22.5t-96 -72.5l-42 -394h-76l41 378q4 44 4 55q0 31 -10 42.5
t-36 11.5q-52 0 -167 -100l-42 -387h-76z" />
    <glyph glyph-name="afii10085" unicode="&#x443;" horiz-adv-x="465" 
d="M60 -220l108 220h-41l-86 546h83l69 -492l148 307q45 93 45 166q0 7 -2 19h79q1 -6 1 -19q0 -75 -47 -174l-277 -573h-80z" />
    <glyph glyph-name="afii10086" unicode="&#x444;" horiz-adv-x="679" 
d="M250 -220l22 208q-109 1 -169.5 57.5t-60.5 146.5q0 173 72.5 269.5t217.5 97.5l21 195h77l-21 -195q109 -1 169.5 -57.5t60.5 -146.5q0 -173 -73 -269.5t-218 -97.5l-22 -208h-76zM279 54l46 442q-100 0 -152 -78.5t-52 -207.5q0 -32 6.5 -57.5t22.5 -49t48.5 -36.5
t80.5 -13zM354 52q101 0 153.5 78.5t52.5 207.5q0 68 -33.5 110.5t-124.5 45.5z" />
    <glyph glyph-name="afii10087" unicode="&#x445;" horiz-adv-x="441" 
d="M-39 0l217 291l-114 255h82l82 -192l139 192h82l-191 -257l126 -289h-83l-93 224l-163 -224h-84z" />
    <glyph glyph-name="afii10088" unicode="&#x446;" horiz-adv-x="575" 
d="M434 -137l14 137q-57 0 -72.5 22t-12.5 68q-104 -101 -188 -101q-56 0 -80 26t-24 85q0 22 3 49l43 397h76l-42 -378q-4 -44 -4 -55q0 -32 10.5 -45t37.5 -13q29 0 69 23t56.5 36.5t49.5 43.5l42 388h76l-45 -419q-5 -40 3.5 -51.5t44.5 -12.5h38l-21 -200h-74z" />
    <glyph glyph-name="afii10089" unicode="&#x447;" horiz-adv-x="504" 
d="M311 0l29 275q-101 -87 -184 -87q-53 0 -73.5 22t-20.5 73q0 26 5 73l19 190h76l-19 -178q-5 -45 -5 -65q0 -27 10 -36.5t37 -9.5q36 0 162 86l20 203h75l-56 -546h-75z" />
    <glyph glyph-name="afii10090" unicode="&#x448;" horiz-adv-x="792" 
d="M166 -14q-52 0 -73 21.5t-21 68.5q0 25 7 76l58 394h75l-56 -378q-6 -58 -6 -68q0 -24 9 -33.5t33 -9.5q8 0 18.5 3t20 7.5t22 12.5t21 14t21.5 16.5l18.5 15l18 15t13.5 11.5l51 394h76l-50 -378q-6 -45 -6 -69q0 -23 8.5 -31.5t31.5 -8.5q39 0 157 100l41 387h76
l-57 -546h-77l10 89q-5 -4 -25 -22.5t-33.5 -29t-34 -24t-41 -20.5t-40.5 -7q-55 0 -74 22t-18 73q-1 -1 -17.5 -15t-22.5 -18.5l-22 -17t-26.5 -18l-26 -13t-30 -10.5t-29.5 -3z" />
    <glyph glyph-name="afii10091" unicode="&#x449;" horiz-adv-x="818" 
d="M677 -137l14 137q-57 0 -72.5 22t-12.5 67q-5 -4 -25 -22.5t-33.5 -29t-34 -24t-41 -20.5t-40.5 -7q-55 0 -74 22t-18 73q-1 -1 -17.5 -15t-22.5 -18.5l-22 -17t-26.5 -18l-26 -13t-30 -10.5t-29.5 -3q-52 0 -73 21.5t-21 68.5q0 25 7 76l58 394h75l-56 -378
q-6 -58 -6 -68q0 -24 9 -33.5t33 -9.5q8 0 18.5 3t20 7.5t22 12.5t21 14t21.5 16.5l18.5 15l18 15t13.5 11.5l51 394h76l-50 -378q-6 -45 -6 -69q0 -23 8.5 -31.5t31.5 -8.5q39 0 157 100l41 387h76l-44 -419q-4 -41 4.5 -52t46.5 -12h35l-21 -200h-74z" />
    <glyph glyph-name="afii10092" unicode="&#x44a;" horiz-adv-x="502" 
d="M226 -8q-58 0 -98 33.5t-40 108.5q0 90 35 171t104 175h-199l7 66h289l14 -34q-94 -104 -130 -195q89 67 152 67q102 0 102 -123q0 -118 -70.5 -193.5t-165.5 -75.5zM240 55q57 0 101 53t44 148q0 62 -50 62q-61 0 -151 -72q-18 -57 -18 -109q0 -82 74 -82z" />
    <glyph glyph-name="afii10093" unicode="&#x44b;" horiz-adv-x="680" 
d="M197 -8q-75 0 -143 26l80 528h76l-34 -235q33 24 52 36t51 24.5t60 12.5q103 0 103 -123q0 -117 -71 -193t-174 -76zM207 56q64 0 110.5 52t46.5 148q0 62 -51 62q-22 0 -51.5 -14t-45 -24t-50.5 -35l-27 -177q26 -12 68 -12zM486 0l57 546h76l-57 -546h-76z" />
    <glyph glyph-name="afii10094" unicode="&#x44c;" horiz-adv-x="482" 
d="M197 -8q-75 0 -143 26l80 528h76l-34 -235q33 24 52 36t51 24.5t60 12.5q103 0 103 -123q0 -117 -71 -193t-174 -76zM207 56q64 0 110.5 52t46.5 148q0 62 -51 62q-22 0 -51.5 -14t-45 -24t-50.5 -35l-27 -177q26 -12 68 -12z" />
    <glyph glyph-name="afii10095" unicode="&#x44d;" horiz-adv-x="432" 
d="M123 -12q-72 0 -122 46l33 55q55 -36 104 -36q57 0 101.5 53.5t62.5 140.5h-170l5 61h174q3 23 3 49q0 72 -18.5 105t-67.5 33q-56 0 -133 -34l-23 51q81 48 169 48q79 0 115 -52.5t36 -132.5q0 -73 -15.5 -139.5t-46.5 -123t-84.5 -90.5t-122.5 -34z" />
    <glyph glyph-name="afii10096" unicode="&#x44e;" horiz-adv-x="737" 
d="M428 -12q-75 0 -118 55.5t-43 136.5q0 40 4 68l-108 -9l-26 -239h-76l59 546h76l-26 -237l112 9q27 114 95 178t162 64q75 0 116.5 -55.5t41.5 -131.5q0 -54 -8.5 -106.5t-29 -103.5t-50.5 -89.5t-77 -62t-104 -23.5zM446 54q71 0 122 86.5t51 217.5q0 72 -24 105t-79 33
q-69 0 -119 -88t-50 -213q0 -141 99 -141z" />
    <glyph glyph-name="afii10097" unicode="&#x44f;" horiz-adv-x="500" 
d="M79 -14l-79 25l192 211q-41 11 -77 44.5t-36 90.5q0 28 8 56.5t30 63.5t72 57t122 22q70 0 128 -21l-55 -535h-76l52 485q-26 7 -62 7q-63 0 -103.5 -32t-40.5 -97q0 -88 147 -115z" />
    <glyph glyph-name="uni0450" unicode="&#x450;" horiz-adv-x="446" 
d="M169 -12q-128 0 -128 204q0 156 69.5 262.5t192.5 106.5q69 0 103.5 -35.5t34.5 -89.5q0 -94 -143 -146l-178 -66q-1 -9 -1 -27q0 -141 64 -141q65 0 171 55l27 -57q-38 -21 -62.5 -32.5t-66 -22.5t-83.5 -11zM127 291l158 62q81 32 81 80q0 33 -19 48t-47 15
q-75 0 -116.5 -58.5t-56.5 -146.5zM343 613l-189 121l39 62l183 -131z" />
    <glyph glyph-name="afii10071" unicode="&#x451;" horiz-adv-x="446" 
d="M203 657l-52 57l63 57l52 -57zM398 657l-50 57l62 57l52 -57zM169 -12q-128 0 -128 204q0 156 69.5 262.5t192.5 106.5q69 0 103.5 -35.5t34.5 -89.5q0 -94 -143 -146l-178 -66q-1 -9 -1 -27q0 -141 64 -141q65 0 171 55l27 -57q-38 -21 -62.5 -32.5t-66 -22.5t-83.5 -11
zM127 291l158 62q81 32 81 80q0 33 -19 48t-47 15q-75 0 -116.5 -58.5t-56.5 -146.5z" />
    <glyph glyph-name="afii10099" unicode="&#x452;" horiz-adv-x="542" 
d="M283 -220l-55 45q72 82 124 216t52 256q0 62 -11.5 86.5t-45.5 24.5q-20 0 -54.5 -19.5t-76.5 -50.5t-43 -32l-32 -306h-76l60 575h-91l6 63h92l13 117h76l-13 -117h190l-7 -63h-190l-21 -200q1 1 14 11.5t18.5 14.5l19.5 14.5t22.5 16l23 14.5t26 13.5t25.5 9.5t27 7.5
t26 2.5q55 0 78.5 -40.5t23.5 -120.5q0 -146 -57.5 -289t-143.5 -249z" />
    <glyph glyph-name="afii10100" unicode="&#x453;" horiz-adv-x="421" 
d="M219 615l-31 52l196 137l37 -62zM163 -9q-58 0 -94.5 30.5t-36.5 86.5q0 31 12 58t38.5 52.5t46 41t57.5 41.5q85 58 106 83q23 27 23 52q0 56 -64 56q-25 0 -53 -10.5t-44 -20t-45 -28.5l-31 55q87 68 192 68q52 0 85 -28.5t33 -85.5q0 -30 -11 -55.5t-36.5 -50.5
t-43 -39t-54.5 -40q-9 -7 -14 -10q-43 -30 -63 -45.5t-40 -39.5t-20 -45q0 -60 67 -60q57 0 168 76l33 -55q-43 -35 -101.5 -61t-109.5 -26z" />
    <glyph glyph-name="afii10101" unicode="&#x454;" horiz-adv-x="440" 
d="M171 -12q-47 0 -77.5 32.5t-41 74t-10.5 89.5q0 160 72 268t196 108q77 0 128 -49l-42 -48q-43 33 -91 33q-125 0 -169 -178h198l-7 -62h-202q-3 -21 -3 -58q0 -66 16.5 -103.5t39.5 -37.5q72 0 182 57l27 -54q-36 -22 -59.5 -34t-68 -25t-88.5 -13z" />
    <glyph glyph-name="afii10102" unicode="&#x455;" horiz-adv-x="429" 
d="M170 -9q-92 0 -149 25l22 66q70 -25 133 -25q26 0 50.5 5t48 24.5t23.5 50.5q0 29 -22 55t-53 46.5l-62 43t-53 54.5t-22 71q0 78 51 113.5t129 35.5q81 0 141 -30l-23 -59q-70 26 -129 26q-40 0 -68 -18t-28 -57q0 -29 22 -55t53 -47l62 -43.5t53 -57t22 -75.5
q0 -54 -32.5 -89t-75 -47.5t-93.5 -12.5z" />
    <glyph glyph-name="afii10103" unicode="&#x456;" horiz-adv-x="267" 
d="M61 0l57 546h76l-57 -546h-76zM166 653l-58 63l71 62l60 -62z" />
    <glyph glyph-name="afii10104" unicode="&#x457;" horiz-adv-x="267" 
d="M70 657l-52 57l63 57l52 -57zM265 657l-50 57l62 57l52 -57zM61 0l57 546h76l-57 -546h-76z" />
    <glyph glyph-name="afii10105" unicode="&#x458;" horiz-adv-x="267" 
d="M-61 -220q-40 0 -74 13l18 65q38 -11 65 -11q58 0 81 33.5t31 102.5l59 563h76l-59 -564q-12 -111 -62.5 -156.5t-134.5 -45.5zM166 653l-58 63l71 62l60 -62z" />
    <glyph glyph-name="afii10106" unicode="&#x459;" horiz-adv-x="666" 
d="M399 -8q-46 0 -102 14l-23 476h-11l-138 -297q-45 -97 -45 -167q0 -15 1 -18h-78q0 2 -0.5 9t-0.5 9q0 75 49 175l172 353h113l20 -248q110 86 180 86q104 0 104 -123q0 -117 -70.5 -193t-170.5 -76zM407 56q64 0 109.5 52t45.5 148q0 62 -51 62q-23 0 -54 -14.5
t-46.5 -25.5l-50.5 -36l14 -185q9 -1 33 -1z" />
    <glyph glyph-name="afii10107" unicode="&#x45a;" horiz-adv-x="776" 
d="M491 -8q-83 7 -132 27l25 237l-221 -17l-26 -239h-76l59 546h76l-26 -237l221 18l24 219h76l-25 -238q103 76 167 76q103 0 103 -123q0 -117 -71 -193t-174 -76zM501 56q64 0 110.5 52t46.5 148q0 62 -51 62q-22 0 -52 -14t-45 -24.5l-51 -35.5l-19 -179q23 -9 61 -9z
" />
    <glyph glyph-name="afii10108" unicode="&#x45b;" horiz-adv-x="553" 
d="M65 0l60 575h-91l6 63h92l13 117h76l-13 -117h190l-7 -63h-190l-21 -200q1 1 16 13l21 16.5l22.5 16.5t26.5 18t26.5 15t29 13.5t28 8t29.5 3.5q54 0 74.5 -21.5t20.5 -70.5q0 -27 -5 -74l-33 -313h-76l32 297q6 58 6 67q0 25 -10 34.5t-38 9.5q-15 0 -43 -14t-51.5 -30
l-51 -35.5l-31.5 -22.5l-32 -306h-76z" />
    <glyph glyph-name="afii10109" unicode="&#x45c;" horiz-adv-x="491" 
d="M251 615l-31 52l196 137l37 -62zM379 -14l-190 300l210 260h90l-212 -257l179 -278zM61 0l57 546h77l-58 -546h-76z" />
    <glyph glyph-name="uni045D" unicode="&#x45d;" horiz-adv-x="549" 
d="M175 -11q-56 0 -80 26t-24 85q0 22 3 49l43 397h76l-42 -378q-3 -32 -3 -52q0 -34 10.5 -47.5t36.5 -13.5q70 0 175 103l42 388h76l-58 -546h-76l9 90q-50 -50 -93 -75.5t-95 -25.5zM351 613l-189 121l39 62l183 -131z" />
    <glyph glyph-name="afii10110" unicode="&#x45e;" horiz-adv-x="465" 
d="M60 -220l108 220h-41l-86 546h83l69 -492l148 307q45 93 45 166q0 7 -2 19h79q1 -6 1 -19q0 -75 -47 -174l-277 -573h-80zM241 652q-28 0 -59 27t-55 68l60 40q47 -69 74 -69q64 0 150 70l29 -36q-48 -44 -102 -72t-97 -28z" />
    <glyph glyph-name="afii10193" unicode="&#x45f;" horiz-adv-x="549" 
d="M175 -11q-56 0 -80 26t-24 85q0 22 3 49l43 397h76l-42 -378q-4 -44 -4 -55q0 -32 10.5 -45t37.5 -13q29 0 69 23t56.5 36.5t49.5 43.5l42 388h76l-58 -546h-76l9 90q-104 -101 -188 -101zM224 -220l40 182h59l-19 -182h-80z" />
    <glyph glyph-name="afii10146" unicode="&#x462;" horiz-adv-x="621" 
d="M122 0l55 533h-190l7 68h191l11 106h79l-11 -106h223l-7 -67h-223l-49 -468h126q84 0 131.5 41.5t47.5 107.5q0 67 -44 95t-131 28h-37l8 67h38q127 0 188 -46t61 -140q0 -101 -69.5 -160t-183.5 -59h-221z" />
    <glyph glyph-name="afii10194" unicode="&#x463;" horiz-adv-x="776" 
d="M491 -8q-76 0 -133 23l40 363q3 30 3 50q0 34 -10.5 47.5t-34.5 13.5q-19 0 -53.5 -18.5t-56 -34l-67.5 -49.5l-42 -387h-76l58 546h76l-9 -90q2 2 16 13l21 16.5l22.5 17t26 17.5l26 15t28.5 13.5t28.5 8t29.5 3.5q52 0 73.5 -25.5t21.5 -80.5q0 -31 -4 -60l-9 -86
q103 76 167 76q103 0 103 -123q0 -117 -71 -193t-174 -76zM501 56q64 0 111 52.5t47 147.5q0 62 -51 62q-48 0 -149 -74l-19 -180q24 -8 61 -8z" />
    <glyph glyph-name="afii10147" unicode="&#x472;" horiz-adv-x="784" 
d="M346 -11q-143 0 -221 85.5t-78 232.5q0 184 104.5 297.5t285.5 113.5q144 0 223 -85.5t79 -232.5q0 -184 -105.5 -297.5t-287.5 -113.5zM356 55q125 0 200.5 74.5t92.5 196.5h-521q0 -21 1 -23q2 -112 59.5 -180t167.5 -68zM134 387h521v20q-2 112 -61 177.5t-169 65.5
q-122 0 -197.5 -73t-93.5 -190z" />
    <glyph glyph-name="afii10195" unicode="&#x473;" horiz-adv-x="511" 
d="M202 -12q-74 0 -117 55t-43 137q0 173 74.5 276.5t196.5 103.5q75 0 116.5 -55.5t41.5 -131.5q0 -54 -8.5 -106.5t-29 -103.5t-50.5 -89.5t-77 -62t-104 -23.5zM220 54q53 0 97.5 52.5t63.5 139.5h-258q-2 -17 -2 -51q0 -141 99 -141zM132 305h257q4 34 4 53
q0 72 -24 105t-79 33q-52 0 -95 -53t-63 -138z" />
    <glyph glyph-name="afii10148" unicode="&#x474;" horiz-adv-x="639" 
d="M211 0l-172 707h83l151 -650l238 467q78 158 155 201l52 -47q-70 -43 -130 -162l-266 -516h-111z" />
    <glyph glyph-name="afii10196" unicode="&#x475;" horiz-adv-x="471" 
d="M133 0l-92 546h83l71 -492q152 318 152 319q68 141 145 189l51 -46q-72 -47 -138 -185l-161 -331h-111z" />
    <glyph glyph-name="afii10050" unicode="&#x490;" horiz-adv-x="523" 
d="M66 0l75 707h327l17 161h77l-23 -228h-325l-68 -640h-80z" />
    <glyph glyph-name="afii10098" unicode="&#x491;" horiz-adv-x="435" 
d="M61 0l59 546h227l12 114h73l-18 -178h-225l-51 -482h-77z" />
    <glyph glyph-name="uni04D8" unicode="&#x4d8;" horiz-adv-x="752" 
d="M333 -12q-142 0 -212 80t-70 220q0 20 8 100h571q4 118 -53.5 190t-175.5 72q-129 0 -261 -66l-20 59q142 74 296 74q146 0 220 -83t74 -222q0 -185 -99 -304.5t-278 -119.5zM344 54q125 0 192 73t86 197h-491q-1 -11 -1 -32q1 -108 52 -173t162 -65z" />
    <glyph glyph-name="afii10846" unicode="&#x4d9;" horiz-adv-x="446" 
d="M276 560q128 0 128 -204q0 -156 -69.5 -262.5t-192.5 -106.5q-69 0 -103.5 35.5t-34.5 89.5q0 94 143 146l178 66q1 9 1 27q0 141 -64 141q-65 0 -171 -55l-27 57q38 21 62.5 32.5t66 22.5t83.5 11zM318 257l-158 -62q-81 -32 -81 -80q0 -33 19 -48t47 -15
q75 0 116.5 58.5t56.5 146.5z" />
    <glyph glyph-name="i.inferior" unicode="&#x1d62;" horiz-adv-x="181" 
d="M38 0l37 360h62l-38 -360h-61zM112 425l-43 48l53 46l44 -46z" />
    <glyph glyph-name="r.inferior" unicode="&#x1d63;" horiz-adv-x="241" 
d="M37 0l38 360h61l-5 -55q1 1 8 7l10 8.5l10.5 9t12.5 9.5l13 8t14 8t14 6t15.5 4.5t14.5 1.5q3 0 9 -0.5t9 -0.5l-11 -59q-8 2 -20 2q-28 0 -105 -62l-27 -247h-61z" />
    <glyph glyph-name="u.inferior" unicode="&#x1d64;" horiz-adv-x="389" 
d="M127 -7q-47 0 -67.5 24.5t-14.5 83.5l27 259h63l-28 -246q-4 -37 5.5 -51.5t31.5 -14.5q47 0 120 60l27 252h61l-38 -360h-62l6 55q-70 -62 -131 -62z" />
    <glyph glyph-name="v.inferior" unicode="&#x1d65;" horiz-adv-x="335" 
d="M93 0l-69 360h66l54 -312l100 189q28 61 28 108q0 10 -1 15h65q1 -5 1 -15q0 -51 -33 -115l-125 -230h-86z" />
    <glyph glyph-name="uni1E46" unicode="&#x1e46;" horiz-adv-x="734" 
d="M303 -227l-58 63l71 62l60 -62zM66 0l76 707h117l264 -649l65 649h79l-76 -707h-123l-256 633l-66 -633h-80z" />
    <glyph glyph-name="uni1E47" unicode="&#x1e47;" horiz-adv-x="552" 
d="M221 -227l-58 63l71 62l60 -62zM61 0l58 546h76l-9 -90q44 37 64.5 52.5t59 33.5t74.5 18q53 0 74 -24.5t21 -79.5q0 -31 -4 -62l-42 -394h-76l41 378q4 42 4 53q0 31 -10 44t-34 13q-58 0 -179 -101l-42 -387h-76z" />
    <glyph glyph-name="uni1E62" unicode="&#x1e62;" horiz-adv-x="482" 
d="M186 -11q-48 0 -105 14t-91 34l31 67q96 -45 171 -45q167 0 167 134q0 31 -21.5 57.5t-54 45.5l-70.5 43t-70.5 48t-54 62.5t-21.5 85.5q0 86 64.5 132t160.5 46q107 0 179 -39l-27 -62q-75 33 -155 33q-144 0 -144 -108q0 -36 30 -67.5t73 -57l86 -53.5t73 -70.5
t30 -93.5q0 -100 -71.5 -153t-179.5 -53zM178 -229l-58 63l71 62l60 -62z" />
    <glyph glyph-name="uni1E63" unicode="&#x1e63;" horiz-adv-x="429" 
d="M170 -9q-92 0 -149 25l22 66q70 -25 133 -25q26 0 50.5 5t48 24.5t23.5 50.5q0 29 -22 55t-53 46.5l-62 43t-53 54.5t-22 71q0 78 51 113.5t129 35.5q81 0 141 -30l-23 -59q-70 26 -129 26q-40 0 -68 -18t-28 -57q0 -29 22 -55t53 -47l62 -43.5t53 -57t22 -75.5
q0 -54 -32.5 -89t-75 -47.5t-93.5 -12.5zM159 -228l-58 63l71 62l60 -62z" />
    <glyph glyph-name="Wgrave" unicode="&#x1e80;" horiz-adv-x="898" 
d="M137 0l-105 707h83l87 -643l232 485l-32 158h83l123 -645l253 645h80l-283 -707h-110l-92 442l-211 -442h-108zM539 736l-220 65l27 72l211 -82z" />
    <glyph glyph-name="wgrave" unicode="&#x1e81;" horiz-adv-x="768" 
d="M133 0l-92 546h83l71 -492l180 313l-30 179h82l71 -492l146 307q44 91 44 165q0 14 -1 20h78q1 -6 1 -19q0 -78 -48 -174l-171 -353h-112l-45 273l-157 -273h-100zM458 613l-189 121l39 62l183 -131z" />
    <glyph glyph-name="Wacute" unicode="&#x1e82;" horiz-adv-x="898" 
d="M401 737l-16 54l229 80l19 -70zM137 0l-105 707h83l87 -643l232 485l-32 158h83l123 -645l253 645h80l-283 -707h-110l-92 442l-211 -442h-108z" />
    <glyph glyph-name="wacute" unicode="&#x1e83;" horiz-adv-x="768" 
d="M354 615l-31 52l196 137l37 -62zM133 0l-92 546h83l71 -492l180 313l-30 179h82l71 -492l146 307q44 91 44 165q0 14 -1 20h78q1 -6 1 -19q0 -78 -48 -174l-171 -353h-112l-45 273l-157 -273h-100z" />
    <glyph glyph-name="Wdieresis" unicode="&#x1e84;" horiz-adv-x="898" 
d="M376 751l-52 57l63 57l52 -57zM571 751l-50 57l62 57l52 -57zM137 0l-105 707h83l87 -643l232 485l-32 158h83l123 -645l253 645h80l-283 -707h-110l-92 442l-211 -442h-108z" />
    <glyph glyph-name="wdieresis" unicode="&#x1e85;" horiz-adv-x="768" 
d="M304 657l-52 57l63 57l52 -57zM499 657l-50 57l62 57l52 -57zM133 0l-92 546h83l71 -492l180 313l-30 179h82l71 -492l146 307q44 91 44 165q0 14 -1 20h78q1 -6 1 -19q0 -78 -48 -174l-171 -353h-112l-45 273l-157 -273h-100z" />
    <glyph glyph-name="uni1EBC" unicode="&#x1ebc;" horiz-adv-x="566" 
d="M66 0l75 707h393l-7 -65h-313l-27 -254h292l-7 -66h-291l-28 -257h337l-6 -65h-418zM407 747q-21 0 -63 18.5t-59 18.5q-35 0 -73 -25l-27 43q52 45 106 45q25 0 65 -18t58 -18q35 0 74 27l25 -45q-52 -46 -106 -46z" />
    <glyph glyph-name="uni1EBD" unicode="&#x1ebd;" horiz-adv-x="446" 
d="M169 -12q-128 0 -128 204q0 156 69.5 262.5t192.5 106.5q69 0 103.5 -35.5t34.5 -89.5q0 -94 -143 -146l-178 -66q-1 -9 -1 -27q0 -141 64 -141q65 0 171 55l27 -57q-38 -21 -62.5 -32.5t-66 -22.5t-83.5 -11zM127 291l158 62q81 32 81 80q0 33 -19 48t-47 15
q-75 0 -116.5 -58.5t-56.5 -146.5zM372 645q-20 0 -63 18.5t-62 18.5q-37 0 -75 -25l-28 44q50 46 109 46q25 0 65 -18.5t60 -18.5q35 0 76 29l26 -47q-52 -47 -108 -47z" />
    <glyph glyph-name="Ygrave" unicode="&#x1ef2;" horiz-adv-x="522" 
d="M177 0l28 274l-183 433h88l144 -365l236 365h86l-291 -432l-29 -275h-79zM360 736l-220 65l27 72l211 -82z" />
    <glyph glyph-name="ygrave" unicode="&#x1ef3;" horiz-adv-x="465" 
d="M60 -220l108 220h-41l-86 546h83l69 -492l148 307q45 93 45 166q0 7 -2 19h79q1 -6 1 -19q0 -75 -47 -174l-277 -573h-80zM320 613l-189 121l39 62l183 -131z" />
    <glyph glyph-name="uni1F00" unicode="&#x1f00;" 
d="M293 630q33 50 33 109q0 23 -10 50h73q13 -29 13 -57q0 -55 -43 -102h-66zM149 -13q-55 0 -82.5 44.5t-27.5 118.5q0 67 16 135.5t45.5 129t79 98.5t109.5 38q68 0 95 -73l8 68h72l-57 -546h-76l12 112q-38 -55 -90.5 -90t-103.5 -35zM168 59q41 0 92.5 36.5t89.5 94.5
l24 211q-38 83 -90 83q-51 0 -91 -55t-58.5 -128t-18.5 -143q0 -44 13 -71.5t39 -27.5z" />
    <glyph glyph-name="uni1F01" unicode="&#x1f01;" 
d="M149 -13q-55 0 -82.5 44.5t-27.5 118.5q0 67 16 135.5t45.5 129t79 98.5t109.5 38q68 0 95 -73l8 68h72l-57 -546h-76l12 112q-38 -55 -90.5 -90t-103.5 -35zM168 59q41 0 92.5 36.5t89.5 94.5l24 211q-38 83 -90 83q-51 0 -91 -55t-58.5 -128t-18.5 -143q0 -44 13 -71.5
t39 -27.5zM320 630q-44 46 -44 102q0 28 13 57h74q-11 -25 -11 -50q0 -26 8 -53.5t16 -41.5l9 -14h-65z" />
    <glyph glyph-name="uni1F02" unicode="&#x1f02;" 
d="M149 -13q-55 0 -82.5 44.5t-27.5 118.5q0 67 16 135.5t45.5 129t79 98.5t109.5 38q68 0 95 -73l8 68h72l-57 -546h-76l12 112q-38 -55 -90.5 -90t-103.5 -35zM168 59q41 0 92.5 36.5t89.5 94.5l24 211q-38 83 -90 83q-51 0 -91 -55t-58.5 -128t-18.5 -143q0 -44 13 -71.5
t39 -27.5zM203 630q33 50 33 109q0 27 -10 50h74q13 -29 13 -57q0 -54 -44 -102h-66zM412 630l-84 159h78l72 -159h-66z" />
    <glyph glyph-name="uni1F03" unicode="&#x1f03;" 
d="M149 -13q-55 0 -82.5 44.5t-27.5 118.5q0 67 16 135.5t45.5 129t79 98.5t109.5 38q68 0 95 -73l8 68h72l-57 -546h-76l12 112q-38 -55 -90.5 -90t-103.5 -35zM168 59q41 0 92.5 36.5t89.5 94.5l24 211q-38 83 -90 83q-51 0 -91 -55t-58.5 -128t-18.5 -143q0 -44 13 -71.5
t39 -27.5zM241 630q-44 46 -44 102q0 28 13 57h74q-10 -23 -10 -50q0 -26 8 -53.5t16 -41.5l8 -14h-65zM386 630l-84 159h78l72 -159h-66z" />
    <glyph glyph-name="uni1F04" unicode="&#x1f04;" 
d="M149 -13q-55 0 -82.5 44.5t-27.5 118.5q0 67 16 135.5t45.5 129t79 98.5t109.5 38q68 0 95 -73l8 68h72l-57 -546h-76l12 112q-38 -55 -90.5 -90t-103.5 -35zM168 59q41 0 92.5 36.5t89.5 94.5l24 211q-38 83 -90 83q-51 0 -91 -55t-58.5 -128t-18.5 -143q0 -44 13 -71.5
t39 -27.5zM238 628q33 50 33 109q0 27 -10 50h74q13 -32 13 -57q0 -54 -44 -102h-66zM353 628l74 159h78l-86 -159h-66z" />
    <glyph glyph-name="uni1F05" unicode="&#x1f05;" 
d="M149 -13q-55 0 -82.5 44.5t-27.5 118.5q0 67 16 135.5t45.5 129t79 98.5t109.5 38q68 0 95 -73l8 68h72l-57 -546h-76l12 112q-38 -55 -90.5 -90t-103.5 -35zM168 59q41 0 92.5 36.5t89.5 94.5l24 211q-38 83 -90 83q-51 0 -91 -55t-58.5 -128t-18.5 -143q0 -44 13 -71.5
t39 -27.5zM274 628q-44 46 -44 102q0 28 13 57h74q-10 -23 -10 -50q0 -26 8 -53.5t16 -41.5l8 -14h-65zM361 628l72 159h78l-84 -159h-66z" />
    <glyph glyph-name="uni1F06" unicode="&#x1f06;" 
d="M149 -13q-55 0 -82.5 44.5t-27.5 118.5q0 67 16 135.5t45.5 129t79 98.5t109.5 38q68 0 95 -73l8 68h72l-57 -546h-76l12 112q-38 -55 -90.5 -90t-103.5 -35zM168 59q41 0 92.5 36.5t89.5 94.5l24 211q-38 83 -90 83q-51 0 -91 -55t-58.5 -128t-18.5 -143q0 -44 13 -71.5
t39 -27.5zM429 794q-24 0 -64 18.5t-60 18.5q-35 0 -71 -25l-29 47l5 5l8 6.5t10 7t12.5 7.5t14.5 7t17.5 6.5t19.5 4t22 1.5q27 0 65 -18t55 -18q30 0 72 27l28 -46q-12 -15 -39.5 -32t-65.5 -17zM299 614q34 50 34 109q1 25 -8 50h74q12 -31 11 -57q0 -53 -45 -102h-66z
" />
    <glyph glyph-name="uni1F07" unicode="&#x1f07;" 
d="M149 -13q-55 0 -82.5 44.5t-27.5 118.5q0 67 16 135.5t45.5 129t79 98.5t109.5 38q68 0 95 -73l8 68h72l-57 -546h-76l12 112q-38 -55 -90.5 -90t-103.5 -35zM168 59q41 0 92.5 36.5t89.5 94.5l24 211q-38 83 -90 83q-51 0 -91 -55t-58.5 -128t-18.5 -143q0 -44 13 -71.5
t39 -27.5zM402 796q-24 0 -64 18.5t-60 18.5q-35 0 -71 -25l-28 48q1 0 5.5 4l7.5 6.5t9.5 7l12 8t14.5 7t17.5 6t19.5 4t23 1.5q26 0 64 -18t55 -18q30 0 72 27l28 -46q-12 -15 -39.5 -32t-65.5 -17zM329 614q-43 47 -42 102q0 26 14 57h74q-10 -24 -12 -50
q0 -26 7.5 -53.5t15.5 -41.5l8 -14h-65z" />
    <glyph glyph-name="uni1F08" unicode="&#x1f08;" horiz-adv-x="622" 
d="M68 549q33 50 33 109q0 23 -10 50h73q13 -29 13 -57q0 -55 -43 -102h-66zM-39 0l352 707h118l148 -707h-82l-53 266h-270l-131 -266h-82zM206 330h225l-54 276l-10 60l-28 -61z" />
    <glyph glyph-name="uni1F09" unicode="&#x1f09;" horiz-adv-x="622" 
d="M-39 0l352 707h118l148 -707h-82l-53 266h-270l-131 -266h-82zM206 330h225l-54 276l-10 60l-28 -61zM88 549q-44 46 -44 102q0 28 13 57h74q-11 -25 -11 -50q0 -26 8 -53.5t16 -41.5l9 -14h-65z" />
    <glyph glyph-name="uni1F0A" unicode="&#x1f0a;" horiz-adv-x="622" 
d="M-39 0l352 707h118l148 -707h-82l-53 266h-270l-131 -266h-82zM206 330h225l-54 276l-10 60l-28 -61zM-91 549q33 50 33 109q0 27 -10 50h74q13 -29 13 -57q0 -54 -44 -102h-66zM118 549l-84 159h78l72 -159h-66z" />
    <glyph glyph-name="uni1F0B" unicode="&#x1f0b;" horiz-adv-x="622" 
d="M-39 0l352 707h118l148 -707h-82l-53 266h-270l-131 -266h-82zM206 330h225l-54 276l-10 60l-28 -61zM-57 549q-44 46 -44 102q0 28 13 57h74q-10 -23 -10 -50q0 -26 8 -53.5t16 -41.5l8 -14h-65zM88 549l-84 159h78l72 -159h-66z" />
    <glyph glyph-name="uni1F0C" unicode="&#x1f0c;" horiz-adv-x="622" 
d="M-39 0l352 707h118l148 -707h-82l-53 266h-270l-131 -266h-82zM206 330h225l-54 276l-10 60l-28 -61zM-52 549q33 50 33 109q0 27 -10 50h74q13 -32 13 -57q0 -54 -44 -102h-66zM63 549l74 159h78l-86 -159h-66z" />
    <glyph glyph-name="uni1F0D" unicode="&#x1f0d;" horiz-adv-x="622" 
d="M-39 0l352 707h118l148 -707h-82l-53 266h-270l-131 -266h-82zM206 330h225l-54 276l-10 60l-28 -61zM-25 549q-44 46 -44 102q0 28 13 57h74q-10 -23 -10 -50q0 -26 8 -53.5t16 -41.5l8 -14h-65zM62 549l72 159h78l-84 -159h-66z" />
    <glyph glyph-name="uni1F0E" unicode="&#x1f0e;" horiz-adv-x="622" 
d="M-39 0l352 707h118l148 -707h-82l-53 266h-270l-131 -266h-82zM206 330h225l-54 276l-10 60l-28 -61zM116 602q-24 0 -64 18.5t-60 18.5q-35 0 -71 -25l-29 47l5 5l8 6.5t10 7t12.5 7.5t14.5 7t17.5 6.5t19.5 4t22 1.5q27 0 65 -18t55 -18q30 0 72 27l28 -46
q-12 -15 -39.5 -32t-65.5 -17zM-14 422q34 50 34 109q1 25 -8 50h74q12 -31 11 -57q0 -53 -45 -102h-66z" />
    <glyph glyph-name="uni1F0F" unicode="&#x1f0f;" horiz-adv-x="622" 
d="M-39 0l352 707h118l148 -707h-82l-53 266h-270l-131 -266h-82zM206 330h225l-54 276l-10 60l-28 -61zM94 605q-24 0 -64 18.5t-60 18.5q-35 0 -71 -25l-28 48q1 0 5.5 4l7.5 6.5t9.5 7l12 8t14.5 7t17.5 6t19.5 4t23 1.5q26 0 64 -18t55 -18q30 0 72 27l28 -46
q-12 -15 -39.5 -32t-65.5 -17zM21 423q-43 47 -42 102q0 26 14 57h74q-10 -24 -12 -50q0 -26 7.5 -53.5t15.5 -41.5l8 -14h-65z" />
    <glyph glyph-name="uni1F10" unicode="&#x1f10;" horiz-adv-x="439" 
d="M255 630q33 50 33 109q0 23 -10 50h73q13 -29 13 -57q0 -55 -43 -102h-66zM215 -12q-87 0 -133.5 38.5t-46.5 103.5q0 56 30 100.5t88 66.5q-33 12 -54 40t-21 64q0 66 54 112t149 46q83 0 139 -36l-27 -53q-56 27 -115 27q-123 0 -123 -96q0 -40 28 -58.5t68 -18.5h65
l-6 -62h-74q-50 0 -85.5 -31.5t-35.5 -85.5q0 -90 114 -90q63 0 156 39l24 -59q-102 -47 -194 -47z" />
    <glyph glyph-name="uni1F11" unicode="&#x1f11;" horiz-adv-x="439" 
d="M215 -12q-87 0 -133.5 38.5t-46.5 103.5q0 56 30 100.5t88 66.5q-33 12 -54 40t-21 64q0 66 54 112t149 46q83 0 139 -36l-27 -53q-56 27 -115 27q-123 0 -123 -96q0 -40 28 -58.5t68 -18.5h65l-6 -62h-74q-50 0 -85.5 -31.5t-35.5 -85.5q0 -90 114 -90q63 0 156 39
l24 -59q-102 -47 -194 -47zM275 630q-44 46 -44 102q0 28 13 57h74q-11 -25 -11 -50q0 -26 8.5 -53.5t16.5 -41.5l8 -14h-65z" />
    <glyph glyph-name="uni1F12" unicode="&#x1f12;" horiz-adv-x="439" 
d="M215 -12q-87 0 -133.5 38.5t-46.5 103.5q0 56 30 100.5t88 66.5q-33 12 -54 40t-21 64q0 66 54 112t149 46q83 0 139 -36l-27 -53q-56 27 -115 27q-123 0 -123 -96q0 -40 28 -58.5t68 -18.5h65l-6 -62h-74q-50 0 -85.5 -31.5t-35.5 -85.5q0 -90 114 -90q63 0 156 39
l24 -59q-102 -47 -194 -47zM150 630q33 50 33 109q0 27 -10 50h74q13 -29 13 -57q0 -54 -44 -102h-66zM359 630l-84 159h78l72 -159h-66z" />
    <glyph glyph-name="uni1F13" unicode="&#x1f13;" horiz-adv-x="439" 
d="M215 -12q-87 0 -133.5 38.5t-46.5 103.5q0 56 30 100.5t88 66.5q-33 12 -54 40t-21 64q0 66 54 112t149 46q83 0 139 -36l-27 -53q-56 27 -115 27q-123 0 -123 -96q0 -40 28 -58.5t68 -18.5h65l-6 -62h-74q-50 0 -85.5 -31.5t-35.5 -85.5q0 -90 114 -90q63 0 156 39
l24 -59q-102 -47 -194 -47zM188 630q-44 46 -44 102q0 28 13 57h74q-10 -23 -10 -50q0 -26 8 -53.5t16 -41.5l8 -14h-65zM333 630l-84 159h78l72 -159h-66z" />
    <glyph glyph-name="uni1F14" unicode="&#x1f14;" horiz-adv-x="439" 
d="M215 -12q-87 0 -133.5 38.5t-46.5 103.5q0 56 30 100.5t88 66.5q-33 12 -54 40t-21 64q0 66 54 112t149 46q83 0 139 -36l-27 -53q-56 27 -115 27q-123 0 -123 -96q0 -40 28 -58.5t68 -18.5h65l-6 -62h-74q-50 0 -85.5 -31.5t-35.5 -85.5q0 -90 114 -90q63 0 156 39
l24 -59q-102 -47 -194 -47zM187 630q33 50 33 109q0 27 -10 50h74q13 -33 13 -57q0 -54 -44 -102h-66zM302 630l74 159h78l-86 -159h-66z" />
    <glyph glyph-name="uni1F15" unicode="&#x1f15;" horiz-adv-x="439" 
d="M215 -12q-87 0 -133.5 38.5t-46.5 103.5q0 56 30 100.5t88 66.5q-33 12 -54 40t-21 64q0 66 54 112t149 46q83 0 139 -36l-27 -53q-56 27 -115 27q-123 0 -123 -96q0 -40 28 -58.5t68 -18.5h65l-6 -62h-74q-50 0 -85.5 -31.5t-35.5 -85.5q0 -90 114 -90q63 0 156 39
l24 -59q-102 -47 -194 -47zM213 630q-44 46 -44 102q0 28 13 57h74q-10 -23 -10 -50q0 -26 8 -53.5t16 -41.5l8 -14h-65zM300 630l72 159h78l-84 -159h-66z" />
    <glyph glyph-name="uni1F18" unicode="&#x1f18;" horiz-adv-x="566" 
d="M-53 549q33 50 33 109q0 23 -10 50h73q13 -29 13 -57q0 -55 -43 -102h-66zM66 0l75 707h393l-7 -65h-313l-27 -254h292l-7 -66h-291l-28 -257h337l-6 -65h-418z" />
    <glyph glyph-name="uni1F19" unicode="&#x1f19;" horiz-adv-x="566" 
d="M66 0l75 707h393l-7 -65h-313l-27 -254h292l-7 -66h-291l-28 -257h337l-6 -65h-418zM7 548q-44 46 -44 102q0 28 13 57h74q-11 -25 -11 -50q0 -26 8.5 -53.5t16.5 -41.5l8 -14h-65z" />
    <glyph glyph-name="uni1F1A" unicode="&#x1f1a;" horiz-adv-x="566" 
d="M66 0l75 707h393l-7 -65h-313l-27 -254h292l-7 -66h-291l-28 -257h337l-6 -65h-418zM-204 549q33 50 33 109q0 27 -10 50h74q13 -29 13 -57q0 -54 -44 -102h-66zM5 549l-84 159h78l72 -159h-66z" />
    <glyph glyph-name="uni1F1B" unicode="&#x1f1b;" horiz-adv-x="566" 
d="M66 0l75 707h393l-7 -65h-313l-27 -254h292l-7 -66h-291l-28 -257h337l-6 -65h-418zM-155 549q-44 46 -44 102q0 28 13 57h74q-10 -23 -10 -50q0 -26 8 -53.5t16 -41.5l8 -14h-65zM-10 549l-84 159h78l72 -159h-66z" />
    <glyph glyph-name="uni1F1C" unicode="&#x1f1c;" horiz-adv-x="566" 
d="M66 0l75 707h393l-7 -65h-313l-27 -254h292l-7 -66h-291l-28 -257h337l-6 -65h-418zM-193 549q33 50 33 109q0 27 -10 50h74q13 -32 13 -57q0 -54 -44 -102h-66zM-78 549l74 159h78l-86 -159h-66z" />
    <glyph glyph-name="uni1F1D" unicode="&#x1f1d;" horiz-adv-x="566" 
d="M66 0l75 707h393l-7 -65h-313l-27 -254h292l-7 -66h-291l-28 -257h337l-6 -65h-418zM-174 549q-44 46 -44 102q0 28 13 57h74q-10 -23 -10 -50q0 -26 8 -53.5t16 -41.5l8 -14h-65zM-87 549l72 159h78l-84 -159h-66z" />
    <glyph glyph-name="uni1F20" unicode="&#x1f20;" horiz-adv-x="552" 
d="M290 630q33 50 33 109q0 23 -10 50h73q13 -29 13 -57q0 -55 -43 -102h-66zM333 -219l65 597q6 56 6 66q0 25 -10 35t-38 10q-15 0 -42.5 -14t-51.5 -30l-51.5 -35.5l-31.5 -22.5l-42 -387h-76l58 546h76l-9 -90q2 2 16 13l21 16.5l22.5 17t26 17.5l26 15t28.5 13.5
t28.5 8t29.5 3.5q55 0 76 -21.5t21 -70.5q0 -16 -6 -74l-66 -613h-76z" />
    <glyph glyph-name="uni1F21" unicode="&#x1f21;" horiz-adv-x="552" 
d="M333 -219l65 597q6 56 6 66q0 25 -10 35t-38 10q-15 0 -42.5 -14t-51.5 -30l-51.5 -35.5l-31.5 -22.5l-42 -387h-76l58 546h76l-9 -90q2 2 16 13l21 16.5l22.5 17t26 17.5l26 15t28.5 13.5t28.5 8t29.5 3.5q55 0 76 -21.5t21 -70.5q0 -16 -6 -74l-66 -613h-76zM321 630
q-44 46 -44 102q0 28 13 57h74q-11 -25 -11 -50q0 -26 8.5 -53.5t16.5 -41.5l8 -14h-65z" />
    <glyph glyph-name="uni1F22" unicode="&#x1f22;" horiz-adv-x="552" 
d="M333 -219l65 597q6 56 6 66q0 25 -10 35t-38 10q-15 0 -42.5 -14t-51.5 -30l-51.5 -35.5l-31.5 -22.5l-42 -387h-76l58 546h76l-9 -90q2 2 16 13l21 16.5l22.5 17t26 17.5l26 15t28.5 13.5t28.5 8t29.5 3.5q55 0 76 -21.5t21 -70.5q0 -16 -6 -74l-66 -613h-76zM192 630
q33 50 33 109q0 27 -10 50h74q13 -29 13 -57q0 -54 -44 -102h-66zM401 630l-84 159h78l72 -159h-66z" />
    <glyph glyph-name="uni1F23" unicode="&#x1f23;" horiz-adv-x="552" 
d="M333 -219l65 597q6 56 6 66q0 25 -10 35t-38 10q-15 0 -42.5 -14t-51.5 -30l-51.5 -35.5l-31.5 -22.5l-42 -387h-76l58 546h76l-9 -90q2 2 16 13l21 16.5l22.5 17t26 17.5l26 15t28.5 13.5t28.5 8t29.5 3.5q55 0 76 -21.5t21 -70.5q0 -16 -6 -74l-66 -613h-76zM236 630
q-44 46 -44 102q0 28 13 57h74q-10 -23 -10 -50q0 -26 8 -53.5t16 -41.5l8 -14h-65zM381 630l-84 159h78l72 -159h-66z" />
    <glyph glyph-name="uni1F24" unicode="&#x1f24;" horiz-adv-x="552" 
d="M333 -219l65 597q6 56 6 66q0 25 -10 35t-38 10q-15 0 -42.5 -14t-51.5 -30l-51.5 -35.5l-31.5 -22.5l-42 -387h-76l58 546h76l-9 -90q2 2 16 13l21 16.5l22.5 17t26 17.5l26 15t28.5 13.5t28.5 8t29.5 3.5q55 0 76 -21.5t21 -70.5q0 -16 -6 -74l-66 -613h-76zM221 630
q33 50 33 109q0 27 -10 50h74q13 -33 13 -57q0 -54 -44 -102h-66zM336 630l74 159h78l-86 -159h-66z" />
    <glyph glyph-name="uni1F25" unicode="&#x1f25;" horiz-adv-x="552" 
d="M333 -219l65 597q6 56 6 66q0 25 -10 35t-38 10q-15 0 -42.5 -14t-51.5 -30l-51.5 -35.5l-31.5 -22.5l-42 -387h-76l58 546h76l-9 -90q2 2 16 13l21 16.5l22.5 17t26 17.5l26 15t28.5 13.5t28.5 8t29.5 3.5q55 0 76 -21.5t21 -70.5q0 -16 -6 -74l-66 -613h-76zM249 630
q-44 46 -44 102q0 28 13 57h74q-10 -23 -10 -50q0 -26 8 -53.5t16 -41.5l8 -14h-65zM336 630l72 159h78l-84 -159h-66z" />
    <glyph glyph-name="uni1F26" unicode="&#x1f26;" horiz-adv-x="552" 
d="M333 -219l65 597q6 56 6 66q0 25 -10 35t-38 10q-15 0 -42.5 -14t-51.5 -30l-51.5 -35.5l-31.5 -22.5l-42 -387h-76l58 546h76l-9 -90q2 2 16 13l21 16.5l22.5 17t26 17.5l26 15t28.5 13.5t28.5 8t29.5 3.5q55 0 76 -21.5t21 -70.5q0 -16 -6 -74l-66 -613h-76zM409 794
q-24 0 -64 18.5t-60 18.5q-35 0 -71 -25l-29 47l5 5l8 6.5t10 7t12.5 7.5t14.5 7t17.5 6.5t19.5 4t22 1.5q27 0 65 -18t55 -18q30 0 72 27l28 -46q-12 -15 -39.5 -32t-65.5 -17zM279 614q34 50 34 109q1 25 -8 50h74q12 -31 11 -57q0 -53 -45 -102h-66z" />
    <glyph glyph-name="uni1F27" unicode="&#x1f27;" horiz-adv-x="552" 
d="M333 -219l65 597q6 56 6 66q0 25 -10 35t-38 10q-15 0 -42.5 -14t-51.5 -30l-51.5 -35.5l-31.5 -22.5l-42 -387h-76l58 546h76l-9 -90q2 2 16 13l21 16.5l22.5 17t26 17.5l26 15t28.5 13.5t28.5 8t29.5 3.5q55 0 76 -21.5t21 -70.5q0 -16 -6 -74l-66 -613h-76zM391 796
q-24 0 -64 18.5t-60 18.5q-35 0 -71 -25l-28 48q1 0 5.5 4l7.5 6.5t9.5 7l12 8t14.5 7t17.5 6t19.5 4t23 1.5q27 0 64 -18t55 -18q30 0 72 27l28 -46q-12 -15 -39.5 -32t-65.5 -17zM318 614q-43 47 -42 102q0 26 14 57h74q-10 -24 -12 -50q0 -26 7.5 -53.5t15.5 -41.5l8 -14
h-65z" />
    <glyph glyph-name="uni1F28" unicode="&#x1f28;" horiz-adv-x="747" 
d="M-26 548q33 50 33 109q0 23 -10 50h73q13 -29 13 -57q0 -55 -43 -102h-66zM66 0l75 707h79l-33 -320h380l33 321h80l-74 -708h-80l35 322h-380l-35 -322h-80z" />
    <glyph glyph-name="uni1F29" unicode="&#x1f29;" horiz-adv-x="747" 
d="M66 0l75 707h79l-33 -320h380l33 321h80l-74 -708h-80l35 322h-380l-35 -322h-80zM16 549q-44 46 -44 102q0 28 13 57h74q-11 -25 -11 -50q0 -26 8 -53.5t16 -41.5l9 -14h-65z" />
    <glyph glyph-name="uni1F2A" unicode="&#x1f2a;" horiz-adv-x="747" 
d="M66 0l75 707h79l-33 -320h380l33 321h80l-74 -708h-80l35 322h-380l-35 -322h-80zM-200 549q33 50 33 109q0 27 -10 50h74q13 -29 13 -57q0 -54 -44 -102h-66zM9 549l-84 159h78l72 -159h-66z" />
    <glyph glyph-name="uni1F2B" unicode="&#x1f2b;" horiz-adv-x="747" 
d="M66 0l75 707h79l-33 -320h380l33 321h80l-74 -708h-80l35 322h-380l-35 -322h-80zM-120 549q-44 46 -44 102q0 28 13 57h74q-10 -23 -10 -50q0 -26 8 -53.5t16 -41.5l8 -14h-65zM25 549l-84 159h78l72 -159h-66z" />
    <glyph glyph-name="uni1F2C" unicode="&#x1f2c;" horiz-adv-x="747" 
d="M66 0l75 707h79l-33 -320h380l33 321h80l-74 -708h-80l35 322h-380l-35 -322h-80zM-174 549q33 50 33 109q0 27 -10 50h74q13 -32 13 -57q0 -54 -44 -102h-66zM-59 549l74 159h78l-86 -159h-66z" />
    <glyph glyph-name="uni1F2D" unicode="&#x1f2d;" horiz-adv-x="747" 
d="M66 0l75 707h79l-33 -320h380l33 321h80l-74 -708h-80l35 322h-380l-35 -322h-80zM-159 549q-44 46 -44 102q0 28 13 57h74q-10 -23 -10 -50q0 -26 8 -53.5t16 -41.5l8 -14h-65zM-72 549l72 159h78l-84 -159h-66z" />
    <glyph glyph-name="uni1F2E" unicode="&#x1f2e;" horiz-adv-x="747" 
d="M66 0l75 707h79l-33 -320h380l33 321h80l-74 -708h-80l35 322h-380l-35 -322h-80zM-5 601q-24 0 -64 18.5t-60 18.5q-35 0 -71 -25l-29 47l5 4q5 5 8 7.5t10 7t12.5 7.5t14.5 7t17.5 6.5t19.5 4t22 1.5q27 0 65 -18t55 -18q30 0 72 27l28 -46q-12 -15 -39.5 -32
t-65.5 -17zM-135 421q34 50 34 109q1 25 -8 50h74q12 -31 11 -57q0 -53 -45 -102h-66z" />
    <glyph glyph-name="uni1F2F" unicode="&#x1f2f;" horiz-adv-x="747" 
d="M66 0l75 707h79l-33 -320h380l33 321h80l-74 -708h-80l35 322h-380l-35 -322h-80zM-15 605q-24 0 -64 18.5t-60 18.5q-35 0 -71 -25l-28 48q1 0 5.5 4l7.5 6.5t9.5 7l12 8t14.5 7t17.5 6t19.5 4t23 1.5q27 0 64.5 -18t54.5 -18q30 0 72 27l28 -46q-12 -15 -39.5 -32
t-65.5 -17zM-88 423q-43 47 -42 102q0 26 14 57h74q-10 -24 -12 -50q0 -26 7.5 -53.5t15.5 -41.5l8 -14h-65z" />
    <glyph glyph-name="uni1F30" unicode="&#x1f30;" horiz-adv-x="267" 
d="M129 630q33 50 33 109q0 23 -10 50h73q13 -29 13 -57q0 -55 -43 -102h-66zM62 0l57 546h76l-57 -546h-76z" />
    <glyph glyph-name="uni1F31" unicode="&#x1f31;" horiz-adv-x="267" 
d="M62 0l57 546h76l-57 -546h-76zM144 630q-44 46 -44 102q0 28 13 57h74q-11 -25 -11 -50q0 -26 8 -53.5t16 -41.5l9 -14h-65z" />
    <glyph glyph-name="uni1F32" unicode="&#x1f32;" horiz-adv-x="267" 
d="M62 0l57 546h76l-57 -546h-76zM36 630q33 50 33 109q0 27 -10 50h74q13 -29 13 -57q0 -54 -44 -102h-66zM245 630l-84 159h78l72 -159h-66z" />
    <glyph glyph-name="uni1F33" unicode="&#x1f33;" horiz-adv-x="267" 
d="M67 630q-44 46 -44 102q0 28 13 57h74q-10 -23 -10 -50q0 -26 8 -53.5t16 -41.5l8 -14h-65zM212 630l-84 159h78l72 -159h-66zM62 0l57 546h76l-57 -546h-76z" />
    <glyph glyph-name="uni1F34" unicode="&#x1f34;" horiz-adv-x="267" 
d="M73 630q33 50 33 109q0 27 -10 50h74q13 -33 13 -57q0 -54 -44 -102h-66zM188 630l74 159h78l-86 -159h-66zM62 0l57 546h76l-57 -546h-76z" />
    <glyph glyph-name="uni1F35" unicode="&#x1f35;" horiz-adv-x="267" 
d="M62 0l57 546h76l-57 -546h-76zM91 630q-44 46 -44 102q0 28 13 57h74q-10 -23 -10 -50q0 -26 8 -53.5t16 -41.5l8 -14h-65zM178 630l72 159h78l-84 -159h-66z" />
    <glyph glyph-name="uni1F36" unicode="&#x1f36;" horiz-adv-x="267" 
d="M62 0l57 546h76l-57 -546h-76zM250 794q-24 0 -64 18.5t-60 18.5q-35 0 -71 -25l-29 47l5 5l8 6.5t10 7t12.5 7.5t14.5 7t17.5 6.5t19.5 4t22 1.5q27 0 65 -18t55 -18q30 0 72 27l28 -46q-12 -15 -39.5 -32t-65.5 -17zM120 614q34 50 34 109q1 25 -8 50h74q12 -31 11 -57
q0 -53 -45 -102h-66z" />
    <glyph glyph-name="uni1F37" unicode="&#x1f37;" horiz-adv-x="267" 
d="M62 0l57 546h76l-57 -546h-76zM228 795q-24 0 -64 18.5t-60 18.5q-35 0 -71 -25l-28 48q1 0 5.5 4l7.5 6.5t9.5 7l12 8t14.5 7t17.5 6t19.5 4t23 1.5q26 0 64 -18t55 -18q30 0 72 27l28 -46q-12 -15 -39.5 -32t-65.5 -17zM155 613q-43 47 -42 102q0 26 14 57h74
q-10 -24 -12 -50q0 -26 7.5 -53.5t15.5 -41.5l8 -14h-65z" />
    <glyph glyph-name="uni1F38" unicode="&#x1f38;" horiz-adv-x="287" 
d="M-32 548q33 50 33 109q0 23 -10 50h73q13 -29 13 -57q0 -55 -43 -102h-66zM66 0l75 707h79l-74 -707h-80z" />
    <glyph glyph-name="uni1F39" unicode="&#x1f39;" horiz-adv-x="287" 
d="M66 0l75 707h79l-74 -707h-80zM15 548q-44 46 -44 102q0 28 13 57h74q-11 -25 -11 -50q0 -26 8.5 -53.5t16.5 -41.5l8 -14h-65z" />
    <glyph glyph-name="uni1F3A" unicode="&#x1f3a;" horiz-adv-x="287" 
d="M66 0l75 707h79l-74 -707h-80zM-198 549q33 50 33 109q0 27 -10 50h74q13 -29 13 -57q0 -54 -44 -102h-66zM11 549l-84 159h78l72 -159h-66z" />
    <glyph glyph-name="uni1F3B" unicode="&#x1f3b;" horiz-adv-x="287" 
d="M-135 549q-44 46 -44 102q0 28 13 57h74q-10 -23 -10 -50q0 -26 8 -53.5t16 -41.5l8 -14h-65zM10 549l-84 159h78l72 -159h-66zM66 0l75 707h79l-74 -707h-80z" />
    <glyph glyph-name="uni1F3C" unicode="&#x1f3c;" horiz-adv-x="287" 
d="M-185 549q33 50 33 109q0 27 -10 50h74q13 -32 13 -57q0 -54 -44 -102h-66zM-70 549l74 159h78l-86 -159h-66zM66 0l75 707h79l-74 -707h-80z" />
    <glyph glyph-name="uni1F3D" unicode="&#x1f3d;" horiz-adv-x="287" 
d="M66 0l75 707h79l-74 -707h-80zM-165 548q-44 46 -44 102q0 28 13 57h74q-10 -23 -10 -50q0 -26 8 -53.5t16 -41.5l8 -14h-65zM-78 548l72 159h78l-84 -159h-66z" />
    <glyph glyph-name="uni1F3E" unicode="&#x1f3e;" horiz-adv-x="287" 
d="M66 0l75 707h79l-74 -707h-80zM-18 603q-24 0 -64 18.5t-60 18.5q-35 0 -71 -25l-29 47l5 4q5 5 8 7.5t10 7t12.5 7.5t14.5 7t17.5 6.5t19.5 4t22 1.5q27 0 65 -18t55 -18q30 0 72 27l28 -46q-12 -15 -39.5 -32t-65.5 -17zM-148 423q34 50 34 109q1 25 -8 50h74
q12 -31 11 -57q0 -53 -45 -102h-66z" />
    <glyph glyph-name="uni1F3F" unicode="&#x1f3f;" horiz-adv-x="287" 
d="M66 0l75 707h79l-74 -707h-80zM-28 604q-24 0 -64 18.5t-60 18.5q-35 0 -71 -25l-28 48q1 0 5.5 4l7.5 6.5t9.5 7l12 8t14.5 7t17.5 6t19.5 4t23 1.5q26 0 64 -18t55 -18q30 0 72 27l28 -46q-12 -15 -39.5 -32t-65.5 -17zM-101 422q-43 47 -42 102q0 26 14 57h74
q-10 -24 -12 -50q0 -26 7.5 -53.5t15.5 -41.5l8 -14h-65z" />
    <glyph glyph-name="uni1F40" unicode="&#x1f40;" horiz-adv-x="511" 
d="M272 630q33 50 33 109q0 23 -10 50h73q13 -29 13 -57q0 -55 -43 -102h-66zM202 -12q-74 0 -117 55t-43 137q0 173 74.5 276.5t196.5 103.5q75 0 116.5 -55.5t41.5 -131.5q0 -54 -8.5 -106.5t-29 -103.5t-50.5 -89.5t-77 -62t-104 -23.5zM220 54q71 0 122 86.5t51 217.5
q0 72 -24 105t-79 33q-69 0 -119 -88t-50 -213q0 -141 99 -141z" />
    <glyph glyph-name="uni1F41" unicode="&#x1f41;" horiz-adv-x="511" 
d="M202 -12q-74 0 -117 55t-43 137q0 173 74.5 276.5t196.5 103.5q75 0 116.5 -55.5t41.5 -131.5q0 -54 -8.5 -106.5t-29 -103.5t-50.5 -89.5t-77 -62t-104 -23.5zM220 54q71 0 122 86.5t51 217.5q0 72 -24 105t-79 33q-69 0 -119 -88t-50 -213q0 -141 99 -141zM294 630
q-44 46 -44 102q0 28 13 57h74q-11 -25 -11 -50q0 -26 8 -53.5t16 -41.5l9 -14h-65z" />
    <glyph glyph-name="uni1F42" unicode="&#x1f42;" horiz-adv-x="511" 
d="M202 -12q-74 0 -117 55t-43 137q0 173 74.5 276.5t196.5 103.5q75 0 116.5 -55.5t41.5 -131.5q0 -54 -8.5 -106.5t-29 -103.5t-50.5 -89.5t-77 -62t-104 -23.5zM220 54q71 0 122 86.5t51 217.5q0 72 -24 105t-79 33q-69 0 -119 -88t-50 -213q0 -141 99 -141zM187 630
q33 50 33 109q0 27 -10 50h74q13 -29 13 -57q0 -54 -44 -102h-66zM396 630l-84 159h78l72 -159h-66z" />
    <glyph glyph-name="uni1F43" unicode="&#x1f43;" horiz-adv-x="511" 
d="M202 -12q-74 0 -117 55t-43 137q0 173 74.5 276.5t196.5 103.5q75 0 116.5 -55.5t41.5 -131.5q0 -54 -8.5 -106.5t-29 -103.5t-50.5 -89.5t-77 -62t-104 -23.5zM220 54q71 0 122 86.5t51 217.5q0 72 -24 105t-79 33q-69 0 -119 -88t-50 -213q0 -141 99 -141zM232 629
q-44 46 -44 102q0 28 13 57h74q-10 -23 -10 -50q0 -26 8 -53.5t16 -41.5l8 -14h-65zM377 629l-84 159h78l72 -159h-66z" />
    <glyph glyph-name="uni1F44" unicode="&#x1f44;" horiz-adv-x="511" 
d="M202 -12q-74 0 -117 55t-43 137q0 173 74.5 276.5t196.5 103.5q75 0 116.5 -55.5t41.5 -131.5q0 -54 -8.5 -106.5t-29 -103.5t-50.5 -89.5t-77 -62t-104 -23.5zM220 54q71 0 122 86.5t51 217.5q0 72 -24 105t-79 33q-69 0 -119 -88t-50 -213q0 -141 99 -141zM233 629
q33 50 33 109q0 27 -10 50h74q13 -32 13 -57q0 -54 -44 -102h-66zM348 629l74 159h78l-86 -159h-66z" />
    <glyph glyph-name="uni1F45" unicode="&#x1f45;" horiz-adv-x="511" 
d="M202 -12q-74 0 -117 55t-43 137q0 173 74.5 276.5t196.5 103.5q75 0 116.5 -55.5t41.5 -131.5q0 -54 -8.5 -106.5t-29 -103.5t-50.5 -89.5t-77 -62t-104 -23.5zM220 54q71 0 122 86.5t51 217.5q0 72 -24 105t-79 33q-69 0 -119 -88t-50 -213q0 -141 99 -141zM251 630
q-44 46 -44 102q0 28 13 57h74q-10 -23 -10 -50q0 -26 8 -53.5t16 -41.5l8 -14h-65zM338 630l72 159h78l-84 -159h-66z" />
    <glyph glyph-name="uni1F48" unicode="&#x1f48;" horiz-adv-x="784" 
d="M-57 548q33 50 33 109q0 23 -10 50h73q13 -29 13 -57q0 -55 -43 -102h-66zM346 -11q-143 0 -221 85.5t-78 232.5q0 184 104.5 297.5t285.5 113.5q144 0 223 -85.5t79 -232.5q0 -184 -105.5 -297.5t-287.5 -113.5zM356 55q143 0 221 97t78 245q0 116 -59 184.5t-171 68.5
q-141 0 -219 -95.5t-78 -242.5q0 -116 58 -186.5t170 -70.5z" />
    <glyph glyph-name="uni1F49" unicode="&#x1f49;" horiz-adv-x="784" 
d="M346 -11q-143 0 -221 85.5t-78 232.5q0 184 104.5 297.5t285.5 113.5q144 0 223 -85.5t79 -232.5q0 -184 -105.5 -297.5t-287.5 -113.5zM356 55q143 0 221 97t78 245q0 116 -59 184.5t-171 68.5q-141 0 -219 -95.5t-78 -242.5q0 -116 58 -186.5t170 -70.5zM-24 548
q-44 46 -44 102q0 28 13 57h74q-11 -25 -11 -50q0 -26 8 -53.5t16 -41.5l9 -14h-65z" />
    <glyph glyph-name="uni1F4A" unicode="&#x1f4a;" horiz-adv-x="784" 
d="M346 -11q-143 0 -221 85.5t-78 232.5q0 184 104.5 297.5t285.5 113.5q144 0 223 -85.5t79 -232.5q0 -184 -105.5 -297.5t-287.5 -113.5zM356 55q143 0 221 97t78 245q0 116 -59 184.5t-171 68.5q-141 0 -219 -95.5t-78 -242.5q0 -116 58 -186.5t170 -70.5zM-236 549
q33 50 33 109q0 27 -10 50h74q13 -29 13 -57q0 -54 -44 -102h-66zM-27 549l-84 159h78l72 -159h-66z" />
    <glyph glyph-name="uni1F4B" unicode="&#x1f4b;" horiz-adv-x="784" 
d="M346 -11q-143 0 -221 85.5t-78 232.5q0 184 104.5 297.5t285.5 113.5q144 0 223 -85.5t79 -232.5q0 -184 -105.5 -297.5t-287.5 -113.5zM356 55q143 0 221 97t78 245q0 116 -59 184.5t-171 68.5q-141 0 -219 -95.5t-78 -242.5q0 -116 58 -186.5t170 -70.5zM-174 549
q-44 46 -44 102q0 28 13 57h74q-10 -23 -10 -50q0 -26 8 -53.5t16 -41.5l8 -14h-65zM-29 549l-84 159h78l72 -159h-66z" />
    <glyph glyph-name="uni1F4C" unicode="&#x1f4c;" horiz-adv-x="784" 
d="M346 -11q-143 0 -221 85.5t-78 232.5q0 184 104.5 297.5t285.5 113.5q144 0 223 -85.5t79 -232.5q0 -184 -105.5 -297.5t-287.5 -113.5zM356 55q143 0 221 97t78 245q0 116 -59 184.5t-171 68.5q-141 0 -219 -95.5t-78 -242.5q0 -116 58 -186.5t170 -70.5zM-159 549
q33 50 33 109q0 27 -10 50h74q13 -32 13 -57q0 -54 -44 -102h-66zM-44 549l74 159h78l-86 -159h-66z" />
    <glyph glyph-name="uni1F4D" unicode="&#x1f4d;" horiz-adv-x="784" 
d="M346 -11q-143 0 -221 85.5t-78 232.5q0 184 104.5 297.5t285.5 113.5q144 0 223 -85.5t79 -232.5q0 -184 -105.5 -297.5t-287.5 -113.5zM356 55q143 0 221 97t78 245q0 116 -59 184.5t-171 68.5q-141 0 -219 -95.5t-78 -242.5q0 -116 58 -186.5t170 -70.5zM-141 549
q-44 46 -44 102q0 28 13 57h74q-10 -23 -10 -50q0 -26 8 -53.5t16 -41.5l8 -14h-65zM-54 549l72 159h78l-84 -159h-66z" />
    <glyph glyph-name="uni1F50" unicode="&#x1f50;" horiz-adv-x="504" 
d="M246 630q33 50 33 109q0 23 -10 50h73q13 -29 13 -57q0 -55 -43 -102h-66zM230 -11q-164 0 -164 160q0 17 3 38l37 359h75l-38 -352q-2 -26 -2 -34q0 -105 96 -105q62 0 105 70t43 198q0 99 -44 223h75q44 -108 44 -225q0 -151 -66.5 -241.5t-163.5 -90.5z" />
    <glyph glyph-name="uni1F51" unicode="&#x1f51;" horiz-adv-x="504" 
d="M230 -11q-164 0 -164 160q0 17 3 38l37 359h75l-38 -352q-2 -26 -2 -34q0 -105 96 -105q62 0 105 70t43 198q0 99 -44 223h75q44 -108 44 -225q0 -151 -66.5 -241.5t-163.5 -90.5zM270 630q-44 46 -44 102q0 28 13 57h74q-11 -25 -11 -50q0 -26 8 -53.5t16 -41.5l9 -14
h-65z" />
    <glyph glyph-name="uni1F52" unicode="&#x1f52;" horiz-adv-x="504" 
d="M230 -11q-164 0 -164 160q0 17 3 38l37 359h75l-38 -352q-2 -26 -2 -34q0 -105 96 -105q62 0 105 70t43 198q0 99 -44 223h75q44 -108 44 -225q0 -151 -66.5 -241.5t-163.5 -90.5zM150 629q33 50 33 109q0 27 -10 50h74q13 -29 13 -57q0 -54 -44 -102h-66zM359 629
l-84 159h78l72 -159h-66z" />
    <glyph glyph-name="uni1F53" unicode="&#x1f53;" horiz-adv-x="504" 
d="M230 -11q-164 0 -164 160q0 17 3 38l37 359h75l-38 -352q-2 -26 -2 -34q0 -105 96 -105q62 0 105 70t43 198q0 99 -44 223h75q44 -108 44 -225q0 -151 -66.5 -241.5t-163.5 -90.5zM204 630q-44 46 -44 102q0 28 13 57h74q-10 -23 -10 -50q0 -26 8 -53.5t16 -41.5l8 -14
h-65zM349 630l-84 159h78l72 -159h-66z" />
    <glyph glyph-name="uni1F54" unicode="&#x1f54;" horiz-adv-x="504" 
d="M230 -11q-164 0 -164 160q0 17 3 38l37 359h75l-38 -352q-2 -26 -2 -34q0 -105 96 -105q62 0 105 70t43 198q0 99 -44 223h75q44 -108 44 -225q0 -151 -66.5 -241.5t-163.5 -90.5zM181 629q33 50 33 109q0 27 -10 50h74q13 -32 13 -57q0 -54 -44 -102h-66zM296 629
l74 159h78l-86 -159h-66z" />
    <glyph glyph-name="uni1F55" unicode="&#x1f55;" horiz-adv-x="504" 
d="M230 -11q-164 0 -164 160q0 17 3 38l37 359h75l-38 -352q-2 -26 -2 -34q0 -105 96 -105q62 0 105 70t43 198q0 99 -44 223h75q44 -108 44 -225q0 -151 -66.5 -241.5t-163.5 -90.5zM223 630q-44 46 -44 102q0 28 13 57h74q-10 -23 -10 -50q0 -26 8 -53.5t16 -41.5l8 -14
h-65zM310 630l72 159h78l-84 -159h-66z" />
    <glyph glyph-name="uni1F56" unicode="&#x1f56;" horiz-adv-x="504" 
d="M230 -11q-164 0 -164 160q0 17 3 38l37 359h75l-38 -352q-2 -26 -2 -34q0 -105 96 -105q62 0 105 70t43 198q0 99 -44 223h75q44 -108 44 -225q0 -151 -66.5 -241.5t-163.5 -90.5zM365 794q-24 0 -64 18.5t-60 18.5q-35 0 -71 -25l-29 47l5 5l8 6.5t10 7t12.5 7.5t14.5 7
t17.5 6.5t19.5 4t22 1.5q27 0 65 -18t55 -18q30 0 72 27l28 -46q-12 -15 -39.5 -32t-65.5 -17zM235 614q34 50 34 109q1 25 -8 50h74q12 -31 11 -57q0 -53 -45 -102h-66z" />
    <glyph glyph-name="uni1F57" unicode="&#x1f57;" horiz-adv-x="504" 
d="M230 -11q-164 0 -164 160q0 17 3 38l37 359h75l-38 -352q-2 -26 -2 -34q0 -105 96 -105q62 0 105 70t43 198q0 99 -44 223h75q44 -108 44 -225q0 -151 -66.5 -241.5t-163.5 -90.5zM348 796q-24 0 -64 18.5t-60 18.5q-35 0 -71 -25l-28 48q1 0 5.5 4l7.5 6.5t9.5 7l12 8
t14.5 7t17.5 6t19.5 4t23 1.5q26 0 64 -18t55 -18q30 0 72 27l28 -46q-12 -15 -39.5 -32t-65.5 -17zM275 614q-43 47 -42 102q0 26 14 57h74q-10 -24 -12 -50q0 -26 7.5 -53.5t15.5 -41.5l8 -14h-65z" />
    <glyph glyph-name="uni1F59" unicode="&#x1f59;" horiz-adv-x="551" 
d="M177 0l28 274l-183 433h88l144 -365l236 365h86l-291 -432l-29 -275h-79zM-83 548q-44 46 -44 102q0 28 13 57h74q-11 -25 -11 -50q0 -26 8.5 -53.5t16.5 -41.5l8 -14h-65z" />
    <glyph glyph-name="uni1F5B" unicode="&#x1f5b;" horiz-adv-x="551" 
d="M177 0l28 274l-183 433h88l144 -365l236 365h86l-291 -432l-29 -275h-79zM-193 549q-44 46 -44 102q0 28 13 57h74q-10 -23 -10 -50q0 -26 8 -53.5t16 -41.5l8 -14h-65zM-48 549l-84 159h78l72 -159h-66z" />
    <glyph glyph-name="uni1F5D" unicode="&#x1f5d;" horiz-adv-x="551" 
d="M177 0l28 274l-183 433h88l144 -365l236 365h86l-291 -432l-29 -275h-79zM-279 549q-44 46 -44 102q0 28 13 57h74q-10 -23 -10 -50q0 -26 8 -53.5t16 -41.5l8 -14h-65zM-192 549l72 159h78l-84 -159h-66z" />
    <glyph glyph-name="uni1F5F" unicode="&#x1f5f;" horiz-adv-x="551" 
d="M177 0l28 274l-183 433h88l144 -365l236 365h86l-291 -432l-29 -275h-79zM-116 603q-24 0 -64 18.5t-60 18.5q-35 0 -71 -25l-28 48q1 0 5.5 4l7.5 6.5t9.5 7l12 8t14.5 7t17.5 6t19.5 4t23 1.5q26 0 64 -18t55 -18q30 0 72 27l28 -46q-12 -15 -39.5 -32t-65.5 -17z
M-189 421q-43 47 -42 102q0 26 14 57h74q-10 -24 -12 -50q0 -26 7.5 -53.5t15.5 -41.5l8 -14h-65z" />
    <glyph glyph-name="uni1F60" unicode="&#x1f60;" horiz-adv-x="682" 
d="M355 630q33 50 33 109q0 23 -10 50h73q13 -29 13 -57q0 -55 -43 -102h-66zM180 -9q-62 0 -100 48t-38 128q0 240 162 379h83q-166 -134 -166 -365q0 -122 77 -122q37 0 65 40t35 109l17 152h74l-14 -148q-2 -28 -2 -48q0 -105 60 -105q37 0 64.5 28.5t41 72t19.5 82.5
t6 71q0 139 -79 233h85q72 -105 72 -217q0 -61 -13 -119t-38 -108t-67.5 -80.5t-96.5 -30.5q-38 0 -70.5 27.5t-35.5 77.5q-22 -52 -61.5 -78.5t-79.5 -26.5z" />
    <glyph glyph-name="uni1F61" unicode="&#x1f61;" horiz-adv-x="682" 
d="M180 -9q-62 0 -100 48t-38 128q0 240 162 379h83q-166 -134 -166 -365q0 -122 77 -122q37 0 65 40t35 109l17 152h74l-14 -148q-2 -28 -2 -48q0 -105 60 -105q37 0 64.5 28.5t41 72t19.5 82.5t6 71q0 139 -79 233h85q72 -105 72 -217q0 -61 -13 -119t-38 -108
t-67.5 -80.5t-96.5 -30.5q-38 0 -70.5 27.5t-35.5 77.5q-22 -52 -61.5 -78.5t-79.5 -26.5zM362 630q-44 46 -44 102q0 28 13 57h74q-11 -25 -11 -50q0 -26 8 -53.5t16 -41.5l9 -14h-65z" />
    <glyph glyph-name="uni1F62" unicode="&#x1f62;" horiz-adv-x="682" 
d="M180 -9q-62 0 -100 48t-38 128q0 240 162 379h83q-166 -134 -166 -365q0 -122 77 -122q37 0 65 40t35 109l17 152h74l-14 -148q-2 -28 -2 -48q0 -105 60 -105q37 0 64.5 28.5t41 72t19.5 82.5t6 71q0 139 -79 233h85q72 -105 72 -217q0 -61 -13 -119t-38 -108
t-67.5 -80.5t-96.5 -30.5q-38 0 -70.5 27.5t-35.5 77.5q-22 -52 -61.5 -78.5t-79.5 -26.5zM252 630q33 50 33 109q0 27 -10 50h74q13 -29 13 -57q0 -54 -44 -102h-66zM461 630l-84 159h78l72 -159h-66z" />
    <glyph glyph-name="uni1F63" unicode="&#x1f63;" horiz-adv-x="682" 
d="M180 -9q-62 0 -100 48t-38 128q0 240 162 379h83q-166 -134 -166 -365q0 -122 77 -122q37 0 65 40t35 109l17 152h74l-14 -148q-2 -28 -2 -48q0 -105 60 -105q37 0 64.5 28.5t41 72t19.5 82.5t6 71q0 139 -79 233h85q72 -105 72 -217q0 -61 -13 -119t-38 -108
t-67.5 -80.5t-96.5 -30.5q-38 0 -70.5 27.5t-35.5 77.5q-22 -52 -61.5 -78.5t-79.5 -26.5zM298 630q-44 46 -44 102q0 28 13 57h74q-10 -23 -10 -50q0 -26 8 -53.5t16 -41.5l8 -14h-65zM443 630l-84 159h78l72 -159h-66z" />
    <glyph glyph-name="uni1F64" unicode="&#x1f64;" horiz-adv-x="682" 
d="M180 -9q-62 0 -100 48t-38 128q0 240 162 379h83q-166 -134 -166 -365q0 -122 77 -122q37 0 65 40t35 109l17 152h74l-14 -148q-2 -28 -2 -48q0 -105 60 -105q37 0 64.5 28.5t41 72t19.5 82.5t6 71q0 139 -79 233h85q72 -105 72 -217q0 -61 -13 -119t-38 -108
t-67.5 -80.5t-96.5 -30.5q-38 0 -70.5 27.5t-35.5 77.5q-22 -52 -61.5 -78.5t-79.5 -26.5zM297 630q33 50 33 109q0 27 -10 50h74q13 -33 13 -57q0 -54 -44 -102h-66zM412 630l74 159h78l-86 -159h-66z" />
    <glyph glyph-name="uni1F65" unicode="&#x1f65;" horiz-adv-x="682" 
d="M180 -9q-62 0 -100 48t-38 128q0 240 162 379h83q-166 -134 -166 -365q0 -122 77 -122q37 0 65 40t35 109l17 152h74l-14 -148q-2 -28 -2 -48q0 -105 60 -105q37 0 64.5 28.5t41 72t19.5 82.5t6 71q0 139 -79 233h85q72 -105 72 -217q0 -61 -13 -119t-38 -108
t-67.5 -80.5t-96.5 -30.5q-38 0 -70.5 27.5t-35.5 77.5q-22 -52 -61.5 -78.5t-79.5 -26.5zM320 630q-44 46 -44 102q0 28 13 57h74q-10 -23 -10 -50q0 -26 8 -53.5t16 -41.5l8 -14h-65zM407 630l72 159h78l-84 -159h-66z" />
    <glyph glyph-name="uni1F66" unicode="&#x1f66;" horiz-adv-x="682" 
d="M180 -9q-62 0 -100 48t-38 128q0 240 162 379h83q-166 -134 -166 -365q0 -122 77 -122q37 0 65 40t35 109l17 152h74l-14 -148q-2 -28 -2 -48q0 -105 60 -105q37 0 64.5 28.5t41 72t19.5 82.5t6 71q0 139 -79 233h85q72 -105 72 -217q0 -61 -13 -119t-38 -108
t-67.5 -80.5t-96.5 -30.5q-38 0 -70.5 27.5t-35.5 77.5q-22 -52 -61.5 -78.5t-79.5 -26.5zM481 794q-24 0 -64 18.5t-60 18.5q-35 0 -71 -25l-29 47l5 5l8 6.5t10 7t12.5 7.5t14.5 7t17.5 6.5t19.5 4t22 1.5q27 0 65 -18t55 -18q30 0 72 27l28 -46q-12 -15 -39.5 -32
t-65.5 -17zM351 614q34 50 34 109q1 25 -8 50h74q12 -31 11 -57q0 -53 -45 -102h-66z" />
    <glyph glyph-name="uni1F67" unicode="&#x1f67;" horiz-adv-x="682" 
d="M180 -9q-62 0 -100 48t-38 128q0 240 162 379h83q-166 -134 -166 -365q0 -122 77 -122q37 0 65 40t35 109l17 152h74l-14 -148q-2 -28 -2 -48q0 -105 60 -105q37 0 64.5 28.5t41 72t19.5 82.5t6 71q0 139 -79 233h85q72 -105 72 -217q0 -61 -13 -119t-38 -108
t-67.5 -80.5t-96.5 -30.5q-38 0 -70.5 27.5t-35.5 77.5q-22 -52 -61.5 -78.5t-79.5 -26.5zM434 796q-24 0 -64 18.5t-60 18.5q-35 0 -71 -25l-28 48q1 0 5.5 4l7.5 6.5t9.5 7l12 8t14.5 7t17.5 6t19.5 4t23 1.5q26 0 64 -18t55 -18q30 0 72 27l28 -46q-12 -15 -39.5 -32
t-65.5 -17zM361 614q-43 47 -42 102q0 26 14 57h74q-10 -24 -12 -50q0 -26 7.5 -53.5t15.5 -41.5l8 -14h-65z" />
    <glyph glyph-name="uni1F68" unicode="&#x1f68;" horiz-adv-x="817" 
d="M-36 549q33 50 33 109q0 23 -10 50h73q13 -29 13 -57q0 -55 -43 -102h-66zM35 0l7 71h167q-59 31 -104 102t-45 165q0 168 108.5 274t278.5 106q148 0 226 -86t78 -223q0 -109 -59 -203.5t-153 -134.5h171l-6 -71h-271l6 69q228 122 228 334q0 112 -58 179.5t-173 67.5
q-138 0 -217 -90t-79 -223q0 -161 168 -268l-6 -69h-267z" />
    <glyph glyph-name="uni1F69" unicode="&#x1f69;" horiz-adv-x="817" 
d="M35 0l7 71h167q-59 31 -104 102t-45 165q0 168 108.5 274t278.5 106q148 0 226 -86t78 -223q0 -109 -59 -203.5t-153 -134.5h171l-6 -71h-271l6 69q228 122 228 334q0 112 -58 179.5t-173 67.5q-138 0 -217 -90t-79 -223q0 -161 168 -268l-6 -69h-267zM-24 549
q-44 46 -44 102q0 28 13 57h74q-11 -25 -11 -50q0 -26 8 -53.5t16 -41.5l9 -14h-65z" />
    <glyph glyph-name="uni1F6A" unicode="&#x1f6a;" horiz-adv-x="817" 
d="M35 0l7 71h167q-59 31 -104 102t-45 165q0 168 108.5 274t278.5 106q148 0 226 -86t78 -223q0 -109 -59 -203.5t-153 -134.5h171l-6 -71h-271l6 69q228 122 228 334q0 112 -58 179.5t-173 67.5q-138 0 -217 -90t-79 -223q0 -161 168 -268l-6 -69h-267zM-238 549
q33 50 33 109q0 27 -10 50h74q13 -29 13 -57q0 -54 -44 -102h-66zM-29 549l-84 159h78l72 -159h-66z" />
    <glyph glyph-name="uni1F6B" unicode="&#x1f6b;" horiz-adv-x="817" 
d="M35 0l7 71h167q-59 31 -104 102t-45 165q0 168 108.5 274t278.5 106q148 0 226 -86t78 -223q0 -109 -59 -203.5t-153 -134.5h171l-6 -71h-271l6 69q228 122 228 334q0 112 -58 179.5t-173 67.5q-138 0 -217 -90t-79 -223q0 -161 168 -268l-6 -69h-267zM-167 549
q-44 46 -44 102q0 28 13 57h74q-10 -23 -10 -50q0 -26 8 -53.5t16 -41.5l8 -14h-65zM-22 549l-84 159h78l72 -159h-66z" />
    <glyph glyph-name="uni1F6C" unicode="&#x1f6c;" horiz-adv-x="817" 
d="M35 0l7 71h167q-59 31 -104 102t-45 165q0 168 108.5 274t278.5 106q148 0 226 -86t78 -223q0 -109 -59 -203.5t-153 -134.5h171l-6 -71h-271l6 69q228 122 228 334q0 112 -58 179.5t-173 67.5q-138 0 -217 -90t-79 -223q0 -161 168 -268l-6 -69h-267zM-158 549
q33 50 33 109q0 27 -10 50h74q13 -32 13 -57q0 -54 -44 -102h-66zM-43 549l74 159h78l-86 -159h-66z" />
    <glyph glyph-name="uni1F6D" unicode="&#x1f6d;" horiz-adv-x="817" 
d="M35 0l7 71h167q-59 31 -104 102t-45 165q0 168 108.5 274t278.5 106q148 0 226 -86t78 -223q0 -109 -59 -203.5t-153 -134.5h171l-6 -71h-271l6 69q228 122 228 334q0 112 -58 179.5t-173 67.5q-138 0 -217 -90t-79 -223q0 -161 168 -268l-6 -69h-267zM-127 549
q-44 46 -44 102q0 28 13 57h74q-10 -23 -10 -50q0 -26 8 -53.5t16 -41.5l8 -14h-65zM-40 549l72 159h78l-84 -159h-66z" />
    <glyph glyph-name="uni1F6E" unicode="&#x1f6e;" horiz-adv-x="817" 
d="M35 0l7 71h167q-59 31 -104 102t-45 165q0 168 108.5 274t278.5 106q148 0 226 -86t78 -223q0 -109 -59 -203.5t-153 -134.5h171l-6 -71h-271l6 69q228 122 228 334q0 112 -58 179.5t-173 67.5q-138 0 -217 -90t-79 -223q0 -161 168 -268l-6 -69h-267zM14 602
q-24 0 -64 18.5t-60 18.5q-35 0 -71 -25l-29 47l5 5l8 6.5t10 7t12.5 7.5t14.5 7t17.5 6.5t19.5 4t22 1.5q27 0 65 -18t55 -18q30 0 72 27l28 -46q-12 -15 -39.5 -32t-65.5 -17zM-116 422q34 50 34 109q1 25 -8 50h74q12 -31 11 -57q0 -53 -45 -102h-66z" />
    <glyph glyph-name="uni1F6F" unicode="&#x1f6f;" horiz-adv-x="817" 
d="M35 0l7 71h167q-59 31 -104 102t-45 165q0 168 108.5 274t278.5 106q148 0 226 -86t78 -223q0 -109 -59 -203.5t-153 -134.5h171l-6 -71h-271l6 69q228 122 228 334q0 112 -58 179.5t-173 67.5q-138 0 -217 -90t-79 -223q0 -161 168 -268l-6 -69h-267zM-5 603
q-24 0 -64 18.5t-60 18.5q-35 0 -71 -25l-28 48q1 0 5.5 4l7.5 6.5t9.5 7l12 8t14.5 7t17.5 6t19.5 4t23 1.5q26 0 63.5 -18t55.5 -18q30 0 72 27l28 -46q-12 -15 -39.5 -32t-65.5 -17zM-78 421q-43 47 -42 102q0 26 14 57h74q-10 -24 -12 -50q0 -26 7.5 -53.5t15.5 -41.5
l8 -14h-65z" />
    <glyph glyph-name="uni1F70" unicode="&#x1f70;" 
d="M149 -13q-55 0 -82.5 44.5t-27.5 118.5q0 67 16 135.5t45.5 129t79 98.5t109.5 38q68 0 95 -73l8 68h72l-57 -546h-76l12 112q-38 -55 -90.5 -90t-103.5 -35zM168 59q41 0 92.5 36.5t89.5 94.5l24 211q-38 83 -90 83q-51 0 -91 -55t-58.5 -128t-18.5 -143q0 -44 13 -71.5
t39 -27.5zM292 630l-60 158h80l48 -158h-68z" />
    <glyph glyph-name="uni1F71" unicode="&#x1f71;" 
d="M285 632l65 158h84l-82 -158h-67zM149 -13q-55 0 -82.5 44.5t-27.5 118.5q0 67 16 135.5t45.5 129t79 98.5t109.5 38q68 0 95 -73l8 68h72l-57 -546h-76l12 112q-38 -55 -90.5 -90t-103.5 -35zM168 59q41 0 92.5 36.5t89.5 94.5l24 211q-38 83 -90 83q-51 0 -91 -55
t-58.5 -128t-18.5 -143q0 -44 13 -71.5t39 -27.5z" />
    <glyph glyph-name="uni1F72" unicode="&#x1f72;" horiz-adv-x="439" 
d="M215 -12q-87 0 -133.5 38.5t-46.5 103.5q0 56 30 100.5t88 66.5q-33 12 -54 40t-21 64q0 66 54 112t149 46q83 0 139 -36l-27 -53q-56 27 -115 27q-123 0 -123 -96q0 -40 28 -58.5t68 -18.5h65l-6 -62h-74q-50 0 -85.5 -31.5t-35.5 -85.5q0 -90 114 -90q63 0 156 39
l24 -59q-102 -47 -194 -47zM261 630l-60 158h80l48 -158h-68z" />
    <glyph glyph-name="uni1F73" unicode="&#x1f73;" horiz-adv-x="439" 
d="M241 622l65 158h84l-82 -158h-67zM215 -12q-87 0 -133.5 38.5t-46.5 103.5q0 56 30 100.5t88 66.5q-33 12 -54 40t-21 64q0 66 54 112t149 46q83 0 139 -36l-27 -53q-56 27 -115 27q-123 0 -123 -96q0 -40 28 -58.5t68 -18.5h65l-6 -62h-74q-50 0 -85.5 -31.5
t-35.5 -85.5q0 -90 114 -90q63 0 156 39l24 -59q-102 -47 -194 -47z" />
    <glyph glyph-name="uni1F74" unicode="&#x1f74;" horiz-adv-x="552" 
d="M333 -219l65 597q6 56 6 66q0 25 -10 35t-38 10q-15 0 -42.5 -14t-51.5 -30l-51.5 -35.5l-31.5 -22.5l-42 -387h-76l58 546h76l-9 -90q2 2 16 13l21 16.5l22.5 17t26 17.5l26 15t28.5 13.5t28.5 8t29.5 3.5q55 0 76 -21.5t21 -70.5q0 -16 -6 -74l-66 -613h-76zM257 630
l-60 158h80l48 -158h-68z" />
    <glyph glyph-name="uni1F75" unicode="&#x1f75;" horiz-adv-x="552" 
d="M285 622l65 158h84l-82 -158h-67zM333 -219l65 597q6 56 6 66q0 25 -10 35t-38 10q-15 0 -42.5 -14t-51.5 -30l-51.5 -35.5l-31.5 -22.5l-42 -387h-76l58 546h76l-9 -90q2 2 16 13l21 16.5l22.5 17t26 17.5l26 15t28.5 13.5t28.5 8t29.5 3.5q55 0 76 -21.5t21 -70.5
q0 -16 -6 -74l-66 -613h-76z" />
    <glyph glyph-name="uni1F76" unicode="&#x1f76;" horiz-adv-x="267" 
d="M62 0l57 546h76l-57 -546h-76zM112 630l-60 158h80l48 -158h-68z" />
    <glyph glyph-name="uni1F77" unicode="&#x1f77;" horiz-adv-x="267" 
d="M126 622l65 158h84l-82 -158h-67zM62 0l57 546h76l-57 -546h-76z" />
    <glyph glyph-name="uni1F78" unicode="&#x1f78;" horiz-adv-x="511" 
d="M202 -12q-74 0 -117 55t-43 137q0 173 74.5 276.5t196.5 103.5q75 0 116.5 -55.5t41.5 -131.5q0 -54 -8.5 -106.5t-29 -103.5t-50.5 -89.5t-77 -62t-104 -23.5zM220 54q71 0 122 86.5t51 217.5q0 72 -24 105t-79 33q-69 0 -119 -88t-50 -213q0 -141 99 -141zM284 630
l-60 158h80l48 -158h-68z" />
    <glyph glyph-name="uni1F79" unicode="&#x1f79;" horiz-adv-x="511" 
d="M239 627l65 158h84l-82 -158h-67zM202 -12q-74 0 -117 55t-43 137q0 173 74.5 276.5t196.5 103.5q75 0 116.5 -55.5t41.5 -131.5q0 -54 -8.5 -106.5t-29 -103.5t-50.5 -89.5t-77 -62t-104 -23.5zM220 54q71 0 122 86.5t51 217.5q0 72 -24 105t-79 33q-69 0 -119 -88
t-50 -213q0 -141 99 -141z" />
    <glyph glyph-name="uni1F7A" unicode="&#x1f7a;" horiz-adv-x="504" 
d="M230 -11q-164 0 -164 160q0 17 3 38l37 359h75l-38 -352q-2 -26 -2 -34q0 -105 96 -105q62 0 105 70t43 198q0 99 -44 223h75q44 -108 44 -225q0 -151 -66.5 -241.5t-163.5 -90.5zM252 630l-60 158h80l48 -158h-68z" />
    <glyph glyph-name="uni1F7B" unicode="&#x1f7b;" horiz-adv-x="504" 
d="M248 632l65 158h84l-82 -158h-67zM230 -11q-164 0 -164 160q0 17 3 38l37 359h75l-38 -352q-2 -26 -2 -34q0 -105 96 -105q62 0 105 70t43 198q0 99 -44 223h75q44 -108 44 -225q0 -151 -66.5 -241.5t-163.5 -90.5z" />
    <glyph glyph-name="uni1F7C" unicode="&#x1f7c;" horiz-adv-x="682" 
d="M180 -9q-62 0 -100 48t-38 128q0 240 162 379h83q-166 -134 -166 -365q0 -122 77 -122q37 0 65 40t35 109l17 152h74l-14 -148q-2 -28 -2 -48q0 -105 60 -105q37 0 64.5 28.5t41 72t19.5 82.5t6 71q0 139 -79 233h85q72 -105 72 -217q0 -61 -13 -119t-38 -108
t-67.5 -80.5t-96.5 -30.5q-38 0 -70.5 27.5t-35.5 77.5q-22 -52 -61.5 -78.5t-79.5 -26.5zM353 628l-60 158h80l48 -158h-68z" />
    <glyph glyph-name="uni1F7D" unicode="&#x1f7d;" horiz-adv-x="682" 
d="M344 632l65 158h84l-82 -158h-67zM180 -9q-62 0 -100 48t-38 128q0 240 162 379h83q-166 -134 -166 -365q0 -122 77 -122q37 0 65 40t35 109l17 152h74l-14 -148q-2 -28 -2 -48q0 -105 60 -105q37 0 64.5 28.5t41 72t19.5 82.5t6 71q0 139 -79 233h85q72 -105 72 -217
q0 -61 -13 -119t-38 -108t-67.5 -80.5t-96.5 -30.5q-38 0 -70.5 27.5t-35.5 77.5q-22 -52 -61.5 -78.5t-79.5 -26.5z" />
    <glyph glyph-name="uni1F80" unicode="&#x1f80;" 
d="M272 630q33 50 33 109q0 23 -10 50h73q13 -29 13 -57q0 -55 -43 -102h-66zM149 -13q-55 0 -82.5 44.5t-27.5 118.5q0 67 16 135.5t45.5 129t79 98.5t109.5 38q68 0 95 -73l8 68h72l-57 -546h-76l12 112q-38 -55 -90.5 -90t-103.5 -35zM168 59q41 0 92.5 36.5t89.5 94.5
l24 211q-38 83 -90 83q-51 0 -91 -55t-58.5 -128t-18.5 -143q0 -44 13 -71.5t39 -27.5zM226 -243q-59 0 -59 66q0 27 15 99h61q-12 -80 -12 -85q0 -29 26 -29q3 -1 9 -1l-3 -45q-23 -5 -37 -5z" />
    <glyph glyph-name="uni1F81" unicode="&#x1f81;" 
d="M149 -13q-55 0 -82.5 44.5t-27.5 118.5q0 67 16 135.5t45.5 129t79 98.5t109.5 38q68 0 95 -73l8 68h72l-57 -546h-76l12 112q-38 -55 -90.5 -90t-103.5 -35zM168 59q41 0 92.5 36.5t89.5 94.5l24 211q-38 83 -90 83q-51 0 -91 -55t-58.5 -128t-18.5 -143q0 -44 13 -71.5
t39 -27.5zM225 -243q-59 0 -59 66q0 27 15 99h61q-12 -80 -12 -85q0 -29 26 -29q3 -1 9 -1l-3 -45q-23 -5 -37 -5zM302 630q-44 46 -44 102q0 28 13 57h74q-11 -25 -11 -50q0 -26 8 -53.5t16 -41.5l9 -14h-65z" />
    <glyph glyph-name="uni1F82" unicode="&#x1f82;" 
d="M149 -13q-55 0 -82.5 44.5t-27.5 118.5q0 67 16 135.5t45.5 129t79 98.5t109.5 38q68 0 95 -73l8 68h72l-57 -546h-76l12 112q-38 -55 -90.5 -90t-103.5 -35zM168 59q41 0 92.5 36.5t89.5 94.5l24 211q-38 83 -90 83q-51 0 -91 -55t-58.5 -128t-18.5 -143q0 -44 13 -71.5
t39 -27.5zM224 -243q-59 0 -59 66q0 27 15 99h61q-12 -80 -12 -85q0 -29 26 -29q3 -1 9 -1l-3 -45q-23 -5 -37 -5zM197 630q33 50 33 109q0 27 -10 50h74q13 -29 13 -57q0 -54 -44 -102h-66zM406 630l-84 159h78l72 -159h-66z" />
    <glyph glyph-name="uni1F83" unicode="&#x1f83;" 
d="M149 -13q-55 0 -82.5 44.5t-27.5 118.5q0 67 16 135.5t45.5 129t79 98.5t109.5 38q68 0 95 -73l8 68h72l-57 -546h-76l12 112q-38 -55 -90.5 -90t-103.5 -35zM168 59q41 0 92.5 36.5t89.5 94.5l24 211q-38 83 -90 83q-51 0 -91 -55t-58.5 -128t-18.5 -143q0 -44 13 -71.5
t39 -27.5zM229 -243q-59 0 -59 66q0 27 15 99h61q-12 -80 -12 -85q0 -29 26 -29q3 -1 9 -1l-3 -45q-23 -5 -37 -5zM241 630q-44 46 -44 102q0 28 13 57h74q-10 -23 -10 -50q0 -26 8 -53.5t16 -41.5l8 -14h-65zM386 630l-84 159h78l72 -159h-66z" />
    </font>
</defs>
</svg>
